<svg version="1.1" viewBox="0.0 0.0 600.0 371.0" fill="none" stroke="none" stroke-linecap="square" stroke-miterlimit="10" width="600" height="371" xmlns:xlink="http://www.w3.org/1999/xlink" xmlns="http://www.w3.org/2000/svg"><path fill="#ffffff" d="M0 0L600.0 0L600.0 371.0L0 371.0L0 0Z" fill-rule="nonzero"/><path fill="#4285f4" d="M300.0 54.916668C344.67337 54.916668 386.98193 74.992325 415.2354 109.59654C443.48886 144.20076 454.696 189.66994 445.7602 233.44049L300.0 203.68333Z" fill-rule="nonzero"/><path fill="#34a853" d="M252.89037 62.572727C268.0792 57.50195 283.9871 54.916668 300.0 54.916668L300.0 203.68333Z" fill-rule="nonzero"/><path fill="#fbbc04" d="M220.4893 77.94722C230.63014 71.53454 241.50954 66.37221 252.89037 62.572727L300.0 203.68333Z" fill-rule="nonzero"/><path fill="#ea4335" d="M445.7602 233.44049C432.21762 299.77634 375.59177 348.6014 307.9853 352.23553C240.37881 355.86966 178.84528 313.39612 158.26965 248.89429C137.69403 184.39246 163.26648 114.132744 220.4893 77.94722L300.0 203.68333Z" fill-rule="nonzero"/><path fill="#1a1a1a" d="M22.425 65.916664L22.425 63.854164L18.70625 63.854164L18.70625 62.885414L22.628124 57.322914L23.4875 57.322914L23.4875 62.885414L24.64375 62.885414L24.64375 63.854164L23.4875 63.854164L23.4875 65.916664L22.425 65.916664ZM22.425 62.885414L22.425 59.02604L19.7375 62.885414L22.425 62.885414ZM31.51875 59.43229L30.471874 59.510414Q30.33125 58.885414 30.08125 58.604164Q29.64375 58.15104 29.01875 58.15104Q28.51875 58.15104 28.128124 58.43229Q27.64375 58.80729 27.346874 59.510414Q27.065624 60.197914 27.05 61.479164Q27.425 60.90104 27.971874 60.61979Q28.534374 60.33854 29.14375 60.33854Q30.190624 60.33854 30.925 61.11979Q31.675 61.90104 31.675 63.11979Q31.675 63.93229 31.315624 64.635414Q30.971874 65.322914 30.3625 65.697914Q29.753124 66.05729 28.9875 66.05729Q27.659374 66.05729 26.83125 65.08854Q26.003124 64.11979 26.003124 61.90104Q26.003124 59.40104 26.925 58.27604Q27.721874 57.291664 29.08125 57.291664Q30.096874 57.291664 30.7375 57.86979Q31.39375 58.43229 31.51875 59.43229ZM27.221874 63.135414Q27.221874 63.68229 27.440624 64.18229Q27.675 64.666664 28.08125 64.93229Q28.503124 65.197914 28.971874 65.197914Q29.628124 65.197914 30.1125 64.666664Q30.596874 64.11979 30.596874 63.197914Q30.596874 62.30729 30.1125 61.791664Q29.64375 61.27604 28.925 61.27604Q28.20625 61.27604 27.70625 61.791664Q27.221874 62.30729 27.221874 63.135414ZM32.925 63.33854L32.925 62.27604L36.175 62.27604L36.175 63.33854L32.925 63.33854ZM37.05 63.666664L38.159374 63.572914Q38.284374 64.385414 38.721874 64.791664Q39.175 65.197914 39.815624 65.197914Q40.565624 65.197914 41.096874 64.61979Q41.628124 64.041664 41.628124 63.104164Q41.628124 62.197914 41.1125 61.68229Q40.6125 61.15104 39.784374 61.15104Q39.284374 61.15104 38.8625 61.385414Q38.45625 61.61979 38.221874 61.979164L37.2375 61.854164L38.065624 57.447914L42.346874 57.447914L42.346874 58.447914L38.909374 58.447914L38.45625 60.760414Q39.221874 60.21354 40.065624 60.21354Q41.190624 60.21354 41.95625 60.99479Q42.7375 61.77604 42.7375 63.010414Q42.7375 64.166664 42.065624 65.02604Q41.2375 66.05729 39.815624 66.05729Q38.64375 66.05729 37.89375 65.40104Q37.159374 64.74479 37.05 63.666664ZM44.20625 63.93229L45.221874 63.83854Q45.346874 64.55729 45.70625 64.885414Q46.08125 65.197914 46.64375 65.197914Q47.128124 65.197914 47.4875 64.979164Q47.8625 64.74479 48.096874 64.385414Q48.33125 64.010414 48.4875 63.385414Q48.64375 62.74479 48.64375 62.08854Q48.64375 62.010414 48.64375 61.86979Q48.33125 62.36979 47.784374 62.697914Q47.2375 63.010414 46.596874 63.010414Q45.51875 63.010414 44.784374 62.24479Q44.05 61.46354 44.05 60.197914Q44.05 58.885414 44.815624 58.08854Q45.596874 57.291664 46.753124 57.291664Q47.58125 57.291664 48.26875 57.74479Q48.971874 58.197914 49.33125 59.041664Q49.690624 59.86979 49.690624 61.447914Q49.690624 63.08854 49.33125 64.072914Q48.9875 65.041664 48.26875 65.55729Q47.565624 66.05729 46.628124 66.05729Q45.6125 66.05729 44.971874 65.510414Q44.33125 64.947914 44.20625 63.93229ZM48.51875 60.135414Q48.51875 59.229164 48.034374 58.697914Q47.565624 58.166664 46.878124 58.166664Q46.175 58.166664 45.64375 58.74479Q45.128124 59.30729 45.128124 60.229164Q45.128124 61.041664 45.628124 61.55729Q46.128124 62.072914 46.846874 62.072914Q47.58125 62.072914 48.05 61.55729Q48.51875 61.041664 48.51875 60.135414Z" fill-rule="nonzero"/><path fill="#9e9e9e" d="M19.05 80.666664L20.159374 80.572914Q20.284374 81.385414 20.721874 81.791664Q21.175 82.197914 21.815624 82.197914Q22.565624 82.197914 23.096874 81.61979Q23.628124 81.041664 23.628124 80.104164Q23.628124 79.197914 23.1125 78.68229Q22.6125 78.15104 21.784374 78.15104Q21.284374 78.15104 20.8625 78.385414Q20.45625 78.61979 20.221874 78.979164L19.2375 78.854164L20.065624 74.447914L24.346874 74.447914L24.346874 75.447914L20.909374 75.447914L20.45625 77.760414Q21.221874 77.21354 22.065624 77.21354Q23.190624 77.21354 23.95625 77.99479Q24.7375 78.77604 24.7375 80.010414Q24.7375 81.166664 24.065624 82.02604Q23.2375 83.05729 21.815624 83.05729Q20.64375 83.05729 19.89375 82.40104Q19.159374 81.74479 19.05 80.666664ZM26.6125 82.916664L26.6125 81.71354L27.815624 81.71354L27.815624 82.916664Q27.815624 83.572914 27.58125 83.979164Q27.346874 84.40104 26.846874 84.61979L26.55 84.166664Q26.878124 84.02604 27.034374 83.729164Q27.190624 83.447914 27.221874 82.916664L26.6125 82.916664ZM33.01875 82.916664L31.971874 82.916664L31.971874 76.197914Q31.58125 76.55729 30.95625 76.93229Q30.346874 77.291664 29.8625 77.46354L29.8625 76.447914Q30.7375 76.02604 31.39375 75.447914Q32.065624 74.854164 32.346874 74.291664L33.01875 74.291664L33.01875 82.916664ZM36.253124 76.385414Q36.253124 75.46354 36.70625 74.822914Q37.175 74.18229 38.05 74.18229Q38.8625 74.18229 39.39375 74.760414Q39.925 75.33854 39.925 76.447914Q39.925 77.541664 39.378124 78.135414Q38.846874 78.71354 38.065624 78.71354Q37.284374 78.71354 36.76875 78.135414Q36.253124 77.55729 36.253124 76.385414ZM38.08125 74.90104Q37.690624 74.90104 37.425 75.24479Q37.175 75.58854 37.175 76.49479Q37.175 77.322914 37.425 77.666664Q37.690624 77.99479 38.08125 77.99479Q38.4875 77.99479 38.7375 77.65104Q39.003124 77.30729 39.003124 76.416664Q39.003124 75.572914 38.7375 75.24479Q38.471874 74.90104 38.08125 74.90104ZM38.08125 83.229164L42.784374 74.18229L43.64375 74.18229L38.95625 83.229164L38.08125 83.229164ZM41.8 80.90104Q41.8 79.979164 42.253124 79.33854Q42.721874 78.697914 43.6125 78.697914Q44.425 78.697914 44.95625 79.27604Q45.4875 79.83854 45.4875 80.96354Q45.4875 82.05729 44.940624 82.65104Q44.409374 83.229164 43.6125 83.229164Q42.846874 83.229164 42.315624 82.65104Q41.8 82.072914 41.8 80.90104ZM43.64375 79.416664Q43.2375 79.416664 42.971874 79.760414Q42.721874 80.104164 42.721874 81.010414Q42.721874 81.822914 42.9875 82.166664Q43.253124 82.510414 43.64375 82.510414Q44.034374 82.510414 44.3 82.166664Q44.565624 81.822914 44.565624 80.916664Q44.565624 80.08854 44.3 79.760414Q44.034374 79.416664 43.64375 79.416664Z" fill-rule="nonzero"/><path stroke="#757575" stroke-width="1.0" stroke-linecap="butt" d="M18.55 70.416664L145.23334 70.416664L277.32935 64.185165" fill-rule="nonzero"/><path fill="#9e9e9e" d="M279.32935 64.185165C279.32935 63.080597 278.4339 62.185165 277.32935 62.185165C276.22476 62.185165 275.32935 63.080597 275.32935 64.185165C275.32935 65.289734 276.22476 66.185165 277.32935 66.185165C278.4339 66.185165 279.32935 65.289734 279.32935 64.185165" fill-rule="nonzero"/><path fill="#1a1a1a" d="M24.51875 90.43229L23.471874 90.510414Q23.33125 89.885414 23.08125 89.604164Q22.64375 89.15104 22.01875 89.15104Q21.51875 89.15104 21.128124 89.43229Q20.64375 89.80729 20.346874 90.510414Q20.065624 91.197914 20.05 92.479164Q20.425 91.90104 20.971874 91.61979Q21.534374 91.33854 22.14375 91.33854Q23.190624 91.33854 23.925 92.11979Q24.675 92.90104 24.675 94.11979Q24.675 94.93229 24.315624 95.635414Q23.971874 96.322914 23.3625 96.697914Q22.753124 97.05729 21.9875 97.05729Q20.659374 97.05729 19.83125 96.08854Q19.003124 95.11979 19.003124 92.90104Q19.003124 90.40104 19.925 89.27604Q20.721874 88.291664 22.08125 88.291664Q23.096874 88.291664 23.7375 88.86979Q24.39375 89.43229 24.51875 90.43229ZM20.221874 94.135414Q20.221874 94.68229 20.440624 95.18229Q20.675 95.666664 21.08125 95.93229Q21.503124 96.197914 21.971874 96.197914Q22.628124 96.197914 23.1125 95.666664Q23.596874 95.11979 23.596874 94.197914Q23.596874 93.30729 23.1125 92.791664Q22.64375 92.27604 21.925 92.27604Q21.20625 92.27604 20.70625 92.791664Q20.221874 93.30729 20.221874 94.135414ZM26.05 92.68229Q26.05 91.15104 26.3625 90.229164Q26.675 89.291664 27.284374 88.791664Q27.909374 88.291664 28.846874 88.291664Q29.534374 88.291664 30.05 88.572914Q30.58125 88.854164 30.925 89.385414Q31.26875 89.90104 31.45625 90.65104Q31.64375 91.40104 31.64375 92.68229Q31.64375 94.197914 31.33125 95.11979Q31.034374 96.041664 30.409374 96.55729Q29.8 97.05729 28.846874 97.05729Q27.6125 97.05729 26.89375 96.166664Q26.05 95.104164 26.05 92.68229ZM27.128124 92.68229Q27.128124 94.791664 27.628124 95.49479Q28.128124 96.197914 28.846874 96.197914Q29.58125 96.197914 30.065624 95.49479Q30.565624 94.791664 30.565624 92.68229Q30.565624 90.55729 30.065624 89.86979Q29.58125 89.166664 28.83125 89.166664Q28.1125 89.166664 27.675 89.77604Q27.128124 90.55729 27.128124 92.68229ZM35.95625 93.80729Q35.95625 92.072914 36.909374 91.24479Q37.70625 90.55729 38.8625 90.55729Q40.14375 90.55729 40.95625 91.40104Q41.784374 92.229164 41.784374 93.71354Q41.784374 94.916664 41.425 95.604164Q41.065624 96.291664 40.3625 96.68229Q39.675 97.05729 38.8625 97.05729Q37.565624 97.05729 36.753124 96.229164Q35.95625 95.385414 35.95625 93.80729ZM37.034374 93.80729Q37.034374 94.99479 37.55 95.58854Q38.08125 96.18229 38.8625 96.18229Q39.659374 96.18229 40.175 95.58854Q40.690624 94.99479 40.690624 93.77604Q40.690624 92.61979 40.159374 92.02604Q39.64375 91.43229 38.8625 91.43229Q38.08125 91.43229 37.55 92.02604Q37.034374 92.604164 37.034374 93.80729ZM46.346874 99.30729L46.346874 90.697914L47.3 90.697914L47.3 91.49479Q47.64375 91.02604 48.065624 90.791664Q48.503124 90.55729 49.1125 90.55729Q49.909374 90.55729 50.51875 90.96354Q51.128124 91.36979 51.425 92.11979Q51.7375 92.86979 51.7375 93.760414Q51.7375 94.71354 51.39375 95.479164Q51.065624 96.24479 50.409374 96.65104Q49.753124 97.05729 49.034374 97.05729Q48.503124 97.05729 48.08125 96.83854Q47.659374 96.604164 47.39375 96.27604L47.39375 99.30729L46.346874 99.30729ZM47.3 93.83854Q47.3 95.041664 47.784374 95.61979Q48.26875 96.18229 48.95625 96.18229Q49.659374 96.18229 50.159374 95.58854Q50.659374 94.99479 50.659374 93.74479Q50.659374 92.55729 50.175 91.979164Q49.690624 91.385414 49.003124 91.385414Q48.33125 91.385414 47.815624 92.010414Q47.3 92.635414 47.3 93.83854ZM53.346874 89.541664L53.346874 88.322914L54.409374 88.322914L54.409374 89.541664L53.346874 89.541664ZM53.346874 96.916664L53.346874 90.697914L54.409374 90.697914L54.409374 96.916664L53.346874 96.916664ZM60.425 96.916664L60.425 95.99479Q59.690624 97.05729 58.440624 97.05729Q57.89375 97.05729 57.409374 96.854164Q56.940624 96.635414 56.70625 96.322914Q56.471874 95.99479 56.378124 95.52604Q56.315624 95.229164 56.315624 94.541664L56.315624 90.697914L57.378124 90.697914L57.378124 94.15104Q57.378124 94.96354 57.440624 95.260414Q57.534374 95.666664 57.846874 95.916664Q58.175 96.15104 58.659374 96.15104Q59.128124 96.15104 59.534374 95.916664Q59.95625 95.666664 60.128124 95.24479Q60.315624 94.822914 60.315624 94.02604L60.315624 90.697914L61.3625 90.697914L61.3625 96.916664L60.425 96.916664ZM59.815624 89.916664L58.971874 89.916664L57.6125 88.27604L59.034374 88.27604L59.815624 89.916664Z" fill-rule="nonzero"/><path fill="#9e9e9e" d="M19.05 111.65104L20.1125 111.510414Q20.284374 112.40104 20.721874 112.80729Q21.159374 113.197914 21.784374 113.197914Q22.534374 113.197914 23.05 112.68229Q23.565624 112.166664 23.565624 111.40104Q23.565624 110.68229 23.08125 110.21354Q22.6125 109.729164 21.878124 109.729164Q21.58125 109.729164 21.128124 109.854164L21.253124 108.916664Q21.3625 108.93229 21.425 108.93229Q22.096874 108.93229 22.628124 108.58854Q23.175 108.229164 23.175 107.49479Q23.175 106.916664 22.784374 106.541664Q22.39375 106.15104 21.76875 106.15104Q21.159374 106.15104 20.7375 106.541664Q20.33125 106.93229 20.221874 107.697914L19.159374 107.510414Q19.346874 106.46354 20.034374 105.885414Q20.721874 105.291664 21.7375 105.291664Q22.440624 105.291664 23.034374 105.604164Q23.628124 105.90104 23.940624 106.416664Q24.253124 106.93229 24.253124 107.52604Q24.253124 108.072914 23.95625 108.541664Q23.659374 108.99479 23.08125 109.260414Q23.83125 109.43229 24.253124 109.99479Q24.675 110.541664 24.675 111.385414Q24.675 112.510414 23.846874 113.291664Q23.034374 114.072914 21.784374 114.072914Q20.659374 114.072914 19.909374 113.40104Q19.159374 112.71354 19.05 111.65104ZM26.6125 113.916664L26.6125 112.71354L27.815624 112.71354L27.815624 113.916664Q27.815624 114.572914 27.58125 114.979164Q27.346874 115.40104 26.846874 115.61979L26.55 115.166664Q26.878124 115.02604 27.034374 114.729164Q27.190624 114.447914 27.221874 113.916664L26.6125 113.916664ZM30.675 109.260414Q30.01875 109.010414 29.690624 108.572914Q29.378124 108.11979 29.378124 107.510414Q29.378124 106.572914 30.05 105.93229Q30.7375 105.291664 31.846874 105.291664Q32.971874 105.291664 33.659374 105.947914Q34.346874 106.604164 34.346874 107.541664Q34.346874 108.135414 34.034374 108.572914Q33.721874 109.010414 33.08125 109.260414Q33.878124 109.510414 34.284374 110.08854Q34.690624 110.666664 34.690624 111.46354Q34.690624 112.55729 33.909374 113.30729Q33.14375 114.05729 31.8625 114.05729Q30.596874 114.05729 29.815624 113.30729Q29.034374 112.55729 29.034374 111.43229Q29.034374 110.58854 29.45625 110.02604Q29.89375 109.46354 30.675 109.260414ZM30.45625 107.46354Q30.45625 108.072914 30.846874 108.46354Q31.253124 108.854164 31.878124 108.854164Q32.4875 108.854164 32.878124 108.479164Q33.26875 108.08854 33.26875 107.52604Q33.26875 106.947914 32.8625 106.55729Q32.45625 106.15104 31.8625 106.15104Q31.253124 106.15104 30.846874 106.541664Q30.45625 106.93229 30.45625 107.46354ZM30.128124 111.43229Q30.128124 111.885414 30.33125 112.30729Q30.55 112.729164 30.971874 112.96354Q31.39375 113.197914 31.878124 113.197914Q32.628124 113.197914 33.1125 112.71354Q33.6125 112.229164 33.6125 111.479164Q33.6125 110.71354 33.1125 110.21354Q32.6125 109.71354 31.846874 109.71354Q31.096874 109.71354 30.6125 110.21354Q30.128124 110.697914 30.128124 111.43229ZM36.253124 107.385414Q36.253124 106.46354 36.70625 105.822914Q37.175 105.18229 38.05 105.18229Q38.8625 105.18229 39.39375 105.760414Q39.925 106.33854 39.925 107.447914Q39.925 108.541664 39.378124 109.135414Q38.846874 109.71354 38.065624 109.71354Q37.284374 109.71354 36.76875 109.135414Q36.253124 108.55729 36.253124 107.385414ZM38.08125 105.90104Q37.690624 105.90104 37.425 106.24479Q37.175 106.58854 37.175 107.49479Q37.175 108.322914 37.425 108.666664Q37.690624 108.99479 38.08125 108.99479Q38.4875 108.99479 38.7375 108.65104Q39.003124 108.30729 39.003124 107.416664Q39.003124 106.572914 38.7375 106.24479Q38.471874 105.90104 38.08125 105.90104ZM38.08125 114.229164L42.784374 105.18229L43.64375 105.18229L38.95625 114.229164L38.08125 114.229164ZM41.8 111.90104Q41.8 110.979164 42.253124 110.33854Q42.721874 109.697914 43.6125 109.697914Q44.425 109.697914 44.95625 110.27604Q45.4875 110.83854 45.4875 111.96354Q45.4875 113.05729 44.940624 113.65104Q44.409374 114.229164 43.6125 114.229164Q42.846874 114.229164 42.315624 113.65104Q41.8 113.072914 41.8 111.90104ZM43.64375 110.416664Q43.2375 110.416664 42.971874 110.760414Q42.721874 111.104164 42.721874 112.010414Q42.721874 112.822914 42.9875 113.166664Q43.253124 113.510414 43.64375 113.510414Q44.034374 113.510414 44.3 113.166664Q44.565624 112.822914 44.565624 111.916664Q44.565624 111.08854 44.3 110.760414Q44.034374 110.416664 43.64375 110.416664Z" fill-rule="nonzero"/><path stroke="#757575" stroke-width="1.0" stroke-linecap="butt" d="M18.55 101.416664L145.23334 101.416664L239.41359 76.00019" fill-rule="nonzero"/><path fill="#9e9e9e" d="M241.41359 76.00019C241.41359 74.89562 240.51816 74.00019 239.41359 74.00019C238.30902 74.00019 237.41359 74.89562 237.41359 76.00019C237.41359 77.10476 238.30902 78.00019 239.41359 78.00019C240.51816 78.00019 241.41359 77.10476 241.41359 76.00019" fill-rule="nonzero"/><path fill="#1a1a1a" d="M23.01875 315.49426L21.971874 315.49426L21.971874 308.7755Q21.58125 309.1349 20.95625 309.5099Q20.346874 309.86926 19.8625 310.04114L19.8625 309.0255Q20.7375 308.60364 21.39375 308.0255Q22.065624 307.43176 22.346874 306.86926L23.01875 306.86926L23.01875 315.49426ZM27.675 310.838Q27.01875 310.588 26.690624 310.1505Q26.378124 309.6974 26.378124 309.088Q26.378124 308.1505 27.05 307.5099Q27.7375 306.86926 28.846874 306.86926Q29.971874 306.86926 30.659374 307.5255Q31.346874 308.18176 31.346874 309.11926Q31.346874 309.713 31.034374 310.1505Q30.721874 310.588 30.08125 310.838Q30.878124 311.088 31.284374 311.66614Q31.690624 312.24426 31.690624 313.04114Q31.690624 314.1349 30.909374 314.8849Q30.14375 315.6349 28.8625 315.6349Q27.596874 315.6349 26.815624 314.8849Q26.034374 314.1349 26.034374 313.0099Q26.034374 312.16614 26.45625 311.60364Q26.89375 311.04114 27.675 310.838ZM27.45625 309.04114Q27.45625 309.6505 27.846874 310.04114Q28.253124 310.43176 28.878124 310.43176Q29.4875 310.43176 29.878124 310.05676Q30.26875 309.66614 30.26875 309.10364Q30.26875 308.5255 29.8625 308.1349Q29.45625 307.72864 28.8625 307.72864Q28.253124 307.72864 27.846874 308.11926Q27.45625 308.5099 27.45625 309.04114ZM27.128124 313.0099Q27.128124 313.463 27.33125 313.8849Q27.55 314.30676 27.971874 314.54114Q28.39375 314.7755 28.878124 314.7755Q29.628124 314.7755 30.1125 314.29114Q30.6125 313.80676 30.6125 313.05676Q30.6125 312.29114 30.1125 311.79114Q29.6125 311.29114 28.846874 311.29114Q28.096874 311.29114 27.6125 311.79114Q27.128124 312.2755 27.128124 313.0099ZM32.925 312.91614L32.925 311.85364L36.175 311.85364L36.175 312.91614L32.925 312.91614ZM42.596874 314.47864L42.596874 315.49426L36.909374 315.49426Q36.909374 315.11926 37.034374 314.7599Q37.253124 314.18176 37.721874 313.61926Q38.20625 313.05676 39.1125 312.3224Q40.51875 311.16614 41.003124 310.49426Q41.503124 309.8224 41.503124 309.22864Q41.503124 308.60364 41.05 308.18176Q40.596874 307.74426 39.878124 307.74426Q39.1125 307.74426 38.659374 308.1974Q38.20625 308.6505 38.190624 309.463L37.1125 309.35364Q37.221874 308.1349 37.940624 307.5099Q38.675 306.86926 39.909374 306.86926Q41.14375 306.86926 41.8625 307.55676Q42.58125 308.24426 42.58125 309.2599Q42.58125 309.7755 42.3625 310.2755Q42.159374 310.7599 41.659374 311.3224Q41.175 311.86926 40.05 312.8224Q39.096874 313.61926 38.815624 313.91614Q38.55 314.1974 38.378124 314.47864L42.596874 314.47864ZM44.05 313.24426L45.159374 313.1505Q45.284374 313.963 45.721874 314.36926Q46.175 314.7755 46.815624 314.7755Q47.565624 314.7755 48.096874 314.1974Q48.628124 313.61926 48.628124 312.68176Q48.628124 311.7755 48.1125 311.2599Q47.6125 310.72864 46.784374 310.72864Q46.284374 310.72864 45.8625 310.963Q45.45625 311.1974 45.221874 311.55676L44.2375 311.43176L45.065624 307.0255L49.346874 307.0255L49.346874 308.0255L45.909374 308.0255L45.45625 310.338Q46.221874 309.79114 47.065624 309.79114Q48.190624 309.79114 48.95625 310.5724Q49.7375 311.35364 49.7375 312.588Q49.7375 313.74426 49.065624 314.60364Q48.2375 315.6349 46.815624 315.6349Q45.64375 315.6349 44.89375 314.97864Q44.159374 314.3224 44.05 313.24426Z" fill-rule="nonzero"/><path fill="#9e9e9e" d="M24.51875 326.0099L23.471874 326.088Q23.33125 325.463 23.08125 325.18176Q22.64375 324.72864 22.01875 324.72864Q21.51875 324.72864 21.128124 325.0099Q20.64375 325.3849 20.346874 326.088Q20.065624 326.7755 20.05 328.05676Q20.425 327.47864 20.971874 327.1974Q21.534374 326.91614 22.14375 326.91614Q23.190624 326.91614 23.925 327.6974Q24.675 328.47864 24.675 329.6974Q24.675 330.5099 24.315624 331.213Q23.971874 331.9005 23.3625 332.2755Q22.753124 332.6349 21.9875 332.6349Q20.659374 332.6349 19.83125 331.66614Q19.003124 330.6974 19.003124 328.47864Q19.003124 325.97864 19.925 324.85364Q20.721874 323.86926 22.08125 323.86926Q23.096874 323.86926 23.7375 324.4474Q24.39375 325.0099 24.51875 326.0099ZM20.221874 329.713Q20.221874 330.2599 20.440624 330.7599Q20.675 331.24426 21.08125 331.5099Q21.503124 331.7755 21.971874 331.7755Q22.628124 331.7755 23.1125 331.24426Q23.596874 330.6974 23.596874 329.7755Q23.596874 328.8849 23.1125 328.36926Q22.64375 327.85364 21.925 327.85364Q21.20625 327.85364 20.70625 328.36926Q20.221874 328.8849 20.221874 329.713ZM31.596874 331.47864L31.596874 332.49426L25.909374 332.49426Q25.909374 332.11926 26.034374 331.7599Q26.253124 331.18176 26.721874 330.61926Q27.20625 330.05676 28.1125 329.3224Q29.51875 328.16614 30.003124 327.49426Q30.503124 326.8224 30.503124 326.22864Q30.503124 325.60364 30.05 325.18176Q29.596874 324.74426 28.878124 324.74426Q28.1125 324.74426 27.659374 325.1974Q27.20625 325.6505 27.190624 326.463L26.1125 326.35364Q26.221874 325.1349 26.940624 324.5099Q27.675 323.86926 28.909374 323.86926Q30.14375 323.86926 30.8625 324.55676Q31.58125 325.24426 31.58125 326.2599Q31.58125 326.7755 31.3625 327.2755Q31.159374 327.7599 30.659374 328.3224Q30.175 328.86926 29.05 329.8224Q28.096874 330.61926 27.815624 330.91614Q27.55 331.1974 27.378124 331.47864L31.596874 331.47864ZM33.6125 332.49426L33.6125 331.29114L34.815624 331.29114L34.815624 332.49426Q34.815624 333.1505 34.58125 333.55676Q34.346874 333.97864 33.846874 334.1974L33.55 333.74426Q33.878124 333.60364 34.034374 333.30676Q34.190624 333.0255 34.221874 332.49426L33.6125 332.49426ZM37.675 327.838Q37.01875 327.588 36.690624 327.1505Q36.378124 326.6974 36.378124 326.088Q36.378124 325.1505 37.05 324.5099Q37.7375 323.86926 38.846874 323.86926Q39.971874 323.86926 40.659374 324.5255Q41.346874 325.18176 41.346874 326.11926Q41.346874 326.713 41.034374 327.1505Q40.721874 327.588 40.08125 327.838Q40.878124 328.088 41.284374 328.66614Q41.690624 329.24426 41.690624 330.04114Q41.690624 331.1349 40.909374 331.8849Q40.14375 332.6349 38.8625 332.6349Q37.596874 332.6349 36.815624 331.8849Q36.034374 331.1349 36.034374 330.0099Q36.034374 329.16614 36.45625 328.60364Q36.89375 328.04114 37.675 327.838ZM37.45625 326.04114Q37.45625 326.6505 37.846874 327.04114Q38.253124 327.43176 38.878124 327.43176Q39.4875 327.43176 39.878124 327.05676Q40.26875 326.66614 40.26875 326.10364Q40.26875 325.5255 39.8625 325.1349Q39.45625 324.72864 38.8625 324.72864Q38.253124 324.72864 37.846874 325.11926Q37.45625 325.5099 37.45625 326.04114ZM37.128124 330.0099Q37.128124 330.463 37.33125 330.8849Q37.55 331.30676 37.971874 331.54114Q38.39375 331.7755 38.878124 331.7755Q39.628124 331.7755 40.1125 331.29114Q40.6125 330.80676 40.6125 330.05676Q40.6125 329.29114 40.1125 328.79114Q39.6125 328.29114 38.846874 328.29114Q38.096874 328.29114 37.6125 328.79114Q37.128124 329.2755 37.128124 330.0099ZM43.253124 325.963Q43.253124 325.04114 43.70625 324.4005Q44.175 323.7599 45.05 323.7599Q45.8625 323.7599 46.39375 324.338Q46.925 324.91614 46.925 326.0255Q46.925 327.11926 46.378124 327.713Q45.846874 328.29114 45.065624 328.29114Q44.284374 328.29114 43.76875 327.713Q43.253124 327.1349 43.253124 325.963ZM45.08125 324.47864Q44.690624 324.47864 44.425 324.8224Q44.175 325.16614 44.175 326.0724Q44.175 326.9005 44.425 327.24426Q44.690624 327.5724 45.08125 327.5724Q45.4875 327.5724 45.7375 327.22864Q46.003124 326.8849 46.003124 325.99426Q46.003124 325.1505 45.7375 324.8224Q45.471874 324.47864 45.08125 324.47864ZM45.08125 332.80676L49.784374 323.7599L50.64375 323.7599L45.95625 332.80676L45.08125 332.80676ZM48.8 330.47864Q48.8 329.55676 49.253124 328.91614Q49.721874 328.2755 50.6125 328.2755Q51.425 328.2755 51.95625 328.85364Q52.4875 329.41614 52.4875 330.54114Q52.4875 331.6349 51.940624 332.22864Q51.409374 332.80676 50.6125 332.80676Q49.846874 332.80676 49.315624 332.22864Q48.8 331.6505 48.8 330.47864ZM50.64375 328.99426Q50.2375 328.99426 49.971874 329.338Q49.721874 329.68176 49.721874 330.588Q49.721874 331.4005 49.9875 331.74426Q50.253124 332.088 50.64375 332.088Q51.034374 332.088 51.3 331.74426Q51.565624 331.4005 51.565624 330.49426Q51.565624 329.66614 51.3 329.338Q51.034374 328.99426 50.64375 328.99426Z" fill-rule="nonzero"/><path stroke="#757575" stroke-width="1.0" stroke-linecap="butt" d="M18.55 319.99426L145.23334 319.99426L219.71635 319.99426" fill-rule="nonzero"/><path fill="#9e9e9e" d="M221.71635 319.99426C221.71635 318.8897 220.82092 317.99426 219.71635 317.99426C218.61179 317.99426 217.71635 318.8897 217.71635 319.99426C217.71635 321.09885 218.61179 321.99426 219.71635 321.99426C220.82092 321.99426 221.71635 321.09885 221.71635 319.99426" fill-rule="nonzero"/><path fill="#1a1a1a" d="M555.4969 108.785255L555.4969 109.80088L549.8094 109.80088Q549.8094 109.42588 549.9344 109.066505Q550.15314 108.48838 550.6219 107.92588Q551.10626 107.36338 552.0125 106.629005Q553.41876 105.472755 553.90314 104.80088Q554.40314 104.129005 554.40314 103.535255Q554.40314 102.910255 553.95 102.48838Q553.4969 102.05088 552.77814 102.05088Q552.0125 102.05088 551.5594 102.504005Q551.10626 102.95713 551.09064 103.76963L550.0125 103.660255Q550.1219 102.441505 550.84064 101.816505Q551.575 101.17588 552.8094 101.17588Q554.04376 101.17588 554.7625 101.86338Q555.48126 102.55088 555.48126 103.566505Q555.48126 104.08213 555.2625 104.58213Q555.0594 105.066505 554.5594 105.629005Q554.075 106.17588 552.95 107.129005Q551.9969 107.92588 551.71564 108.222755Q551.45 108.504005 551.27814 108.785255L555.4969 108.785255ZM562.41876 103.316505L561.3719 103.39463Q561.23126 102.76963 560.98126 102.48838Q560.54376 102.035255 559.91876 102.035255Q559.41876 102.035255 559.02814 102.316505Q558.54376 102.691505 558.2469 103.39463Q557.96564 104.08213 557.95 105.36338Q558.325 104.785255 558.8719 104.504005Q559.4344 104.222755 560.04376 104.222755Q561.09064 104.222755 561.825 105.004005Q562.575 105.785255 562.575 107.004005Q562.575 107.816505 562.21564 108.51963Q561.8719 109.20713 561.2625 109.58213Q560.65314 109.941505 559.8875 109.941505Q558.5594 109.941505 557.73126 108.972755Q556.90314 108.004005 556.90314 105.785255Q556.90314 103.285255 557.825 102.160255Q558.6219 101.17588 559.98126 101.17588Q560.9969 101.17588 561.6375 101.754005Q562.29376 102.316505 562.41876 103.316505ZM558.1219 107.01963Q558.1219 107.566505 558.34064 108.066505Q558.575 108.55088 558.98126 108.816505Q559.40314 109.08213 559.8719 109.08213Q560.52814 109.08213 561.0125 108.55088Q561.4969 108.004005 561.4969 107.08213Q561.4969 106.191505 561.0125 105.67588Q560.54376 105.160255 559.825 105.160255Q559.10626 105.160255 558.60626 105.67588Q558.1219 106.191505 558.1219 107.01963ZM563.825 107.222755L563.825 106.160255L567.075 106.160255L567.075 107.222755L563.825 107.222755ZM571.325 109.80088L571.325 107.73838L567.60626 107.73838L567.60626 106.76963L571.52814 101.20713L572.3875 101.20713L572.3875 106.76963L573.54376 106.76963L573.54376 107.73838L572.3875 107.73838L572.3875 109.80088L571.325 109.80088ZM571.325 106.76963L571.325 102.910255L568.6375 106.76963L571.325 106.76963ZM574.95 107.55088L576.0594 107.45713Q576.1844 108.26963 576.6219 108.67588Q577.075 109.08213 577.71564 109.08213Q578.46564 109.08213 578.9969 108.504005Q579.52814 107.92588 579.52814 106.98838Q579.52814 106.08213 579.0125 105.566505Q578.5125 105.035255 577.6844 105.035255Q577.1844 105.035255 576.7625 105.26963Q576.35626 105.504005 576.1219 105.86338L575.1375 105.73838L575.96564 101.33213L580.2469 101.33213L580.2469 102.33213L576.8094 102.33213L576.35626 104.64463Q577.1219 104.097755 577.96564 104.097755Q579.09064 104.097755 579.85626 104.879005Q580.6375 105.660255 580.6375 106.89463Q580.6375 108.05088 579.96564 108.910255Q579.1375 109.941505 577.71564 109.941505Q576.54376 109.941505 575.79376 109.285255Q575.0594 108.629005 574.95 107.55088Z" fill-rule="nonzero"/><path fill="#9e9e9e" d="M552.4969 125.785255L552.4969 126.80088L546.8094 126.80088Q546.8094 126.42588 546.9344 126.066505Q547.15314 125.48838 547.6219 124.92588Q548.10626 124.36338 549.0125 123.629005Q550.41876 122.472755 550.90314 121.80088Q551.40314 121.129005 551.40314 120.535255Q551.40314 119.910255 550.95 119.48838Q550.4969 119.05088 549.77814 119.05088Q549.0125 119.05088 548.5594 119.504005Q548.10626 119.95713 548.09064 120.76963L547.0125 120.660255Q547.1219 119.441505 547.84064 118.816505Q548.575 118.17588 549.8094 118.17588Q551.04376 118.17588 551.7625 118.86338Q552.48126 119.55088 552.48126 120.566505Q552.48126 121.08213 552.2625 121.58213Q552.0594 122.066505 551.5594 122.629005Q551.075 123.17588 549.95 124.129005Q548.9969 124.92588 548.71564 125.222755Q548.45 125.504005 548.27814 125.785255L552.4969 125.785255ZM555.575 122.14463Q554.91876 121.89463 554.59064 121.45713Q554.27814 121.004005 554.27814 120.39463Q554.27814 119.45713 554.95 118.816505Q555.6375 118.17588 556.7469 118.17588Q557.8719 118.17588 558.5594 118.83213Q559.2469 119.48838 559.2469 120.42588Q559.2469 121.01963 558.9344 121.45713Q558.6219 121.89463 557.98126 122.14463Q558.77814 122.39463 559.1844 122.972755Q559.59064 123.55088 559.59064 124.347755Q559.59064 125.441505 558.8094 126.191505Q558.04376 126.941505 556.7625 126.941505Q555.4969 126.941505 554.71564 126.191505Q553.9344 125.441505 553.9344 124.316505Q553.9344 123.472755 554.35626 122.910255Q554.79376 122.347755 555.575 122.14463ZM555.35626 120.347755Q555.35626 120.95713 555.7469 121.347755Q556.15314 121.73838 556.77814 121.73838Q557.3875 121.73838 557.77814 121.36338Q558.16876 120.972755 558.16876 120.410255Q558.16876 119.83213 557.7625 119.441505Q557.35626 119.035255 556.7625 119.035255Q556.15314 119.035255 555.7469 119.42588Q555.35626 119.816505 555.35626 120.347755ZM555.02814 124.316505Q555.02814 124.76963 555.23126 125.191505Q555.45 125.61338 555.8719 125.847755Q556.29376 126.08213 556.77814 126.08213Q557.52814 126.08213 558.0125 125.597755Q558.5125 125.11338 558.5125 124.36338Q558.5125 123.597755 558.0125 123.097755Q557.5125 122.597755 556.7469 122.597755Q555.9969 122.597755 555.5125 123.097755Q555.02814 123.58213 555.02814 124.316505ZM561.5125 126.80088L561.5125 125.597755L562.71564 125.597755L562.71564 126.80088Q562.71564 127.45713 562.48126 127.86338Q562.2469 128.28525 561.7469 128.504L561.45 128.05087Q561.77814 127.910255 561.9344 127.61338Q562.09064 127.33213 562.1219 126.80088L561.5125 126.80088ZM569.4969 125.785255L569.4969 126.80088L563.8094 126.80088Q563.8094 126.42588 563.9344 126.066505Q564.15314 125.48838 564.6219 124.92588Q565.10626 124.36338 566.0125 123.629005Q567.41876 122.472755 567.90314 121.80088Q568.40314 121.129005 568.40314 120.535255Q568.40314 119.910255 567.95 119.48838Q567.4969 119.05088 566.77814 119.05088Q566.0125 119.05088 565.5594 119.504005Q565.10626 119.95713 565.09064 120.76963L564.0125 120.660255Q564.1219 119.441505 564.84064 118.816505Q565.575 118.17588 566.8094 118.17588Q568.04376 118.17588 568.7625 118.86338Q569.48126 119.55088 569.48126 120.566505Q569.48126 121.08213 569.2625 121.58213Q569.0594 122.066505 568.5594 122.629005Q568.075 123.17588 566.95 124.129005Q565.9969 124.92588 565.71564 125.222755Q565.45 125.504005 565.27814 125.785255L569.4969 125.785255ZM571.15314 120.26963Q571.15314 119.347755 571.60626 118.70713Q572.075 118.066505 572.95 118.066505Q573.7625 118.066505 574.29376 118.64463Q574.825 119.222755 574.825 120.33213Q574.825 121.42588 574.27814 122.01963Q573.7469 122.597755 572.96564 122.597755Q572.1844 122.597755 571.66876 122.01963Q571.15314 121.441505 571.15314 120.26963ZM572.98126 118.785255Q572.59064 118.785255 572.325 119.129005Q572.075 119.472755 572.075 120.379005Q572.075 121.20713 572.325 121.55088Q572.59064 121.879005 572.98126 121.879005Q573.3875 121.879005 573.6375 121.535255Q573.90314 121.191505 573.90314 120.30088Q573.90314 119.45713 573.6375 119.129005Q573.3719 118.785255 572.98126 118.785255ZM572.98126 127.11338L577.6844 118.066505L578.54376 118.066505L573.85626 127.11338L572.98126 127.11338ZM576.7 124.785255Q576.7 123.86338 577.15314 123.222755Q577.6219 122.58213 578.5125 122.58213Q579.325 122.58213 579.85626 123.160255Q580.3875 123.722755 580.3875 124.847755Q580.3875 125.941505 579.84064 126.535255Q579.3094 127.11338 578.5125 127.11338Q577.7469 127.11338 577.21564 126.535255Q576.7 125.95713 576.7 124.785255ZM578.54376 123.30088Q578.1375 123.30088 577.8719 123.64463Q577.6219 123.98838 577.6219 124.89463Q577.6219 125.70713 577.8875 126.05088Q578.15314 126.39463 578.54376 126.39463Q578.9344 126.39463 579.2 126.05088Q579.46564 125.70713 579.46564 124.80088Q579.46564 123.972755 579.2 123.64463Q578.9344 123.30088 578.54376 123.30088Z" fill-rule="nonzero"/><path stroke="#757575" stroke-width="1.0" stroke-linecap="butt" d="M581.45 114.30088L454.76666 114.30088L409.47363 114.30088" fill-rule="nonzero"/><path fill="#9e9e9e" d="M411.47363 114.30088C411.47363 113.19631 410.5782 112.30088 409.47363 112.30088C408.36905 112.30088 407.47363 113.19631 407.47363 114.30088C407.47363 115.40545 408.36905 116.30088 409.47363 116.30088C410.5782 116.30088 411.47363 115.40545 411.47363 114.30088" fill-rule="nonzero"/><path fill="#757575" d="M18.51875 37.55L24.01875 23.2375L26.065624 23.2375L31.925 37.55L29.76875 37.55L28.096874 33.20625L22.1125 33.20625L20.534374 37.55L18.51875 37.55ZM22.659374 31.675L27.503124 31.675L26.01875 27.70625Q25.33125 25.89375 25.003124 24.7375Q24.721874 26.1125 24.221874 27.471874L22.659374 31.675ZM45.4875 41.51875L45.4875 36.440624Q45.065624 37.01875 44.33125 37.409374Q43.596874 37.784374 42.76875 37.784374Q40.925 37.784374 39.58125 36.315624Q38.253124 34.83125 38.253124 32.26875Q38.253124 30.70625 38.784374 29.471874Q39.33125 28.221874 40.3625 27.58125Q41.39375 26.940624 42.628124 26.940624Q44.55 26.940624 45.659374 28.565624L45.659374 27.175L47.2375 27.175L47.2375 41.51875L45.4875 41.51875ZM40.065624 32.33125Q40.065624 34.33125 40.89375 35.33125Q41.7375 36.33125 42.909374 36.33125Q44.034374 36.33125 44.846874 35.39375Q45.659374 34.440624 45.659374 32.4875Q45.659374 30.425 44.8 29.378124Q43.940624 28.33125 42.8 28.33125Q41.659374 28.33125 40.8625 29.3Q40.065624 30.26875 40.065624 32.33125ZM56.659374 37.55L56.659374 36.01875Q55.45625 37.784374 53.378124 37.784374Q52.45625 37.784374 51.659374 37.440624Q50.8625 37.08125 50.471874 36.55Q50.096874 36.01875 49.940624 35.2375Q49.83125 34.721874 49.83125 33.596874L49.83125 27.175L51.58125 27.175L51.58125 32.925Q51.58125 34.3 51.690624 34.784374Q51.8625 35.471874 52.39375 35.878124Q52.940624 36.26875 53.721874 36.26875Q54.51875 36.26875 55.20625 35.8625Q55.909374 35.45625 56.190624 34.76875Q56.4875 34.065624 56.4875 32.7375L56.4875 27.175L58.2375 27.175L58.2375 37.55L56.659374 37.55ZM66.64375 36.26875Q65.65938 37.096874 64.75313 37.440624Q63.846874 37.784374 62.815624 37.784374Q61.1125 37.784374 60.190624 36.95625Q59.26875 36.1125 59.26875 34.815624Q59.26875 34.05 59.6125 33.425Q59.971874 32.8 60.534374 32.425Q61.096874 32.034374 61.8 31.83125Q62.315624 31.70625 63.3625 31.565624Q65.4875 31.315624 66.4875 30.971874Q66.50313 30.6125 66.50313 30.503124Q66.50313 29.440624 66.00313 28.9875Q65.33125 28.39375 64.00313 28.39375Q62.753124 28.39375 62.159374 28.83125Q61.58125 29.26875 61.3 30.378124L59.58125 30.14375Q59.815624 29.034374 60.346874 28.3625Q60.878124 27.675 61.89375 27.315624Q62.909374 26.940624 64.25313 26.940624Q65.58125 26.940624 66.40938 27.253124Q67.2375 27.565624 67.62813 28.05Q68.01875 28.51875 68.175 29.2375Q68.26875 29.690624 68.26875 30.8625L68.26875 33.20625Q68.26875 35.659374 68.37813 36.315624Q68.4875 36.95625 68.83125 37.55L66.9875 37.55Q66.72188 37.003124 66.64375 36.26875ZM66.4875 32.346874Q65.53438 32.7375 63.6125 33.003124Q62.534374 33.159374 62.08125 33.3625Q61.64375 33.55 61.39375 33.925Q61.14375 34.3 61.14375 34.76875Q61.14375 35.471874 61.675 35.940624Q62.20625 36.409374 63.2375 36.409374Q64.25313 36.409374 65.03438 35.971874Q65.83125 35.51875 66.20625 34.753124Q66.4875 34.14375 66.4875 32.9875L66.4875 32.346874ZM70.83125 37.55L70.83125 23.2375L72.58125 23.2375L72.58125 37.55L70.83125 37.55ZM81.97188 34.20625L83.78438 34.440624Q83.3625 36.01875 82.19063 36.909374Q81.03438 37.784374 79.22188 37.784374Q76.95625 37.784374 75.6125 36.39375Q74.28438 34.9875 74.28438 32.45625Q74.28438 29.83125 75.62813 28.39375Q76.97188 26.940624 79.12813 26.940624Q81.20625 26.940624 82.51875 28.3625Q83.84688 29.76875 83.84688 32.346874Q83.84688 32.503124 83.83125 32.815624L76.09688 32.815624Q76.19063 34.51875 77.06563 35.425Q77.94063 36.33125 79.2375 36.33125Q80.20625 36.33125 80.87813 35.83125Q81.56563 35.315624 81.97188 34.20625ZM76.19063 31.3625L81.9875 31.3625Q81.87813 30.065624 81.33125 29.409374Q80.4875 28.39375 79.14375 28.39375Q77.94063 28.39375 77.1125 29.20625Q76.28438 30.003124 76.19063 31.3625ZM92.28438 37.55L92.28438 28.55L90.7375 28.55L90.7375 27.175L92.28438 27.175L92.28438 26.08125Q92.28438 25.034374 92.47188 24.51875Q92.72188 23.83125 93.3625 23.409374Q94.00313 22.9875 95.15938 22.9875Q95.90938 22.9875 96.8 23.159374L96.53438 24.690624Q95.9875 24.596874 95.50313 24.596874Q94.70625 24.596874 94.3625 24.940624Q94.03438 25.284374 94.03438 26.221874L94.03438 27.175L96.06563 27.175L96.06563 28.55L94.03438 28.55L94.03438 37.55L92.28438 37.55ZM104.64375 36.26875Q103.65938 37.096874 102.75313 37.440624Q101.84688 37.784374 100.81563 37.784374Q99.1125 37.784374 98.19063 36.95625Q97.26875 36.1125 97.26875 34.815624Q97.26875 34.05 97.6125 33.425Q97.97188 32.8 98.53438 32.425Q99.09688 32.034374 99.8 31.83125Q100.31563 31.70625 101.3625 31.565624Q103.4875 31.315624 104.4875 30.971874Q104.50313 30.6125 104.50313 30.503124Q104.50313 29.440624 104.00313 28.9875Q103.33125 28.39375 102.00313 28.39375Q100.75313 28.39375 100.15938 28.83125Q99.58125 29.26875 99.3 30.378124L97.58125 30.14375Q97.81563 29.034374 98.34688 28.3625Q98.87813 27.675 99.89375 27.315624Q100.90938 26.940624 102.25313 26.940624Q103.58125 26.940624 104.40938 27.253124Q105.2375 27.565624 105.62813 28.05Q106.01875 28.51875 106.175 29.2375Q106.26875 29.690624 106.26875 30.8625L106.26875 33.20625Q106.26875 35.659374 106.37813 36.315624Q106.4875 36.95625 106.83125 37.55L104.9875 37.55Q104.72188 37.003124 104.64375 36.26875ZM104.4875 32.346874Q103.53438 32.7375 101.6125 33.003124Q100.53438 33.159374 100.08125 33.3625Q99.64375 33.55 99.39375 33.925Q99.14375 34.3 99.14375 34.76875Q99.14375 35.471874 99.675 35.940624Q100.20625 36.409374 101.2375 36.409374Q102.25313 36.409374 103.03438 35.971874Q103.83125 35.51875 104.20625 34.753124Q104.4875 34.14375 104.4875 32.9875L104.4875 32.346874ZM108.15938 34.45625L109.90938 34.175Q110.05 35.221874 110.72188 35.784374Q111.39375 36.33125 112.59688 36.33125Q113.8 36.33125 114.37813 35.846874Q114.97188 35.346874 114.97188 34.690624Q114.97188 34.096874 114.45625 33.753124Q114.09688 33.51875 112.65938 33.159374Q110.72188 32.659374 109.97188 32.315624Q109.2375 31.95625 108.84688 31.33125Q108.45625 30.690624 108.45625 29.925Q108.45625 29.2375 108.76875 28.64375Q109.09688 28.05 109.64375 27.659374Q110.05 27.3625 110.75313 27.159374Q111.47188 26.940624 112.28438 26.940624Q113.50313 26.940624 114.425 27.3Q115.34688 27.64375 115.78438 28.253124Q116.22188 28.846874 116.39375 29.846874L114.675 30.08125Q114.55 29.284374 113.9875 28.846874Q113.425 28.39375 112.40938 28.39375Q111.19063 28.39375 110.675 28.8Q110.15938 29.190624 110.15938 29.721874Q110.15938 30.065624 110.37813 30.346874Q110.58125 30.628124 111.05 30.815624Q111.31563 30.909374 112.59688 31.253124Q114.47188 31.753124 115.20625 32.08125Q115.94063 32.39375 116.3625 33.003124Q116.78438 33.596874 116.78438 34.503124Q116.78438 35.378124 116.26875 36.159374Q115.75313 36.940624 114.78438 37.3625Q113.81563 37.784374 112.59688 37.784374Q110.58125 37.784374 109.51875 36.940624Q108.45625 36.096874 108.15938 34.45625ZM125.64375 33.753124L127.3625 33.971874Q127.08125 35.76875 125.90938 36.784374Q124.75313 37.784374 123.05 37.784374Q120.925 37.784374 119.62813 36.39375Q118.33125 35.003124 118.33125 32.409374Q118.33125 30.721874 118.87813 29.471874Q119.44063 28.20625 120.58125 27.58125Q121.72188 26.940624 123.06563 26.940624Q124.75313 26.940624 125.81563 27.8Q126.89375 28.659374 127.20625 30.221874L125.4875 30.4875Q125.25313 29.440624 124.62813 28.925Q124.00313 28.39375 123.12813 28.39375Q121.8 28.39375 120.97188 29.346874Q120.14375 30.3 120.14375 32.346874Q120.14375 34.440624 120.94063 35.39375Q121.7375 36.33125 123.03438 36.33125Q124.06563 36.33125 124.75313 35.70625Q125.45625 35.065624 125.64375 33.753124ZM128.87813 25.253124L128.87813 23.2375L130.64375 23.2375L130.64375 25.253124L128.87813 25.253124ZM128.87813 37.55L128.87813 27.175L130.64375 27.175L130.64375 37.55L128.87813 37.55ZM139.64375 36.26875Q138.65938 37.096874 137.75313 37.440624Q136.84688 37.784374 135.81563 37.784374Q134.1125 37.784374 133.19063 36.95625Q132.26875 36.1125 132.26875 34.815624Q132.26875 34.05 132.6125 33.425Q132.97188 32.8 133.53438 32.425Q134.09688 32.034374 134.8 31.83125Q135.31563 31.70625 136.3625 31.565624Q138.4875 31.315624 139.4875 30.971874Q139.50313 30.6125 139.50313 30.503124Q139.50313 29.440624 139.00313 28.9875Q138.33125 28.39375 137.00313 28.39375Q135.75313 28.39375 135.15938 28.83125Q134.58125 29.26875 134.3 30.378124L132.58125 30.14375Q132.81563 29.034374 133.34688 28.3625Q133.87813 27.675 134.89375 27.315624Q135.90938 26.940624 137.25313 26.940624Q138.58125 26.940624 139.40938 27.253124Q140.2375 27.565624 140.62813 28.05Q141.01875 28.51875 141.175 29.2375Q141.26875 29.690624 141.26875 30.8625L141.26875 33.20625Q141.26875 35.659374 141.37813 36.315624Q141.4875 36.95625 141.83125 37.55L139.9875 37.55Q139.72188 37.003124 139.64375 36.26875ZM139.4875 32.346874Q138.53438 32.7375 136.6125 33.003124Q135.53438 33.159374 135.08125 33.3625Q134.64375 33.55 134.39375 33.925Q134.14375 34.3 134.14375 34.76875Q134.14375 35.471874 134.675 35.940624Q135.20625 36.409374 136.2375 36.409374Q137.25313 36.409374 138.03438 35.971874Q138.83125 35.51875 139.20625 34.753124Q139.4875 34.14375 139.4875 32.9875L139.4875 32.346874ZM156.59688 37.55L156.59688 36.2375Q155.6125 37.784374 153.69063 37.784374Q152.45625 37.784374 151.40938 37.096874Q150.37813 36.409374 149.8 35.190624Q149.2375 33.971874 149.2375 32.378124Q149.2375 30.815624 149.75313 29.55Q150.26875 28.284374 151.3 27.6125Q152.34688 26.940624 153.6125 26.940624Q154.55 26.940624 155.28438 27.346874Q156.01875 27.7375 156.4875 28.3625L156.4875 23.2375L158.22188 23.2375L158.22188 37.55L156.59688 37.55ZM151.03438 32.378124Q151.03438 34.3625 151.87813 35.346874Q152.72188 36.33125 153.8625 36.33125Q155.01875 36.33125 155.81563 35.39375Q156.62813 34.45625 156.62813 32.51875Q156.62813 30.39375 155.8 29.39375Q154.9875 28.39375 153.78438 28.39375Q152.6125 28.39375 151.81563 29.3625Q151.03438 30.315624 151.03438 32.378124ZM160.87813 28.3L160.425 25.628124L160.425 23.2375L162.425 23.2375L162.425 25.628124L161.95625 28.3L160.87813 28.3ZM171.97188 34.20625L173.78438 34.440624Q173.3625 36.01875 172.19063 36.909374Q171.03438 37.784374 169.22188 37.784374Q166.95625 37.784374 165.6125 36.39375Q164.28438 34.9875 164.28438 32.45625Q164.28438 29.83125 165.62813 28.39375Q166.97188 26.940624 169.12813 26.940624Q171.20625 26.940624 172.51875 28.3625Q173.84688 29.76875 173.84688 32.346874Q173.84688 32.503124 173.83125 32.815624L166.09688 32.815624Q166.19063 34.51875 167.06563 35.425Q167.94063 36.33125 169.2375 36.33125Q170.20625 36.33125 170.87813 35.83125Q171.56563 35.315624 171.97188 34.20625ZM166.19063 31.3625L171.9875 31.3625Q171.87813 30.065624 171.33125 29.409374Q170.4875 28.39375 169.14375 28.39375Q167.94063 28.39375 167.1125 29.20625Q166.28438 30.003124 166.19063 31.3625ZM179.70625 35.971874L179.95625 37.534374Q179.22188 37.690624 178.62813 37.690624Q177.675 37.690624 177.14375 37.39375Q176.62813 37.08125 176.40938 36.596874Q176.19063 36.096874 176.19063 34.51875L176.19063 28.55L174.90938 28.55L174.90938 27.175L176.19063 27.175L176.19063 24.6125L177.94063 23.55L177.94063 27.175L179.70625 27.175L179.70625 28.55L177.94063 28.55L177.94063 34.6125Q177.94063 35.3625 178.03438 35.58125Q178.12813 35.784374 178.33125 35.925Q178.55 36.05 178.94063 36.05Q179.22188 36.05 179.70625 35.971874ZM188.64375 36.26875Q187.65938 37.096874 186.75313 37.440624Q185.84688 37.784374 184.81563 37.784374Q183.1125 37.784374 182.19063 36.95625Q181.26875 36.1125 181.26875 34.815624Q181.26875 34.05 181.6125 33.425Q181.97188 32.8 182.53438 32.425Q183.09688 32.034374 183.8 31.83125Q184.31563 31.70625 185.3625 31.565624Q187.4875 31.315624 188.4875 30.971874Q188.50313 30.6125 188.50313 30.503124Q188.50313 29.440624 188.00313 28.9875Q187.33125 28.39375 186.00313 28.39375Q184.75313 28.39375 184.15938 28.83125Q183.58125 29.26875 183.3 30.378124L181.58125 30.14375Q181.81563 29.034374 182.34688 28.3625Q182.87813 27.675 183.89375 27.315624Q184.90938 26.940624 186.25313 26.940624Q187.58125 26.940624 188.40938 27.253124Q189.2375 27.565624 189.62813 28.05Q190.01875 28.51875 190.175 29.2375Q190.26875 29.690624 190.26875 30.8625L190.26875 33.20625Q190.26875 35.659374 190.37813 36.315624Q190.4875 36.95625 190.83125 37.55L188.9875 37.55Q188.72188 37.003124 188.64375 36.26875ZM188.4875 32.346874Q187.53438 32.7375 185.6125 33.003124Q184.53438 33.159374 184.08125 33.3625Q183.64375 33.55 183.39375 33.925Q183.14375 34.3 183.14375 34.76875Q183.14375 35.471874 183.675 35.940624Q184.20625 36.409374 185.2375 36.409374Q186.25313 36.409374 187.03438 35.971874Q187.83125 35.51875 188.20625 34.753124Q188.4875 34.14375 188.4875 32.9875L188.4875 32.346874ZM187.53438 25.89375L186.1125 25.89375L183.8625 23.159374L186.20625 23.159374L187.53438 25.89375ZM205.64375 36.26875Q204.65938 37.096874 203.75313 37.440624Q202.84688 37.784374 201.81563 37.784374Q200.1125 37.784374 199.19063 36.95625Q198.26875 36.1125 198.26875 34.815624Q198.26875 34.05 198.6125 33.425Q198.97188 32.8 199.53438 32.425Q200.09688 32.034374 200.8 31.83125Q201.31563 31.70625 202.3625 31.565624Q204.4875 31.315624 205.4875 30.971874Q205.50313 30.6125 205.50313 30.503124Q205.50313 29.440624 205.00313 28.9875Q204.33125 28.39375 203.00313 28.39375Q201.75313 28.39375 201.15938 28.83125Q200.58125 29.26875 200.3 30.378124L198.58125 30.14375Q198.81563 29.034374 199.34688 28.3625Q199.87813 27.675 200.89375 27.315624Q201.90938 26.940624 203.25313 26.940624Q204.58125 26.940624 205.40938 27.253124Q206.2375 27.565624 206.62813 28.05Q207.01875 28.51875 207.175 29.2375Q207.26875 29.690624 207.26875 30.8625L207.26875 33.20625Q207.26875 35.659374 207.37813 36.315624Q207.4875 36.95625 207.83125 37.55L205.9875 37.55Q205.72188 37.003124 205.64375 36.26875ZM205.4875 32.346874Q204.53438 32.7375 202.6125 33.003124Q201.53438 33.159374 201.08125 33.3625Q200.64375 33.55 200.39375 33.925Q200.14375 34.3 200.14375 34.76875Q200.14375 35.471874 200.675 35.940624Q201.20625 36.409374 202.2375 36.409374Q203.25313 36.409374 204.03438 35.971874Q204.83125 35.51875 205.20625 34.753124Q205.4875 34.14375 205.4875 32.9875L205.4875 32.346874ZM209.8625 41.51875L209.8625 27.175L211.47188 27.175L211.47188 28.51875Q212.03438 27.7375 212.7375 27.346874Q213.45625 26.940624 214.47188 26.940624Q215.8 26.940624 216.81563 27.628124Q217.83125 28.315624 218.34688 29.565624Q218.87813 30.8 218.87813 32.284374Q218.87813 33.878124 218.3 35.159374Q217.7375 36.425 216.64375 37.1125Q215.55 37.784374 214.34688 37.784374Q213.47188 37.784374 212.76875 37.409374Q212.08125 37.034374 211.62813 36.471874L211.62813 41.51875L209.8625 41.51875ZM211.45625 32.425Q211.45625 34.425 212.26875 35.378124Q213.08125 36.33125 214.2375 36.33125Q215.40938 36.33125 216.2375 35.346874Q217.08125 34.3625 217.08125 32.26875Q217.08125 30.3 216.25313 29.315624Q215.44063 28.315624 214.31563 28.315624Q213.19063 28.315624 212.31563 29.378124Q211.45625 30.425 211.45625 32.425ZM220.8625 41.51875L220.8625 27.175L222.47188 27.175L222.47188 28.51875Q223.03438 27.7375 223.7375 27.346874Q224.45625 26.940624 225.47188 26.940624Q226.8 26.940624 227.81563 27.628124Q228.83125 28.315624 229.34688 29.565624Q229.87813 30.8 229.87813 32.284374Q229.87813 33.878124 229.3 35.159374Q228.7375 36.425 227.64375 37.1125Q226.55 37.784374 225.34688 37.784374Q224.47188 37.784374 223.76875 37.409374Q223.08125 37.034374 222.62813 36.471874L222.62813 41.51875L220.8625 41.51875ZM222.45625 32.425Q222.45625 34.425 223.26875 35.378124Q224.08125 36.33125 225.2375 36.33125Q226.40938 36.33125 227.2375 35.346874Q228.08125 34.3625 228.08125 32.26875Q228.08125 30.3 227.25313 29.315624Q226.44063 28.315624 225.31563 28.315624Q224.19063 28.315624 223.31563 29.378124Q222.45625 30.425 222.45625 32.425ZM238.64375 36.26875Q237.65938 37.096874 236.75313 37.440624Q235.84688 37.784374 234.81563 37.784374Q233.1125 37.784374 232.19063 36.95625Q231.26875 36.1125 231.26875 34.815624Q231.26875 34.05 231.6125 33.425Q231.97188 32.8 232.53438 32.425Q233.09688 32.034374 233.8 31.83125Q234.31563 31.70625 235.3625 31.565624Q237.4875 31.315624 238.4875 30.971874Q238.50313 30.6125 238.50313 30.503124Q238.50313 29.440624 238.00313 28.9875Q237.33125 28.39375 236.00313 28.39375Q234.75313 28.39375 234.15938 28.83125Q233.58125 29.26875 233.3 30.378124L231.58125 30.14375Q231.81563 29.034374 232.34688 28.3625Q232.87813 27.675 233.89375 27.315624Q234.90938 26.940624 236.25313 26.940624Q237.58125 26.940624 238.40938 27.253124Q239.2375 27.565624 239.62813 28.05Q240.01875 28.51875 240.175 29.2375Q240.26875 29.690624 240.26875 30.8625L240.26875 33.20625Q240.26875 35.659374 240.37813 36.315624Q240.4875 36.95625 240.83125 37.55L238.9875 37.55Q238.72188 37.003124 238.64375 36.26875ZM238.4875 32.346874Q237.53438 32.7375 235.6125 33.003124Q234.53438 33.159374 234.08125 33.3625Q233.64375 33.55 233.39375 33.925Q233.14375 34.3 233.14375 34.76875Q233.14375 35.471874 233.675 35.940624Q234.20625 36.409374 235.2375 36.409374Q236.25313 36.409374 237.03438 35.971874Q237.83125 35.51875 238.20625 34.753124Q238.4875 34.14375 238.4875 32.9875L238.4875 32.346874ZM242.84688 37.55L242.84688 27.175L244.425 27.175L244.425 28.753124Q245.03438 27.64375 245.55 27.3Q246.06563 26.940624 246.675 26.940624Q247.56563 26.940624 248.4875 27.503124L247.87813 29.14375Q247.2375 28.753124 246.59688 28.753124Q246.01875 28.753124 245.55 29.1125Q245.09688 29.45625 244.89375 30.065624Q244.6125 31.003124 244.6125 32.1125L244.6125 37.55L242.84688 37.55ZM253.70625 35.971874L253.95625 37.534374Q253.22188 37.690624 252.62813 37.690624Q251.675 37.690624 251.14375 37.39375Q250.62813 37.08125 250.40938 36.596874Q250.19063 36.096874 250.19063 34.51875L250.19063 28.55L248.90938 28.55L248.90938 27.175L250.19063 27.175L250.19063 24.6125L251.94063 23.55L251.94063 27.175L253.70625 27.175L253.70625 28.55L251.94063 28.55L251.94063 34.6125Q251.94063 35.3625 252.03438 35.58125Q252.12813 35.784374 252.33125 35.925Q252.55 36.05 252.94063 36.05Q253.22188 36.05 253.70625 35.971874ZM255.87813 25.253124L255.87813 23.2375L257.64374 23.2375L257.64374 25.253124L255.87813 25.253124ZM255.87813 37.55L255.87813 27.175L257.64374 27.175L257.64374 37.55L255.87813 37.55ZM266.97186 34.20625L268.78436 34.440624Q268.3625 36.01875 267.1906 36.909374Q266.03436 37.784374 264.22186 37.784374Q261.95624 37.784374 260.6125 36.39375Q259.28436 34.9875 259.28436 32.45625Q259.28436 29.83125 260.6281 28.39375Q261.97186 26.940624 264.1281 26.940624Q266.20624 26.940624 267.51874 28.3625Q268.84686 29.76875 268.84686 32.346874Q268.84686 32.503124 268.83124 32.815624L261.09686 32.815624Q261.1906 34.51875 262.0656 35.425Q262.9406 36.33125 264.2375 36.33125Q265.20624 36.33125 265.8781 35.83125Q266.5656 35.315624 266.97186 34.20625ZM261.1906 31.3625L266.9875 31.3625Q266.8781 30.065624 266.33124 29.409374Q265.4875 28.39375 264.14374 28.39375Q262.9406 28.39375 262.1125 29.20625Q261.28436 30.003124 261.1906 31.3625ZM270.8625 37.55L270.8625 27.175L272.45624 27.175L272.45624 28.659374Q273.59686 26.940624 275.7531 26.940624Q276.6906 26.940624 277.47186 27.284374Q278.26874 27.6125 278.65936 28.159374Q279.05 28.70625 279.20624 29.45625Q279.3 29.95625 279.3 31.175L279.3 37.55L277.53436 37.55L277.53436 31.2375Q277.53436 30.159374 277.33124 29.628124Q277.1281 29.096874 276.59686 28.784374Q276.08124 28.471874 275.3781 28.471874Q274.2531 28.471874 273.4406 29.190624Q272.6281 29.89375 272.6281 31.878124L272.6281 37.55L270.8625 37.55ZM280.8781 25.253124L280.8781 23.2375L282.64374 23.2375L282.64374 25.253124L280.8781 25.253124ZM280.8781 37.55L280.8781 27.175L282.64374 27.175L282.64374 37.55L280.8781 37.55ZM288.15936 34.01875Q288.14374 33.675 288.14374 33.503124Q288.14374 32.45625 288.4406 31.70625Q288.65936 31.14375 289.14374 30.565624Q289.4875 30.14375 290.39374 29.346874Q291.3156 28.534374 291.58124 28.065624Q291.8625 27.58125 291.8625 27.01875Q291.8625 25.9875 291.05 25.221874Q290.2531 24.440624 289.09686 24.440624Q287.97186 24.440624 287.22186 25.14375Q286.47186 25.846874 286.2375 27.33125L284.425 27.1125Q284.675 25.1125 285.8781 24.05Q287.08124 22.9875 289.0656 22.9875Q291.175 22.9875 292.425 24.128124Q293.675 25.26875 293.675 26.89375Q293.675 27.83125 293.22186 28.628124Q292.78436 29.409374 291.5031 30.55Q290.64374 31.315624 290.3781 31.675Q290.1281 32.034374 289.9875 32.503124Q289.8625 32.971874 289.84686 34.01875L288.15936 34.01875ZM288.05 37.55L288.05 35.55L290.05 35.55L290.05 37.55L288.05 37.55Z" fill-rule="nonzero"/></svg>