<svg version="1.1" viewBox="0.0 0.0 600.0 371.0" fill="none" stroke="none" stroke-linecap="square" stroke-miterlimit="10" width="600" height="371" xmlns:xlink="http://www.w3.org/1999/xlink" xmlns="http://www.w3.org/2000/svg"><path fill="#ffffff" d="M0 0L600.0 0L600.0 371.0L0 371.0L0 0Z" fill-rule="nonzero"/><path fill="#ea4335" d="M267.2696 348.4758C200.12086 331.92514 155.8944 267.85202 164.23051 199.19794C172.56664 130.54384 230.84166 78.916664 300.0 78.916664L300.0 215.68333Z" fill-rule="nonzero"/><path fill="#4285f4" d="M300.0 78.916664C352.81992 78.916664 400.9184 109.33229 423.5619 157.05247C446.2054 204.77267 439.34586 261.2662 405.94012 302.1808C372.53442 343.09537 318.5547 361.11646 267.2696 348.4758L300.0 215.68333Z" fill-rule="nonzero"/><path fill="#1a1a1a" d="M19.471874 195.5222L19.471874 186.92845L20.628124 186.92845L25.14375 193.67845L25.14375 186.92845L26.2375 186.92845L26.2375 195.5222L25.065624 195.5222L20.55 188.7722L20.55 195.5222L19.471874 195.5222ZM27.95625 192.41283Q27.95625 190.67845 28.909374 189.85033Q29.70625 189.16283 30.8625 189.16283Q32.14375 189.16283 32.95625 190.00658Q33.784374 190.8347 33.784374 192.31908Q33.784374 193.5222 33.425 194.2097Q33.065624 194.8972 32.3625 195.28783Q31.675 195.66283 30.8625 195.66283Q29.565624 195.66283 28.753124 194.8347Q27.95625 193.99095 27.95625 192.41283ZM29.034374 192.41283Q29.034374 193.60033 29.55 194.19408Q30.08125 194.78783 30.8625 194.78783Q31.659374 194.78783 32.175 194.19408Q32.690624 193.60033 32.690624 192.38158Q32.690624 191.22533 32.159374 190.63158Q31.64375 190.03783 30.8625 190.03783Q30.08125 190.03783 29.55 190.63158Q29.034374 191.2097 29.034374 192.41283Z" fill-rule="nonzero"/><path fill="#9e9e9e" d="M22.425 212.5222L22.425 210.4597L18.70625 210.4597L18.70625 209.49095L22.628124 203.92845L23.4875 203.92845L23.4875 209.49095L24.64375 209.49095L24.64375 210.4597L23.4875 210.4597L23.4875 212.5222L22.425 212.5222ZM22.425 209.49095L22.425 205.63158L19.7375 209.49095L22.425 209.49095ZM31.51875 206.03783L30.471874 206.11595Q30.33125 205.49095 30.08125 205.2097Q29.64375 204.75658 29.01875 204.75658Q28.51875 204.75658 28.128124 205.03783Q27.64375 205.41283 27.346874 206.11595Q27.065624 206.80345 27.05 208.0847Q27.425 207.50658 27.971874 207.22533Q28.534374 206.94408 29.14375 206.94408Q30.190624 206.94408 30.925 207.72533Q31.675 208.50658 31.675 209.72533Q31.675 210.53783 31.315624 211.24095Q30.971874 211.92845 30.3625 212.30345Q29.753124 212.66283 28.9875 212.66283Q27.659374 212.66283 26.83125 211.69408Q26.003124 210.72533 26.003124 208.50658Q26.003124 206.00658 26.925 204.88158Q27.721874 203.8972 29.08125 203.8972Q30.096874 203.8972 30.7375 204.47533Q31.39375 205.03783 31.51875 206.03783ZM27.221874 209.74095Q27.221874 210.28783 27.440624 210.78783Q27.675 211.2722 28.08125 211.53783Q28.503124 211.80345 28.971874 211.80345Q29.628124 211.80345 30.1125 211.2722Q30.596874 210.72533 30.596874 209.80345Q30.596874 208.91283 30.1125 208.3972Q29.64375 207.88158 28.925 207.88158Q28.20625 207.88158 27.70625 208.3972Q27.221874 208.91283 27.221874 209.74095ZM33.6125 212.5222L33.6125 211.31908L34.815624 211.31908L34.815624 212.5222Q34.815624 213.17845 34.58125 213.5847Q34.346874 214.00658 33.846874 214.22533L33.55 213.7722Q33.878124 213.63158 34.034374 213.3347Q34.190624 213.05345 34.221874 212.5222L33.6125 212.5222ZM41.596874 211.50658L41.596874 212.5222L35.909374 212.5222Q35.909374 212.1472 36.034374 211.78783Q36.253124 211.2097 36.721874 210.6472Q37.20625 210.0847 38.1125 209.35033Q39.51875 208.19408 40.003124 207.5222Q40.503124 206.85033 40.503124 206.25658Q40.503124 205.63158 40.05 205.2097Q39.596874 204.7722 38.878124 204.7722Q38.1125 204.7722 37.659374 205.22533Q37.20625 205.67845 37.190624 206.49095L36.1125 206.38158Q36.221874 205.16283 36.940624 204.53783Q37.675 203.8972 38.909374 203.8972Q40.14375 203.8972 40.8625 204.5847Q41.58125 205.2722 41.58125 206.28783Q41.58125 206.80345 41.3625 207.30345Q41.159374 207.78783 40.659374 208.35033Q40.175 208.8972 39.05 209.85033Q38.096874 210.6472 37.815624 210.94408Q37.55 211.22533 37.378124 211.50658L41.596874 211.50658ZM43.253124 205.99095Q43.253124 205.06908 43.70625 204.42845Q44.175 203.78783 45.05 203.78783Q45.8625 203.78783 46.39375 204.36595Q46.925 204.94408 46.925 206.05345Q46.925 207.1472 46.378124 207.74095Q45.846874 208.31908 45.065624 208.31908Q44.284374 208.31908 43.76875 207.74095Q43.253124 207.16283 43.253124 205.99095ZM45.08125 204.50658Q44.690624 204.50658 44.425 204.85033Q44.175 205.19408 44.175 206.10033Q44.175 206.92845 44.425 207.2722Q44.690624 207.60033 45.08125 207.60033Q45.4875 207.60033 45.7375 207.25658Q46.003124 206.91283 46.003124 206.0222Q46.003124 205.17845 45.7375 204.85033Q45.471874 204.50658 45.08125 204.50658ZM45.08125 212.8347L49.784374 203.78783L50.64375 203.78783L45.95625 212.8347L45.08125 212.8347ZM48.8 210.50658Q48.8 209.5847 49.253124 208.94408Q49.721874 208.30345 50.6125 208.30345Q51.425 208.30345 51.95625 208.88158Q52.4875 209.44408 52.4875 210.56908Q52.4875 211.66283 51.940624 212.25658Q51.409374 212.8347 50.6125 212.8347Q49.846874 212.8347 49.315624 212.25658Q48.8 211.67845 48.8 210.50658ZM50.64375 209.0222Q50.2375 209.0222 49.971874 209.36595Q49.721874 209.7097 49.721874 210.61595Q49.721874 211.42845 49.9875 211.7722Q50.253124 212.11595 50.64375 212.11595Q51.034374 212.11595 51.3 211.7722Q51.565624 211.42845 51.565624 210.5222Q51.565624 209.69408 51.3 209.36595Q51.034374 209.0222 50.64375 209.0222Z" fill-rule="nonzero"/><path stroke="#757575" stroke-width="1.0" stroke-linecap="butt" d="M18.55 200.0222L157.23334 200.0222L171.019 200.0222" fill-rule="nonzero"/><path fill="#9e9e9e" d="M173.019 200.0222C173.019 198.91763 172.12357 198.0222 171.019 198.0222C169.91441 198.0222 169.019 198.91763 169.019 200.0222C169.019 201.12677 169.91441 202.0222 171.019 202.0222C172.12357 202.0222 173.019 201.12677 173.019 200.0222" fill-rule="nonzero"/><path fill="#1a1a1a" d="M570.9969 224.07884L572.0594 223.98509Q572.1375 224.64134 572.41876 225.04759Q572.7 225.45384 573.27814 225.71947Q573.8719 225.96947 574.60626 225.96947Q575.2469 225.96947 575.7469 225.78197Q576.2469 225.57884 576.48126 225.25072Q576.73126 224.90697 576.73126 224.51634Q576.73126 224.11009 576.4969 223.81322Q576.2625 223.50072 575.73126 223.29759Q575.3719 223.15697 574.1844 222.87572Q573.0125 222.59447 572.54376 222.34447Q571.91876 222.01634 571.6219 221.54759Q571.325 221.06322 571.325 220.46947Q571.325 219.82884 571.6844 219.26634Q572.0594 218.68822 572.7625 218.40697Q573.48126 218.11009 574.34064 218.11009Q575.29376 218.11009 576.02814 218.42259Q576.7625 218.71947 577.15314 219.32884Q577.54376 219.92259 577.575 220.67259L576.48126 220.75072Q576.3875 219.93822 575.8719 219.53197Q575.3719 219.11009 574.3875 219.11009Q573.35626 219.11009 572.8875 219.48509Q572.41876 219.86009 572.41876 220.39134Q572.41876 220.86009 572.7469 221.15697Q573.075 221.45384 574.45 221.76634Q575.84064 222.07884 576.35626 222.31322Q577.10626 222.67259 577.46564 223.20384Q577.825 223.71947 577.825 224.42259Q577.825 225.11009 577.4344 225.71947Q577.04376 226.31322 576.3094 226.65697Q575.575 226.98509 574.65314 226.98509Q573.48126 226.98509 572.6844 226.65697Q571.90314 226.31322 571.45 225.62572Q571.0125 224.93822 570.9969 224.07884ZM579.2469 219.46947L579.2469 218.25072L580.3094 218.25072L580.3094 219.46947L579.2469 219.46947ZM579.2469 226.84447L579.2469 220.62572L580.3094 220.62572L580.3094 226.84447L579.2469 226.84447Z" fill-rule="nonzero"/><path fill="#9e9e9e" d="M546.95 241.59447L548.0594 241.50072Q548.1844 242.31322 548.6219 242.71947Q549.075 243.12572 549.71564 243.12572Q550.46564 243.12572 550.9969 242.54759Q551.52814 241.96947 551.52814 241.03197Q551.52814 240.12572 551.0125 239.61009Q550.5125 239.07884 549.6844 239.07884Q549.1844 239.07884 548.7625 239.31322Q548.35626 239.54759 548.1219 239.90697L547.1375 239.78197L547.96564 235.37572L552.2469 235.37572L552.2469 236.37572L548.8094 236.37572L548.35626 238.68822Q549.1219 238.14134 549.96564 238.14134Q551.09064 238.14134 551.85626 238.92259Q552.6375 239.70384 552.6375 240.93822Q552.6375 242.09447 551.96564 242.95384Q551.1375 243.98509 549.71564 243.98509Q548.54376 243.98509 547.79376 243.32884Q547.0594 242.67259 546.95 241.59447ZM553.95 241.57884L555.0125 241.43822Q555.1844 242.32884 555.6219 242.73509Q556.0594 243.12572 556.6844 243.12572Q557.4344 243.12572 557.95 242.61009Q558.46564 242.09447 558.46564 241.32884Q558.46564 240.61009 557.98126 240.14134Q557.5125 239.65697 556.77814 239.65697Q556.48126 239.65697 556.02814 239.78197L556.15314 238.84447Q556.2625 238.86009 556.325 238.86009Q556.9969 238.86009 557.52814 238.51634Q558.075 238.15697 558.075 237.42259Q558.075 236.84447 557.6844 236.46947Q557.29376 236.07884 556.66876 236.07884Q556.0594 236.07884 555.6375 236.46947Q555.23126 236.86009 555.1219 237.62572L554.0594 237.43822Q554.2469 236.39134 554.9344 235.81322Q555.6219 235.21947 556.6375 235.21947Q557.34064 235.21947 557.9344 235.53197Q558.52814 235.82884 558.84064 236.34447Q559.15314 236.86009 559.15314 237.45384Q559.15314 238.00072 558.85626 238.46947Q558.5594 238.92259 557.98126 239.18822Q558.73126 239.36009 559.15314 239.92259Q559.575 240.46947 559.575 241.31322Q559.575 242.43822 558.7469 243.21947Q557.9344 244.00072 556.6844 244.00072Q555.5594 244.00072 554.8094 243.32884Q554.0594 242.64134 553.95 241.57884ZM561.5125 243.84447L561.5125 242.64134L562.71564 242.64134L562.71564 243.84447Q562.71564 244.50072 562.48126 244.90697Q562.2469 245.32884 561.7469 245.54759L561.45 245.09447Q561.77814 244.95384 561.9344 244.65697Q562.09064 244.37572 562.1219 243.84447L561.5125 243.84447ZM565.575 239.18822Q564.91876 238.93822 564.59064 238.50072Q564.27814 238.04759 564.27814 237.43822Q564.27814 236.50072 564.95 235.86009Q565.6375 235.21947 566.7469 235.21947Q567.8719 235.21947 568.5594 235.87572Q569.2469 236.53197 569.2469 237.46947Q569.2469 238.06322 568.9344 238.50072Q568.6219 238.93822 567.98126 239.18822Q568.77814 239.43822 569.1844 240.01634Q569.59064 240.59447 569.59064 241.39134Q569.59064 242.48509 568.8094 243.23509Q568.04376 243.98509 566.7625 243.98509Q565.4969 243.98509 564.71564 243.23509Q563.9344 242.48509 563.9344 241.36009Q563.9344 240.51634 564.35626 239.95384Q564.79376 239.39134 565.575 239.18822ZM565.35626 237.39134Q565.35626 238.00072 565.7469 238.39134Q566.15314 238.78197 566.77814 238.78197Q567.3875 238.78197 567.77814 238.40697Q568.16876 238.01634 568.16876 237.45384Q568.16876 236.87572 567.7625 236.48509Q567.35626 236.07884 566.7625 236.07884Q566.15314 236.07884 565.7469 236.46947Q565.35626 236.86009 565.35626 237.39134ZM565.02814 241.36009Q565.02814 241.81322 565.23126 242.23509Q565.45 242.65697 565.8719 242.89134Q566.29376 243.12572 566.77814 243.12572Q567.52814 243.12572 568.0125 242.64134Q568.5125 242.15697 568.5125 241.40697Q568.5125 240.64134 568.0125 240.14134Q567.5125 239.64134 566.7469 239.64134Q565.9969 239.64134 565.5125 240.14134Q565.02814 240.62572 565.02814 241.36009ZM571.15314 237.31322Q571.15314 236.39134 571.60626 235.75072Q572.075 235.11009 572.95 235.11009Q573.7625 235.11009 574.29376 235.68822Q574.825 236.26634 574.825 237.37572Q574.825 238.46947 574.27814 239.06322Q573.7469 239.64134 572.96564 239.64134Q572.1844 239.64134 571.66876 239.06322Q571.15314 238.48509 571.15314 237.31322ZM572.98126 235.82884Q572.59064 235.82884 572.325 236.17259Q572.075 236.51634 572.075 237.42259Q572.075 238.25072 572.325 238.59447Q572.59064 238.92259 572.98126 238.92259Q573.3875 238.92259 573.6375 238.57884Q573.90314 238.23509 573.90314 237.34447Q573.90314 236.50072 573.6375 236.17259Q573.3719 235.82884 572.98126 235.82884ZM572.98126 244.15697L577.6844 235.11009L578.54376 235.11009L573.85626 244.15697L572.98126 244.15697ZM576.7 241.82884Q576.7 240.90697 577.15314 240.26634Q577.6219 239.62572 578.5125 239.62572Q579.325 239.62572 579.85626 240.20384Q580.3875 240.76634 580.3875 241.89134Q580.3875 242.98509 579.84064 243.57884Q579.3094 244.15697 578.5125 244.15697Q577.7469 244.15697 577.21564 243.57884Q576.7 243.00072 576.7 241.82884ZM578.54376 240.34447Q578.1375 240.34447 577.8719 240.68822Q577.6219 241.03197 577.6219 241.93822Q577.6219 242.75072 577.8875 243.09447Q578.15314 243.43822 578.54376 243.43822Q578.9344 243.43822 579.2 243.09447Q579.46564 242.75072 579.46564 241.84447Q579.46564 241.01634 579.2 240.68822Q578.9344 240.34447 578.54376 240.34447Z" fill-rule="nonzero"/><path stroke="#757575" stroke-width="1.0" stroke-linecap="butt" d="M581.45 231.34447L442.76666 231.34447L428.98102 231.34447" fill-rule="nonzero"/><path fill="#9e9e9e" d="M430.98102 231.34447C430.98102 230.2399 430.08557 229.34447 428.98102 229.34447C427.87643 229.34447 426.98102 230.2399 426.98102 231.34447C426.98102 232.44904 427.87643 233.34447 428.98102 233.34447C430.08557 233.34447 430.98102 232.44904 430.98102 231.34447" fill-rule="nonzero"/><path fill="#757575" d="M18.51875 37.55L24.01875 23.2375L26.065624 23.2375L31.925 37.55L29.76875 37.55L28.096874 33.20625L22.1125 33.20625L20.534374 37.55L18.51875 37.55ZM22.659374 31.675L27.503124 31.675L26.01875 27.70625Q25.33125 25.89375 25.003124 24.7375Q24.721874 26.1125 24.221874 27.471874L22.659374 31.675ZM36.70625 35.971874L36.95625 37.534374Q36.221874 37.690624 35.628124 37.690624Q34.675 37.690624 34.14375 37.39375Q33.628124 37.08125 33.409374 36.596874Q33.190624 36.096874 33.190624 34.51875L33.190624 28.55L31.909374 28.55L31.909374 27.175L33.190624 27.175L33.190624 24.6125L34.940624 23.55L34.940624 27.175L36.70625 27.175L36.70625 28.55L34.940624 28.55L34.940624 34.6125Q34.940624 35.3625 35.034374 35.58125Q35.128124 35.784374 35.33125 35.925Q35.55 36.05 35.940624 36.05Q36.221874 36.05 36.70625 35.971874ZM42.70625 35.971874L42.95625 37.534374Q42.221874 37.690624 41.628124 37.690624Q40.675 37.690624 40.14375 37.39375Q39.628124 37.08125 39.409374 36.596874Q39.190624 36.096874 39.190624 34.51875L39.190624 28.55L37.909374 28.55L37.909374 27.175L39.190624 27.175L39.190624 24.6125L40.940624 23.55L40.940624 27.175L42.70625 27.175L42.70625 28.55L40.940624 28.55L40.940624 34.6125Q40.940624 35.3625 41.034374 35.58125Q41.128124 35.784374 41.33125 35.925Q41.55 36.05 41.940624 36.05Q42.221874 36.05 42.70625 35.971874ZM51.659374 37.55L51.659374 36.01875Q50.45625 37.784374 48.378124 37.784374Q47.45625 37.784374 46.659374 37.440624Q45.8625 37.08125 45.471874 36.55Q45.096874 36.01875 44.940624 35.2375Q44.83125 34.721874 44.83125 33.596874L44.83125 27.175L46.58125 27.175L46.58125 32.925Q46.58125 34.3 46.690624 34.784374Q46.8625 35.471874 47.39375 35.878124Q47.940624 36.26875 48.721874 36.26875Q49.51875 36.26875 50.20625 35.8625Q50.909374 35.45625 51.190624 34.76875Q51.4875 34.065624 51.4875 32.7375L51.4875 27.175L53.2375 27.175L53.2375 37.55L51.659374 37.55ZM61.64375 36.26875Q60.659374 37.096874 59.753124 37.440624Q58.846874 37.784374 57.815624 37.784374Q56.1125 37.784374 55.190624 36.95625Q54.26875 36.1125 54.26875 34.815624Q54.26875 34.05 54.6125 33.425Q54.971874 32.8 55.534374 32.425Q56.096874 32.034374 56.8 31.83125Q57.315624 31.70625 58.3625 31.565624Q60.4875 31.315624 61.4875 30.971874Q61.503124 30.6125 61.503124 30.503124Q61.503124 29.440624 61.003124 28.9875Q60.33125 28.39375 59.003124 28.39375Q57.753124 28.39375 57.159374 28.83125Q56.58125 29.26875 56.3 30.378124L54.58125 30.14375Q54.815624 29.034374 55.346874 28.3625Q55.878124 27.675 56.89375 27.315624Q57.909374 26.940624 59.253124 26.940624Q60.58125 26.940624 61.409374 27.253124Q62.2375 27.565624 62.628124 28.05Q63.01875 28.51875 63.175 29.2375Q63.26875 29.690624 63.26875 30.8625L63.26875 33.20625Q63.26875 35.659374 63.378124 36.315624Q63.4875 36.95625 63.83125 37.55L61.9875 37.55Q61.721874 37.003124 61.64375 36.26875ZM61.4875 32.346874Q60.534374 32.7375 58.6125 33.003124Q57.534374 33.159374 57.08125 33.3625Q56.64375 33.55 56.39375 33.925Q56.14375 34.3 56.14375 34.76875Q56.14375 35.471874 56.675 35.940624Q57.20625 36.409374 58.2375 36.409374Q59.253124 36.409374 60.034374 35.971874Q60.83125 35.51875 61.20625 34.753124Q61.4875 34.14375 61.4875 32.9875L61.4875 32.346874ZM65.83125 37.55L65.83125 23.2375L67.58125 23.2375L67.58125 37.55L65.83125 37.55ZM69.8625 37.55L69.8625 27.175L71.44063 27.175L71.44063 28.628124Q71.925 27.878124 72.7375 27.409374Q73.55 26.940624 74.58125 26.940624Q75.7375 26.940624 76.47188 27.425Q77.20625 27.89375 77.51875 28.753124Q78.75313 26.940624 80.72188 26.940624Q82.26875 26.940624 83.09688 27.8Q83.925 28.659374 83.925 30.425L83.925 37.55L82.175 37.55L82.175 31.01875Q82.175 29.95625 82.00313 29.503124Q81.83125 29.034374 81.37813 28.753124Q80.94063 28.471874 80.33125 28.471874Q79.2375 28.471874 78.50313 29.20625Q77.78438 29.925 77.78438 31.51875L77.78438 37.55L76.03438 37.55L76.03438 30.815624Q76.03438 29.64375 75.59688 29.065624Q75.175 28.471874 74.19063 28.471874Q73.45625 28.471874 72.81563 28.8625Q72.19063 29.253124 71.90938 30.003124Q71.62813 30.753124 71.62813 32.175L71.62813 37.55L69.8625 37.55ZM92.97188 34.20625L94.78438 34.440624Q94.3625 36.01875 93.19063 36.909374Q92.03438 37.784374 90.22188 37.784374Q87.95625 37.784374 86.6125 36.39375Q85.28438 34.9875 85.28438 32.45625Q85.28438 29.83125 86.62813 28.39375Q87.97188 26.940624 90.12813 26.940624Q92.20625 26.940624 93.51875 28.3625Q94.84688 29.76875 94.84688 32.346874Q94.84688 32.503124 94.83125 32.815624L87.09688 32.815624Q87.19063 34.51875 88.06563 35.425Q88.94063 36.33125 90.2375 36.33125Q91.20625 36.33125 91.87813 35.83125Q92.56563 35.315624 92.97188 34.20625ZM87.19063 31.3625L92.9875 31.3625Q92.87813 30.065624 92.33125 29.409374Q91.4875 28.39375 90.14375 28.39375Q88.94063 28.39375 88.1125 29.20625Q87.28438 30.003124 87.19063 31.3625ZM96.8625 37.55L96.8625 27.175L98.45625 27.175L98.45625 28.659374Q99.59688 26.940624 101.75313 26.940624Q102.69063 26.940624 103.47188 27.284374Q104.26875 27.6125 104.65938 28.159374Q105.05 28.70625 105.20625 29.45625Q105.3 29.95625 105.3 31.175L105.3 37.55L103.53438 37.55L103.53438 31.2375Q103.53438 30.159374 103.33125 29.628124Q103.12813 29.096874 102.59688 28.784374Q102.08125 28.471874 101.37813 28.471874Q100.25313 28.471874 99.44063 29.190624Q98.62813 29.89375 98.62813 31.878124L98.62813 37.55L96.8625 37.55ZM110.70625 35.971874L110.95625 37.534374Q110.22188 37.690624 109.62813 37.690624Q108.675 37.690624 108.14375 37.39375Q107.62813 37.08125 107.40938 36.596874Q107.19063 36.096874 107.19063 34.51875L107.19063 28.55L105.90938 28.55L105.90938 27.175L107.19063 27.175L107.19063 24.6125L108.94063 23.55L108.94063 27.175L110.70625 27.175L110.70625 28.55L108.94063 28.55L108.94063 34.6125Q108.94063 35.3625 109.03438 35.58125Q109.12813 35.784374 109.33125 35.925Q109.55 36.05 109.94063 36.05Q110.22188 36.05 110.70625 35.971874ZM119.97188 34.20625L121.78438 34.440624Q121.3625 36.01875 120.19063 36.909374Q119.03438 37.784374 117.22188 37.784374Q114.95625 37.784374 113.6125 36.39375Q112.28438 34.9875 112.28438 32.45625Q112.28438 29.83125 113.62813 28.39375Q114.97188 26.940624 117.12813 26.940624Q119.20625 26.940624 120.51875 28.3625Q121.84688 29.76875 121.84688 32.346874Q121.84688 32.503124 121.83125 32.815624L114.09688 32.815624Q114.19063 34.51875 115.06563 35.425Q115.94063 36.33125 117.2375 36.33125Q118.20625 36.33125 118.87813 35.83125Q119.56563 35.315624 119.97188 34.20625ZM114.19063 31.3625L119.9875 31.3625Q119.87813 30.065624 119.33125 29.409374Q118.4875 28.39375 117.14375 28.39375Q115.94063 28.39375 115.1125 29.20625Q114.28438 30.003124 114.19063 31.3625ZM129.83125 37.55L129.83125 23.2375L131.58125 23.2375L131.58125 37.55L129.83125 37.55ZM140.64375 36.26875Q139.65938 37.096874 138.75313 37.440624Q137.84688 37.784374 136.81563 37.784374Q135.1125 37.784374 134.19063 36.95625Q133.26875 36.1125 133.26875 34.815624Q133.26875 34.05 133.6125 33.425Q133.97188 32.8 134.53438 32.425Q135.09688 32.034374 135.8 31.83125Q136.31563 31.70625 137.3625 31.565624Q139.4875 31.315624 140.4875 30.971874Q140.50313 30.6125 140.50313 30.503124Q140.50313 29.440624 140.00313 28.9875Q139.33125 28.39375 138.00313 28.39375Q136.75313 28.39375 136.15938 28.83125Q135.58125 29.26875 135.3 30.378124L133.58125 30.14375Q133.81563 29.034374 134.34688 28.3625Q134.87813 27.675 135.89375 27.315624Q136.90938 26.940624 138.25313 26.940624Q139.58125 26.940624 140.40938 27.253124Q141.2375 27.565624 141.62813 28.05Q142.01875 28.51875 142.175 29.2375Q142.26875 29.690624 142.26875 30.8625L142.26875 33.20625Q142.26875 35.659374 142.37813 36.315624Q142.4875 36.95625 142.83125 37.55L140.9875 37.55Q140.72188 37.003124 140.64375 36.26875ZM140.4875 32.346874Q139.53438 32.7375 137.6125 33.003124Q136.53438 33.159374 136.08125 33.3625Q135.64375 33.55 135.39375 33.925Q135.14375 34.3 135.14375 34.76875Q135.14375 35.471874 135.675 35.940624Q136.20625 36.409374 137.2375 36.409374Q138.25313 36.409374 139.03438 35.971874Q139.83125 35.51875 140.20625 34.753124Q140.4875 34.14375 140.4875 32.9875L140.4875 32.346874ZM147.75313 37.55L143.8 27.175L145.65938 27.175L147.89375 33.39375Q148.25313 34.39375 148.55 35.471874Q148.78438 34.659374 149.20625 33.503124L151.50313 27.175L153.31563 27.175L149.39375 37.55L147.75313 37.55ZM153.22188 32.3625Q153.22188 29.4875 154.81563 28.096874Q156.15938 26.940624 158.08125 26.940624Q160.22188 26.940624 161.56563 28.346874Q162.925 29.753124 162.925 32.221874Q162.925 34.221874 162.33125 35.378124Q161.7375 36.51875 160.58125 37.159374Q159.44063 37.784374 158.08125 37.784374Q155.89375 37.784374 154.55 36.39375Q153.22188 34.9875 153.22188 32.3625ZM155.01875 32.3625Q155.01875 34.3625 155.87813 35.346874Q156.75313 36.33125 158.08125 36.33125Q159.39375 36.33125 160.25313 35.346874Q161.12813 34.346874 161.12813 32.3Q161.12813 30.378124 160.25313 29.39375Q159.37813 28.39375 158.08125 28.39375Q156.75313 28.39375 155.87813 29.39375Q155.01875 30.378124 155.01875 32.3625ZM164.84688 37.55L164.84688 27.175L166.425 27.175L166.425 28.753124Q167.03438 27.64375 167.55 27.3Q168.06563 26.940624 168.675 26.940624Q169.56563 26.940624 170.4875 27.503124L169.87813 29.14375Q169.2375 28.753124 168.59688 28.753124Q168.01875 28.753124 167.55 29.1125Q167.09688 29.45625 166.89375 30.065624Q166.6125 31.003124 166.6125 32.1125L166.6125 37.55L164.84688 37.55ZM171.87813 25.253124L171.87813 23.2375L173.64375 23.2375L173.64375 25.253124L171.87813 25.253124ZM171.87813 37.55L171.87813 27.175L173.64375 27.175L173.64375 37.55L171.87813 37.55ZM181.8625 41.51875L181.8625 27.175L183.47188 27.175L183.47188 28.51875Q184.03438 27.7375 184.7375 27.346874Q185.45625 26.940624 186.47188 26.940624Q187.8 26.940624 188.81563 27.628124Q189.83125 28.315624 190.34688 29.565624Q190.87813 30.8 190.87813 32.284374Q190.87813 33.878124 190.3 35.159374Q189.7375 36.425 188.64375 37.1125Q187.55 37.784374 186.34688 37.784374Q185.47188 37.784374 184.76875 37.409374Q184.08125 37.034374 183.62813 36.471874L183.62813 41.51875L181.8625 41.51875ZM183.45625 32.425Q183.45625 34.425 184.26875 35.378124Q185.08125 36.33125 186.2375 36.33125Q187.40938 36.33125 188.2375 35.346874Q189.08125 34.3625 189.08125 32.26875Q189.08125 30.3 188.25313 29.315624Q187.44063 28.315624 186.31563 28.315624Q185.19063 28.315624 184.31563 29.378124Q183.45625 30.425 183.45625 32.425ZM199.64375 36.26875Q198.65938 37.096874 197.75313 37.440624Q196.84688 37.784374 195.81563 37.784374Q194.1125 37.784374 193.19063 36.95625Q192.26875 36.1125 192.26875 34.815624Q192.26875 34.05 192.6125 33.425Q192.97188 32.8 193.53438 32.425Q194.09688 32.034374 194.8 31.83125Q195.31563 31.70625 196.3625 31.565624Q198.4875 31.315624 199.4875 30.971874Q199.50313 30.6125 199.50313 30.503124Q199.50313 29.440624 199.00313 28.9875Q198.33125 28.39375 197.00313 28.39375Q195.75313 28.39375 195.15938 28.83125Q194.58125 29.26875 194.3 30.378124L192.58125 30.14375Q192.81563 29.034374 193.34688 28.3625Q193.87813 27.675 194.89375 27.315624Q195.90938 26.940624 197.25313 26.940624Q198.58125 26.940624 199.40938 27.253124Q200.2375 27.565624 200.62813 28.05Q201.01875 28.51875 201.175 29.2375Q201.26875 29.690624 201.26875 30.8625L201.26875 33.20625Q201.26875 35.659374 201.37813 36.315624Q201.4875 36.95625 201.83125 37.55L199.9875 37.55Q199.72188 37.003124 199.64375 36.26875ZM199.4875 32.346874Q198.53438 32.7375 196.6125 33.003124Q195.53438 33.159374 195.08125 33.3625Q194.64375 33.55 194.39375 33.925Q194.14375 34.3 194.14375 34.76875Q194.14375 35.471874 194.675 35.940624Q195.20625 36.409374 196.2375 36.409374Q197.25313 36.409374 198.03438 35.971874Q198.83125 35.51875 199.20625 34.753124Q199.4875 34.14375 199.4875 32.9875L199.4875 32.346874ZM203.84688 37.55L203.84688 27.175L205.425 27.175L205.425 28.753124Q206.03438 27.64375 206.55 27.3Q207.06563 26.940624 207.675 26.940624Q208.56563 26.940624 209.4875 27.503124L208.87813 29.14375Q208.2375 28.753124 207.59688 28.753124Q207.01875 28.753124 206.55 29.1125Q206.09688 29.45625 205.89375 30.065624Q205.6125 31.003124 205.6125 32.1125L205.6125 37.55L203.84688 37.55ZM214.70625 35.971874L214.95625 37.534374Q214.22188 37.690624 213.62813 37.690624Q212.675 37.690624 212.14375 37.39375Q211.62813 37.08125 211.40938 36.596874Q211.19063 36.096874 211.19063 34.51875L211.19063 28.55L209.90938 28.55L209.90938 27.175L211.19063 27.175L211.19063 24.6125L212.94063 23.55L212.94063 27.175L214.70625 27.175L214.70625 28.55L212.94063 28.55L212.94063 34.6125Q212.94063 35.3625 213.03438 35.58125Q213.12813 35.784374 213.33125 35.925Q213.55 36.05 213.94063 36.05Q214.22188 36.05 214.70625 35.971874ZM216.19063 33.253124L216.19063 31.4875L221.58125 31.4875L221.58125 33.253124L216.19063 33.253124ZM227.70625 35.971874L227.95625 37.534374Q227.22188 37.690624 226.62813 37.690624Q225.675 37.690624 225.14375 37.39375Q224.62813 37.08125 224.40938 36.596874Q224.19063 36.096874 224.19063 34.51875L224.19063 28.55L222.90938 28.55L222.90938 27.175L224.19063 27.175L224.19063 24.6125L225.94063 23.55L225.94063 27.175L227.70625 27.175L227.70625 28.55L225.94063 28.55L225.94063 34.6125Q225.94063 35.3625 226.03438 35.58125Q226.12813 35.784374 226.33125 35.925Q226.55 36.05 226.94063 36.05Q227.22188 36.05 227.70625 35.971874ZM229.87813 25.253124L229.87813 23.2375L231.64375 23.2375L231.64375 25.253124L229.87813 25.253124ZM229.87813 37.55L229.87813 27.175L231.64375 27.175L231.64375 37.55L229.87813 37.55ZM233.8625 37.55L233.8625 27.175L235.44063 27.175L235.44063 28.628124Q235.925 27.878124 236.7375 27.409374Q237.55 26.940624 238.58125 26.940624Q239.7375 26.940624 240.47188 27.425Q241.20625 27.89375 241.51875 28.753124Q242.75313 26.940624 244.72188 26.940624Q246.26875 26.940624 247.09688 27.8Q247.925 28.659374 247.925 30.425L247.925 37.55L246.175 37.55L246.175 31.01875Q246.175 29.95625 246.00313 29.503124Q245.83125 29.034374 245.37813 28.753124Q244.94063 28.471874 244.33125 28.471874Q243.2375 28.471874 242.50313 29.20625Q241.78438 29.925 241.78438 31.51875L241.78438 37.55L240.03438 37.55L240.03438 30.815624Q240.03438 29.64375 239.59688 29.065624Q239.175 28.471874 238.19063 28.471874Q237.45625 28.471874 236.81563 28.8625Q236.19063 29.253124 235.90938 30.003124Q235.62813 30.753124 235.62813 32.175L235.62813 37.55L233.8625 37.55ZM256.97186 34.20625L258.78436 34.440624Q258.3625 36.01875 257.1906 36.909374Q256.03436 37.784374 254.22188 37.784374Q251.95625 37.784374 250.6125 36.39375Q249.28438 34.9875 249.28438 32.45625Q249.28438 29.83125 250.62813 28.39375Q251.97188 26.940624 254.12813 26.940624Q256.20624 26.940624 257.51874 28.3625Q258.84686 29.76875 258.84686 32.346874Q258.84686 32.503124 258.83124 32.815624L251.09688 32.815624Q251.19063 34.51875 252.06563 35.425Q252.94063 36.33125 254.2375 36.33125Q255.20625 36.33125 255.87813 35.83125Q256.5656 35.315624 256.97186 34.20625ZM251.19063 31.3625L256.9875 31.3625Q256.8781 30.065624 256.33124 29.409374Q255.4875 28.39375 254.14375 28.39375Q252.94063 28.39375 252.1125 29.20625Q251.28438 30.003124 251.19063 31.3625ZM266.22186 32.3625Q266.22186 29.4875 267.8156 28.096874Q269.15936 26.940624 271.08124 26.940624Q273.22186 26.940624 274.5656 28.346874Q275.925 29.753124 275.925 32.221874Q275.925 34.221874 275.33124 35.378124Q274.7375 36.51875 273.58124 37.159374Q272.4406 37.784374 271.08124 37.784374Q268.89374 37.784374 267.55 36.39375Q266.22186 34.9875 266.22186 32.3625ZM268.01874 32.3625Q268.01874 34.3625 268.8781 35.346874Q269.7531 36.33125 271.08124 36.33125Q272.39374 36.33125 273.2531 35.346874Q274.1281 34.346874 274.1281 32.3Q274.1281 30.378124 273.2531 29.39375Q272.3781 28.39375 271.08124 28.39375Q269.7531 28.39375 268.8781 29.39375Q268.01874 30.378124 268.01874 32.3625ZM290.64374 36.26875Q289.65936 37.096874 288.7531 37.440624Q287.84686 37.784374 286.8156 37.784374Q285.1125 37.784374 284.1906 36.95625Q283.26874 36.1125 283.26874 34.815624Q283.26874 34.05 283.6125 33.425Q283.97186 32.8 284.53436 32.425Q285.09686 32.034374 285.8 31.83125Q286.3156 31.70625 287.3625 31.565624Q289.4875 31.315624 290.4875 30.971874Q290.5031 30.6125 290.5031 30.503124Q290.5031 29.440624 290.0031 28.9875Q289.33124 28.39375 288.0031 28.39375Q286.7531 28.39375 286.15936 28.83125Q285.58124 29.26875 285.3 30.378124L283.58124 30.14375Q283.8156 29.034374 284.34686 28.3625Q284.8781 27.675 285.89374 27.315624Q286.90936 26.940624 288.2531 26.940624Q289.58124 26.940624 290.40936 27.253124Q291.2375 27.565624 291.6281 28.05Q292.01874 28.51875 292.175 29.2375Q292.26874 29.690624 292.26874 30.8625L292.26874 33.20625Q292.26874 35.659374 292.3781 36.315624Q292.4875 36.95625 292.83124 37.55L290.9875 37.55Q290.72186 37.003124 290.64374 36.26875ZM290.4875 32.346874Q289.53436 32.7375 287.6125 33.003124Q286.53436 33.159374 286.08124 33.3625Q285.64374 33.55 285.39374 33.925Q285.14374 34.3 285.14374 34.76875Q285.14374 35.471874 285.675 35.940624Q286.20624 36.409374 287.2375 36.409374Q288.2531 36.409374 289.03436 35.971874Q289.83124 35.51875 290.20624 34.753124Q290.4875 34.14375 290.4875 32.9875L290.4875 32.346874ZM304.70624 35.971874L304.95624 37.534374Q304.22186 37.690624 303.6281 37.690624Q302.675 37.690624 302.14374 37.39375Q301.6281 37.08125 301.40936 36.596874Q301.1906 36.096874 301.1906 34.51875L301.1906 28.55L299.90936 28.55L299.90936 27.175L301.1906 27.175L301.1906 24.6125L302.9406 23.55L302.9406 27.175L304.70624 27.175L304.70624 28.55L302.9406 28.55L302.9406 34.6125Q302.9406 35.3625 303.03436 35.58125Q303.1281 35.784374 303.33124 35.925Q303.55 36.05 303.9406 36.05Q304.22186 36.05 304.70624 35.971874ZM313.97186 34.20625L315.78436 34.440624Q315.3625 36.01875 314.1906 36.909374Q313.03436 37.784374 311.22186 37.784374Q308.95624 37.784374 307.6125 36.39375Q306.28436 34.9875 306.28436 32.45625Q306.28436 29.83125 307.6281 28.39375Q308.97186 26.940624 311.1281 26.940624Q313.20624 26.940624 314.51874 28.3625Q315.84686 29.76875 315.84686 32.346874Q315.84686 32.503124 315.83124 32.815624L308.09686 32.815624Q308.1906 34.51875 309.0656 35.425Q309.9406 36.33125 311.2375 36.33125Q312.20624 36.33125 312.8781 35.83125Q313.5656 35.315624 313.97186 34.20625ZM308.1906 31.3625L313.9875 31.3625Q313.8781 30.065624 313.33124 29.409374Q312.4875 28.39375 311.14374 28.39375Q309.9406 28.39375 309.1125 29.20625Q308.28436 30.003124 308.1906 31.3625ZM317.8625 37.55L317.8625 27.175L319.4406 27.175L319.4406 28.628124Q319.925 27.878124 320.7375 27.409374Q321.55 26.940624 322.58124 26.940624Q323.7375 26.940624 324.47186 27.425Q325.20624 27.89375 325.51874 28.753124Q326.7531 26.940624 328.72186 26.940624Q330.26874 26.940624 331.09686 27.8Q331.925 28.659374 331.925 30.425L331.925 37.55L330.175 37.55L330.175 31.01875Q330.175 29.95625 330.0031 29.503124Q329.83124 29.034374 329.3781 28.753124Q328.9406 28.471874 328.33124 28.471874Q327.2375 28.471874 326.5031 29.20625Q325.78436 29.925 325.78436 31.51875L325.78436 37.55L324.03436 37.55L324.03436 30.815624Q324.03436 29.64375 323.59686 29.065624Q323.175 28.471874 322.1906 28.471874Q321.45624 28.471874 320.8156 28.8625Q320.1906 29.253124 319.90936 30.003124Q319.6281 30.753124 319.6281 32.175L319.6281 37.55L317.8625 37.55ZM333.8625 41.51875L333.8625 27.175L335.47186 27.175L335.47186 28.51875Q336.03436 27.7375 336.7375 27.346874Q337.45624 26.940624 338.47186 26.940624Q339.8 26.940624 340.8156 27.628124Q341.83124 28.315624 342.34686 29.565624Q342.8781 30.8 342.8781 32.284374Q342.8781 33.878124 342.3 35.159374Q341.7375 36.425 340.64374 37.1125Q339.55 37.784374 338.34686 37.784374Q337.47186 37.784374 336.76874 37.409374Q336.08124 37.034374 335.6281 36.471874L335.6281 41.51875L333.8625 41.51875ZM335.45624 32.425Q335.45624 34.425 336.26874 35.378124Q337.08124 36.33125 338.2375 36.33125Q339.40936 36.33125 340.2375 35.346874Q341.08124 34.3625 341.08124 32.26875Q341.08124 30.3 340.2531 29.315624Q339.4406 28.315624 338.3156 28.315624Q337.1906 28.315624 336.3156 29.378124Q335.45624 30.425 335.45624 32.425ZM344.22186 32.3625Q344.22186 29.4875 345.8156 28.096874Q347.15936 26.940624 349.08124 26.940624Q351.22186 26.940624 352.5656 28.346874Q353.925 29.753124 353.925 32.221874Q353.925 34.221874 353.33124 35.378124Q352.7375 36.51875 351.58124 37.159374Q350.4406 37.784374 349.08124 37.784374Q346.89374 37.784374 345.55 36.39375Q344.22186 34.9875 344.22186 32.3625ZM346.01874 32.3625Q346.01874 34.3625 346.8781 35.346874Q347.7531 36.33125 349.08124 36.33125Q350.39374 36.33125 351.2531 35.346874Q352.1281 34.346874 352.1281 32.3Q352.1281 30.378124 351.2531 29.39375Q350.3781 28.39375 349.08124 28.39375Q347.7531 28.39375 346.8781 29.39375Q346.01874 30.378124 346.01874 32.3625ZM361.8625 41.51875L361.8625 27.175L363.47186 27.175L363.47186 28.51875Q364.03436 27.7375 364.7375 27.346874Q365.45624 26.940624 366.47186 26.940624Q367.8 26.940624 368.8156 27.628124Q369.83124 28.315624 370.34686 29.565624Q370.8781 30.8 370.8781 32.284374Q370.8781 33.878124 370.3 35.159374Q369.7375 36.425 368.64374 37.1125Q367.55 37.784374 366.34686 37.784374Q365.47186 37.784374 364.76874 37.409374Q364.08124 37.034374 363.6281 36.471874L363.6281 41.51875L361.8625 41.51875ZM363.45624 32.425Q363.45624 34.425 364.26874 35.378124Q365.08124 36.33125 366.2375 36.33125Q367.40936 36.33125 368.2375 35.346874Q369.08124 34.3625 369.08124 32.26875Q369.08124 30.3 368.2531 29.315624Q367.4406 28.315624 366.3156 28.315624Q365.1906 28.315624 364.3156 29.378124Q363.45624 30.425 363.45624 32.425ZM372.8781 25.253124L372.8781 23.2375L374.64374 23.2375L374.64374 25.253124L372.8781 25.253124ZM372.8781 37.55L372.8781 27.175L374.64374 27.175L374.64374 37.55L372.8781 37.55ZM383.97186 34.20625L385.78436 34.440624Q385.3625 36.01875 384.1906 36.909374Q383.03436 37.784374 381.22186 37.784374Q378.95624 37.784374 377.6125 36.39375Q376.28436 34.9875 376.28436 32.45625Q376.28436 29.83125 377.6281 28.39375Q378.97186 26.940624 381.1281 26.940624Q383.20624 26.940624 384.51874 28.3625Q385.84686 29.76875 385.84686 32.346874Q385.84686 32.503124 385.83124 32.815624L378.09686 32.815624Q378.1906 34.51875 379.0656 35.425Q379.9406 36.33125 381.2375 36.33125Q382.20624 36.33125 382.8781 35.83125Q383.5656 35.315624 383.97186 34.20625ZM378.1906 31.3625L383.9875 31.3625Q383.8781 30.065624 383.33124 29.409374Q382.4875 28.39375 381.14374 28.39375Q379.9406 28.39375 379.1125 29.20625Q378.28436 30.003124 378.1906 31.3625ZM387.8625 37.55L387.8625 27.175L389.45624 27.175L389.45624 28.659374Q390.59686 26.940624 392.7531 26.940624Q393.6906 26.940624 394.47186 27.284374Q395.26874 27.6125 395.65936 28.159374Q396.05 28.70625 396.20624 29.45625Q396.3 29.95625 396.3 31.175L396.3 37.55L394.53436 37.55L394.53436 31.2375Q394.53436 30.159374 394.33124 29.628124Q394.1281 29.096874 393.59686 28.784374Q393.08124 28.471874 392.3781 28.471874Q391.2531 28.471874 390.4406 29.190624Q389.6281 29.89375 389.6281 31.878124L389.6281 37.55L387.8625 37.55ZM397.22186 32.3625Q397.22186 29.4875 398.8156 28.096874Q400.15936 26.940624 402.08124 26.940624Q404.22186 26.940624 405.5656 28.346874Q406.925 29.753124 406.925 32.221874Q406.925 34.221874 406.33124 35.378124Q405.7375 36.51875 404.58124 37.159374Q403.4406 37.784374 402.08124 37.784374Q399.89374 37.784374 398.55 36.39375Q397.22186 34.9875 397.22186 32.3625ZM399.01874 32.3625Q399.01874 34.3625 399.8781 35.346874Q400.7531 36.33125 402.08124 36.33125Q403.39374 36.33125 404.2531 35.346874Q405.1281 34.346874 405.1281 32.3Q405.1281 30.378124 404.2531 29.39375Q403.3781 28.39375 402.08124 28.39375Q400.7531 28.39375 399.8781 29.39375Q399.01874 30.378124 399.01874 32.3625ZM414.8781 25.253124L414.8781 23.2375L416.64374 23.2375L416.64374 25.253124L414.8781 25.253124ZM414.8781 37.55L414.8781 27.175L416.64374 27.175L416.64374 37.55L414.8781 37.55ZM418.8625 37.55L418.8625 27.175L420.45624 27.175L420.45624 28.659374Q421.59686 26.940624 423.7531 26.940624Q424.6906 26.940624 425.47186 27.284374Q426.26874 27.6125 426.65936 28.159374Q427.05 28.70625 427.20624 29.45625Q427.3 29.95625 427.3 31.175L427.3 37.55L425.53436 37.55L425.53436 31.2375Q425.53436 30.159374 425.33124 29.628124Q425.1281 29.096874 424.59686 28.784374Q424.08124 28.471874 423.3781 28.471874Q422.2531 28.471874 421.4406 29.190624Q420.6281 29.89375 420.6281 31.878124L420.6281 37.55L418.8625 37.55ZM441.65936 37.55L441.65936 36.01875Q440.45624 37.784374 438.3781 37.784374Q437.45624 37.784374 436.65936 37.440624Q435.8625 37.08125 435.47186 36.55Q435.09686 36.01875 434.9406 35.2375Q434.83124 34.721874 434.83124 33.596874L434.83124 27.175L436.58124 27.175L436.58124 32.925Q436.58124 34.3 436.6906 34.784374Q436.8625 35.471874 437.39374 35.878124Q437.9406 36.26875 438.72186 36.26875Q439.51874 36.26875 440.20624 35.8625Q440.90936 35.45625 441.1906 34.76875Q441.4875 34.065624 441.4875 32.7375L441.4875 27.175L443.2375 27.175L443.2375 37.55L441.65936 37.55ZM444.8625 37.55L444.8625 27.175L446.45624 27.175L446.45624 28.659374Q447.59686 26.940624 449.7531 26.940624Q450.6906 26.940624 451.47186 27.284374Q452.26874 27.6125 452.65936 28.159374Q453.05 28.70625 453.20624 29.45625Q453.3 29.95625 453.3 31.175L453.3 37.55L451.53436 37.55L451.53436 31.2375Q451.53436 30.159374 451.33124 29.628124Q451.1281 29.096874 450.59686 28.784374Q450.08124 28.471874 449.3781 28.471874Q448.2531 28.471874 447.4406 29.190624Q446.6281 29.89375 446.6281 31.878124L446.6281 37.55L444.8625 37.55ZM460.8625 41.51875L460.8625 27.175L462.47186 27.175L462.47186 28.51875Q463.03436 27.7375 463.7375 27.346874Q464.45624 26.940624 465.47186 26.940624Q466.8 26.940624 467.8156 27.628124Q468.83124 28.315624 469.34686 29.565624Q469.8781 30.8 469.8781 32.284374Q469.8781 33.878124 469.3 35.159374Q468.7375 36.425 467.64374 37.1125Q466.55 37.784374 465.34686 37.784374Q464.47186 37.784374 463.76874 37.409374Q463.08124 37.034374 462.6281 36.471874L462.6281 41.51875L460.8625 41.51875ZM462.45624 32.425Q462.45624 34.425 463.26874 35.378124Q464.08124 36.33125 465.2375 36.33125Q466.40936 36.33125 467.2375 35.346874Q468.08124 34.3625 468.08124 32.26875Q468.08124 30.3 467.2531 29.315624Q466.4406 28.315624 465.3156 28.315624Q464.1906 28.315624 463.3156 29.378124Q462.45624 30.425 462.45624 32.425ZM478.64374 36.26875Q477.65936 37.096874 476.7531 37.440624Q475.84686 37.784374 474.8156 37.784374Q473.1125 37.784374 472.1906 36.95625Q471.26874 36.1125 471.26874 34.815624Q471.26874 34.05 471.6125 33.425Q471.97186 32.8 472.53436 32.425Q473.09686 32.034374 473.8 31.83125Q474.3156 31.70625 475.3625 31.565624Q477.4875 31.315624 478.4875 30.971874Q478.5031 30.6125 478.5031 30.503124Q478.5031 29.440624 478.0031 28.9875Q477.33124 28.39375 476.0031 28.39375Q474.7531 28.39375 474.15936 28.83125Q473.58124 29.26875 473.3 30.378124L471.58124 30.14375Q471.8156 29.034374 472.34686 28.3625Q472.8781 27.675 473.89374 27.315624Q474.90936 26.940624 476.2531 26.940624Q477.58124 26.940624 478.40936 27.253124Q479.2375 27.565624 479.6281 28.05Q480.01874 28.51875 480.175 29.2375Q480.26874 29.690624 480.26874 30.8625L480.26874 33.20625Q480.26874 35.659374 480.3781 36.315624Q480.4875 36.95625 480.83124 37.55L478.9875 37.55Q478.72186 37.003124 478.64374 36.26875ZM478.4875 32.346874Q477.53436 32.7375 475.6125 33.003124Q474.53436 33.159374 474.08124 33.3625Q473.64374 33.55 473.39374 33.925Q473.14374 34.3 473.14374 34.76875Q473.14374 35.471874 473.675 35.940624Q474.20624 36.409374 475.2375 36.409374Q476.2531 36.409374 477.03436 35.971874Q477.83124 35.51875 478.20624 34.753124Q478.4875 34.14375 478.4875 32.9875L478.4875 32.346874ZM489.97186 34.20625L491.78436 34.440624Q491.3625 36.01875 490.1906 36.909374Q489.03436 37.784374 487.22186 37.784374Q484.95624 37.784374 483.6125 36.39375Q482.28436 34.9875 482.28436 32.45625Q482.28436 29.83125 483.6281 28.39375Q484.97186 26.940624 487.1281 26.940624Q489.20624 26.940624 490.51874 28.3625Q491.84686 29.76875 491.84686 32.346874Q491.84686 32.503124 491.83124 32.815624L484.09686 32.815624Q484.1906 34.51875 485.0656 35.425Q485.9406 36.33125 487.2375 36.33125Q488.20624 36.33125 488.8781 35.83125Q489.5656 35.315624 489.97186 34.20625ZM484.1906 31.3625L489.9875 31.3625Q489.8781 30.065624 489.33124 29.409374Q488.4875 28.39375 487.14374 28.39375Q485.9406 28.39375 485.1125 29.20625Q484.28436 30.003124 484.1906 31.3625ZM493.15936 34.45625L494.90936 34.175Q495.05 35.221874 495.72186 35.784374Q496.39374 36.33125 497.59686 36.33125Q498.8 36.33125 499.3781 35.846874Q499.97186 35.346874 499.97186 34.690624Q499.97186 34.096874 499.45624 33.753124Q499.09686 33.51875 497.65936 33.159374Q495.72186 32.659374 494.97186 32.315624Q494.2375 31.95625 493.84686 31.33125Q493.45624 30.690624 493.45624 29.925Q493.45624 29.2375 493.76874 28.64375Q494.09686 28.05 494.64374 27.659374Q495.05 27.3625 495.7531 27.159374Q496.47186 26.940624 497.28436 26.940624Q498.5031 26.940624 499.425 27.3Q500.34686 27.64375 500.78436 28.253124Q501.22186 28.846874 501.39374 29.846874L499.675 30.08125Q499.55 29.284374 498.9875 28.846874Q498.425 28.39375 497.40936 28.39375Q496.1906 28.39375 495.675 28.8Q495.15936 29.190624 495.15936 29.721874Q495.15936 30.065624 495.3781 30.346874Q495.58124 30.628124 496.05 30.815624Q496.3156 30.909374 497.59686 31.253124Q499.47186 31.753124 500.20624 32.08125Q500.9406 32.39375 501.3625 33.003124Q501.78436 33.596874 501.78436 34.503124Q501.78436 35.378124 501.26874 36.159374Q500.7531 36.940624 499.78436 37.3625Q498.8156 37.784374 497.59686 37.784374Q495.58124 37.784374 494.51874 36.940624Q493.45624 36.096874 493.15936 34.45625ZM510.97186 34.20625L512.78436 34.440624Q512.3625 36.01875 511.1906 36.909374Q510.03436 37.784374 508.22186 37.784374Q505.95624 37.784374 504.6125 36.39375Q503.28436 34.9875 503.28436 32.45625Q503.28436 29.83125 504.6281 28.39375Q505.97186 26.940624 508.1281 26.940624Q510.20624 26.940624 511.51874 28.3625Q512.84686 29.76875 512.84686 32.346874Q512.84686 32.503124 512.83124 32.815624L505.09686 32.815624Q505.1906 34.51875 506.0656 35.425Q506.9406 36.33125 508.2375 36.33125Q509.20624 36.33125 509.8781 35.83125Q510.5656 35.315624 510.97186 34.20625ZM505.1906 31.3625L510.9875 31.3625Q510.8781 30.065624 510.33124 29.409374Q509.4875 28.39375 508.14374 28.39375Q506.9406 28.39375 506.1125 29.20625Q505.28436 30.003124 505.1906 31.3625ZM527.59686 37.55L527.59686 36.2375Q526.6125 37.784374 524.6906 37.784374Q523.45624 37.784374 522.40936 37.096874Q521.3781 36.409374 520.8 35.190624Q520.2375 33.971874 520.2375 32.378124Q520.2375 30.815624 520.7531 29.55Q521.26874 28.284374 522.3 27.6125Q523.34686 26.940624 524.6125 26.940624Q525.55 26.940624 526.28436 27.346874Q527.01874 27.7375 527.4875 28.3625L527.4875 23.2375L529.22186 23.2375L529.22186 37.55L527.59686 37.55ZM522.03436 32.378124Q522.03436 34.3625 522.8781 35.346874Q523.72186 36.33125 524.8625 36.33125Q526.01874 36.33125 526.8156 35.39375Q527.6281 34.45625 527.6281 32.51875Q527.6281 30.39375 526.8 29.39375Q525.9875 28.39375 524.78436 28.39375Q523.6125 28.39375 522.8156 29.3625Q522.03436 30.315624 522.03436 32.378124ZM538.97186 34.20625L540.78436 34.440624Q540.3625 36.01875 539.1906 36.909374Q538.03436 37.784374 536.22186 37.784374Q533.95624 37.784374 532.6125 36.39375Q531.28436 34.9875 531.28436 32.45625Q531.28436 29.83125 532.6281 28.39375Q533.97186 26.940624 536.1281 26.940624Q538.20624 26.940624 539.51874 28.3625Q540.84686 29.76875 540.84686 32.346874Q540.84686 32.503124 540.83124 32.815624L533.09686 32.815624Q533.1906 34.51875 534.0656 35.425Q534.9406 36.33125 536.2375 36.33125Q537.20624 36.33125 537.8781 35.83125Q538.5656 35.315624 538.97186 34.20625ZM533.1906 31.3625L538.9875 31.3625Q538.8781 30.065624 538.33124 29.409374Q537.4875 28.39375 536.14374 28.39375Q534.9406 28.39375 534.1125 29.20625Q533.28436 30.003124 533.1906 31.3625ZM542.83124 37.55L542.83124 23.2375L544.58124 23.2375L544.58124 37.55L542.83124 37.55ZM546.83124 37.55L546.83124 23.2375L548.58124 23.2375L548.58124 37.55L546.83124 37.55ZM557.64374 36.26875Q556.65936 37.096874 555.7531 37.440624Q554.84686 37.784374 553.8156 37.784374Q552.1125 37.784374 551.1906 36.95625Q550.26874 36.1125 550.26874 34.815624Q550.26874 34.05 550.6125 33.425Q550.97186 32.8 551.53436 32.425Q552.09686 32.034374 552.8 31.83125Q553.3156 31.70625 554.3625 31.565624Q556.4875 31.315624 557.4875 30.971874Q557.5031 30.6125 557.5031 30.503124Q557.5031 29.440624 557.0031 28.9875Q556.33124 28.39375 555.0031 28.39375Q553.7531 28.39375 553.15936 28.83125Q552.58124 29.26875 552.3 30.378124L550.58124 30.14375Q550.8156 29.034374 551.34686 28.3625Q551.8781 27.675 552.89374 27.315624Q553.90936 26.940624 555.2531 26.940624Q556.58124 26.940624 557.40936 27.253124Q558.2375 27.565624 558.6281 28.05Q559.01874 28.51875 559.175 29.2375Q559.26874 29.690624 559.26874 30.8625L559.26874 33.20625Q559.26874 35.659374 559.3781 36.315624Q559.4875 36.95625 559.83124 37.55L557.9875 37.55Q557.72186 37.003124 557.64374 36.26875ZM557.4875 32.346874Q556.53436 32.7375 554.6125 33.003124Q553.53436 33.159374 553.08124 33.3625Q552.64374 33.55 552.39374 33.925Q552.14374 34.3 552.14374 34.76875Q552.14374 35.471874 552.675 35.940624Q553.20624 36.409374 554.2375 36.409374Q555.2531 36.409374 556.03436 35.971874Q556.83124 35.51875 557.20624 34.753124Q557.4875 34.14375 557.4875 32.9875L557.4875 32.346874Z" fill-rule="nonzero"/><path fill="#757575" d="M26.64375 57.753124L28.3625 57.971874Q28.08125 59.76875 26.909374 60.784374Q25.753124 61.784374 24.05 61.784374Q21.925 61.784374 20.628124 60.39375Q19.33125 59.003124 19.33125 56.409374Q19.33125 54.721874 19.878124 53.471874Q20.440624 52.20625 21.58125 51.58125Q22.721874 50.940624 24.065624 50.940624Q25.753124 50.940624 26.815624 51.8Q27.89375 52.659374 28.20625 54.221874L26.4875 54.4875Q26.253124 53.440624 25.628124 52.925Q25.003124 52.39375 24.128124 52.39375Q22.8 52.39375 21.971874 53.346874Q21.14375 54.3 21.14375 56.346874Q21.14375 58.440624 21.940624 59.39375Q22.7375 60.33125 24.034374 60.33125Q25.065624 60.33125 25.753124 59.70625Q26.45625 59.065624 26.64375 57.753124ZM29.221874 56.3625Q29.221874 53.4875 30.815624 52.096874Q32.159374 50.940624 34.08125 50.940624Q36.221874 50.940624 37.565624 52.346874Q38.925 53.753124 38.925 56.221874Q38.925 58.221874 38.33125 59.378124Q37.7375 60.51875 36.58125 61.159374Q35.440624 61.784374 34.08125 61.784374Q31.89375 61.784374 30.55 60.39375Q29.221874 58.9875 29.221874 56.3625ZM31.01875 56.3625Q31.01875 58.3625 31.878124 59.346874Q32.753124 60.33125 34.08125 60.33125Q35.39375 60.33125 36.253124 59.346874Q37.128124 58.346874 37.128124 56.3Q37.128124 54.378124 36.253124 53.39375Q35.378124 52.39375 34.08125 52.39375Q32.753124 52.39375 31.878124 53.39375Q31.01875 54.378124 31.01875 56.3625ZM40.8625 61.55L40.8625 51.175L42.440624 51.175L42.440624 52.628124Q42.925 51.878124 43.7375 51.409374Q44.55 50.940624 45.58125 50.940624Q46.7375 50.940624 47.471874 51.425Q48.20625 51.89375 48.51875 52.753124Q49.753124 50.940624 51.721874 50.940624Q53.26875 50.940624 54.096874 51.8Q54.925 52.659374 54.925 54.425L54.925 61.55L53.175 61.55L53.175 55.01875Q53.175 53.95625 53.003124 53.503124Q52.83125 53.034374 52.378124 52.753124Q51.940624 52.471874 51.33125 52.471874Q50.2375 52.471874 49.503124 53.20625Q48.784374 53.925 48.784374 55.51875L48.784374 61.55L47.034374 61.55L47.034374 54.815624Q47.034374 53.64375 46.596874 53.065624Q46.175 52.471874 45.190624 52.471874Q44.45625 52.471874 43.815624 52.8625Q43.190624 53.253124 42.909374 54.003124Q42.628124 54.753124 42.628124 56.175L42.628124 61.55L40.8625 61.55ZM63.659374 61.55L63.659374 60.01875Q62.45625 61.784374 60.378124 61.784374Q59.45625 61.784374 58.659374 61.440624Q57.8625 61.08125 57.471874 60.55Q57.096874 60.01875 56.940624 59.2375Q56.83125 58.721874 56.83125 57.596874L56.83125 51.175L58.58125 51.175L58.58125 56.925Q58.58125 58.3 58.690624 58.784374Q58.8625 59.471874 59.39375 59.878124Q59.940624 60.26875 60.721874 60.26875Q61.51875 60.26875 62.20625 59.8625Q62.909374 59.45625 63.190624 58.76875Q63.4875 58.065624 63.4875 56.7375L63.4875 51.175L65.2375 51.175L65.2375 61.55L63.659374 61.55ZM66.8625 61.55L66.8625 51.175L68.45625 51.175L68.45625 52.659374Q69.59688 50.940624 71.75313 50.940624Q72.69063 50.940624 73.47188 51.284374Q74.26875 51.6125 74.65938 52.159374Q75.05 52.70625 75.20625 53.45625Q75.3 53.95625 75.3 55.175L75.3 61.55L73.53438 61.55L73.53438 55.2375Q73.53438 54.159374 73.33125 53.628124Q73.12813 53.096874 72.59688 52.784374Q72.08125 52.471874 71.37813 52.471874Q70.25313 52.471874 69.44063 53.190624Q68.62813 53.89375 68.62813 55.878124L68.62813 61.55L66.8625 61.55ZM76.87813 49.253124L76.87813 47.2375L78.64375 47.2375L78.64375 49.253124L76.87813 49.253124ZM76.87813 61.55L76.87813 51.175L78.64375 51.175L78.64375 61.55L76.87813 61.55ZM84.70625 59.971874L84.95625 61.534374Q84.22188 61.690624 83.62813 61.690624Q82.675 61.690624 82.14375 61.39375Q81.62813 61.08125 81.40938 60.596874Q81.19063 60.096874 81.19063 58.51875L81.19063 52.55L79.90938 52.55L79.90938 51.175L81.19063 51.175L81.19063 48.6125L82.94063 47.55L82.94063 51.175L84.70625 51.175L84.70625 52.55L82.94063 52.55L82.94063 58.6125Q82.94063 59.3625 83.03438 59.58125Q83.12813 59.784374 83.33125 59.925Q83.55 60.05 83.94063 60.05Q84.22188 60.05 84.70625 59.971874ZM93.64375 60.26875Q92.65938 61.096874 91.75313 61.440624Q90.84688 61.784374 89.81563 61.784374Q88.1125 61.784374 87.19063 60.95625Q86.26875 60.1125 86.26875 58.815624Q86.26875 58.05 86.6125 57.425Q86.97188 56.8 87.53438 56.425Q88.09688 56.034374 88.8 55.83125Q89.31563 55.70625 90.3625 55.565624Q92.4875 55.315624 93.4875 54.971874Q93.50313 54.6125 93.50313 54.503124Q93.50313 53.440624 93.00313 52.9875Q92.33125 52.39375 91.00313 52.39375Q89.75313 52.39375 89.15938 52.83125Q88.58125 53.26875 88.3 54.378124L86.58125 54.14375Q86.81563 53.034374 87.34688 52.3625Q87.87813 51.675 88.89375 51.315624Q89.90938 50.940624 91.25313 50.940624Q92.58125 50.940624 93.40938 51.253124Q94.2375 51.565624 94.62813 52.05Q95.01875 52.51875 95.175 53.2375Q95.26875 53.690624 95.26875 54.8625L95.26875 57.20625Q95.26875 59.659374 95.37813 60.315624Q95.4875 60.95625 95.83125 61.55L93.9875 61.55Q93.72188 61.003124 93.64375 60.26875ZM93.4875 56.346874Q92.53438 56.7375 90.6125 57.003124Q89.53438 57.159374 89.08125 57.3625Q88.64375 57.55 88.39375 57.925Q88.14375 58.3 88.14375 58.76875Q88.14375 59.471874 88.675 59.940624Q89.20625 60.409374 90.2375 60.409374Q91.25313 60.409374 92.03438 59.971874Q92.83125 59.51875 93.20625 58.753124Q93.4875 58.14375 93.4875 56.9875L93.4875 56.346874ZM92.53438 49.89375L91.1125 49.89375L88.8625 47.159374L91.20625 47.159374L92.53438 49.89375ZM110.97188 58.20625L112.78438 58.440624Q112.3625 60.01875 111.19063 60.909374Q110.03438 61.784374 108.22188 61.784374Q105.95625 61.784374 104.6125 60.39375Q103.28438 58.9875 103.28438 56.45625Q103.28438 53.83125 104.62813 52.39375Q105.97188 50.940624 108.12813 50.940624Q110.20625 50.940624 111.51875 52.3625Q112.84688 53.76875 112.84688 56.346874Q112.84688 56.503124 112.83125 56.815624L105.09688 56.815624Q105.19063 58.51875 106.06563 59.425Q106.94063 60.33125 108.2375 60.33125Q109.20625 60.33125 109.87813 59.83125Q110.56563 59.315624 110.97188 58.20625ZM105.19063 55.3625L110.9875 55.3625Q110.87813 54.065624 110.33125 53.409374Q109.4875 52.39375 108.14375 52.39375Q106.94063 52.39375 106.1125 53.20625Q105.28438 54.003124 105.19063 55.3625ZM121.65938 61.55L121.65938 60.01875Q120.45625 61.784374 118.37813 61.784374Q117.45625 61.784374 116.65938 61.440624Q115.8625 61.08125 115.47188 60.55Q115.09688 60.01875 114.94063 59.2375Q114.83125 58.721874 114.83125 57.596874L114.83125 51.175L116.58125 51.175L116.58125 56.925Q116.58125 58.3 116.69063 58.784374Q116.8625 59.471874 117.39375 59.878124Q117.94063 60.26875 118.72188 60.26875Q119.51875 60.26875 120.20625 59.8625Q120.90938 59.45625 121.19063 58.76875Q121.4875 58.065624 121.4875 56.7375L121.4875 51.175L123.2375 51.175L123.2375 61.55L121.65938 61.55ZM124.84688 61.55L124.84688 51.175L126.425 51.175L126.425 52.753124Q127.03438 51.64375 127.55 51.3Q128.06563 50.940624 128.675 50.940624Q129.56563 50.940624 130.4875 51.503124L129.87813 53.14375Q129.2375 52.753124 128.59688 52.753124Q128.01875 52.753124 127.55 53.1125Q127.09688 53.45625 126.89375 54.065624Q126.6125 55.003124 126.6125 56.1125L126.6125 61.55L124.84688 61.55ZM131.22188 56.3625Q131.22188 53.4875 132.81563 52.096874Q134.15938 50.940624 136.08125 50.940624Q138.22188 50.940624 139.56563 52.346874Q140.925 53.753124 140.925 56.221874Q140.925 58.221874 140.33125 59.378124Q139.7375 60.51875 138.58125 61.159374Q137.44063 61.784374 136.08125 61.784374Q133.89375 61.784374 132.55 60.39375Q131.22188 58.9875 131.22188 56.3625ZM133.01875 56.3625Q133.01875 58.3625 133.87813 59.346874Q134.75313 60.33125 136.08125 60.33125Q137.39375 60.33125 138.25313 59.346874Q139.12813 58.346874 139.12813 56.3Q139.12813 54.378124 138.25313 53.39375Q137.37813 52.39375 136.08125 52.39375Q134.75313 52.39375 133.87813 53.39375Q133.01875 54.378124 133.01875 56.3625ZM142.8625 65.51875L142.8625 51.175L144.47188 51.175L144.47188 52.51875Q145.03438 51.7375 145.7375 51.346874Q146.45625 50.940624 147.47188 50.940624Q148.8 50.940624 149.81563 51.628124Q150.83125 52.315624 151.34688 53.565624Q151.87813 54.8 151.87813 56.284374Q151.87813 57.878124 151.3 59.159374Q150.7375 60.425 149.64375 61.1125Q148.55 61.784374 147.34688 61.784374Q146.47188 61.784374 145.76875 61.409374Q145.08125 61.034374 144.62813 60.471874L144.62813 65.51875L142.8625 65.51875ZM144.45625 56.425Q144.45625 58.425 145.26875 59.378124Q146.08125 60.33125 147.2375 60.33125Q148.40938 60.33125 149.2375 59.346874Q150.08125 58.3625 150.08125 56.26875Q150.08125 54.3 149.25313 53.315624Q148.44063 52.315624 147.31563 52.315624Q146.19063 52.315624 145.31563 53.378124Q144.45625 54.425 144.45625 56.425ZM160.97188 58.20625L162.78438 58.440624Q162.3625 60.01875 161.19063 60.909374Q160.03438 61.784374 158.22188 61.784374Q155.95625 61.784374 154.6125 60.39375Q153.28438 58.9875 153.28438 56.45625Q153.28438 53.83125 154.62813 52.39375Q155.97188 50.940624 158.12813 50.940624Q160.20625 50.940624 161.51875 52.3625Q162.84688 53.76875 162.84688 56.346874Q162.84688 56.503124 162.83125 56.815624L155.09688 56.815624Q155.19063 58.51875 156.06563 59.425Q156.94063 60.33125 158.2375 60.33125Q159.20625 60.33125 159.87813 59.83125Q160.56563 59.315624 160.97188 58.20625ZM155.19063 55.3625L160.9875 55.3625Q160.87813 54.065624 160.33125 53.409374Q159.4875 52.39375 158.14375 52.39375Q156.94063 52.39375 156.1125 53.20625Q155.28438 54.003124 155.19063 55.3625ZM171.64375 60.26875Q170.65938 61.096874 169.75313 61.440624Q168.84688 61.784374 167.81563 61.784374Q166.1125 61.784374 165.19063 60.95625Q164.26875 60.1125 164.26875 58.815624Q164.26875 58.05 164.6125 57.425Q164.97188 56.8 165.53438 56.425Q166.09688 56.034374 166.8 55.83125Q167.31563 55.70625 168.3625 55.565624Q170.4875 55.315624 171.4875 54.971874Q171.50313 54.6125 171.50313 54.503124Q171.50313 53.440624 171.00313 52.9875Q170.33125 52.39375 169.00313 52.39375Q167.75313 52.39375 167.15938 52.83125Q166.58125 53.26875 166.3 54.378124L164.58125 54.14375Q164.81563 53.034374 165.34688 52.3625Q165.87813 51.675 166.89375 51.315624Q167.90938 50.940624 169.25313 50.940624Q170.58125 50.940624 171.40938 51.253124Q172.2375 51.565624 172.62813 52.05Q173.01875 52.51875 173.175 53.2375Q173.26875 53.690624 173.26875 54.8625L173.26875 57.20625Q173.26875 59.659374 173.37813 60.315624Q173.4875 60.95625 173.83125 61.55L171.9875 61.55Q171.72188 61.003124 171.64375 60.26875ZM171.4875 56.346874Q170.53438 56.7375 168.6125 57.003124Q167.53438 57.159374 167.08125 57.3625Q166.64375 57.55 166.39375 57.925Q166.14375 58.3 166.14375 58.76875Q166.14375 59.471874 166.675 59.940624Q167.20625 60.409374 168.2375 60.409374Q169.25313 60.409374 170.03438 59.971874Q170.83125 59.51875 171.20625 58.753124Q171.4875 58.14375 171.4875 56.9875L171.4875 56.346874ZM179.15938 58.01875Q179.14375 57.675 179.14375 57.503124Q179.14375 56.45625 179.44063 55.70625Q179.65938 55.14375 180.14375 54.565624Q180.4875 54.14375 181.39375 53.346874Q182.31563 52.534374 182.58125 52.065624Q182.8625 51.58125 182.8625 51.01875Q182.8625 49.9875 182.05 49.221874Q181.25313 48.440624 180.09688 48.440624Q178.97188 48.440624 178.22188 49.14375Q177.47188 49.846874 177.2375 51.33125L175.425 51.1125Q175.675 49.1125 176.87813 48.05Q178.08125 46.9875 180.06563 46.9875Q182.175 46.9875 183.425 48.128124Q184.675 49.26875 184.675 50.89375Q184.675 51.83125 184.22188 52.628124Q183.78438 53.409374 182.50313 54.55Q181.64375 55.315624 181.37813 55.675Q181.12813 56.034374 180.9875 56.503124Q180.8625 56.971874 180.84688 58.01875L179.15938 58.01875ZM179.05 61.55L179.05 59.55L181.05 59.55L181.05 61.55L179.05 61.55Z" fill-rule="nonzero"/></svg>