<svg version="1.1" viewBox="0.0 0.0 600.0 371.0" fill="none" stroke="none" stroke-linecap="square" stroke-miterlimit="10" width="600" height="371" xmlns:xlink="http://www.w3.org/1999/xlink" xmlns="http://www.w3.org/2000/svg"><path fill="#ffffff" d="M0 0L600.0 0L600.0 371.0L0 371.0L0 0Z" fill-rule="nonzero"/><path fill="#4285f4" d="M300.0 54.916668C372.9504 54.916668 435.13812 107.81377 446.84018 179.81949C458.54224 251.8252 416.30576 321.69287 347.10965 344.79395L300.0 203.68333Z" fill-rule="nonzero"/><path fill="#34a853" d="M230.86469 71.95699C252.19064 60.764263 275.91528 54.916668 300.0 54.916668L300.0 203.68333Z" fill-rule="nonzero"/><path fill="#fbbc04" d="M177.56743 119.17423C191.24911 99.3529 209.53871 83.14972 230.86469 71.95699L300.0 203.68333Z" fill-rule="nonzero"/><path fill="#ea4335" d="M347.10965 344.79395C286.39545 365.06332 219.52205 344.22473 181.06956 293.05377C142.61708 241.8828 141.20659 171.85202 177.56743 119.17423L300.0 203.68333Z" fill-rule="nonzero"/><path fill="#1a1a1a" d="M19.471874 65.916664L19.471874 57.322914L22.440624 57.322914Q23.440624 57.322914 23.971874 57.447914Q24.70625 57.61979 25.221874 58.05729Q25.909374 58.635414 26.2375 59.541664Q26.58125 60.43229 26.58125 61.572914Q26.58125 62.55729 26.346874 63.30729Q26.128124 64.05729 25.76875 64.55729Q25.409374 65.05729 24.971874 65.33854Q24.55 65.61979 23.95625 65.77604Q23.3625 65.916664 22.58125 65.916664L19.471874 65.916664ZM20.6125 64.90104L22.440624 64.90104Q23.3 64.90104 23.784374 64.74479Q24.26875 64.58854 24.55 64.291664Q24.95625 63.90104 25.175 63.21354Q25.409374 62.52604 25.409374 61.55729Q25.409374 60.21354 24.95625 59.49479Q24.51875 58.760414 23.89375 58.510414Q23.425 58.33854 22.425 58.33854L20.6125 58.33854L20.6125 64.90104ZM28.346874 58.541664L28.346874 57.322914L29.409374 57.322914L29.409374 58.541664L28.346874 58.541664ZM28.346874 65.916664L28.346874 59.697914L29.409374 59.697914L29.409374 65.916664L28.346874 65.916664ZM30.925 64.05729L31.95625 63.90104Q32.05 64.52604 32.440624 64.854164Q32.846874 65.18229 33.58125 65.18229Q34.3 65.18229 34.64375 64.90104Q35.003124 64.604164 35.003124 64.197914Q35.003124 63.83854 34.690624 63.635414Q34.471874 63.49479 33.6125 63.27604Q32.45625 62.979164 32.003124 62.77604Q31.565624 62.55729 31.33125 62.18229Q31.096874 61.80729 31.096874 61.33854Q31.096874 60.93229 31.284374 60.572914Q31.471874 60.21354 31.8 59.979164Q32.05 59.80729 32.471874 59.68229Q32.89375 59.55729 33.39375 59.55729Q34.1125 59.55729 34.659374 59.77604Q35.221874 59.979164 35.4875 60.33854Q35.753124 60.697914 35.846874 61.291664L34.815624 61.43229Q34.753124 60.96354 34.409374 60.697914Q34.08125 60.416664 33.45625 60.416664Q32.7375 60.416664 32.425 60.666664Q32.1125 60.90104 32.1125 61.229164Q32.1125 61.43229 32.2375 61.58854Q32.378124 61.760414 32.64375 61.86979Q32.8 61.93229 33.58125 62.135414Q34.70625 62.447914 35.14375 62.635414Q35.58125 62.822914 35.83125 63.18229Q36.08125 63.541664 36.08125 64.08854Q36.08125 64.61979 35.76875 65.08854Q35.471874 65.541664 34.89375 65.80729Q34.315624 66.05729 33.58125 66.05729Q32.3625 66.05729 31.721874 65.55729Q31.096874 65.041664 30.925 64.05729ZM37.95625 62.80729Q37.95625 61.072914 38.909374 60.24479Q39.70625 59.55729 40.8625 59.55729Q42.14375 59.55729 42.95625 60.40104Q43.784374 61.229164 43.784374 62.71354Q43.784374 63.916664 43.425 64.604164Q43.065624 65.291664 42.3625 65.68229Q41.675 66.05729 40.8625 66.05729Q39.565624 66.05729 38.753124 65.229164Q37.95625 64.385414 37.95625 62.80729ZM39.034374 62.80729Q39.034374 63.99479 39.55 64.58854Q40.08125 65.18229 40.8625 65.18229Q41.659374 65.18229 42.175 64.58854Q42.690624 63.99479 42.690624 62.77604Q42.690624 61.61979 42.159374 61.02604Q41.64375 60.43229 40.8625 60.43229Q40.08125 60.43229 39.55 61.02604Q39.034374 61.604164 39.034374 62.80729ZM49.409374 63.635414L50.440624 63.77604Q50.26875 64.83854 49.565624 65.447914Q48.8625 66.05729 47.846874 66.05729Q46.565624 66.05729 45.784374 65.229164Q45.01875 64.385414 45.01875 62.822914Q45.01875 61.822914 45.346874 61.072914Q45.690624 60.30729 46.3625 59.93229Q47.05 59.55729 47.8625 59.55729Q48.8625 59.55729 49.503124 60.072914Q50.159374 60.572914 50.346874 61.52604L49.315624 61.68229Q49.175 61.05729 48.8 60.74479Q48.425 60.416664 47.89375 60.416664Q47.096874 60.416664 46.596874 60.99479Q46.096874 61.55729 46.096874 62.791664Q46.096874 64.05729 46.58125 64.61979Q47.065624 65.18229 47.83125 65.18229Q48.45625 65.18229 48.8625 64.80729Q49.284374 64.43229 49.409374 63.635414ZM55.409374 63.635414L56.440624 63.77604Q56.26875 64.83854 55.565624 65.447914Q54.8625 66.05729 53.846874 66.05729Q52.565624 66.05729 51.784374 65.229164Q51.01875 64.385414 51.01875 62.822914Q51.01875 61.822914 51.346874 61.072914Q51.690624 60.30729 52.3625 59.93229Q53.05 59.55729 53.8625 59.55729Q54.8625 59.55729 55.503124 60.072914Q56.159374 60.572914 56.346874 61.52604L55.315624 61.68229Q55.175 61.05729 54.8 60.74479Q54.425 60.416664 53.89375 60.416664Q53.096874 60.416664 52.596874 60.99479Q52.096874 61.55729 52.096874 62.791664Q52.096874 64.05729 52.58125 64.61979Q53.065624 65.18229 53.83125 65.18229Q54.45625 65.18229 54.8625 64.80729Q55.284374 64.43229 55.409374 63.635414ZM61.425 65.916664L61.425 64.99479Q60.690624 66.05729 59.440624 66.05729Q58.89375 66.05729 58.409374 65.854164Q57.940624 65.635414 57.70625 65.322914Q57.471874 64.99479 57.378124 64.52604Q57.315624 64.229164 57.315624 63.541664L57.315624 59.697914L58.378124 59.697914L58.378124 63.15104Q58.378124 63.96354 58.440624 64.260414Q58.534374 64.666664 58.846874 64.916664Q59.175 65.15104 59.659374 65.15104Q60.128124 65.15104 60.534374 64.916664Q60.95625 64.666664 61.128124 64.24479Q61.315624 63.822914 61.315624 63.02604L61.315624 59.697914L62.3625 59.697914L62.3625 65.916664L61.425 65.916664ZM64.34688 68.30729L64.34688 59.697914L65.3 59.697914L65.3 60.49479Q65.64375 60.02604 66.06563 59.791664Q66.50313 59.55729 67.1125 59.55729Q67.90938 59.55729 68.51875 59.96354Q69.12813 60.36979 69.425 61.11979Q69.7375 61.86979 69.7375 62.760414Q69.7375 63.71354 69.39375 64.479164Q69.06563 65.24479 68.40938 65.65104Q67.75313 66.05729 67.03438 66.05729Q66.50313 66.05729 66.08125 65.83854Q65.65938 65.604164 65.39375 65.27604L65.39375 68.30729L64.34688 68.30729ZM65.3 62.83854Q65.3 64.041664 65.78438 64.61979Q66.26875 65.18229 66.95625 65.18229Q67.65938 65.18229 68.15938 64.58854Q68.65938 63.99479 68.65938 62.74479Q68.65938 61.55729 68.175 60.979164Q67.69063 60.385414 67.00313 60.385414Q66.33125 60.385414 65.81563 61.010414Q65.3 61.635414 65.3 62.83854ZM75.40938 65.15104Q74.81563 65.65104 74.26875 65.854164Q73.7375 66.05729 73.1125 66.05729Q72.08125 66.05729 71.53438 65.55729Q70.9875 65.05729 70.9875 64.27604Q70.9875 63.822914 71.19063 63.447914Q71.39375 63.05729 71.7375 62.83854Q72.08125 62.604164 72.50313 62.49479Q72.8 62.40104 73.44063 62.322914Q74.70625 62.18229 75.31563 61.96354Q75.31563 61.74479 75.31563 61.697914Q75.31563 61.041664 75.01875 60.77604Q74.6125 60.43229 73.81563 60.43229Q73.08125 60.43229 72.72188 60.697914Q72.3625 60.947914 72.19063 61.604164L71.15938 61.46354Q71.3 60.80729 71.62813 60.40104Q71.95625 59.99479 72.56563 59.77604Q73.175 59.55729 73.97188 59.55729Q74.76875 59.55729 75.26875 59.74479Q75.76875 59.93229 76.00313 60.21354Q76.2375 60.49479 76.33125 60.93229Q76.37813 61.197914 76.37813 61.90104L76.37813 63.30729Q76.37813 64.77604 76.44063 65.166664Q76.51875 65.55729 76.72188 65.916664L75.6125 65.916664Q75.45625 65.58854 75.40938 65.15104ZM75.31563 62.791664Q74.7375 63.02604 73.59688 63.197914Q72.94063 63.291664 72.675 63.416664Q72.40938 63.52604 72.25313 63.74479Q72.1125 63.96354 72.1125 64.24479Q72.1125 64.666664 72.425 64.947914Q72.75313 65.229164 73.3625 65.229164Q73.97188 65.229164 74.44063 64.96354Q74.925 64.697914 75.14375 64.229164Q75.31563 63.86979 75.31563 63.18229L75.31563 62.791664ZM80.64375 64.979164L80.8 65.90104Q80.34688 65.99479 80.00313 65.99479Q79.425 65.99479 79.1125 65.822914Q78.8 65.635414 78.65938 65.33854Q78.53438 65.041664 78.53438 64.08854L78.53438 60.510414L77.76875 60.510414L77.76875 59.697914L78.53438 59.697914L78.53438 58.15104L79.58125 57.52604L79.58125 59.697914L80.64375 59.697914L80.64375 60.510414L79.58125 60.510414L79.58125 64.15104Q79.58125 64.604164 79.62813 64.729164Q79.69063 64.854164 79.81563 64.93229Q79.94063 65.010414 80.175 65.010414Q80.3625 65.010414 80.64375 64.979164ZM80.95625 62.80729Q80.95625 61.072914 81.90938 60.24479Q82.70625 59.55729 83.8625 59.55729Q85.14375 59.55729 85.95625 60.40104Q86.78438 61.229164 86.78438 62.71354Q86.78438 63.916664 86.425 64.604164Q86.06563 65.291664 85.3625 65.68229Q84.675 66.05729 83.8625 66.05729Q82.56563 66.05729 81.75313 65.229164Q80.95625 64.385414 80.95625 62.80729ZM82.03438 62.80729Q82.03438 63.99479 82.55 64.58854Q83.08125 65.18229 83.8625 65.18229Q84.65938 65.18229 85.175 64.58854Q85.69063 63.99479 85.69063 62.77604Q85.69063 61.61979 85.15938 61.02604Q84.64375 60.43229 83.8625 60.43229Q83.08125 60.43229 82.55 61.02604Q82.03438 61.604164 82.03438 62.80729Z" fill-rule="nonzero"/><path fill="#9e9e9e" d="M19.1125 75.447914L19.1125 74.43229L24.675 74.43229L24.675 75.260414Q23.8625 76.135414 23.05 77.58854Q22.253124 79.02604 21.815624 80.55729Q21.4875 81.635414 21.409374 82.916664L20.315624 82.916664Q20.33125 81.90104 20.70625 80.46354Q21.096874 79.02604 21.8 77.697914Q22.51875 76.36979 23.33125 75.447914L19.1125 75.447914ZM26.6125 82.916664L26.6125 81.71354L27.815624 81.71354L27.815624 82.916664Q27.815624 83.572914 27.58125 83.979164Q27.346874 84.40104 26.846874 84.61979L26.55 84.166664Q26.878124 84.02604 27.034374 83.729164Q27.190624 83.447914 27.221874 82.916664L26.6125 82.916664ZM29.1125 75.447914L29.1125 74.43229L34.675 74.43229L34.675 75.260414Q33.8625 76.135414 33.05 77.58854Q32.253124 79.02604 31.815624 80.55729Q31.4875 81.635414 31.409374 82.916664L30.315624 82.916664Q30.33125 81.90104 30.70625 80.46354Q31.096874 79.02604 31.8 77.697914Q32.51875 76.36979 33.33125 75.447914L29.1125 75.447914ZM36.253124 76.385414Q36.253124 75.46354 36.70625 74.822914Q37.175 74.18229 38.05 74.18229Q38.8625 74.18229 39.39375 74.760414Q39.925 75.33854 39.925 76.447914Q39.925 77.541664 39.378124 78.135414Q38.846874 78.71354 38.065624 78.71354Q37.284374 78.71354 36.76875 78.135414Q36.253124 77.55729 36.253124 76.385414ZM38.08125 74.90104Q37.690624 74.90104 37.425 75.24479Q37.175 75.58854 37.175 76.49479Q37.175 77.322914 37.425 77.666664Q37.690624 77.99479 38.08125 77.99479Q38.4875 77.99479 38.7375 77.65104Q39.003124 77.30729 39.003124 76.416664Q39.003124 75.572914 38.7375 75.24479Q38.471874 74.90104 38.08125 74.90104ZM38.08125 83.229164L42.784374 74.18229L43.64375 74.18229L38.95625 83.229164L38.08125 83.229164ZM41.8 80.90104Q41.8 79.979164 42.253124 79.33854Q42.721874 78.697914 43.6125 78.697914Q44.425 78.697914 44.95625 79.27604Q45.4875 79.83854 45.4875 80.96354Q45.4875 82.05729 44.940624 82.65104Q44.409374 83.229164 43.6125 83.229164Q42.846874 83.229164 42.315624 82.65104Q41.8 82.072914 41.8 80.90104ZM43.64375 79.416664Q43.2375 79.416664 42.971874 79.760414Q42.721874 80.104164 42.721874 81.010414Q42.721874 81.822914 42.9875 82.166664Q43.253124 82.510414 43.64375 82.510414Q44.034374 82.510414 44.3 82.166664Q44.565624 81.822914 44.565624 80.916664Q44.565624 80.08854 44.3 79.760414Q44.034374 79.416664 43.64375 79.416664Z" fill-rule="nonzero"/><path stroke="#757575" stroke-width="1.0" stroke-linecap="butt" d="M18.55 70.416664L145.23334 70.416664L266.17792 66.46175" fill-rule="nonzero"/><path fill="#9e9e9e" d="M268.17792 66.46175C268.17792 65.35718 267.28247 64.46175 266.17792 64.46175C265.07333 64.46175 264.17792 65.35718 264.17792 66.46175C264.17792 67.566315 265.07333 68.46175 266.17792 68.46175C267.28247 68.46175 268.17792 67.566315 268.17792 66.46175" fill-rule="nonzero"/><path fill="#1a1a1a" d="M19.425 96.916664L19.425 88.322914L20.565624 88.322914L20.565624 95.90104L24.8 95.90104L24.8 96.916664L19.425 96.916664ZM26.346874 89.541664L26.346874 88.322914L27.409374 88.322914L27.409374 89.541664L26.346874 89.541664ZM26.346874 96.916664L26.346874 90.697914L27.409374 90.697914L27.409374 96.916664L26.346874 96.916664ZM30.315624 96.916664L29.33125 96.916664L29.33125 88.322914L30.39375 88.322914L30.39375 91.385414Q31.065624 90.55729 32.096874 90.55729Q32.675 90.55729 33.175 90.791664Q33.690624 91.010414 34.01875 91.43229Q34.3625 91.854164 34.55 92.447914Q34.7375 93.041664 34.7375 93.71354Q34.7375 95.30729 33.940624 96.18229Q33.14375 97.05729 32.05 97.05729Q30.940624 97.05729 30.315624 96.135414L30.315624 96.916664ZM30.3 93.760414Q30.3 94.86979 30.6125 95.36979Q31.1125 96.18229 31.95625 96.18229Q32.64375 96.18229 33.14375 95.58854Q33.659374 94.99479 33.659374 93.791664Q33.659374 92.572914 33.175 91.99479Q32.690624 91.416664 32.003124 91.416664Q31.315624 91.416664 30.8 92.02604Q30.3 92.61979 30.3 93.760414ZM40.596874 94.916664L41.690624 95.041664Q41.440624 95.99479 40.7375 96.52604Q40.034374 97.05729 38.95625 97.05729Q37.596874 97.05729 36.784374 96.21354Q35.9875 95.36979 35.9875 93.854164Q35.9875 92.291664 36.8 91.43229Q37.6125 90.55729 38.89375 90.55729Q40.14375 90.55729 40.925 91.40104Q41.721874 92.24479 41.721874 93.791664Q41.721874 93.885414 41.721874 94.072914L37.08125 94.072914Q37.14375 95.104164 37.659374 95.65104Q38.175 96.18229 38.95625 96.18229Q39.534374 96.18229 39.940624 95.885414Q40.3625 95.572914 40.596874 94.916664ZM37.14375 93.21354L40.6125 93.21354Q40.55 92.416664 40.221874 92.02604Q39.70625 91.416664 38.909374 91.416664Q38.175 91.416664 37.675 91.90104Q37.190624 92.385414 37.14375 93.21354ZM43.33125 96.916664L43.33125 90.697914L44.284374 90.697914L44.284374 91.635414Q44.64375 90.979164 44.940624 90.77604Q45.253124 90.55729 45.628124 90.55729Q46.159374 90.55729 46.70625 90.885414L46.346874 91.86979Q45.95625 91.635414 45.58125 91.635414Q45.221874 91.635414 44.940624 91.854164Q44.675 92.05729 44.565624 92.43229Q44.378124 92.99479 44.378124 93.65104L44.378124 96.916664L43.33125 96.916664ZM46.95625 93.80729Q46.95625 92.072914 47.909374 91.24479Q48.70625 90.55729 49.8625 90.55729Q51.14375 90.55729 51.95625 91.40104Q52.784374 92.229164 52.784374 93.71354Q52.784374 94.916664 52.425 95.604164Q52.065624 96.291664 51.3625 96.68229Q50.675 97.05729 49.8625 97.05729Q48.565624 97.05729 47.753124 96.229164Q46.95625 95.385414 46.95625 93.80729ZM48.034374 93.80729Q48.034374 94.99479 48.55 95.58854Q49.08125 96.18229 49.8625 96.18229Q50.659374 96.18229 51.175 95.58854Q51.690624 94.99479 51.690624 93.77604Q51.690624 92.61979 51.159374 92.02604Q50.64375 91.43229 49.8625 91.43229Q49.08125 91.43229 48.55 92.02604Q48.034374 92.604164 48.034374 93.80729ZM57.346874 99.30729L57.346874 90.697914L58.3 90.697914L58.3 91.49479Q58.64375 91.02604 59.065624 90.791664Q59.503124 90.55729 60.1125 90.55729Q60.909374 90.55729 61.51875 90.96354Q62.128124 91.36979 62.425 92.11979Q62.7375 92.86979 62.7375 93.760414Q62.7375 94.71354 62.39375 95.479164Q62.065624 96.24479 61.409374 96.65104Q60.753124 97.05729 60.034374 97.05729Q59.503124 97.05729 59.08125 96.83854Q58.659374 96.604164 58.39375 96.27604L58.39375 99.30729L57.346874 99.30729ZM58.3 93.83854Q58.3 95.041664 58.784374 95.61979Q59.26875 96.18229 59.95625 96.18229Q60.659374 96.18229 61.159374 95.58854Q61.659374 94.99479 61.659374 93.74479Q61.659374 92.55729 61.175 91.979164Q60.690624 91.385414 60.003124 91.385414Q59.33125 91.385414 58.815624 92.010414Q58.3 92.635414 58.3 93.83854ZM64.33125 96.916664L64.33125 90.697914L65.28438 90.697914L65.28438 91.635414Q65.64375 90.979164 65.94063 90.77604Q66.25313 90.55729 66.62813 90.55729Q67.15938 90.55729 67.70625 90.885414L67.34688 91.86979Q66.95625 91.635414 66.58125 91.635414Q66.22188 91.635414 65.94063 91.854164Q65.675 92.05729 65.56563 92.43229Q65.37813 92.99479 65.37813 93.65104L65.37813 96.916664L64.33125 96.916664ZM67.95625 93.80729Q67.95625 92.072914 68.90938 91.24479Q69.70625 90.55729 70.8625 90.55729Q72.14375 90.55729 72.95625 91.40104Q73.78438 92.229164 73.78438 93.71354Q73.78438 94.916664 73.425 95.604164Q73.06563 96.291664 72.3625 96.68229Q71.675 97.05729 70.8625 97.05729Q69.56563 97.05729 68.75313 96.229164Q67.95625 95.385414 67.95625 93.80729ZM69.03438 93.80729Q69.03438 94.99479 69.55 95.58854Q70.08125 96.18229 70.8625 96.18229Q71.65938 96.18229 72.175 95.58854Q72.69063 94.99479 72.69063 93.77604Q72.69063 92.61979 72.15938 92.02604Q71.64375 91.43229 70.8625 91.43229Q70.08125 91.43229 69.55 92.02604Q69.03438 92.604164 69.03438 93.80729ZM75.59688 96.916664L75.59688 91.510414L74.65938 91.510414L74.65938 90.697914L75.59688 90.697914L75.59688 90.02604Q75.59688 89.40104 75.70625 89.104164Q75.8625 88.68229 76.2375 88.43229Q76.62813 88.18229 77.31563 88.18229Q77.76875 88.18229 78.3 88.291664L78.14375 89.197914Q77.81563 89.15104 77.51875 89.15104Q77.03438 89.15104 76.83125 89.354164Q76.64375 89.55729 76.64375 90.11979L76.64375 90.697914L77.8625 90.697914L77.8625 91.510414L76.64375 91.510414L76.64375 96.916664L75.59688 96.916664ZM82.59688 94.916664L83.69063 95.041664Q83.44063 95.99479 82.7375 96.52604Q82.03438 97.05729 80.95625 97.05729Q79.59688 97.05729 78.78438 96.21354Q77.9875 95.36979 77.9875 93.854164Q77.9875 92.291664 78.8 91.43229Q79.6125 90.55729 80.89375 90.55729Q82.14375 90.55729 82.925 91.40104Q83.72188 92.24479 83.72188 93.791664Q83.72188 93.885414 83.72188 94.072914L79.08125 94.072914Q79.14375 95.104164 79.65938 95.65104Q80.175 96.18229 80.95625 96.18229Q81.53438 96.18229 81.94063 95.885414Q82.3625 95.572914 82.59688 94.916664ZM79.14375 93.21354L82.6125 93.21354Q82.55 92.416664 82.22188 92.02604Q81.70625 91.416664 80.90938 91.416664Q80.175 91.416664 79.675 91.90104Q79.19063 92.385414 79.14375 93.21354ZM84.925 95.05729L85.95625 94.90104Q86.05 95.52604 86.44063 95.854164Q86.84688 96.18229 87.58125 96.18229Q88.3 96.18229 88.64375 95.90104Q89.00313 95.604164 89.00313 95.197914Q89.00313 94.83854 88.69063 94.635414Q88.47188 94.49479 87.6125 94.27604Q86.45625 93.979164 86.00313 93.77604Q85.56563 93.55729 85.33125 93.18229Q85.09688 92.80729 85.09688 92.33854Q85.09688 91.93229 85.28438 91.572914Q85.47188 91.21354 85.8 90.979164Q86.05 90.80729 86.47188 90.68229Q86.89375 90.55729 87.39375 90.55729Q88.1125 90.55729 88.65938 90.77604Q89.22188 90.979164 89.4875 91.33854Q89.75313 91.697914 89.84688 92.291664L88.81563 92.43229Q88.75313 91.96354 88.40938 91.697914Q88.08125 91.416664 87.45625 91.416664Q86.7375 91.416664 86.425 91.666664Q86.1125 91.90104 86.1125 92.229164Q86.1125 92.43229 86.2375 92.58854Q86.37813 92.760414 86.64375 92.86979Q86.8 92.93229 87.58125 93.135414Q88.70625 93.447914 89.14375 93.635414Q89.58125 93.822914 89.83125 94.18229Q90.08125 94.541664 90.08125 95.08854Q90.08125 95.61979 89.76875 96.08854Q89.47188 96.541664 88.89375 96.80729Q88.31563 97.05729 87.58125 97.05729Q86.3625 97.05729 85.72188 96.55729Q85.09688 96.041664 84.925 95.05729ZM91.925 95.05729L92.95625 94.90104Q93.05 95.52604 93.44063 95.854164Q93.84688 96.18229 94.58125 96.18229Q95.3 96.18229 95.64375 95.90104Q96.00313 95.604164 96.00313 95.197914Q96.00313 94.83854 95.69063 94.635414Q95.47188 94.49479 94.6125 94.27604Q93.45625 93.979164 93.00313 93.77604Q92.56563 93.55729 92.33125 93.18229Q92.09688 92.80729 92.09688 92.33854Q92.09688 91.93229 92.28438 91.572914Q92.47188 91.21354 92.8 90.979164Q93.05 90.80729 93.47188 90.68229Q93.89375 90.55729 94.39375 90.55729Q95.1125 90.55729 95.65938 90.77604Q96.22188 90.979164 96.4875 91.33854Q96.75313 91.697914 96.84688 92.291664L95.81563 92.43229Q95.75313 91.96354 95.40938 91.697914Q95.08125 91.416664 94.45625 91.416664Q93.7375 91.416664 93.425 91.666664Q93.1125 91.90104 93.1125 92.229164Q93.1125 92.43229 93.2375 92.58854Q93.37813 92.760414 93.64375 92.86979Q93.8 92.93229 94.58125 93.135414Q95.70625 93.447914 96.14375 93.635414Q96.58125 93.822914 96.83125 94.18229Q97.08125 94.541664 97.08125 95.08854Q97.08125 95.61979 96.76875 96.08854Q96.47188 96.541664 95.89375 96.80729Q95.31563 97.05729 94.58125 97.05729Q93.3625 97.05729 92.72188 96.55729Q92.09688 96.041664 91.925 95.05729ZM99.34688 89.541664L99.34688 88.322914L100.40938 88.322914L100.40938 89.541664L99.34688 89.541664ZM99.34688 96.916664L99.34688 90.697914L100.40938 90.697914L100.40938 96.916664L99.34688 96.916664ZM101.95625 93.80729Q101.95625 92.072914 102.90938 91.24479Q103.70625 90.55729 104.8625 90.55729Q106.14375 90.55729 106.95625 91.40104Q107.78438 92.229164 107.78438 93.71354Q107.78438 94.916664 107.425 95.604164Q107.06563 96.291664 106.3625 96.68229Q105.675 97.05729 104.8625 97.05729Q103.56563 97.05729 102.75313 96.229164Q101.95625 95.385414 101.95625 93.80729ZM103.03438 93.80729Q103.03438 94.99479 103.55 95.58854Q104.08125 96.18229 104.8625 96.18229Q105.65938 96.18229 106.175 95.58854Q106.69063 94.99479 106.69063 93.77604Q106.69063 92.61979 106.15938 92.02604Q105.64375 91.43229 104.8625 91.43229Q104.08125 91.43229 103.55 92.02604Q103.03438 92.604164 103.03438 93.80729ZM109.34688 96.916664L109.34688 90.697914L110.28438 90.697914L110.28438 91.572914Q110.97188 90.55729 112.26875 90.55729Q112.83125 90.55729 113.3 90.760414Q113.78438 90.96354 114.01875 91.291664Q114.25313 91.61979 114.34688 92.05729Q114.39375 92.354164 114.39375 93.08854L114.39375 96.916664L113.34688 96.916664L113.34688 93.135414Q113.34688 92.479164 113.22188 92.166664Q113.09688 91.854164 112.78438 91.666664Q112.47188 91.46354 112.05 91.46354Q111.37813 91.46354 110.87813 91.90104Q110.39375 92.322914 110.39375 93.510414L110.39375 96.916664L109.34688 96.916664ZM116.34688 89.541664L116.34688 88.322914L117.40938 88.322914L117.40938 89.541664L116.34688 89.541664ZM116.34688 96.916664L116.34688 90.697914L117.40938 90.697914L117.40938 96.916664L116.34688 96.916664ZM118.925 95.05729L119.95625 94.90104Q120.05 95.52604 120.44063 95.854164Q120.84688 96.18229 121.58125 96.18229Q122.3 96.18229 122.64375 95.90104Q123.00313 95.604164 123.00313 95.197914Q123.00313 94.83854 122.69063 94.635414Q122.47188 94.49479 121.6125 94.27604Q120.45625 93.979164 120.00313 93.77604Q119.56563 93.55729 119.33125 93.18229Q119.09688 92.80729 119.09688 92.33854Q119.09688 91.93229 119.28438 91.572914Q119.47188 91.21354 119.8 90.979164Q120.05 90.80729 120.47188 90.68229Q120.89375 90.55729 121.39375 90.55729Q122.1125 90.55729 122.65938 90.77604Q123.22188 90.979164 123.4875 91.33854Q123.75313 91.697914 123.84688 92.291664L122.81563 92.43229Q122.75313 91.96354 122.40938 91.697914Q122.08125 91.416664 121.45625 91.416664Q120.7375 91.416664 120.425 91.666664Q120.1125 91.90104 120.1125 92.229164Q120.1125 92.43229 120.2375 92.58854Q120.37813 92.760414 120.64375 92.86979Q120.8 92.93229 121.58125 93.135414Q122.70625 93.447914 123.14375 93.635414Q123.58125 93.822914 123.83125 94.18229Q124.08125 94.541664 124.08125 95.08854Q124.08125 95.61979 123.76875 96.08854Q123.47188 96.541664 122.89375 96.80729Q122.31563 97.05729 121.58125 97.05729Q120.3625 97.05729 119.72188 96.55729Q119.09688 96.041664 118.925 95.05729ZM128.64375 95.979164L128.8 96.90104Q128.34688 96.99479 128.00313 96.99479Q127.425 96.99479 127.1125 96.822914Q126.8 96.635414 126.65938 96.33854Q126.53438 96.041664 126.53438 95.08854L126.53438 91.510414L125.76875 91.510414L125.76875 90.697914L126.53438 90.697914L126.53438 89.15104L127.58125 88.52604L127.58125 90.697914L128.64375 90.697914L128.64375 91.510414L127.58125 91.510414L127.58125 95.15104Q127.58125 95.604164 127.62813 95.729164Q127.69063 95.854164 127.81563 95.93229Q127.94063 96.010414 128.175 96.010414Q128.3625 96.010414 128.64375 95.979164ZM133.40938 96.15104Q132.81563 96.65104 132.26875 96.854164Q131.7375 97.05729 131.1125 97.05729Q130.08125 97.05729 129.53438 96.55729Q128.9875 96.05729 128.9875 95.27604Q128.9875 94.822914 129.19063 94.447914Q129.39375 94.05729 129.7375 93.83854Q130.08125 93.604164 130.50313 93.49479Q130.8 93.40104 131.44063 93.322914Q132.70625 93.18229 133.31563 92.96354Q133.31563 92.74479 133.31563 92.697914Q133.31563 92.041664 133.01875 91.77604Q132.6125 91.43229 131.81563 91.43229Q131.08125 91.43229 130.72188 91.697914Q130.3625 91.947914 130.19063 92.604164L129.15938 92.46354Q129.3 91.80729 129.62813 91.40104Q129.95625 90.99479 130.56563 90.77604Q131.175 90.55729 131.97188 90.55729Q132.76875 90.55729 133.26875 90.74479Q133.76875 90.93229 134.00313 91.21354Q134.2375 91.49479 134.33125 91.93229Q134.37813 92.197914 134.37813 92.90104L134.37813 94.30729Q134.37813 95.77604 134.44063 96.166664Q134.51875 96.55729 134.72188 96.916664L133.6125 96.916664Q133.45625 96.58854 133.40938 96.15104ZM133.31563 93.791664Q132.7375 94.02604 131.59688 94.197914Q130.94063 94.291664 130.675 94.416664Q130.40938 94.52604 130.25313 94.74479Q130.1125 94.96354 130.1125 95.24479Q130.1125 95.666664 130.425 95.947914Q130.75313 96.229164 131.3625 96.229164Q131.97188 96.229164 132.44063 95.96354Q132.925 95.697914 133.14375 95.229164Q133.31563 94.86979 133.31563 94.18229L133.31563 93.791664Z" fill-rule="nonzero"/><path fill="#9e9e9e" d="M19.1125 106.447914L19.1125 105.43229L24.675 105.43229L24.675 106.260414Q23.8625 107.135414 23.05 108.58854Q22.253124 110.02604 21.815624 111.55729Q21.4875 112.635414 21.409374 113.916664L20.315624 113.916664Q20.33125 112.90104 20.70625 111.46354Q21.096874 110.02604 21.8 108.697914Q22.51875 107.36979 23.33125 106.447914L19.1125 106.447914ZM26.6125 113.916664L26.6125 112.71354L27.815624 112.71354L27.815624 113.916664Q27.815624 114.572914 27.58125 114.979164Q27.346874 115.40104 26.846874 115.61979L26.55 115.166664Q26.878124 115.02604 27.034374 114.729164Q27.190624 114.447914 27.221874 113.916664L26.6125 113.916664ZM29.1125 106.447914L29.1125 105.43229L34.675 105.43229L34.675 106.260414Q33.8625 107.135414 33.05 108.58854Q32.253124 110.02604 31.815624 111.55729Q31.4875 112.635414 31.409374 113.916664L30.315624 113.916664Q30.33125 112.90104 30.70625 111.46354Q31.096874 110.02604 31.8 108.697914Q32.51875 107.36979 33.33125 106.447914L29.1125 106.447914ZM36.253124 107.385414Q36.253124 106.46354 36.70625 105.822914Q37.175 105.18229 38.05 105.18229Q38.8625 105.18229 39.39375 105.760414Q39.925 106.33854 39.925 107.447914Q39.925 108.541664 39.378124 109.135414Q38.846874 109.71354 38.065624 109.71354Q37.284374 109.71354 36.76875 109.135414Q36.253124 108.55729 36.253124 107.385414ZM38.08125 105.90104Q37.690624 105.90104 37.425 106.24479Q37.175 106.58854 37.175 107.49479Q37.175 108.322914 37.425 108.666664Q37.690624 108.99479 38.08125 108.99479Q38.4875 108.99479 38.7375 108.65104Q39.003124 108.30729 39.003124 107.416664Q39.003124 106.572914 38.7375 106.24479Q38.471874 105.90104 38.08125 105.90104ZM38.08125 114.229164L42.784374 105.18229L43.64375 105.18229L38.95625 114.229164L38.08125 114.229164ZM41.8 111.90104Q41.8 110.979164 42.253124 110.33854Q42.721874 109.697914 43.6125 109.697914Q44.425 109.697914 44.95625 110.27604Q45.4875 110.83854 45.4875 111.96354Q45.4875 113.05729 44.940624 113.65104Q44.409374 114.229164 43.6125 114.229164Q42.846874 114.229164 42.315624 113.65104Q41.8 113.072914 41.8 111.90104ZM43.64375 110.416664Q43.2375 110.416664 42.971874 110.760414Q42.721874 111.104164 42.721874 112.010414Q42.721874 112.822914 42.9875 113.166664Q43.253124 113.510414 43.64375 113.510414Q44.034374 113.510414 44.3 113.166664Q44.565624 112.822914 44.565624 111.916664Q44.565624 111.08854 44.3 110.760414Q44.034374 110.416664 43.64375 110.416664Z" fill-rule="nonzero"/><path stroke="#757575" stroke-width="1.0" stroke-linecap="butt" d="M18.55 101.416664L145.23334 101.416664L206.28198 97.89756" fill-rule="nonzero"/><path fill="#9e9e9e" d="M208.28198 97.89756C208.28198 96.792984 207.38655 95.89756 206.28198 95.89756C205.17741 95.89756 204.28198 96.792984 204.28198 97.89756C204.28198 99.00213 205.17741 99.89756 206.28198 99.89756C207.38655 99.89756 208.28198 99.00213 208.28198 97.89756" fill-rule="nonzero"/><path fill="#1a1a1a" d="M19.675 284.08524L19.675 275.4915L20.8 275.4915L20.8 284.08524L19.675 284.08524ZM22.346874 284.08524L22.346874 277.8665L23.284374 277.8665L23.284374 278.7415Q23.58125 278.27274 24.065624 278.0071Q24.55 277.72586 25.175 277.72586Q25.8625 277.72586 26.3 278.0071Q26.753124 278.28836 26.925 278.804Q27.675 277.72586 28.846874 277.72586Q29.784374 277.72586 30.26875 278.2415Q30.76875 278.7415 30.76875 279.8196L30.76875 284.08524L29.721874 284.08524L29.721874 280.16336Q29.721874 279.53836 29.6125 279.2571Q29.51875 278.97586 29.253124 278.804Q28.9875 278.6321 28.6125 278.6321Q27.95625 278.6321 27.51875 279.0696Q27.096874 279.5071 27.096874 280.47586L27.096874 284.08524L26.034374 284.08524L26.034374 280.03836Q26.034374 279.33524 25.76875 278.9915Q25.51875 278.6321 24.940624 278.6321Q24.4875 278.6321 24.1125 278.8665Q23.7375 279.10086 23.565624 279.554Q23.39375 280.0071 23.39375 280.85086L23.39375 284.08524L22.346874 284.08524ZM33.346874 286.47586L33.346874 277.8665L34.3 277.8665L34.3 278.66336Q34.64375 278.1946 35.065624 277.96024Q35.503124 277.72586 36.1125 277.72586Q36.909374 277.72586 37.51875 278.1321Q38.128124 278.53836 38.425 279.28836Q38.7375 280.03836 38.7375 280.929Q38.7375 281.8821 38.39375 282.64774Q38.065624 283.41336 37.409374 283.8196Q36.753124 284.22586 36.034374 284.22586Q35.503124 284.22586 35.08125 284.0071Q34.659374 283.77274 34.39375 283.4446L34.39375 286.47586L33.346874 286.47586ZM34.3 281.0071Q34.3 282.21024 34.784374 282.78836Q35.26875 283.35086 35.95625 283.35086Q36.659374 283.35086 37.159374 282.7571Q37.659374 282.16336 37.659374 280.91336Q37.659374 279.72586 37.175 279.14774Q36.690624 278.554 36.003124 278.554Q35.33125 278.554 34.815624 279.179Q34.3 279.804 34.3 281.0071ZM40.346874 276.71024L40.346874 275.4915L41.409374 275.4915L41.409374 276.71024L40.346874 276.71024ZM40.346874 284.08524L40.346874 277.8665L41.409374 277.8665L41.409374 284.08524L40.346874 284.08524ZM47.596874 282.08524L48.690624 282.21024Q48.440624 283.16336 47.7375 283.6946Q47.034374 284.22586 45.95625 284.22586Q44.596874 284.22586 43.784374 283.3821Q42.9875 282.53836 42.9875 281.02274Q42.9875 279.46024 43.8 278.60086Q44.6125 277.72586 45.89375 277.72586Q47.14375 277.72586 47.925 278.5696Q48.721874 279.41336 48.721874 280.96024Q48.721874 281.054 48.721874 281.2415L44.08125 281.2415Q44.14375 282.27274 44.659374 282.8196Q45.175 283.35086 45.95625 283.35086Q46.534374 283.35086 46.940624 283.054Q47.3625 282.7415 47.596874 282.08524ZM44.14375 280.3821L47.6125 280.3821Q47.55 279.58524 47.221874 279.1946Q46.70625 278.58524 45.909374 278.58524Q45.175 278.58524 44.675 279.0696Q44.190624 279.554 44.14375 280.3821ZM50.14375 284.60086L51.175 284.7571Q51.2375 285.22586 51.534374 285.4446Q51.925 285.7415 52.596874 285.7415Q53.33125 285.7415 53.721874 285.4446Q54.128124 285.14774 54.26875 284.6321Q54.3625 284.304 54.346874 283.27274Q53.659374 284.08524 52.628124 284.08524Q51.346874 284.08524 50.64375 283.16336Q49.940624 282.22586 49.940624 280.9446Q49.940624 280.054 50.253124 279.304Q50.58125 278.53836 51.190624 278.1321Q51.8 277.72586 52.628124 277.72586Q53.7375 277.72586 54.45625 278.6165L54.45625 277.8665L55.425 277.8665L55.425 283.2415Q55.425 284.6946 55.128124 285.304Q54.83125 285.91336 54.190624 286.2571Q53.55 286.6165 52.6125 286.6165Q51.503124 286.6165 50.815624 286.1165Q50.128124 285.6165 50.14375 284.60086ZM51.01875 280.8665Q51.01875 282.08524 51.503124 282.64774Q51.9875 283.21024 52.721874 283.21024Q53.45625 283.21024 53.940624 282.64774Q54.440624 282.08524 54.440624 280.89774Q54.440624 279.7571 53.925 279.179Q53.425 278.60086 52.70625 278.60086Q52.003124 278.60086 51.503124 279.179Q51.01875 279.7415 51.01875 280.8665ZM61.409374 283.3196Q60.815624 283.8196 60.26875 284.02274Q59.7375 284.22586 59.1125 284.22586Q58.08125 284.22586 57.534374 283.72586Q56.9875 283.22586 56.9875 282.4446Q56.9875 281.9915 57.190624 281.6165Q57.39375 281.22586 57.7375 281.0071Q58.08125 280.77274 58.503124 280.66336Q58.8 280.5696 59.440624 280.4915Q60.70625 280.35086 61.315624 280.1321Q61.315624 279.91336 61.315624 279.8665Q61.315624 279.21024 61.01875 278.9446Q60.6125 278.60086 59.815624 278.60086Q59.08125 278.60086 58.721874 278.8665Q58.3625 279.1165 58.190624 279.77274L57.159374 279.6321Q57.3 278.97586 57.628124 278.5696Q57.95625 278.16336 58.565624 277.9446Q59.175 277.72586 59.971874 277.72586Q60.76875 277.72586 61.26875 277.91336Q61.76875 278.10086 62.003124 278.3821Q62.2375 278.66336 62.33125 279.10086Q62.378124 279.3665 62.378124 280.0696L62.378124 281.47586Q62.378124 282.9446 62.440624 283.33524Q62.51875 283.72586 62.721874 284.08524L61.6125 284.08524Q61.45625 283.7571 61.409374 283.3196ZM61.315624 280.96024Q60.7375 281.1946 59.596874 281.3665Q58.940624 281.46024 58.675 281.58524Q58.409374 281.6946 58.253124 281.91336Q58.1125 282.1321 58.1125 282.41336Q58.1125 282.83524 58.425 283.1165Q58.753124 283.39774 59.3625 283.39774Q59.971874 283.39774 60.440624 283.1321Q60.925 282.8665 61.14375 282.39774Q61.315624 282.03836 61.315624 281.35086L61.315624 280.96024ZM66.64375 283.14774L66.8 284.0696Q66.34688 284.16336 66.00313 284.16336Q65.425 284.16336 65.1125 283.9915Q64.8 283.804 64.65938 283.5071Q64.53438 283.21024 64.53438 282.2571L64.53438 278.679L63.76875 278.679L63.76875 277.8665L64.53438 277.8665L64.53438 276.3196L65.58125 275.6946L65.58125 277.8665L66.64375 277.8665L66.64375 278.679L65.58125 278.679L65.58125 282.3196Q65.58125 282.77274 65.62813 282.89774Q65.69063 283.02274 65.81563 283.10086Q65.94063 283.179 66.175 283.179Q66.3625 283.179 66.64375 283.14774ZM66.95625 280.97586Q66.95625 279.2415 67.90938 278.41336Q68.70625 277.72586 69.8625 277.72586Q71.14375 277.72586 71.95625 278.5696Q72.78438 279.39774 72.78438 280.8821Q72.78438 282.08524 72.425 282.77274Q72.06563 283.46024 71.3625 283.85086Q70.675 284.22586 69.8625 284.22586Q68.56563 284.22586 67.75313 283.39774Q66.95625 282.554 66.95625 280.97586ZM68.03438 280.97586Q68.03438 282.16336 68.55 282.7571Q69.08125 283.35086 69.8625 283.35086Q70.65938 283.35086 71.175 282.7571Q71.69063 282.16336 71.69063 280.9446Q71.69063 279.78836 71.15938 279.1946Q70.64375 278.60086 69.8625 278.60086Q69.08125 278.60086 68.55 279.1946Q68.03438 279.77274 68.03438 280.97586Z" fill-rule="nonzero"/><path fill="#9e9e9e" d="M19.05 298.8196L20.1125 298.679Q20.284374 299.5696 20.721874 299.97586Q21.159374 300.3665 21.784374 300.3665Q22.534374 300.3665 23.05 299.85086Q23.565624 299.33524 23.565624 298.5696Q23.565624 297.85086 23.08125 297.3821Q22.6125 296.89774 21.878124 296.89774Q21.58125 296.89774 21.128124 297.02274L21.253124 296.08524Q21.3625 296.10086 21.425 296.10086Q22.096874 296.10086 22.628124 295.7571Q23.175 295.39774 23.175 294.66336Q23.175 294.08524 22.784374 293.71024Q22.39375 293.3196 21.76875 293.3196Q21.159374 293.3196 20.7375 293.71024Q20.33125 294.10086 20.221874 294.8665L19.159374 294.679Q19.346874 293.6321 20.034374 293.054Q20.721874 292.46024 21.7375 292.46024Q22.440624 292.46024 23.034374 292.77274Q23.628124 293.0696 23.940624 293.58524Q24.253124 294.10086 24.253124 294.6946Q24.253124 295.2415 23.95625 295.71024Q23.659374 296.16336 23.08125 296.429Q23.83125 296.60086 24.253124 297.16336Q24.675 297.71024 24.675 298.554Q24.675 299.679 23.846874 300.46024Q23.034374 301.2415 21.784374 301.2415Q20.659374 301.2415 19.909374 300.5696Q19.159374 299.8821 19.05 298.8196ZM26.20625 299.10086L27.221874 299.0071Q27.346874 299.72586 27.70625 300.054Q28.08125 300.3665 28.64375 300.3665Q29.128124 300.3665 29.4875 300.14774Q29.8625 299.91336 30.096874 299.554Q30.33125 299.179 30.4875 298.554Q30.64375 297.91336 30.64375 297.2571Q30.64375 297.179 30.64375 297.03836Q30.33125 297.53836 29.784374 297.8665Q29.2375 298.179 28.596874 298.179Q27.51875 298.179 26.784374 297.41336Q26.05 296.6321 26.05 295.3665Q26.05 294.054 26.815624 293.2571Q27.596874 292.46024 28.753124 292.46024Q29.58125 292.46024 30.26875 292.91336Q30.971874 293.3665 31.33125 294.21024Q31.690624 295.03836 31.690624 296.6165Q31.690624 298.2571 31.33125 299.2415Q30.9875 300.21024 30.26875 300.72586Q29.565624 301.22586 28.628124 301.22586Q27.6125 301.22586 26.971874 300.679Q26.33125 300.1165 26.20625 299.10086ZM30.51875 295.304Q30.51875 294.39774 30.034374 293.8665Q29.565624 293.33524 28.878124 293.33524Q28.175 293.33524 27.64375 293.91336Q27.128124 294.47586 27.128124 295.39774Q27.128124 296.21024 27.628124 296.72586Q28.128124 297.2415 28.846874 297.2415Q29.58125 297.2415 30.05 296.72586Q30.51875 296.21024 30.51875 295.304ZM33.6125 301.08524L33.6125 299.8821L34.815624 299.8821L34.815624 301.08524Q34.815624 301.7415 34.58125 302.14774Q34.346874 302.5696 33.846874 302.78836L33.55 302.33524Q33.878124 302.1946 34.034374 301.89774Q34.190624 301.6165 34.221874 301.08524L33.6125 301.08524ZM36.1125 293.6165L36.1125 292.60086L41.675 292.60086L41.675 293.429Q40.8625 294.304 40.05 295.7571Q39.253124 297.1946 38.815624 298.72586Q38.4875 299.804 38.409374 301.08524L37.315624 301.08524Q37.33125 300.0696 37.70625 298.6321Q38.096874 297.1946 38.8 295.8665Q39.51875 294.53836 40.33125 293.6165L36.1125 293.6165ZM43.253124 294.554Q43.253124 293.6321 43.70625 292.9915Q44.175 292.35086 45.05 292.35086Q45.8625 292.35086 46.39375 292.929Q46.925 293.5071 46.925 294.6165Q46.925 295.71024 46.378124 296.304Q45.846874 296.8821 45.065624 296.8821Q44.284374 296.8821 43.76875 296.304Q43.253124 295.72586 43.253124 294.554ZM45.08125 293.0696Q44.690624 293.0696 44.425 293.41336Q44.175 293.7571 44.175 294.66336Q44.175 295.4915 44.425 295.83524Q44.690624 296.16336 45.08125 296.16336Q45.4875 296.16336 45.7375 295.8196Q46.003124 295.47586 46.003124 294.58524Q46.003124 293.7415 45.7375 293.41336Q45.471874 293.0696 45.08125 293.0696ZM45.08125 301.39774L49.784374 292.35086L50.64375 292.35086L45.95625 301.39774L45.08125 301.39774ZM48.8 299.0696Q48.8 298.14774 49.253124 297.5071Q49.721874 296.8665 50.6125 296.8665Q51.425 296.8665 51.95625 297.4446Q52.4875 298.0071 52.4875 299.1321Q52.4875 300.22586 51.940624 300.8196Q51.409374 301.39774 50.6125 301.39774Q49.846874 301.39774 49.315624 300.8196Q48.8 300.2415 48.8 299.0696ZM50.64375 297.58524Q50.2375 297.58524 49.971874 297.929Q49.721874 298.27274 49.721874 299.179Q49.721874 299.9915 49.9875 300.33524Q50.253124 300.679 50.64375 300.679Q51.034374 300.679 51.3 300.33524Q51.565624 299.9915 51.565624 299.08524Q51.565624 298.2571 51.3 297.929Q51.034374 297.58524 50.64375 297.58524Z" fill-rule="nonzero"/><path stroke="#757575" stroke-width="1.0" stroke-linecap="butt" d="M18.55 288.58524L145.23334 288.58524L187.01608 288.58524" fill-rule="nonzero"/><path fill="#9e9e9e" d="M189.01608 288.58524C189.01608 287.48065 188.12065 286.58524 187.01608 286.58524C185.91151 286.58524 185.01608 287.48065 185.01608 288.58524C185.01608 289.68982 185.91151 290.58524 187.01608 290.58524C188.12065 290.58524 189.01608 289.68982 189.01608 288.58524" fill-rule="nonzero"/><path fill="#1a1a1a" d="M532.9969 173.74706L534.0594 173.6533Q534.1375 174.30956 534.41876 174.7158Q534.7 175.12206 535.27814 175.38768Q535.8719 175.63768 536.60626 175.63768Q537.2469 175.63768 537.7469 175.45018Q538.2469 175.24706 538.48126 174.91893Q538.73126 174.57518 538.73126 174.18456Q538.73126 173.7783 538.4969 173.48143Q538.2625 173.16893 537.73126 172.9658Q537.3719 172.82518 536.1844 172.54393Q535.0125 172.26268 534.54376 172.01268Q533.91876 171.68456 533.6219 171.2158Q533.325 170.73143 533.325 170.13768Q533.325 169.49706 533.6844 168.93456Q534.0594 168.35643 534.7625 168.07518Q535.48126 167.7783 536.34064 167.7783Q537.29376 167.7783 538.02814 168.0908Q538.7625 168.38768 539.15314 168.99706Q539.54376 169.5908 539.575 170.3408L538.48126 170.41893Q538.3875 169.60643 537.8719 169.20018Q537.3719 168.7783 536.3875 168.7783Q535.35626 168.7783 534.8875 169.1533Q534.41876 169.5283 534.41876 170.05956Q534.41876 170.5283 534.7469 170.82518Q535.075 171.12206 536.45 171.43456Q537.84064 171.74706 538.35626 171.98143Q539.10626 172.3408 539.46564 172.87206Q539.825 173.38768 539.825 174.0908Q539.825 174.7783 539.4344 175.38768Q539.04376 175.98143 538.3094 176.32518Q537.575 176.6533 536.65314 176.6533Q535.48126 176.6533 534.6844 176.32518Q533.90314 175.98143 533.45 175.29393Q533.0125 174.60643 532.9969 173.74706ZM543.54376 175.57518L543.7 176.49706Q543.2469 176.5908 542.90314 176.5908Q542.325 176.5908 542.0125 176.41893Q541.7 176.23143 541.5594 175.93456Q541.4344 175.63768 541.4344 174.68456L541.4344 171.10643L540.66876 171.10643L540.66876 170.29393L541.4344 170.29393L541.4344 168.74706L542.48126 168.12206L542.48126 170.29393L543.54376 170.29393L543.54376 171.10643L542.48126 171.10643L542.48126 174.74706Q542.48126 175.20018 542.52814 175.32518Q542.59064 175.45018 542.71564 175.5283Q542.84064 175.60643 543.075 175.60643Q543.2625 175.60643 543.54376 175.57518ZM548.325 176.51268L548.325 175.5908Q547.59064 176.6533 546.34064 176.6533Q545.79376 176.6533 545.3094 176.45018Q544.84064 176.23143 544.60626 175.91893Q544.3719 175.5908 544.27814 175.12206Q544.21564 174.82518 544.21564 174.13768L544.21564 170.29393L545.27814 170.29393L545.27814 173.74706Q545.27814 174.55956 545.34064 174.85643Q545.4344 175.26268 545.7469 175.51268Q546.075 175.74706 546.5594 175.74706Q547.02814 175.74706 547.4344 175.51268Q547.85626 175.26268 548.02814 174.8408Q548.21564 174.41893 548.21564 173.62206L548.21564 170.29393L549.2625 170.29393L549.2625 176.51268L548.325 176.51268ZM555.27814 176.51268L555.27814 175.73143Q554.6844 176.6533 553.54376 176.6533Q552.79376 176.6533 552.16876 176.24706Q551.54376 175.82518 551.2 175.0908Q550.85626 174.35643 550.85626 173.4033Q550.85626 172.48143 551.16876 171.7158Q551.48126 170.95018 552.10626 170.55956Q552.73126 170.1533 553.4969 170.1533Q554.0594 170.1533 554.4969 170.38768Q554.9344 170.62206 555.21564 170.99706L555.21564 167.91893L556.2625 167.91893L556.2625 176.51268L555.27814 176.51268ZM551.95 173.4033Q551.95 174.60643 552.45 175.20018Q552.95 175.7783 553.6375 175.7783Q554.325 175.7783 554.8094 175.2158Q555.29376 174.6533 555.29376 173.49706Q555.29376 172.2158 554.79376 171.62206Q554.3094 171.0283 553.59064 171.0283Q552.8875 171.0283 552.41876 171.60643Q551.95 172.16893 551.95 173.4033ZM562.4969 174.51268L563.59064 174.63768Q563.34064 175.5908 562.6375 176.12206Q561.9344 176.6533 560.85626 176.6533Q559.4969 176.6533 558.6844 175.80956Q557.8875 174.9658 557.8875 173.45018Q557.8875 171.88768 558.7 171.0283Q559.5125 170.1533 560.79376 170.1533Q562.04376 170.1533 562.825 170.99706Q563.6219 171.8408 563.6219 173.38768Q563.6219 173.48143 563.6219 173.66893L558.98126 173.66893Q559.04376 174.70018 559.5594 175.24706Q560.075 175.7783 560.85626 175.7783Q561.4344 175.7783 561.84064 175.48143Q562.2625 175.16893 562.4969 174.51268ZM559.04376 172.80956L562.5125 172.80956Q562.45 172.01268 562.1219 171.62206Q561.60626 171.01268 560.8094 171.01268Q560.075 171.01268 559.575 171.49706Q559.09064 171.98143 559.04376 172.80956ZM565.2469 176.51268L565.2469 170.29393L566.1844 170.29393L566.1844 171.16893Q566.8719 170.1533 568.16876 170.1533Q568.73126 170.1533 569.2 170.35643Q569.6844 170.55956 569.91876 170.88768Q570.15314 171.2158 570.2469 171.6533Q570.29376 171.95018 570.29376 172.68456L570.29376 176.51268L569.2469 176.51268L569.2469 172.73143Q569.2469 172.07518 569.1219 171.76268Q568.9969 171.45018 568.6844 171.26268Q568.3719 171.05956 567.95 171.05956Q567.27814 171.05956 566.77814 171.49706Q566.29376 171.91893 566.29376 173.10643L566.29376 176.51268L565.2469 176.51268ZM574.54376 175.57518L574.7 176.49706Q574.2469 176.5908 573.90314 176.5908Q573.325 176.5908 573.0125 176.41893Q572.7 176.23143 572.5594 175.93456Q572.4344 175.63768 572.4344 174.68456L572.4344 171.10643L571.66876 171.10643L571.66876 170.29393L572.4344 170.29393L572.4344 168.74706L573.48126 168.12206L573.48126 170.29393L574.54376 170.29393L574.54376 171.10643L573.48126 171.10643L573.48126 174.74706Q573.48126 175.20018 573.52814 175.32518Q573.59064 175.45018 573.71564 175.5283Q573.84064 175.60643 574.075 175.60643Q574.2625 175.60643 574.54376 175.57518ZM579.4969 174.51268L580.59064 174.63768Q580.34064 175.5908 579.6375 176.12206Q578.9344 176.6533 577.85626 176.6533Q576.4969 176.6533 575.6844 175.80956Q574.8875 174.9658 574.8875 173.45018Q574.8875 171.88768 575.7 171.0283Q576.5125 170.1533 577.79376 170.1533Q579.04376 170.1533 579.825 170.99706Q580.6219 171.8408 580.6219 173.38768Q580.6219 173.48143 580.6219 173.66893L575.98126 173.66893Q576.04376 174.70018 576.5594 175.24706Q577.075 175.7783 577.85626 175.7783Q578.4344 175.7783 578.84064 175.48143Q579.2625 175.16893 579.4969 174.51268ZM576.04376 172.80956L579.5125 172.80956Q579.45 172.01268 579.1219 171.62206Q578.60626 171.01268 577.8094 171.01268Q577.075 171.01268 576.575 171.49706Q576.09064 171.98143 576.04376 172.80956Z" fill-rule="nonzero"/><path fill="#9e9e9e" d="M550.325 193.51268L550.325 191.45018L546.60626 191.45018L546.60626 190.48143L550.52814 184.91893L551.3875 184.91893L551.3875 190.48143L552.54376 190.48143L552.54376 191.45018L551.3875 191.45018L551.3875 193.51268L550.325 193.51268ZM550.325 190.48143L550.325 186.62206L547.6375 190.48143L550.325 190.48143ZM557.325 193.51268L557.325 191.45018L553.60626 191.45018L553.60626 190.48143L557.52814 184.91893L558.3875 184.91893L558.3875 190.48143L559.54376 190.48143L559.54376 191.45018L558.3875 191.45018L558.3875 193.51268L557.325 193.51268ZM557.325 190.48143L557.325 186.62206L554.6375 190.48143L557.325 190.48143ZM561.5125 193.51268L561.5125 192.30956L562.71564 192.30956L562.71564 193.51268Q562.71564 194.16893 562.48126 194.57518Q562.2469 194.99706 561.7469 195.2158L561.45 194.76268Q561.77814 194.62206 561.9344 194.32518Q562.09064 194.04393 562.1219 193.51268L561.5125 193.51268ZM564.10626 191.5283L565.1219 191.43456Q565.2469 192.1533 565.60626 192.48143Q565.98126 192.79393 566.54376 192.79393Q567.02814 192.79393 567.3875 192.57518Q567.7625 192.3408 567.9969 191.98143Q568.23126 191.60643 568.3875 190.98143Q568.54376 190.3408 568.54376 189.68456Q568.54376 189.60643 568.54376 189.4658Q568.23126 189.9658 567.6844 190.29393Q567.1375 190.60643 566.4969 190.60643Q565.41876 190.60643 564.6844 189.8408Q563.95 189.05956 563.95 187.79393Q563.95 186.48143 564.71564 185.68456Q565.4969 184.88768 566.65314 184.88768Q567.48126 184.88768 568.16876 185.3408Q568.8719 185.79393 569.23126 186.63768Q569.59064 187.4658 569.59064 189.04393Q569.59064 190.68456 569.23126 191.66893Q568.8875 192.63768 568.16876 193.1533Q567.46564 193.6533 566.52814 193.6533Q565.5125 193.6533 564.8719 193.10643Q564.23126 192.54393 564.10626 191.5283ZM568.41876 187.73143Q568.41876 186.82518 567.9344 186.29393Q567.46564 185.76268 566.77814 185.76268Q566.075 185.76268 565.54376 186.3408Q565.02814 186.9033 565.02814 187.82518Q565.02814 188.63768 565.52814 189.1533Q566.02814 189.66893 566.7469 189.66893Q567.48126 189.66893 567.95 189.1533Q568.41876 188.63768 568.41876 187.73143ZM571.15314 186.98143Q571.15314 186.05956 571.60626 185.41893Q572.075 184.7783 572.95 184.7783Q573.7625 184.7783 574.29376 185.35643Q574.825 185.93456 574.825 187.04393Q574.825 188.13768 574.27814 188.73143Q573.7469 189.30956 572.96564 189.30956Q572.1844 189.30956 571.66876 188.73143Q571.15314 188.1533 571.15314 186.98143ZM572.98126 185.49706Q572.59064 185.49706 572.325 185.8408Q572.075 186.18456 572.075 187.0908Q572.075 187.91893 572.325 188.26268Q572.59064 188.5908 572.98126 188.5908Q573.3875 188.5908 573.6375 188.24706Q573.90314 187.9033 573.90314 187.01268Q573.90314 186.16893 573.6375 185.8408Q573.3719 185.49706 572.98126 185.49706ZM572.98126 193.82518L577.6844 184.7783L578.54376 184.7783L573.85626 193.82518L572.98126 193.82518ZM576.7 191.49706Q576.7 190.57518 577.15314 189.93456Q577.6219 189.29393 578.5125 189.29393Q579.325 189.29393 579.85626 189.87206Q580.3875 190.43456 580.3875 191.55956Q580.3875 192.6533 579.84064 193.24706Q579.3094 193.82518 578.5125 193.82518Q577.7469 193.82518 577.21564 193.24706Q576.7 192.66893 576.7 191.49706ZM578.54376 190.01268Q578.1375 190.01268 577.8719 190.35643Q577.6219 190.70018 577.6219 191.60643Q577.6219 192.41893 577.8875 192.76268Q578.15314 193.10643 578.54376 193.10643Q578.9344 193.10643 579.2 192.76268Q579.46564 192.41893 579.46564 191.51268Q579.46564 190.68456 579.2 190.35643Q578.9344 190.01268 578.54376 190.01268Z" fill-rule="nonzero"/><path stroke="#757575" stroke-width="1.0" stroke-linecap="butt" d="M581.45 181.01268L454.76666 181.01268L439.49817 181.01268" fill-rule="nonzero"/><path fill="#9e9e9e" d="M441.49817 181.01268C441.49817 179.90811 440.60275 179.01268 439.49817 179.01268C438.3936 179.01268 437.49817 179.90811 437.49817 181.01268C437.49817 182.11725 438.3936 183.01268 439.49817 183.01268C440.60275 183.01268 441.49817 182.11725 441.49817 181.01268" fill-rule="nonzero"/><path fill="#757575" d="M30.315624 32.534374L32.20625 33.003124Q31.6125 35.346874 30.065624 36.58125Q28.51875 37.8 26.26875 37.8Q23.95625 37.8 22.503124 36.8625Q21.065624 35.909374 20.3 34.128124Q19.55 32.33125 19.55 30.284374Q19.55 28.05 20.39375 26.39375Q21.253124 24.721874 22.83125 23.8625Q24.409374 22.9875 26.3 22.9875Q28.45625 22.9875 29.909374 24.08125Q31.378124 25.175 31.95625 27.159374L30.096874 27.596874Q29.596874 26.034374 28.64375 25.33125Q27.70625 24.6125 26.26875 24.6125Q24.6125 24.6125 23.503124 25.409374Q22.39375 26.190624 21.940624 27.534374Q21.503124 28.8625 21.503124 30.26875Q21.503124 32.096874 22.034374 33.471874Q22.565624 34.83125 23.690624 35.503124Q24.815624 36.175 26.1125 36.175Q27.70625 36.175 28.815624 35.253124Q29.925 34.33125 30.315624 32.534374ZM33.8625 37.55L33.8625 23.2375L35.628124 23.2375L35.628124 28.3625Q36.8625 26.940624 38.7375 26.940624Q39.878124 26.940624 40.721874 27.39375Q41.58125 27.846874 41.940624 28.659374Q42.315624 29.45625 42.315624 30.971874L42.315624 37.55L40.565624 37.55L40.565624 30.971874Q40.565624 29.659374 39.9875 29.065624Q39.409374 28.45625 38.378124 28.45625Q37.596874 28.45625 36.89375 28.8625Q36.20625 29.26875 35.909374 29.971874Q35.628124 30.659374 35.628124 31.878124L35.628124 37.55L33.8625 37.55ZM50.971874 34.20625L52.784374 34.440624Q52.3625 36.01875 51.190624 36.909374Q50.034374 37.784374 48.221874 37.784374Q45.95625 37.784374 44.6125 36.39375Q43.284374 34.9875 43.284374 32.45625Q43.284374 29.83125 44.628124 28.39375Q45.971874 26.940624 48.128124 26.940624Q50.20625 26.940624 51.51875 28.3625Q52.846874 29.76875 52.846874 32.346874Q52.846874 32.503124 52.83125 32.815624L45.096874 32.815624Q45.190624 34.51875 46.065624 35.425Q46.940624 36.33125 48.2375 36.33125Q49.20625 36.33125 49.878124 35.83125Q50.565624 35.315624 50.971874 34.20625ZM45.190624 31.3625L50.9875 31.3625Q50.878124 30.065624 50.33125 29.409374Q49.4875 28.39375 48.14375 28.39375Q46.940624 28.39375 46.1125 29.20625Q45.284374 30.003124 45.190624 31.3625ZM64.70625 35.971874L64.95625 37.534374Q64.22188 37.690624 63.628124 37.690624Q62.675 37.690624 62.14375 37.39375Q61.628124 37.08125 61.409374 36.596874Q61.190624 36.096874 61.190624 34.51875L61.190624 28.55L59.909374 28.55L59.909374 27.175L61.190624 27.175L61.190624 24.6125L62.940624 23.55L62.940624 27.175L64.70625 27.175L64.70625 28.55L62.940624 28.55L62.940624 34.6125Q62.940624 35.3625 63.034374 35.58125Q63.128124 35.784374 63.33125 35.925Q63.55 36.05 63.940624 36.05Q64.22188 36.05 64.70625 35.971874ZM66.87813 25.253124L66.87813 23.2375L68.64375 23.2375L68.64375 25.253124L66.87813 25.253124ZM66.87813 37.55L66.87813 27.175L68.64375 27.175L68.64375 37.55L66.87813 37.55ZM70.8625 41.51875L70.8625 27.175L72.47188 27.175L72.47188 28.51875Q73.03438 27.7375 73.7375 27.346874Q74.45625 26.940624 75.47188 26.940624Q76.8 26.940624 77.81563 27.628124Q78.83125 28.315624 79.34688 29.565624Q79.87813 30.8 79.87813 32.284374Q79.87813 33.878124 79.3 35.159374Q78.7375 36.425 77.64375 37.1125Q76.55 37.784374 75.34688 37.784374Q74.47188 37.784374 73.76875 37.409374Q73.08125 37.034374 72.62813 36.471874L72.62813 41.51875L70.8625 41.51875ZM72.45625 32.425Q72.45625 34.425 73.26875 35.378124Q74.08125 36.33125 75.2375 36.33125Q76.40938 36.33125 77.2375 35.346874Q78.08125 34.3625 78.08125 32.26875Q78.08125 30.3 77.25313 29.315624Q76.44063 28.315624 75.31563 28.315624Q74.19063 28.315624 73.31563 29.378124Q72.45625 30.425 72.45625 32.425ZM81.22188 32.3625Q81.22188 29.4875 82.81563 28.096874Q84.15938 26.940624 86.08125 26.940624Q88.22188 26.940624 89.56563 28.346874Q90.925 29.753124 90.925 32.221874Q90.925 34.221874 90.33125 35.378124Q89.7375 36.51875 88.58125 37.159374Q87.44063 37.784374 86.08125 37.784374Q83.89375 37.784374 82.55 36.39375Q81.22188 34.9875 81.22188 32.3625ZM83.01875 32.3625Q83.01875 34.3625 83.87813 35.346874Q84.75313 36.33125 86.08125 36.33125Q87.39375 36.33125 88.25313 35.346874Q89.12813 34.346874 89.12813 32.3Q89.12813 30.378124 88.25313 29.39375Q87.37813 28.39375 86.08125 28.39375Q84.75313 28.39375 83.87813 29.39375Q83.01875 30.378124 83.01875 32.3625ZM105.59688 37.55L105.59688 36.2375Q104.6125 37.784374 102.69063 37.784374Q101.45625 37.784374 100.40938 37.096874Q99.37813 36.409374 98.8 35.190624Q98.2375 33.971874 98.2375 32.378124Q98.2375 30.815624 98.75313 29.55Q99.26875 28.284374 100.3 27.6125Q101.34688 26.940624 102.6125 26.940624Q103.55 26.940624 104.28438 27.346874Q105.01875 27.7375 105.4875 28.3625L105.4875 23.2375L107.22188 23.2375L107.22188 37.55L105.59688 37.55ZM100.03438 32.378124Q100.03438 34.3625 100.87813 35.346874Q101.72188 36.33125 102.8625 36.33125Q104.01875 36.33125 104.81563 35.39375Q105.62813 34.45625 105.62813 32.51875Q105.62813 30.39375 104.8 29.39375Q103.9875 28.39375 102.78438 28.39375Q101.6125 28.39375 100.81563 29.3625Q100.03438 30.315624 100.03438 32.378124ZM109.87813 25.253124L109.87813 23.2375L111.64375 23.2375L111.64375 25.253124L109.87813 25.253124ZM109.87813 37.55L109.87813 27.175L111.64375 27.175L111.64375 37.55L109.87813 37.55ZM119.83125 37.55L119.83125 23.2375L121.58125 23.2375L121.58125 37.55L119.83125 37.55ZM130.64375 36.26875Q129.65938 37.096874 128.75313 37.440624Q127.84688 37.784374 126.81563 37.784374Q125.1125 37.784374 124.19063 36.95625Q123.26875 36.1125 123.26875 34.815624Q123.26875 34.05 123.6125 33.425Q123.97188 32.8 124.53438 32.425Q125.09688 32.034374 125.8 31.83125Q126.31563 31.70625 127.3625 31.565624Q129.4875 31.315624 130.4875 30.971874Q130.50313 30.6125 130.50313 30.503124Q130.50313 29.440624 130.00313 28.9875Q129.33125 28.39375 128.00313 28.39375Q126.75313 28.39375 126.15938 28.83125Q125.58125 29.26875 125.3 30.378124L123.58125 30.14375Q123.81563 29.034374 124.34688 28.3625Q124.87813 27.675 125.89375 27.315624Q126.90938 26.940624 128.25313 26.940624Q129.58125 26.940624 130.40938 27.253124Q131.2375 27.565624 131.62813 28.05Q132.01875 28.51875 132.175 29.2375Q132.26875 29.690624 132.26875 30.8625L132.26875 33.20625Q132.26875 35.659374 132.37813 36.315624Q132.4875 36.95625 132.83125 37.55L130.9875 37.55Q130.72188 37.003124 130.64375 36.26875ZM130.4875 32.346874Q129.53438 32.7375 127.6125 33.003124Q126.53438 33.159374 126.08125 33.3625Q125.64375 33.55 125.39375 33.925Q125.14375 34.3 125.14375 34.76875Q125.14375 35.471874 125.675 35.940624Q126.20625 36.409374 127.2375 36.409374Q128.25313 36.409374 129.03438 35.971874Q129.83125 35.51875 130.20625 34.753124Q130.4875 34.14375 130.4875 32.9875L130.4875 32.346874ZM137.75313 37.55L133.8 27.175L135.65938 27.175L137.89375 33.39375Q138.25313 34.39375 138.55 35.471874Q138.78438 34.659374 139.20625 33.503124L141.50313 27.175L143.31563 27.175L139.39375 37.55L137.75313 37.55ZM143.22188 32.3625Q143.22188 29.4875 144.81563 28.096874Q146.15938 26.940624 148.08125 26.940624Q150.22188 26.940624 151.56563 28.346874Q152.925 29.753124 152.925 32.221874Q152.925 34.221874 152.33125 35.378124Q151.7375 36.51875 150.58125 37.159374Q149.44063 37.784374 148.08125 37.784374Q145.89375 37.784374 144.55 36.39375Q143.22188 34.9875 143.22188 32.3625ZM145.01875 32.3625Q145.01875 34.3625 145.87813 35.346874Q146.75313 36.33125 148.08125 36.33125Q149.39375 36.33125 150.25313 35.346874Q151.12813 34.346874 151.12813 32.3Q151.12813 30.378124 150.25313 29.39375Q149.37813 28.39375 148.08125 28.39375Q146.75313 28.39375 145.87813 29.39375Q145.01875 30.378124 145.01875 32.3625ZM154.84688 37.55L154.84688 27.175L156.425 27.175L156.425 28.753124Q157.03438 27.64375 157.55 27.3Q158.06563 26.940624 158.675 26.940624Q159.56563 26.940624 160.4875 27.503124L159.87813 29.14375Q159.2375 28.753124 158.59688 28.753124Q158.01875 28.753124 157.55 29.1125Q157.09688 29.45625 156.89375 30.065624Q156.6125 31.003124 156.6125 32.1125L156.6125 37.55L154.84688 37.55ZM161.22188 32.3625Q161.22188 29.4875 162.81563 28.096874Q164.15938 26.940624 166.08125 26.940624Q168.22188 26.940624 169.56563 28.346874Q170.925 29.753124 170.925 32.221874Q170.925 34.221874 170.33125 35.378124Q169.7375 36.51875 168.58125 37.159374Q167.44063 37.784374 166.08125 37.784374Q163.89375 37.784374 162.55 36.39375Q161.22188 34.9875 161.22188 32.3625ZM163.01875 32.3625Q163.01875 34.3625 163.87813 35.346874Q164.75313 36.33125 166.08125 36.33125Q167.39375 36.33125 168.25313 35.346874Q169.12813 34.346874 169.12813 32.3Q169.12813 30.378124 168.25313 29.39375Q167.37813 28.39375 166.08125 28.39375Q164.75313 28.39375 163.87813 29.39375Q163.01875 30.378124 163.01875 32.3625ZM178.15938 34.45625L179.90938 34.175Q180.05 35.221874 180.72188 35.784374Q181.39375 36.33125 182.59688 36.33125Q183.8 36.33125 184.37813 35.846874Q184.97188 35.346874 184.97188 34.690624Q184.97188 34.096874 184.45625 33.753124Q184.09688 33.51875 182.65938 33.159374Q180.72188 32.659374 179.97188 32.315624Q179.2375 31.95625 178.84688 31.33125Q178.45625 30.690624 178.45625 29.925Q178.45625 29.2375 178.76875 28.64375Q179.09688 28.05 179.64375 27.659374Q180.05 27.3625 180.75313 27.159374Q181.47188 26.940624 182.28438 26.940624Q183.50313 26.940624 184.425 27.3Q185.34688 27.64375 185.78438 28.253124Q186.22188 28.846874 186.39375 29.846874L184.675 30.08125Q184.55 29.284374 183.9875 28.846874Q183.425 28.39375 182.40938 28.39375Q181.19063 28.39375 180.675 28.8Q180.15938 29.190624 180.15938 29.721874Q180.15938 30.065624 180.37813 30.346874Q180.58125 30.628124 181.05 30.815624Q181.31563 30.909374 182.59688 31.253124Q184.47188 31.753124 185.20625 32.08125Q185.94063 32.39375 186.3625 33.003124Q186.78438 33.596874 186.78438 34.503124Q186.78438 35.378124 186.26875 36.159374Q185.75313 36.940624 184.78438 37.3625Q183.81563 37.784374 182.59688 37.784374Q180.58125 37.784374 179.51875 36.940624Q178.45625 36.096874 178.15938 34.45625ZM191.75313 37.55L187.8 27.175L189.65938 27.175L191.89375 33.39375Q192.25313 34.39375 192.55 35.471874Q192.78438 34.659374 193.20625 33.503124L195.50313 27.175L197.31563 27.175L193.39375 37.55L191.75313 37.55ZM197.22188 32.3625Q197.22188 29.4875 198.81563 28.096874Q200.15938 26.940624 202.08125 26.940624Q204.22188 26.940624 205.56563 28.346874Q206.925 29.753124 206.925 32.221874Q206.925 34.221874 206.33125 35.378124Q205.7375 36.51875 204.58125 37.159374Q203.44063 37.784374 202.08125 37.784374Q199.89375 37.784374 198.55 36.39375Q197.22188 34.9875 197.22188 32.3625ZM199.01875 32.3625Q199.01875 34.3625 199.87813 35.346874Q200.75313 36.33125 202.08125 36.33125Q203.39375 36.33125 204.25313 35.346874Q205.12813 34.346874 205.12813 32.3Q205.12813 30.378124 204.25313 29.39375Q203.37813 28.39375 202.08125 28.39375Q200.75313 28.39375 199.87813 29.39375Q199.01875 30.378124 199.01875 32.3625ZM208.83125 37.55L208.83125 23.2375L210.58125 23.2375L210.58125 37.55L208.83125 37.55ZM212.55 38.409374L214.25313 38.659374Q214.3625 39.45625 214.84688 39.815624Q215.50313 40.3 216.64375 40.3Q217.8625 40.3 218.51875 39.815624Q219.19063 39.33125 219.425 38.45625Q219.56563 37.909374 219.55 36.190624Q218.39375 37.55 216.675 37.55Q214.53438 37.55 213.3625 36.003124Q212.19063 34.45625 212.19063 32.3Q212.19063 30.815624 212.72188 29.565624Q213.26875 28.315624 214.28438 27.628124Q215.31563 26.940624 216.69063 26.940624Q218.51875 26.940624 219.72188 28.425L219.72188 27.175L221.33125 27.175L221.33125 36.14375Q221.33125 38.565624 220.83125 39.565624Q220.34688 40.58125 219.26875 41.159374Q218.20625 41.753124 216.64375 41.753124Q214.8 41.753124 213.64375 40.925Q212.50313 40.096874 212.55 38.409374ZM214.00313 32.175Q214.00313 34.221874 214.81563 35.159374Q215.62813 36.096874 216.84688 36.096874Q218.05 36.096874 218.8625 35.159374Q219.69063 34.221874 219.69063 32.2375Q219.69063 30.33125 218.84688 29.3625Q218.00313 28.39375 216.81563 28.39375Q215.64375 28.39375 214.81563 29.346874Q214.00313 30.3 214.00313 32.175ZM223.87813 25.253124L223.87813 23.2375L225.64375 23.2375L225.64375 25.253124L223.87813 25.253124ZM223.87813 37.55L223.87813 27.175L225.64375 27.175L225.64375 37.55L223.87813 37.55ZM231.15938 34.01875Q231.14375 33.675 231.14375 33.503124Q231.14375 32.45625 231.44063 31.70625Q231.65938 31.14375 232.14375 30.565624Q232.4875 30.14375 233.39375 29.346874Q234.31563 28.534374 234.58125 28.065624Q234.8625 27.58125 234.8625 27.01875Q234.8625 25.9875 234.05 25.221874Q233.25313 24.440624 232.09688 24.440624Q230.97188 24.440624 230.22188 25.14375Q229.47188 25.846874 229.2375 27.33125L227.425 27.1125Q227.675 25.1125 228.87813 24.05Q230.08125 22.9875 232.06563 22.9875Q234.175 22.9875 235.425 24.128124Q236.675 25.26875 236.675 26.89375Q236.675 27.83125 236.22188 28.628124Q235.78438 29.409374 234.50313 30.55Q233.64375 31.315624 233.37813 31.675Q233.12813 32.034374 232.9875 32.503124Q232.8625 32.971874 232.84688 34.01875L231.15938 34.01875ZM231.05 37.55L231.05 35.55L233.05 35.55L233.05 37.55L231.05 37.55Z" fill-rule="nonzero"/></svg>