<svg version="1.1" viewBox="0.0 0.0 600.0 371.0" fill="none" stroke="none" stroke-linecap="square" stroke-miterlimit="10" width="600" height="371" xmlns:xlink="http://www.w3.org/1999/xlink" xmlns="http://www.w3.org/2000/svg"><path fill="#ffffff" d="M0 0L600.0 0L600.0 371.0L0 371.0L0 0Z" fill-rule="nonzero"/><path fill="#ea4335" d="M276.13614 56.843155C284.0261 55.560917 292.00653 54.916668 300.0 54.916668L300.0 203.68333Z" fill-rule="nonzero"/><path fill="#4285f4" d="M300.0 54.916668C379.83124 54.916668 445.43155 117.926605 448.64603 197.6931C451.8605 277.4596 391.54312 345.54385 311.97073 351.9676C232.39838 358.39133 161.9406 300.86435 152.31801 221.61517C142.69542 142.366 197.3387 69.64899 276.13614 56.843155L300.0 203.68333Z" fill-rule="nonzero"/><path fill="#1a1a1a" d="M19.471874 65.916664L19.471874 57.322914L20.628124 57.322914L25.14375 64.072914L25.14375 57.322914L26.2375 57.322914L26.2375 65.916664L25.065624 65.916664L20.55 59.166664L20.55 65.916664L19.471874 65.916664ZM27.95625 62.80729Q27.95625 61.072914 28.909374 60.24479Q29.70625 59.55729 30.8625 59.55729Q32.14375 59.55729 32.95625 60.40104Q33.784374 61.229164 33.784374 62.71354Q33.784374 63.916664 33.425 64.604164Q33.065624 65.291664 32.3625 65.68229Q31.675 66.05729 30.8625 66.05729Q29.565624 66.05729 28.753124 65.229164Q27.95625 64.385414 27.95625 62.80729ZM29.034374 62.80729Q29.034374 63.99479 29.55 64.58854Q30.08125 65.18229 30.8625 65.18229Q31.659374 65.18229 32.175 64.58854Q32.690624 63.99479 32.690624 62.77604Q32.690624 61.61979 32.159374 61.02604Q31.64375 60.43229 30.8625 60.43229Q30.08125 60.43229 29.55 61.02604Q29.034374 61.604164 29.034374 62.80729Z" fill-rule="nonzero"/><path fill="#9e9e9e" d="M24.596874 81.90104L24.596874 82.916664L18.909374 82.916664Q18.909374 82.541664 19.034374 82.18229Q19.253124 81.604164 19.721874 81.041664Q20.20625 80.479164 21.1125 79.74479Q22.51875 78.58854 23.003124 77.916664Q23.503124 77.24479 23.503124 76.65104Q23.503124 76.02604 23.05 75.604164Q22.596874 75.166664 21.878124 75.166664Q21.1125 75.166664 20.659374 75.61979Q20.20625 76.072914 20.190624 76.885414L19.1125 76.77604Q19.221874 75.55729 19.940624 74.93229Q20.675 74.291664 21.909374 74.291664Q23.14375 74.291664 23.8625 74.979164Q24.58125 75.666664 24.58125 76.68229Q24.58125 77.197914 24.3625 77.697914Q24.159374 78.18229 23.659374 78.74479Q23.175 79.291664 22.05 80.24479Q21.096874 81.041664 20.815624 81.33854Q20.55 81.61979 20.378124 81.90104L24.596874 81.90104ZM26.6125 82.916664L26.6125 81.71354L27.815624 81.71354L27.815624 82.916664Q27.815624 83.572914 27.58125 83.979164Q27.346874 84.40104 26.846874 84.61979L26.55 84.166664Q26.878124 84.02604 27.034374 83.729164Q27.190624 83.447914 27.221874 82.916664L26.6125 82.916664ZM34.51875 76.43229L33.471874 76.510414Q33.33125 75.885414 33.08125 75.604164Q32.64375 75.15104 32.01875 75.15104Q31.51875 75.15104 31.128124 75.43229Q30.64375 75.80729 30.346874 76.510414Q30.065624 77.197914 30.05 78.479164Q30.425 77.90104 30.971874 77.61979Q31.534374 77.33854 32.14375 77.33854Q33.190624 77.33854 33.925 78.11979Q34.675 78.90104 34.675 80.11979Q34.675 80.93229 34.315624 81.635414Q33.971874 82.322914 33.3625 82.697914Q32.753124 83.05729 31.9875 83.05729Q30.659374 83.05729 29.83125 82.08854Q29.003124 81.11979 29.003124 78.90104Q29.003124 76.40104 29.925 75.27604Q30.721874 74.291664 32.08125 74.291664Q33.096874 74.291664 33.7375 74.86979Q34.39375 75.43229 34.51875 76.43229ZM30.221874 80.135414Q30.221874 80.68229 30.440624 81.18229Q30.675 81.666664 31.08125 81.93229Q31.503124 82.197914 31.971874 82.197914Q32.628124 82.197914 33.1125 81.666664Q33.596874 81.11979 33.596874 80.197914Q33.596874 79.30729 33.1125 78.791664Q32.64375 78.27604 31.925 78.27604Q31.20625 78.27604 30.70625 78.791664Q30.221874 79.30729 30.221874 80.135414ZM36.253124 76.385414Q36.253124 75.46354 36.70625 74.822914Q37.175 74.18229 38.05 74.18229Q38.8625 74.18229 39.39375 74.760414Q39.925 75.33854 39.925 76.447914Q39.925 77.541664 39.378124 78.135414Q38.846874 78.71354 38.065624 78.71354Q37.284374 78.71354 36.76875 78.135414Q36.253124 77.55729 36.253124 76.385414ZM38.08125 74.90104Q37.690624 74.90104 37.425 75.24479Q37.175 75.58854 37.175 76.49479Q37.175 77.322914 37.425 77.666664Q37.690624 77.99479 38.08125 77.99479Q38.4875 77.99479 38.7375 77.65104Q39.003124 77.30729 39.003124 76.416664Q39.003124 75.572914 38.7375 75.24479Q38.471874 74.90104 38.08125 74.90104ZM38.08125 83.229164L42.784374 74.18229L43.64375 74.18229L38.95625 83.229164L38.08125 83.229164ZM41.8 80.90104Q41.8 79.979164 42.253124 79.33854Q42.721874 78.697914 43.6125 78.697914Q44.425 78.697914 44.95625 79.27604Q45.4875 79.83854 45.4875 80.96354Q45.4875 82.05729 44.940624 82.65104Q44.409374 83.229164 43.6125 83.229164Q42.846874 83.229164 42.315624 82.65104Q41.8 82.072914 41.8 80.90104ZM43.64375 79.416664Q43.2375 79.416664 42.971874 79.760414Q42.721874 80.104164 42.721874 81.010414Q42.721874 81.822914 42.9875 82.166664Q43.253124 82.510414 43.64375 82.510414Q44.034374 82.510414 44.3 82.166664Q44.565624 81.822914 44.565624 80.916664Q44.565624 80.08854 44.3 79.760414Q44.034374 79.416664 43.64375 79.416664Z" fill-rule="nonzero"/><path stroke="#757575" stroke-width="1.0" stroke-linecap="butt" d="M18.55 70.416664L145.23334 70.416664L288.6278 62.813286" fill-rule="nonzero"/><path fill="#9e9e9e" d="M290.6278 62.813286C290.6278 61.708714 289.73236 60.813286 288.6278 60.813286C287.52322 60.813286 286.6278 61.708714 286.6278 62.813286C286.6278 63.917854 287.52322 64.813286 288.6278 64.813286C289.73236 64.813286 290.6278 63.917854 290.6278 62.813286" fill-rule="nonzero"/><path fill="#1a1a1a" d="M570.9969 329.6844L572.0594 329.59064Q572.1375 330.2469 572.41876 330.65314Q572.7 331.0594 573.27814 331.325Q573.8719 331.575 574.60626 331.575Q575.2469 331.575 575.7469 331.3875Q576.2469 331.1844 576.48126 330.85626Q576.73126 330.5125 576.73126 330.1219Q576.73126 329.71564 576.4969 329.41876Q576.2625 329.10626 575.73126 328.90314Q575.3719 328.7625 574.1844 328.48126Q573.0125 328.2 572.54376 327.95Q571.91876 327.6219 571.6219 327.15314Q571.325 326.66876 571.325 326.075Q571.325 325.4344 571.6844 324.8719Q572.0594 324.29376 572.7625 324.0125Q573.48126 323.71564 574.34064 323.71564Q575.29376 323.71564 576.02814 324.02814Q576.7625 324.325 577.15314 324.9344Q577.54376 325.52814 577.575 326.27814L576.48126 326.35626Q576.3875 325.54376 575.8719 325.1375Q575.3719 324.71564 574.3875 324.71564Q573.35626 324.71564 572.8875 325.09064Q572.41876 325.46564 572.41876 325.9969Q572.41876 326.46564 572.7469 326.7625Q573.075 327.0594 574.45 327.3719Q575.84064 327.6844 576.35626 327.91876Q577.10626 328.27814 577.46564 328.8094Q577.825 329.325 577.825 330.02814Q577.825 330.71564 577.4344 331.325Q577.04376 331.91876 576.3094 332.2625Q575.575 332.59064 574.65314 332.59064Q573.48126 332.59064 572.6844 332.2625Q571.90314 331.91876 571.45 331.23126Q571.0125 330.54376 570.9969 329.6844ZM579.2469 325.075L579.2469 323.85626L580.3094 323.85626L580.3094 325.075L579.2469 325.075ZM579.2469 332.45L579.2469 326.23126L580.3094 326.23126L580.3094 332.45L579.2469 332.45Z" fill-rule="nonzero"/><path fill="#9e9e9e" d="M547.10626 347.46564L548.1219 347.3719Q548.2469 348.09064 548.60626 348.41876Q548.98126 348.73126 549.54376 348.73126Q550.02814 348.73126 550.3875 348.5125Q550.7625 348.27814 550.9969 347.91876Q551.23126 347.54376 551.3875 346.91876Q551.54376 346.27814 551.54376 345.6219Q551.54376 345.54376 551.54376 345.40314Q551.23126 345.90314 550.6844 346.23126Q550.1375 346.54376 549.4969 346.54376Q548.41876 346.54376 547.6844 345.77814Q546.95 344.9969 546.95 343.73126Q546.95 342.41876 547.71564 341.6219Q548.4969 340.825 549.65314 340.825Q550.48126 340.825 551.16876 341.27814Q551.8719 341.73126 552.23126 342.575Q552.59064 343.40314 552.59064 344.98126Q552.59064 346.6219 552.23126 347.60626Q551.8875 348.575 551.16876 349.09064Q550.46564 349.59064 549.52814 349.59064Q548.5125 349.59064 547.8719 349.04376Q547.23126 348.48126 547.10626 347.46564ZM551.41876 343.66876Q551.41876 342.7625 550.9344 342.23126Q550.46564 341.7 549.77814 341.7Q549.075 341.7 548.54376 342.27814Q548.02814 342.84064 548.02814 343.7625Q548.02814 344.575 548.52814 345.09064Q549.02814 345.60626 549.7469 345.60626Q550.48126 345.60626 550.95 345.09064Q551.41876 344.575 551.41876 343.66876ZM554.0125 341.98126L554.0125 340.96564L559.575 340.96564L559.575 341.79376Q558.7625 342.66876 557.95 344.1219Q557.15314 345.5594 556.71564 347.09064Q556.3875 348.16876 556.3094 349.45L555.21564 349.45Q555.23126 348.4344 555.60626 346.9969Q555.9969 345.5594 556.7 344.23126Q557.41876 342.90314 558.23126 341.98126L554.0125 341.98126ZM561.5125 349.45L561.5125 348.2469L562.71564 348.2469L562.71564 349.45Q562.71564 350.10626 562.48126 350.5125Q562.2469 350.9344 561.7469 351.15314L561.45 350.7Q561.77814 350.5594 561.9344 350.2625Q562.09064 349.98126 562.1219 349.45L561.5125 349.45ZM567.325 349.45L567.325 347.3875L563.60626 347.3875L563.60626 346.41876L567.52814 340.85626L568.3875 340.85626L568.3875 346.41876L569.54376 346.41876L569.54376 347.3875L568.3875 347.3875L568.3875 349.45L567.325 349.45ZM567.325 346.41876L567.325 342.5594L564.6375 346.41876L567.325 346.41876ZM571.15314 342.91876Q571.15314 341.9969 571.60626 341.35626Q572.075 340.71564 572.95 340.71564Q573.7625 340.71564 574.29376 341.29376Q574.825 341.8719 574.825 342.98126Q574.825 344.075 574.27814 344.66876Q573.7469 345.2469 572.96564 345.2469Q572.1844 345.2469 571.66876 344.66876Q571.15314 344.09064 571.15314 342.91876ZM572.98126 341.4344Q572.59064 341.4344 572.325 341.77814Q572.075 342.1219 572.075 343.02814Q572.075 343.85626 572.325 344.2Q572.59064 344.52814 572.98126 344.52814Q573.3875 344.52814 573.6375 344.1844Q573.90314 343.84064 573.90314 342.95Q573.90314 342.10626 573.6375 341.77814Q573.3719 341.4344 572.98126 341.4344ZM572.98126 349.7625L577.6844 340.71564L578.54376 340.71564L573.85626 349.7625L572.98126 349.7625ZM576.7 347.4344Q576.7 346.5125 577.15314 345.8719Q577.6219 345.23126 578.5125 345.23126Q579.325 345.23126 579.85626 345.8094Q580.3875 346.3719 580.3875 347.4969Q580.3875 348.59064 579.84064 349.1844Q579.3094 349.7625 578.5125 349.7625Q577.7469 349.7625 577.21564 349.1844Q576.7 348.60626 576.7 347.4344ZM578.54376 345.95Q578.1375 345.95 577.8719 346.29376Q577.6219 346.6375 577.6219 347.54376Q577.6219 348.35626 577.8875 348.7Q578.15314 349.04376 578.54376 349.04376Q578.9344 349.04376 579.2 348.7Q579.46564 348.35626 579.46564 347.45Q579.46564 346.6219 579.2 346.29376Q578.9344 345.95 578.54376 345.95Z" fill-rule="nonzero"/><path stroke="#757575" stroke-width="1.0" stroke-linecap="butt" d="M581.45 336.95L454.76666 336.95L311.3722 344.55338" fill-rule="nonzero"/><path fill="#9e9e9e" d="M313.3722 344.55338C313.3722 343.44882 312.47678 342.55338 311.3722 342.55338C310.26764 342.55338 309.3722 343.44882 309.3722 344.55338C309.3722 345.65796 310.26764 346.55338 311.3722 346.55338C312.47678 346.55338 313.3722 345.65796 313.3722 344.55338" fill-rule="nonzero"/><path fill="#757575" d="M30.315624 32.534374L32.20625 33.003124Q31.6125 35.346874 30.065624 36.58125Q28.51875 37.8 26.26875 37.8Q23.95625 37.8 22.503124 36.8625Q21.065624 35.909374 20.3 34.128124Q19.55 32.33125 19.55 30.284374Q19.55 28.05 20.39375 26.39375Q21.253124 24.721874 22.83125 23.8625Q24.409374 22.9875 26.3 22.9875Q28.45625 22.9875 29.909374 24.08125Q31.378124 25.175 31.95625 27.159374L30.096874 27.596874Q29.596874 26.034374 28.64375 25.33125Q27.70625 24.6125 26.26875 24.6125Q24.6125 24.6125 23.503124 25.409374Q22.39375 26.190624 21.940624 27.534374Q21.503124 28.8625 21.503124 30.26875Q21.503124 32.096874 22.034374 33.471874Q22.565624 34.83125 23.690624 35.503124Q24.815624 36.175 26.1125 36.175Q27.70625 36.175 28.815624 35.253124Q29.925 34.33125 30.315624 32.534374ZM33.221874 32.3625Q33.221874 29.4875 34.815624 28.096874Q36.159374 26.940624 38.08125 26.940624Q40.221874 26.940624 41.565624 28.346874Q42.925 29.753124 42.925 32.221874Q42.925 34.221874 42.33125 35.378124Q41.7375 36.51875 40.58125 37.159374Q39.440624 37.784374 38.08125 37.784374Q35.89375 37.784374 34.55 36.39375Q33.221874 34.9875 33.221874 32.3625ZM35.01875 32.3625Q35.01875 34.3625 35.878124 35.346874Q36.753124 36.33125 38.08125 36.33125Q39.39375 36.33125 40.253124 35.346874Q41.128124 34.346874 41.128124 32.3Q41.128124 30.378124 40.253124 29.39375Q39.378124 28.39375 38.08125 28.39375Q36.753124 28.39375 35.878124 29.39375Q35.01875 30.378124 35.01875 32.3625ZM44.8625 37.55L44.8625 27.175L46.45625 27.175L46.45625 28.659374Q47.596874 26.940624 49.753124 26.940624Q50.690624 26.940624 51.471874 27.284374Q52.26875 27.6125 52.659374 28.159374Q53.05 28.70625 53.20625 29.45625Q53.3 29.95625 53.3 31.175L53.3 37.55L51.534374 37.55L51.534374 31.2375Q51.534374 30.159374 51.33125 29.628124Q51.128124 29.096874 50.596874 28.784374Q50.08125 28.471874 49.378124 28.471874Q48.253124 28.471874 47.440624 29.190624Q46.628124 29.89375 46.628124 31.878124L46.628124 37.55L44.8625 37.55ZM58.70625 35.971874L58.95625 37.534374Q58.221874 37.690624 57.628124 37.690624Q56.675 37.690624 56.14375 37.39375Q55.628124 37.08125 55.409374 36.596874Q55.190624 36.096874 55.190624 34.51875L55.190624 28.55L53.909374 28.55L53.909374 27.175L55.190624 27.175L55.190624 24.6125L56.940624 23.55L56.940624 27.175L58.70625 27.175L58.70625 28.55L56.940624 28.55L56.940624 34.6125Q56.940624 35.3625 57.034374 35.58125Q57.128124 35.784374 57.33125 35.925Q57.55 36.05 57.940624 36.05Q58.221874 36.05 58.70625 35.971874ZM67.97188 34.20625L69.78438 34.440624Q69.3625 36.01875 68.19063 36.909374Q67.03438 37.784374 65.22188 37.784374Q62.95625 37.784374 61.6125 36.39375Q60.284374 34.9875 60.284374 32.45625Q60.284374 29.83125 61.628124 28.39375Q62.971874 26.940624 65.12813 26.940624Q67.20625 26.940624 68.51875 28.3625Q69.84688 29.76875 69.84688 32.346874Q69.84688 32.503124 69.83125 32.815624L62.096874 32.815624Q62.190624 34.51875 63.065624 35.425Q63.940624 36.33125 65.2375 36.33125Q66.20625 36.33125 66.87813 35.83125Q67.56563 35.315624 67.97188 34.20625ZM62.190624 31.3625L67.9875 31.3625Q67.87813 30.065624 67.33125 29.409374Q66.4875 28.39375 65.14375 28.39375Q63.940624 28.39375 63.1125 29.20625Q62.284374 30.003124 62.190624 31.3625ZM71.55 38.409374L73.25313 38.659374Q73.3625 39.45625 73.84688 39.815624Q74.50313 40.3 75.64375 40.3Q76.8625 40.3 77.51875 39.815624Q78.19063 39.33125 78.425 38.45625Q78.56563 37.909374 78.55 36.190624Q77.39375 37.55 75.675 37.55Q73.53438 37.55 72.3625 36.003124Q71.19063 34.45625 71.19063 32.3Q71.19063 30.815624 71.72188 29.565624Q72.26875 28.315624 73.28438 27.628124Q74.31563 26.940624 75.69063 26.940624Q77.51875 26.940624 78.72188 28.425L78.72188 27.175L80.33125 27.175L80.33125 36.14375Q80.33125 38.565624 79.83125 39.565624Q79.34688 40.58125 78.26875 41.159374Q77.20625 41.753124 75.64375 41.753124Q73.8 41.753124 72.64375 40.925Q71.50313 40.096874 71.55 38.409374ZM73.00313 32.175Q73.00313 34.221874 73.81563 35.159374Q74.62813 36.096874 75.84688 36.096874Q77.05 36.096874 77.8625 35.159374Q78.69063 34.221874 78.69063 32.2375Q78.69063 30.33125 77.84688 29.3625Q77.00313 28.39375 75.81563 28.39375Q74.64375 28.39375 73.81563 29.346874Q73.00313 30.3 73.00313 32.175ZM82.55 38.409374L84.25313 38.659374Q84.3625 39.45625 84.84688 39.815624Q85.50313 40.3 86.64375 40.3Q87.8625 40.3 88.51875 39.815624Q89.19063 39.33125 89.425 38.45625Q89.56563 37.909374 89.55 36.190624Q88.39375 37.55 86.675 37.55Q84.53438 37.55 83.3625 36.003124Q82.19063 34.45625 82.19063 32.3Q82.19063 30.815624 82.72188 29.565624Q83.26875 28.315624 84.28438 27.628124Q85.31563 26.940624 86.69063 26.940624Q88.51875 26.940624 89.72188 28.425L89.72188 27.175L91.33125 27.175L91.33125 36.14375Q91.33125 38.565624 90.83125 39.565624Q90.34688 40.58125 89.26875 41.159374Q88.20625 41.753124 86.64375 41.753124Q84.8 41.753124 83.64375 40.925Q82.50313 40.096874 82.55 38.409374ZM84.00313 32.175Q84.00313 34.221874 84.81563 35.159374Q85.62813 36.096874 86.84688 36.096874Q88.05 36.096874 88.8625 35.159374Q89.69063 34.221874 89.69063 32.2375Q89.69063 30.33125 88.84688 29.3625Q88.00313 28.39375 86.81563 28.39375Q85.64375 28.39375 84.81563 29.346874Q84.00313 30.3 84.00313 32.175ZM93.87813 25.253124L93.87813 23.2375L95.64375 23.2375L95.64375 25.253124L93.87813 25.253124ZM93.87813 37.55L93.87813 27.175L95.64375 27.175L95.64375 37.55L93.87813 37.55ZM97.22188 32.3625Q97.22188 29.4875 98.81563 28.096874Q100.15938 26.940624 102.08125 26.940624Q104.22188 26.940624 105.56563 28.346874Q106.925 29.753124 106.925 32.221874Q106.925 34.221874 106.33125 35.378124Q105.7375 36.51875 104.58125 37.159374Q103.44063 37.784374 102.08125 37.784374Q99.89375 37.784374 98.55 36.39375Q97.22188 34.9875 97.22188 32.3625ZM99.01875 32.3625Q99.01875 34.3625 99.87813 35.346874Q100.75313 36.33125 102.08125 36.33125Q103.39375 36.33125 104.25313 35.346874Q105.12813 34.346874 105.12813 32.3Q105.12813 30.378124 104.25313 29.39375Q103.37813 28.39375 102.08125 28.39375Q100.75313 28.39375 99.87813 29.39375Q99.01875 30.378124 99.01875 32.3625ZM121.59688 37.55L121.59688 36.2375Q120.6125 37.784374 118.69063 37.784374Q117.45625 37.784374 116.40938 37.096874Q115.37813 36.409374 114.8 35.190624Q114.2375 33.971874 114.2375 32.378124Q114.2375 30.815624 114.75313 29.55Q115.26875 28.284374 116.3 27.6125Q117.34688 26.940624 118.6125 26.940624Q119.55 26.940624 120.28438 27.346874Q121.01875 27.7375 121.4875 28.3625L121.4875 23.2375L123.22188 23.2375L123.22188 37.55L121.59688 37.55ZM116.03438 32.378124Q116.03438 34.3625 116.87813 35.346874Q117.72188 36.33125 118.8625 36.33125Q120.01875 36.33125 120.81563 35.39375Q121.62813 34.45625 121.62813 32.51875Q121.62813 30.39375 120.8 29.39375Q119.9875 28.39375 118.78438 28.39375Q117.6125 28.39375 116.81563 29.3625Q116.03438 30.315624 116.03438 32.378124ZM125.87813 25.253124L125.87813 23.2375L127.64375 23.2375L127.64375 25.253124L125.87813 25.253124ZM125.87813 37.55L125.87813 27.175L127.64375 27.175L127.64375 37.55L125.87813 37.55ZM136.15938 37.55L136.15938 23.2375L138.05 23.2375L138.05 29.1125L145.4875 29.1125L145.4875 23.2375L147.37813 23.2375L147.37813 37.55L145.4875 37.55L145.4875 30.8L138.05 30.8L138.05 37.55L136.15938 37.55ZM155.64375 36.26875Q154.65938 37.096874 153.75313 37.440624Q152.84688 37.784374 151.81563 37.784374Q150.1125 37.784374 149.19063 36.95625Q148.26875 36.1125 148.26875 34.815624Q148.26875 34.05 148.6125 33.425Q148.97188 32.8 149.53438 32.425Q150.09688 32.034374 150.8 31.83125Q151.31563 31.70625 152.3625 31.565624Q154.4875 31.315624 155.4875 30.971874Q155.50313 30.6125 155.50313 30.503124Q155.50313 29.440624 155.00313 28.9875Q154.33125 28.39375 153.00313 28.39375Q151.75313 28.39375 151.15938 28.83125Q150.58125 29.26875 150.3 30.378124L148.58125 30.14375Q148.81563 29.034374 149.34688 28.3625Q149.87813 27.675 150.89375 27.315624Q151.90938 26.940624 153.25313 26.940624Q154.58125 26.940624 155.40938 27.253124Q156.2375 27.565624 156.62813 28.05Q157.01875 28.51875 157.175 29.2375Q157.26875 29.690624 157.26875 30.8625L157.26875 33.20625Q157.26875 35.659374 157.37813 36.315624Q157.4875 36.95625 157.83125 37.55L155.9875 37.55Q155.72188 37.003124 155.64375 36.26875ZM155.4875 32.346874Q154.53438 32.7375 152.6125 33.003124Q151.53438 33.159374 151.08125 33.3625Q150.64375 33.55 150.39375 33.925Q150.14375 34.3 150.14375 34.76875Q150.14375 35.471874 150.675 35.940624Q151.20625 36.409374 152.2375 36.409374Q153.25313 36.409374 154.03438 35.971874Q154.83125 35.51875 155.20625 34.753124Q155.4875 34.14375 155.4875 32.9875L155.4875 32.346874ZM159.87813 25.253124L159.87813 23.2375L161.64375 23.2375L161.64375 25.253124L159.87813 25.253124ZM159.87813 37.55L159.87813 27.175L161.64375 27.175L161.64375 37.55L159.87813 37.55ZM176.65938 37.55L176.65938 36.01875Q175.45625 37.784374 173.37813 37.784374Q172.45625 37.784374 171.65938 37.440624Q170.8625 37.08125 170.47188 36.55Q170.09688 36.01875 169.94063 35.2375Q169.83125 34.721874 169.83125 33.596874L169.83125 27.175L171.58125 27.175L171.58125 32.925Q171.58125 34.3 171.69063 34.784374Q171.8625 35.471874 172.39375 35.878124Q172.94063 36.26875 173.72188 36.26875Q174.51875 36.26875 175.20625 35.8625Q175.90938 35.45625 176.19063 34.76875Q176.4875 34.065624 176.4875 32.7375L176.4875 27.175L178.2375 27.175L178.2375 37.55L176.65938 37.55ZM179.8625 37.55L179.8625 27.175L181.45625 27.175L181.45625 28.659374Q182.59688 26.940624 184.75313 26.940624Q185.69063 26.940624 186.47188 27.284374Q187.26875 27.6125 187.65938 28.159374Q188.05 28.70625 188.20625 29.45625Q188.3 29.95625 188.3 31.175L188.3 37.55L186.53438 37.55L186.53438 31.2375Q186.53438 30.159374 186.33125 29.628124Q186.12813 29.096874 185.59688 28.784374Q185.08125 28.471874 184.37813 28.471874Q183.25313 28.471874 182.44063 29.190624Q181.62813 29.89375 181.62813 31.878124L181.62813 37.55L179.8625 37.55ZM189.22188 32.3625Q189.22188 29.4875 190.81563 28.096874Q192.15938 26.940624 194.08125 26.940624Q196.22188 26.940624 197.56563 28.346874Q198.925 29.753124 198.925 32.221874Q198.925 34.221874 198.33125 35.378124Q197.7375 36.51875 196.58125 37.159374Q195.44063 37.784374 194.08125 37.784374Q191.89375 37.784374 190.55 36.39375Q189.22188 34.9875 189.22188 32.3625ZM191.01875 32.3625Q191.01875 34.3625 191.87813 35.346874Q192.75313 36.33125 194.08125 36.33125Q195.39375 36.33125 196.25313 35.346874Q197.12813 34.346874 197.12813 32.3Q197.12813 30.378124 196.25313 29.39375Q195.37813 28.39375 194.08125 28.39375Q192.75313 28.39375 191.87813 29.39375Q191.01875 30.378124 191.01875 32.3625ZM206.15938 34.45625L207.90938 34.175Q208.05 35.221874 208.72188 35.784374Q209.39375 36.33125 210.59688 36.33125Q211.8 36.33125 212.37813 35.846874Q212.97188 35.346874 212.97188 34.690624Q212.97188 34.096874 212.45625 33.753124Q212.09688 33.51875 210.65938 33.159374Q208.72188 32.659374 207.97188 32.315624Q207.2375 31.95625 206.84688 31.33125Q206.45625 30.690624 206.45625 29.925Q206.45625 29.2375 206.76875 28.64375Q207.09688 28.05 207.64375 27.659374Q208.05 27.3625 208.75313 27.159374Q209.47188 26.940624 210.28438 26.940624Q211.50313 26.940624 212.425 27.3Q213.34688 27.64375 213.78438 28.253124Q214.22188 28.846874 214.39375 29.846874L212.675 30.08125Q212.55 29.284374 211.9875 28.846874Q211.425 28.39375 210.40938 28.39375Q209.19063 28.39375 208.675 28.8Q208.15938 29.190624 208.15938 29.721874Q208.15938 30.065624 208.37813 30.346874Q208.58125 30.628124 209.05 30.815624Q209.31563 30.909374 210.59688 31.253124Q212.47188 31.753124 213.20625 32.08125Q213.94063 32.39375 214.3625 33.003124Q214.78438 33.596874 214.78438 34.503124Q214.78438 35.378124 214.26875 36.159374Q213.75313 36.940624 212.78438 37.3625Q211.81563 37.784374 210.59688 37.784374Q208.58125 37.784374 207.51875 36.940624Q206.45625 36.096874 206.15938 34.45625ZM216.8625 37.55L216.8625 27.175L218.44063 27.175L218.44063 28.628124Q218.925 27.878124 219.7375 27.409374Q220.55 26.940624 221.58125 26.940624Q222.7375 26.940624 223.47188 27.425Q224.20625 27.89375 224.51875 28.753124Q225.75313 26.940624 227.72188 26.940624Q229.26875 26.940624 230.09688 27.8Q230.925 28.659374 230.925 30.425L230.925 37.55L229.175 37.55L229.175 31.01875Q229.175 29.95625 229.00313 29.503124Q228.83125 29.034374 228.37813 28.753124Q227.94063 28.471874 227.33125 28.471874Q226.2375 28.471874 225.50313 29.20625Q224.78438 29.925 224.78438 31.51875L224.78438 37.55L223.03438 37.55L223.03438 30.815624Q223.03438 29.64375 222.59688 29.065624Q222.175 28.471874 221.19063 28.471874Q220.45625 28.471874 219.81563 28.8625Q219.19063 29.253124 218.90938 30.003124Q218.62813 30.753124 218.62813 32.175L218.62813 37.55L216.8625 37.55ZM239.64375 36.26875Q238.65938 37.096874 237.75313 37.440624Q236.84688 37.784374 235.81563 37.784374Q234.1125 37.784374 233.19063 36.95625Q232.26875 36.1125 232.26875 34.815624Q232.26875 34.05 232.6125 33.425Q232.97188 32.8 233.53438 32.425Q234.09688 32.034374 234.8 31.83125Q235.31563 31.70625 236.3625 31.565624Q238.4875 31.315624 239.4875 30.971874Q239.50313 30.6125 239.50313 30.503124Q239.50313 29.440624 239.00313 28.9875Q238.33125 28.39375 237.00313 28.39375Q235.75313 28.39375 235.15938 28.83125Q234.58125 29.26875 234.3 30.378124L232.58125 30.14375Q232.81563 29.034374 233.34688 28.3625Q233.87813 27.675 234.89375 27.315624Q235.90938 26.940624 237.25313 26.940624Q238.58125 26.940624 239.40938 27.253124Q240.2375 27.565624 240.62813 28.05Q241.01875 28.51875 241.175 29.2375Q241.26875 29.690624 241.26875 30.8625L241.26875 33.20625Q241.26875 35.659374 241.37813 36.315624Q241.4875 36.95625 241.83125 37.55L239.9875 37.55Q239.72188 37.003124 239.64375 36.26875ZM239.4875 32.346874Q238.53438 32.7375 236.6125 33.003124Q235.53438 33.159374 235.08125 33.3625Q234.64375 33.55 234.39375 33.925Q234.14375 34.3 234.14375 34.76875Q234.14375 35.471874 234.675 35.940624Q235.20625 36.409374 236.2375 36.409374Q237.25313 36.409374 238.03438 35.971874Q238.83125 35.51875 239.20625 34.753124Q239.4875 34.14375 239.4875 32.9875L239.4875 32.346874ZM243.84688 37.55L243.84688 27.175L245.425 27.175L245.425 28.753124Q246.03438 27.64375 246.55 27.3Q247.06563 26.940624 247.675 26.940624Q248.56563 26.940624 249.4875 27.503124L248.87813 29.14375Q248.2375 28.753124 247.59688 28.753124Q247.01875 28.753124 246.55 29.1125Q246.09688 29.45625 245.89375 30.065624Q245.6125 31.003124 245.6125 32.1125L245.6125 37.55L243.84688 37.55ZM254.70625 35.971874L254.95625 37.534374Q254.22188 37.690624 253.62813 37.690624Q252.675 37.690624 252.14375 37.39375Q251.62813 37.08125 251.40938 36.596874Q251.19063 36.096874 251.19063 34.51875L251.19063 28.55L249.90938 28.55L249.90938 27.175L251.19063 27.175L251.19063 24.6125L252.94063 23.55L252.94063 27.175L254.70625 27.175L254.70625 28.55L252.94063 28.55L252.94063 34.6125Q252.94063 35.3625 253.03438 35.58125Q253.12813 35.784374 253.33125 35.925Q253.55 36.05 253.94063 36.05Q254.22188 36.05 254.70625 35.971874ZM256.8625 41.51875L256.8625 27.175L258.47186 27.175L258.47186 28.51875Q259.03436 27.7375 259.7375 27.346874Q260.45624 26.940624 261.47186 26.940624Q262.8 26.940624 263.8156 27.628124Q264.83124 28.315624 265.34686 29.565624Q265.8781 30.8 265.8781 32.284374Q265.8781 33.878124 265.3 35.159374Q264.7375 36.425 263.64374 37.1125Q262.55 37.784374 261.34686 37.784374Q260.47186 37.784374 259.76874 37.409374Q259.08124 37.034374 258.6281 36.471874L258.6281 41.51875L256.8625 41.51875ZM258.45624 32.425Q258.45624 34.425 259.26874 35.378124Q260.08124 36.33125 261.2375 36.33125Q262.40936 36.33125 263.2375 35.346874Q264.08124 34.3625 264.08124 32.26875Q264.08124 30.3 263.2531 29.315624Q262.4406 28.315624 261.3156 28.315624Q260.1906 28.315624 259.3156 29.378124Q258.45624 30.425 258.45624 32.425ZM267.8625 37.55L267.8625 23.2375L269.6281 23.2375L269.6281 28.3625Q270.8625 26.940624 272.7375 26.940624Q273.8781 26.940624 274.72186 27.39375Q275.58124 27.846874 275.9406 28.659374Q276.3156 29.45625 276.3156 30.971874L276.3156 37.55L274.5656 37.55L274.5656 30.971874Q274.5656 29.659374 273.9875 29.065624Q273.40936 28.45625 272.3781 28.45625Q271.59686 28.45625 270.89374 28.8625Q270.20624 29.26875 269.90936 29.971874Q269.6281 30.659374 269.6281 31.878124L269.6281 37.55L267.8625 37.55ZM277.22186 32.3625Q277.22186 29.4875 278.8156 28.096874Q280.15936 26.940624 282.08124 26.940624Q284.22186 26.940624 285.5656 28.346874Q286.925 29.753124 286.925 32.221874Q286.925 34.221874 286.33124 35.378124Q285.7375 36.51875 284.58124 37.159374Q283.4406 37.784374 282.08124 37.784374Q279.89374 37.784374 278.55 36.39375Q277.22186 34.9875 277.22186 32.3625ZM279.01874 32.3625Q279.01874 34.3625 279.8781 35.346874Q280.7531 36.33125 282.08124 36.33125Q283.39374 36.33125 284.2531 35.346874Q285.1281 34.346874 285.1281 32.3Q285.1281 30.378124 284.2531 29.39375Q283.3781 28.39375 282.08124 28.39375Q280.7531 28.39375 279.8781 29.39375Q279.01874 30.378124 279.01874 32.3625ZM288.8625 37.55L288.8625 27.175L290.45624 27.175L290.45624 28.659374Q291.59686 26.940624 293.7531 26.940624Q294.6906 26.940624 295.47186 27.284374Q296.26874 27.6125 296.65936 28.159374Q297.05 28.70625 297.20624 29.45625Q297.3 29.95625 297.3 31.175L297.3 37.55L295.53436 37.55L295.53436 31.2375Q295.53436 30.159374 295.33124 29.628124Q295.1281 29.096874 294.59686 28.784374Q294.08124 28.471874 293.3781 28.471874Q292.2531 28.471874 291.4406 29.190624Q290.6281 29.89375 290.6281 31.878124L290.6281 37.55L288.8625 37.55ZM305.97186 34.20625L307.78436 34.440624Q307.3625 36.01875 306.1906 36.909374Q305.03436 37.784374 303.22186 37.784374Q300.95624 37.784374 299.6125 36.39375Q298.28436 34.9875 298.28436 32.45625Q298.28436 29.83125 299.6281 28.39375Q300.97186 26.940624 303.1281 26.940624Q305.20624 26.940624 306.51874 28.3625Q307.84686 29.76875 307.84686 32.346874Q307.84686 32.503124 307.83124 32.815624L300.09686 32.815624Q300.1906 34.51875 301.0656 35.425Q301.9406 36.33125 303.2375 36.33125Q304.20624 36.33125 304.8781 35.83125Q305.5656 35.315624 305.97186 34.20625ZM300.1906 31.3625L305.9875 31.3625Q305.8781 30.065624 305.33124 29.409374Q304.4875 28.39375 303.14374 28.39375Q301.9406 28.39375 301.1125 29.20625Q300.28436 30.003124 300.1906 31.3625ZM314.51874 37.55L320.01874 23.2375L322.0656 23.2375L327.925 37.55L325.76874 37.55L324.09686 33.20625L318.1125 33.20625L316.53436 37.55L314.51874 37.55ZM318.65936 31.675L323.5031 31.675L322.01874 27.70625Q321.33124 25.89375 321.0031 24.7375Q320.72186 26.1125 320.22186 27.471874L318.65936 31.675ZM328.8625 37.55L328.8625 27.175L330.45624 27.175L330.45624 28.659374Q331.59686 26.940624 333.7531 26.940624Q334.6906 26.940624 335.47186 27.284374Q336.26874 27.6125 336.65936 28.159374Q337.05 28.70625 337.20624 29.45625Q337.3 29.95625 337.3 31.175L337.3 37.55L335.53436 37.55L335.53436 31.2375Q335.53436 30.159374 335.33124 29.628124Q335.1281 29.096874 334.59686 28.784374Q334.08124 28.471874 333.3781 28.471874Q332.2531 28.471874 331.4406 29.190624Q330.6281 29.89375 330.6281 31.878124L330.6281 37.55L328.8625 37.55ZM345.59686 37.55L345.59686 36.2375Q344.6125 37.784374 342.6906 37.784374Q341.45624 37.784374 340.40936 37.096874Q339.3781 36.409374 338.8 35.190624Q338.2375 33.971874 338.2375 32.378124Q338.2375 30.815624 338.7531 29.55Q339.26874 28.284374 340.3 27.6125Q341.34686 26.940624 342.6125 26.940624Q343.55 26.940624 344.28436 27.346874Q345.01874 27.7375 345.4875 28.3625L345.4875 23.2375L347.22186 23.2375L347.22186 37.55L345.59686 37.55ZM340.03436 32.378124Q340.03436 34.3625 340.8781 35.346874Q341.72186 36.33125 342.8625 36.33125Q344.01874 36.33125 344.8156 35.39375Q345.6281 34.45625 345.6281 32.51875Q345.6281 30.39375 344.8 29.39375Q343.9875 28.39375 342.78436 28.39375Q341.6125 28.39375 340.8156 29.3625Q340.03436 30.315624 340.03436 32.378124ZM349.84686 37.55L349.84686 27.175L351.425 27.175L351.425 28.753124Q352.03436 27.64375 352.55 27.3Q353.0656 26.940624 353.675 26.940624Q354.5656 26.940624 355.4875 27.503124L354.8781 29.14375Q354.2375 28.753124 353.59686 28.753124Q353.01874 28.753124 352.55 29.1125Q352.09686 29.45625 351.89374 30.065624Q351.6125 31.003124 351.6125 32.1125L351.6125 37.55L349.84686 37.55ZM356.22186 32.3625Q356.22186 29.4875 357.8156 28.096874Q359.15936 26.940624 361.08124 26.940624Q363.22186 26.940624 364.5656 28.346874Q365.925 29.753124 365.925 32.221874Q365.925 34.221874 365.33124 35.378124Q364.7375 36.51875 363.58124 37.159374Q362.4406 37.784374 361.08124 37.784374Q358.89374 37.784374 357.55 36.39375Q356.22186 34.9875 356.22186 32.3625ZM358.01874 32.3625Q358.01874 34.3625 358.8781 35.346874Q359.7531 36.33125 361.08124 36.33125Q362.39374 36.33125 363.2531 35.346874Q364.1281 34.346874 364.1281 32.3Q364.1281 30.378124 363.2531 29.39375Q362.3781 28.39375 361.08124 28.39375Q359.7531 28.39375 358.8781 29.39375Q358.01874 30.378124 358.01874 32.3625ZM367.8781 25.253124L367.8781 23.2375L369.64374 23.2375L369.64374 25.253124L367.8781 25.253124ZM367.8781 37.55L367.8781 27.175L369.64374 27.175L369.64374 37.55L367.8781 37.55ZM378.59686 37.55L378.59686 36.2375Q377.6125 37.784374 375.6906 37.784374Q374.45624 37.784374 373.40936 37.096874Q372.3781 36.409374 371.8 35.190624Q371.2375 33.971874 371.2375 32.378124Q371.2375 30.815624 371.7531 29.55Q372.26874 28.284374 373.3 27.6125Q374.34686 26.940624 375.6125 26.940624Q376.55 26.940624 377.28436 27.346874Q378.01874 27.7375 378.4875 28.3625L378.4875 23.2375L380.22186 23.2375L380.22186 37.55L378.59686 37.55ZM373.03436 32.378124Q373.03436 34.3625 373.8781 35.346874Q374.72186 36.33125 375.8625 36.33125Q377.01874 36.33125 377.8156 35.39375Q378.6281 34.45625 378.6281 32.51875Q378.6281 30.39375 377.8 29.39375Q376.9875 28.39375 375.78436 28.39375Q374.6125 28.39375 373.8156 29.3625Q373.03436 30.315624 373.03436 32.378124ZM388.22186 32.3625Q388.22186 29.4875 389.8156 28.096874Q391.15936 26.940624 393.08124 26.940624Q395.22186 26.940624 396.5656 28.346874Q397.925 29.753124 397.925 32.221874Q397.925 34.221874 397.33124 35.378124Q396.7375 36.51875 395.58124 37.159374Q394.4406 37.784374 393.08124 37.784374Q390.89374 37.784374 389.55 36.39375Q388.22186 34.9875 388.22186 32.3625ZM390.01874 32.3625Q390.01874 34.3625 390.8781 35.346874Q391.7531 36.33125 393.08124 36.33125Q394.39374 36.33125 395.2531 35.346874Q396.1281 34.346874 396.1281 32.3Q396.1281 30.378124 395.2531 29.39375Q394.3781 28.39375 393.08124 28.39375Q391.7531 28.39375 390.8781 29.39375Q390.01874 30.378124 390.01874 32.3625ZM405.8781 25.253124L405.8781 23.2375L407.64374 23.2375L407.64374 25.253124L405.8781 25.253124ZM405.8781 37.55L405.8781 27.175L407.64374 27.175L407.64374 37.55L405.8781 37.55ZM409.51874 30.58125Q409.51874 27.01875 411.425 25.003124Q413.34686 22.971874 416.3781 22.971874Q418.3625 22.971874 419.9406 23.925Q421.53436 24.878124 422.3625 26.58125Q423.20624 28.26875 423.20624 30.409374Q423.20624 32.58125 422.33124 34.3Q421.45624 36.01875 419.83124 36.909374Q418.22186 37.8 416.3625 37.8Q414.34686 37.8 412.7531 36.83125Q411.15936 35.846874 410.33124 34.159374Q409.51874 32.45625 409.51874 30.58125ZM411.47186 30.6125Q411.47186 33.190624 412.8625 34.690624Q414.2531 36.175 416.34686 36.175Q418.4875 36.175 419.8625 34.675Q421.2531 33.159374 421.2531 30.39375Q421.2531 28.659374 420.65936 27.3625Q420.08124 26.05 418.9406 25.33125Q417.8 24.6125 416.3781 24.6125Q414.3781 24.6125 412.925 26.003124Q411.47186 27.378124 411.47186 30.6125ZM425.45624 32.95625L427.2375 32.8Q427.3625 33.8625 427.8156 34.55Q428.28436 35.2375 429.2531 35.675Q430.2375 36.096874 431.47186 36.096874Q432.55 36.096874 433.3781 35.784374Q434.20624 35.45625 434.6125 34.89375Q435.01874 34.33125 435.01874 33.659374Q435.01874 32.9875 434.6281 32.4875Q434.2375 31.9875 433.34686 31.64375Q432.76874 31.409374 430.78436 30.940624Q428.8156 30.471874 428.03436 30.05Q427.0031 29.51875 426.5031 28.721874Q426.0031 27.925 426.0031 26.940624Q426.0031 25.846874 426.6125 24.909374Q427.22186 23.971874 428.40936 23.4875Q429.59686 22.9875 431.03436 22.9875Q432.6281 22.9875 433.84686 23.503124Q435.0656 24.01875 435.70624 25.01875Q436.3625 26.003124 436.40936 27.26875L434.59686 27.409374Q434.45624 26.05 433.6125 25.3625Q432.76874 24.659374 431.1125 24.659374Q429.39374 24.659374 428.59686 25.3Q427.8156 25.925 427.8156 26.8Q427.8156 27.58125 428.3781 28.08125Q428.925 28.58125 431.2375 29.096874Q433.55 29.6125 434.40936 30.003124Q435.65936 30.58125 436.2531 31.471874Q436.84686 32.346874 436.84686 33.503124Q436.84686 34.64375 436.1906 35.659374Q435.53436 36.675 434.3 37.2375Q433.08124 37.8 431.55 37.8Q429.6125 37.8 428.3 37.2375Q426.9875 36.659374 426.2375 35.51875Q425.4875 34.378124 425.45624 32.95625ZM442.15936 34.01875Q442.14374 33.675 442.14374 33.503124Q442.14374 32.45625 442.4406 31.70625Q442.65936 31.14375 443.14374 30.565624Q443.4875 30.14375 444.39374 29.346874Q445.3156 28.534374 445.58124 28.065624Q445.8625 27.58125 445.8625 27.01875Q445.8625 25.9875 445.05 25.221874Q444.2531 24.440624 443.09686 24.440624Q441.97186 24.440624 441.22186 25.14375Q440.47186 25.846874 440.2375 27.33125L438.425 27.1125Q438.675 25.1125 439.8781 24.05Q441.08124 22.9875 443.0656 22.9875Q445.175 22.9875 446.425 24.128124Q447.675 25.26875 447.675 26.89375Q447.675 27.83125 447.22186 28.628124Q446.78436 29.409374 445.5031 30.55Q444.64374 31.315624 444.3781 31.675Q444.1281 32.034374 443.9875 32.503124Q443.8625 32.971874 443.84686 34.01875L442.15936 34.01875ZM442.05 37.55L442.05 35.55L444.05 35.55L444.05 37.55L442.05 37.55Z" fill-rule="nonzero"/></svg>