<svg version="1.1" viewBox="0.0 0.0 600.0 371.0" fill="none" stroke="none" stroke-linecap="square" stroke-miterlimit="10" width="600" height="371" xmlns:xlink="http://www.w3.org/1999/xlink" xmlns="http://www.w3.org/2000/svg"><path fill="#ffffff" d="M0 0L600.0 0L600.0 371.0L0 371.0L0 0Z" fill-rule="nonzero"/><path fill="#ea4335" d="M201.34946 92.32989C228.55782 68.22537 263.65 54.916668 300.0 54.916668L300.0 203.68333Z" fill-rule="nonzero"/><path fill="#4285f4" d="M300.0 54.916668C371.81876 54.916668 433.38416 106.22502 446.32986 176.86739C459.27554 247.50977 419.9051 317.3153 352.7534 342.7826C285.60168 368.24988 209.84283 342.10712 172.68828 280.64597C135.5337 219.1848 147.59233 139.95454 201.34946 92.32989L300.0 203.68333Z" fill-rule="nonzero"/><path fill="#1a1a1a" d="M19.471874 67.03905L19.471874 58.445297L20.628124 58.445297L25.14375 65.1953L25.14375 58.445297L26.2375 58.445297L26.2375 67.03905L25.065624 67.03905L20.55 60.289047L20.55 67.03905L19.471874 67.03905ZM27.95625 63.929672Q27.95625 62.195297 28.909374 61.367172Q29.70625 60.679672 30.8625 60.679672Q32.14375 60.679672 32.95625 61.523422Q33.784374 62.351547 33.784374 63.835922Q33.784374 65.03905 33.425 65.72655Q33.065624 66.41405 32.3625 66.80467Q31.675 67.17967 30.8625 67.17967Q29.565624 67.17967 28.753124 66.35155Q27.95625 65.5078 27.95625 63.929672ZM29.034374 63.929672Q29.034374 65.11717 29.55 65.71092Q30.08125 66.30467 30.8625 66.30467Q31.659374 66.30467 32.175 65.71092Q32.690624 65.11717 32.690624 63.898422Q32.690624 62.742172 32.159374 62.148422Q31.64375 61.554672 30.8625 61.554672Q30.08125 61.554672 29.55 62.148422Q29.034374 62.726547 29.034374 63.929672Z" fill-rule="nonzero"/><path fill="#9e9e9e" d="M23.01875 84.03905L21.971874 84.03905L21.971874 77.3203Q21.58125 77.67967 20.95625 78.05467Q20.346874 78.41405 19.8625 78.58592L19.8625 77.5703Q20.7375 77.14842 21.39375 76.5703Q22.065624 75.97655 22.346874 75.41405L23.01875 75.41405L23.01875 84.03905ZM30.01875 84.03905L28.971874 84.03905L28.971874 77.3203Q28.58125 77.67967 27.95625 78.05467Q27.346874 78.41405 26.8625 78.58592L26.8625 77.5703Q27.7375 77.14842 28.39375 76.5703Q29.065624 75.97655 29.346874 75.41405L30.01875 75.41405L30.01875 84.03905ZM33.6125 84.03905L33.6125 82.83592L34.815624 82.83592L34.815624 84.03905Q34.815624 84.6953 34.58125 85.10155Q34.346874 85.52342 33.846874 85.74217L33.55 85.28905Q33.878124 85.14842 34.034374 84.85155Q34.190624 84.5703 34.221874 84.03905L33.6125 84.03905ZM36.05 81.78905L37.159374 81.6953Q37.284374 82.5078 37.721874 82.91405Q38.175 83.3203 38.815624 83.3203Q39.565624 83.3203 40.096874 82.74217Q40.628124 82.16405 40.628124 81.22655Q40.628124 80.3203 40.1125 79.80467Q39.6125 79.27342 38.784374 79.27342Q38.284374 79.27342 37.8625 79.5078Q37.45625 79.74217 37.221874 80.10155L36.2375 79.97655L37.065624 75.5703L41.346874 75.5703L41.346874 76.5703L37.909374 76.5703L37.45625 78.8828Q38.221874 78.33592 39.065624 78.33592Q40.190624 78.33592 40.95625 79.11717Q41.7375 79.89842 41.7375 81.1328Q41.7375 82.28905 41.065624 83.14842Q40.2375 84.17967 38.815624 84.17967Q37.64375 84.17967 36.89375 83.52342Q36.159374 82.86717 36.05 81.78905ZM43.253124 77.5078Q43.253124 76.58592 43.70625 75.9453Q44.175 75.30467 45.05 75.30467Q45.8625 75.30467 46.39375 75.8828Q46.925 76.46092 46.925 77.5703Q46.925 78.66405 46.378124 79.2578Q45.846874 79.83592 45.065624 79.83592Q44.284374 79.83592 43.76875 79.2578Q43.253124 78.67967 43.253124 77.5078ZM45.08125 76.02342Q44.690624 76.02342 44.425 76.36717Q44.175 76.71092 44.175 77.61717Q44.175 78.4453 44.425 78.78905Q44.690624 79.11717 45.08125 79.11717Q45.4875 79.11717 45.7375 78.77342Q46.003124 78.42967 46.003124 77.53905Q46.003124 76.6953 45.7375 76.36717Q45.471874 76.02342 45.08125 76.02342ZM45.08125 84.35155L49.784374 75.30467L50.64375 75.30467L45.95625 84.35155L45.08125 84.35155ZM48.8 82.02342Q48.8 81.10155 49.253124 80.46092Q49.721874 79.8203 50.6125 79.8203Q51.425 79.8203 51.95625 80.39842Q52.4875 80.96092 52.4875 82.08592Q52.4875 83.17967 51.940624 83.77342Q51.409374 84.35155 50.6125 84.35155Q49.846874 84.35155 49.315624 83.77342Q48.8 83.1953 48.8 82.02342ZM50.64375 80.53905Q50.2375 80.53905 49.971874 80.8828Q49.721874 81.22655 49.721874 82.1328Q49.721874 82.9453 49.9875 83.28905Q50.253124 83.6328 50.64375 83.6328Q51.034374 83.6328 51.3 83.28905Q51.565624 82.9453 51.565624 82.03905Q51.565624 81.21092 51.3 80.8828Q51.034374 80.53905 50.64375 80.53905Z" fill-rule="nonzero"/><path stroke="#757575" stroke-width="1.0" stroke-linecap="butt" d="M18.55 71.53905L145.23334 71.53905L249.88428 71.53905" fill-rule="nonzero"/><path fill="#9e9e9e" d="M251.88428 71.53905C251.88428 70.43448 250.98885 69.53905 249.88428 69.53905C248.77971 69.53905 247.88428 70.43448 247.88428 71.53905C247.88428 72.643616 248.77971 73.53905 249.88428 73.53905C250.98885 73.53905 251.88428 72.643616 251.88428 71.53905" fill-rule="nonzero"/><path fill="#1a1a1a" d="M570.9969 328.56198L572.0594 328.46823Q572.1375 329.12448 572.41876 329.53073Q572.7 329.93698 573.27814 330.2026Q573.8719 330.4526 574.60626 330.4526Q575.2469 330.4526 575.7469 330.2651Q576.2469 330.06198 576.48126 329.73386Q576.73126 329.3901 576.73126 328.99948Q576.73126 328.59323 576.4969 328.29636Q576.2625 327.98386 575.73126 327.78073Q575.3719 327.6401 574.1844 327.35886Q573.0125 327.0776 572.54376 326.8276Q571.91876 326.49948 571.6219 326.03073Q571.325 325.54636 571.325 324.9526Q571.325 324.31198 571.6844 323.74948Q572.0594 323.17136 572.7625 322.8901Q573.48126 322.59323 574.34064 322.59323Q575.29376 322.59323 576.02814 322.90573Q576.7625 323.2026 577.15314 323.81198Q577.54376 324.40573 577.575 325.15573L576.48126 325.23386Q576.3875 324.42136 575.8719 324.0151Q575.3719 323.59323 574.3875 323.59323Q573.35626 323.59323 572.8875 323.96823Q572.41876 324.34323 572.41876 324.87448Q572.41876 325.34323 572.7469 325.6401Q573.075 325.93698 574.45 326.24948Q575.84064 326.56198 576.35626 326.79636Q577.10626 327.15573 577.46564 327.68698Q577.825 328.2026 577.825 328.90573Q577.825 329.59323 577.4344 330.2026Q577.04376 330.79636 576.3094 331.1401Q575.575 331.46823 574.65314 331.46823Q573.48126 331.46823 572.6844 331.1401Q571.90314 330.79636 571.45 330.10886Q571.0125 329.42136 570.9969 328.56198ZM579.2469 323.9526L579.2469 322.73386L580.3094 322.73386L580.3094 323.9526L579.2469 323.9526ZM579.2469 331.3276L579.2469 325.10886L580.3094 325.10886L580.3094 331.3276L579.2469 331.3276Z" fill-rule="nonzero"/><path fill="#9e9e9e" d="M548.575 343.67136Q547.91876 343.42136 547.59064 342.98386Q547.27814 342.53073 547.27814 341.92136Q547.27814 340.98386 547.95 340.34323Q548.6375 339.7026 549.7469 339.7026Q550.8719 339.7026 551.5594 340.35886Q552.2469 341.0151 552.2469 341.9526Q552.2469 342.54636 551.9344 342.98386Q551.6219 343.42136 550.98126 343.67136Q551.77814 343.92136 552.1844 344.49948Q552.59064 345.0776 552.59064 345.87448Q552.59064 346.96823 551.8094 347.71823Q551.04376 348.46823 549.7625 348.46823Q548.4969 348.46823 547.71564 347.71823Q546.9344 346.96823 546.9344 345.84323Q546.9344 344.99948 547.35626 344.43698Q547.79376 343.87448 548.575 343.67136ZM548.35626 341.87448Q548.35626 342.48386 548.7469 342.87448Q549.15314 343.2651 549.77814 343.2651Q550.3875 343.2651 550.77814 342.8901Q551.16876 342.49948 551.16876 341.93698Q551.16876 341.35886 550.7625 340.96823Q550.35626 340.56198 549.7625 340.56198Q549.15314 340.56198 548.7469 340.9526Q548.35626 341.34323 548.35626 341.87448ZM548.02814 345.84323Q548.02814 346.29636 548.23126 346.71823Q548.45 347.1401 548.8719 347.37448Q549.29376 347.60886 549.77814 347.60886Q550.52814 347.60886 551.0125 347.12448Q551.5125 346.6401 551.5125 345.8901Q551.5125 345.12448 551.0125 344.62448Q550.5125 344.12448 549.7469 344.12448Q548.9969 344.12448 548.5125 344.62448Q548.02814 345.10886 548.02814 345.84323ZM555.575 343.67136Q554.91876 343.42136 554.59064 342.98386Q554.27814 342.53073 554.27814 341.92136Q554.27814 340.98386 554.95 340.34323Q555.6375 339.7026 556.7469 339.7026Q557.8719 339.7026 558.5594 340.35886Q559.2469 341.0151 559.2469 341.9526Q559.2469 342.54636 558.9344 342.98386Q558.6219 343.42136 557.98126 343.67136Q558.77814 343.92136 559.1844 344.49948Q559.59064 345.0776 559.59064 345.87448Q559.59064 346.96823 558.8094 347.71823Q558.04376 348.46823 556.7625 348.46823Q555.4969 348.46823 554.71564 347.71823Q553.9344 346.96823 553.9344 345.84323Q553.9344 344.99948 554.35626 344.43698Q554.79376 343.87448 555.575 343.67136ZM555.35626 341.87448Q555.35626 342.48386 555.7469 342.87448Q556.15314 343.2651 556.77814 343.2651Q557.3875 343.2651 557.77814 342.8901Q558.16876 342.49948 558.16876 341.93698Q558.16876 341.35886 557.7625 340.96823Q557.35626 340.56198 556.7625 340.56198Q556.15314 340.56198 555.7469 340.9526Q555.35626 341.34323 555.35626 341.87448ZM555.02814 345.84323Q555.02814 346.29636 555.23126 346.71823Q555.45 347.1401 555.8719 347.37448Q556.29376 347.60886 556.77814 347.60886Q557.52814 347.60886 558.0125 347.12448Q558.5125 346.6401 558.5125 345.8901Q558.5125 345.12448 558.0125 344.62448Q557.5125 344.12448 556.7469 344.12448Q555.9969 344.12448 555.5125 344.62448Q555.02814 345.10886 555.02814 345.84323ZM561.5125 348.3276L561.5125 347.12448L562.71564 347.12448L562.71564 348.3276Q562.71564 348.98386 562.48126 349.3901Q562.2469 349.81198 561.7469 350.03073L561.45 349.5776Q561.77814 349.43698 561.9344 349.1401Q562.09064 348.85886 562.1219 348.3276L561.5125 348.3276ZM563.95 346.0776L565.0594 345.98386Q565.1844 346.79636 565.6219 347.2026Q566.075 347.60886 566.71564 347.60886Q567.46564 347.60886 567.9969 347.03073Q568.52814 346.4526 568.52814 345.5151Q568.52814 344.60886 568.0125 344.09323Q567.5125 343.56198 566.6844 343.56198Q566.1844 343.56198 565.7625 343.79636Q565.35626 344.03073 565.1219 344.3901L564.1375 344.2651L564.96564 339.85886L569.2469 339.85886L569.2469 340.85886L565.8094 340.85886L565.35626 343.17136Q566.1219 342.62448 566.96564 342.62448Q568.09064 342.62448 568.85626 343.40573Q569.6375 344.18698 569.6375 345.42136Q569.6375 346.5776 568.96564 347.43698Q568.1375 348.46823 566.71564 348.46823Q565.54376 348.46823 564.79376 347.81198Q564.0594 347.15573 563.95 346.0776ZM571.15314 341.79636Q571.15314 340.87448 571.60626 340.23386Q572.075 339.59323 572.95 339.59323Q573.7625 339.59323 574.29376 340.17136Q574.825 340.74948 574.825 341.85886Q574.825 342.9526 574.27814 343.54636Q573.7469 344.12448 572.96564 344.12448Q572.1844 344.12448 571.66876 343.54636Q571.15314 342.96823 571.15314 341.79636ZM572.98126 340.31198Q572.59064 340.31198 572.325 340.65573Q572.075 340.99948 572.075 341.90573Q572.075 342.73386 572.325 343.0776Q572.59064 343.40573 572.98126 343.40573Q573.3875 343.40573 573.6375 343.06198Q573.90314 342.71823 573.90314 341.8276Q573.90314 340.98386 573.6375 340.65573Q573.3719 340.31198 572.98126 340.31198ZM572.98126 348.6401L577.6844 339.59323L578.54376 339.59323L573.85626 348.6401L572.98126 348.6401ZM576.7 346.31198Q576.7 345.3901 577.15314 344.74948Q577.6219 344.10886 578.5125 344.10886Q579.325 344.10886 579.85626 344.68698Q580.3875 345.24948 580.3875 346.37448Q580.3875 347.46823 579.84064 348.06198Q579.3094 348.6401 578.5125 348.6401Q577.7469 348.6401 577.21564 348.06198Q576.7 347.48386 576.7 346.31198ZM578.54376 344.8276Q578.1375 344.8276 577.8719 345.17136Q577.6219 345.5151 577.6219 346.42136Q577.6219 347.23386 577.8875 347.5776Q578.15314 347.92136 578.54376 347.92136Q578.9344 347.92136 579.2 347.5776Q579.46564 347.23386 579.46564 346.3276Q579.46564 345.49948 579.2 345.17136Q578.9344 344.8276 578.54376 344.8276Z" fill-rule="nonzero"/><path stroke="#757575" stroke-width="1.0" stroke-linecap="butt" d="M581.45 335.8276L454.76666 335.8276L350.11572 335.8276" fill-rule="nonzero"/><path fill="#9e9e9e" d="M352.11572 335.8276C352.11572 334.72305 351.22028 333.8276 350.11572 333.8276C349.01114 333.8276 348.11572 334.72305 348.11572 335.8276C348.11572 336.9322 349.01114 337.8276 350.11572 337.8276C351.22028 337.8276 352.11572 336.9322 352.11572 335.8276" fill-rule="nonzero"/><path fill="#757575" d="M30.315624 32.534374L32.20625 33.003124Q31.6125 35.346874 30.065624 36.58125Q28.51875 37.8 26.26875 37.8Q23.95625 37.8 22.503124 36.8625Q21.065624 35.909374 20.3 34.128124Q19.55 32.33125 19.55 30.284374Q19.55 28.05 20.39375 26.39375Q21.253124 24.721874 22.83125 23.8625Q24.409374 22.9875 26.3 22.9875Q28.45625 22.9875 29.909374 24.08125Q31.378124 25.175 31.95625 27.159374L30.096874 27.596874Q29.596874 26.034374 28.64375 25.33125Q27.70625 24.6125 26.26875 24.6125Q24.6125 24.6125 23.503124 25.409374Q22.39375 26.190624 21.940624 27.534374Q21.503124 28.8625 21.503124 30.26875Q21.503124 32.096874 22.034374 33.471874Q22.565624 34.83125 23.690624 35.503124Q24.815624 36.175 26.1125 36.175Q27.70625 36.175 28.815624 35.253124Q29.925 34.33125 30.315624 32.534374ZM33.221874 32.3625Q33.221874 29.4875 34.815624 28.096874Q36.159374 26.940624 38.08125 26.940624Q40.221874 26.940624 41.565624 28.346874Q42.925 29.753124 42.925 32.221874Q42.925 34.221874 42.33125 35.378124Q41.7375 36.51875 40.58125 37.159374Q39.440624 37.784374 38.08125 37.784374Q35.89375 37.784374 34.55 36.39375Q33.221874 34.9875 33.221874 32.3625ZM35.01875 32.3625Q35.01875 34.3625 35.878124 35.346874Q36.753124 36.33125 38.08125 36.33125Q39.39375 36.33125 40.253124 35.346874Q41.128124 34.346874 41.128124 32.3Q41.128124 30.378124 40.253124 29.39375Q39.378124 28.39375 38.08125 28.39375Q36.753124 28.39375 35.878124 29.39375Q35.01875 30.378124 35.01875 32.3625ZM44.8625 37.55L44.8625 27.175L46.45625 27.175L46.45625 28.659374Q47.596874 26.940624 49.753124 26.940624Q50.690624 26.940624 51.471874 27.284374Q52.26875 27.6125 52.659374 28.159374Q53.05 28.70625 53.20625 29.45625Q53.3 29.95625 53.3 31.175L53.3 37.55L51.534374 37.55L51.534374 31.2375Q51.534374 30.159374 51.33125 29.628124Q51.128124 29.096874 50.596874 28.784374Q50.08125 28.471874 49.378124 28.471874Q48.253124 28.471874 47.440624 29.190624Q46.628124 29.89375 46.628124 31.878124L46.628124 37.55L44.8625 37.55ZM58.70625 35.971874L58.95625 37.534374Q58.221874 37.690624 57.628124 37.690624Q56.675 37.690624 56.14375 37.39375Q55.628124 37.08125 55.409374 36.596874Q55.190624 36.096874 55.190624 34.51875L55.190624 28.55L53.909374 28.55L53.909374 27.175L55.190624 27.175L55.190624 24.6125L56.940624 23.55L56.940624 27.175L58.70625 27.175L58.70625 28.55L56.940624 28.55L56.940624 34.6125Q56.940624 35.3625 57.034374 35.58125Q57.128124 35.784374 57.33125 35.925Q57.55 36.05 57.940624 36.05Q58.221874 36.05 58.70625 35.971874ZM67.97188 34.20625L69.78438 34.440624Q69.3625 36.01875 68.19063 36.909374Q67.03438 37.784374 65.22188 37.784374Q62.95625 37.784374 61.6125 36.39375Q60.284374 34.9875 60.284374 32.45625Q60.284374 29.83125 61.628124 28.39375Q62.971874 26.940624 65.12813 26.940624Q67.20625 26.940624 68.51875 28.3625Q69.84688 29.76875 69.84688 32.346874Q69.84688 32.503124 69.83125 32.815624L62.096874 32.815624Q62.190624 34.51875 63.065624 35.425Q63.940624 36.33125 65.2375 36.33125Q66.20625 36.33125 66.87813 35.83125Q67.56563 35.315624 67.97188 34.20625ZM62.190624 31.3625L67.9875 31.3625Q67.87813 30.065624 67.33125 29.409374Q66.4875 28.39375 65.14375 28.39375Q63.940624 28.39375 63.1125 29.20625Q62.284374 30.003124 62.190624 31.3625ZM71.55 38.409374L73.25313 38.659374Q73.3625 39.45625 73.84688 39.815624Q74.50313 40.3 75.64375 40.3Q76.8625 40.3 77.51875 39.815624Q78.19063 39.33125 78.425 38.45625Q78.56563 37.909374 78.55 36.190624Q77.39375 37.55 75.675 37.55Q73.53438 37.55 72.3625 36.003124Q71.19063 34.45625 71.19063 32.3Q71.19063 30.815624 71.72188 29.565624Q72.26875 28.315624 73.28438 27.628124Q74.31563 26.940624 75.69063 26.940624Q77.51875 26.940624 78.72188 28.425L78.72188 27.175L80.33125 27.175L80.33125 36.14375Q80.33125 38.565624 79.83125 39.565624Q79.34688 40.58125 78.26875 41.159374Q77.20625 41.753124 75.64375 41.753124Q73.8 41.753124 72.64375 40.925Q71.50313 40.096874 71.55 38.409374ZM73.00313 32.175Q73.00313 34.221874 73.81563 35.159374Q74.62813 36.096874 75.84688 36.096874Q77.05 36.096874 77.8625 35.159374Q78.69063 34.221874 78.69063 32.2375Q78.69063 30.33125 77.84688 29.3625Q77.00313 28.39375 75.81563 28.39375Q74.64375 28.39375 73.81563 29.346874Q73.00313 30.3 73.00313 32.175ZM82.55 38.409374L84.25313 38.659374Q84.3625 39.45625 84.84688 39.815624Q85.50313 40.3 86.64375 40.3Q87.8625 40.3 88.51875 39.815624Q89.19063 39.33125 89.425 38.45625Q89.56563 37.909374 89.55 36.190624Q88.39375 37.55 86.675 37.55Q84.53438 37.55 83.3625 36.003124Q82.19063 34.45625 82.19063 32.3Q82.19063 30.815624 82.72188 29.565624Q83.26875 28.315624 84.28438 27.628124Q85.31563 26.940624 86.69063 26.940624Q88.51875 26.940624 89.72188 28.425L89.72188 27.175L91.33125 27.175L91.33125 36.14375Q91.33125 38.565624 90.83125 39.565624Q90.34688 40.58125 89.26875 41.159374Q88.20625 41.753124 86.64375 41.753124Q84.8 41.753124 83.64375 40.925Q82.50313 40.096874 82.55 38.409374ZM84.00313 32.175Q84.00313 34.221874 84.81563 35.159374Q85.62813 36.096874 86.84688 36.096874Q88.05 36.096874 88.8625 35.159374Q89.69063 34.221874 89.69063 32.2375Q89.69063 30.33125 88.84688 29.3625Q88.00313 28.39375 86.81563 28.39375Q85.64375 28.39375 84.81563 29.346874Q84.00313 30.3 84.00313 32.175ZM93.87813 25.253124L93.87813 23.2375L95.64375 23.2375L95.64375 25.253124L93.87813 25.253124ZM93.87813 37.55L93.87813 27.175L95.64375 27.175L95.64375 37.55L93.87813 37.55ZM97.22188 32.3625Q97.22188 29.4875 98.81563 28.096874Q100.15938 26.940624 102.08125 26.940624Q104.22188 26.940624 105.56563 28.346874Q106.925 29.753124 106.925 32.221874Q106.925 34.221874 106.33125 35.378124Q105.7375 36.51875 104.58125 37.159374Q103.44063 37.784374 102.08125 37.784374Q99.89375 37.784374 98.55 36.39375Q97.22188 34.9875 97.22188 32.3625ZM99.01875 32.3625Q99.01875 34.3625 99.87813 35.346874Q100.75313 36.33125 102.08125 36.33125Q103.39375 36.33125 104.25313 35.346874Q105.12813 34.346874 105.12813 32.3Q105.12813 30.378124 104.25313 29.39375Q103.37813 28.39375 102.08125 28.39375Q100.75313 28.39375 99.87813 29.39375Q99.01875 30.378124 99.01875 32.3625ZM121.59688 37.55L121.59688 36.2375Q120.6125 37.784374 118.69063 37.784374Q117.45625 37.784374 116.40938 37.096874Q115.37813 36.409374 114.8 35.190624Q114.2375 33.971874 114.2375 32.378124Q114.2375 30.815624 114.75313 29.55Q115.26875 28.284374 116.3 27.6125Q117.34688 26.940624 118.6125 26.940624Q119.55 26.940624 120.28438 27.346874Q121.01875 27.7375 121.4875 28.3625L121.4875 23.2375L123.22188 23.2375L123.22188 37.55L121.59688 37.55ZM116.03438 32.378124Q116.03438 34.3625 116.87813 35.346874Q117.72188 36.33125 118.8625 36.33125Q120.01875 36.33125 120.81563 35.39375Q121.62813 34.45625 121.62813 32.51875Q121.62813 30.39375 120.8 29.39375Q119.9875 28.39375 118.78438 28.39375Q117.6125 28.39375 116.81563 29.3625Q116.03438 30.315624 116.03438 32.378124ZM125.87813 25.253124L125.87813 23.2375L127.64375 23.2375L127.64375 25.253124L125.87813 25.253124ZM125.87813 37.55L125.87813 27.175L127.64375 27.175L127.64375 37.55L125.87813 37.55ZM145.4875 23.2375L147.37813 23.2375L147.37813 31.503124Q147.37813 33.659374 146.89375 34.940624Q146.40938 36.20625 145.12813 37.003124Q143.8625 37.8 141.78438 37.8Q139.76875 37.8 138.4875 37.1125Q137.22188 36.409374 136.675 35.096874Q136.12813 33.784374 136.12813 31.503124L136.12813 23.2375L138.01875 23.2375L138.01875 31.4875Q138.01875 33.3625 138.3625 34.253124Q138.70625 35.128124 139.55 35.6125Q140.39375 36.08125 141.62813 36.08125Q143.70625 36.08125 144.59688 35.14375Q145.4875 34.190624 145.4875 31.4875L145.4875 23.2375ZM152.70625 35.971874L152.95625 37.534374Q152.22188 37.690624 151.62813 37.690624Q150.675 37.690624 150.14375 37.39375Q149.62813 37.08125 149.40938 36.596874Q149.19063 36.096874 149.19063 34.51875L149.19063 28.55L147.90938 28.55L147.90938 27.175L149.19063 27.175L149.19063 24.6125L150.94063 23.55L150.94063 27.175L152.70625 27.175L152.70625 28.55L150.94063 28.55L150.94063 34.6125Q150.94063 35.3625 151.03438 35.58125Q151.12813 35.784374 151.33125 35.925Q151.55 36.05 151.94063 36.05Q152.22188 36.05 152.70625 35.971874ZM154.87813 25.253124L154.87813 23.2375L156.64375 23.2375L156.64375 25.253124L154.87813 25.253124ZM154.87813 37.55L154.87813 27.175L156.64375 27.175L156.64375 37.55L154.87813 37.55ZM158.83125 37.55L158.83125 23.2375L160.58125 23.2375L160.58125 37.55L158.83125 37.55ZM162.87813 25.253124L162.87813 23.2375L164.64375 23.2375L164.64375 25.253124L162.87813 25.253124ZM162.87813 37.55L162.87813 27.175L164.64375 27.175L164.64375 37.55L162.87813 37.55ZM165.94063 37.55L165.94063 36.128124L172.55 28.55Q171.425 28.596874 170.56563 28.596874L166.33125 28.596874L166.33125 27.175L174.81563 27.175L174.81563 28.346874L169.19063 34.925L168.1125 36.128124Q169.28438 36.034374 170.33125 36.034374L175.12813 36.034374L175.12813 37.55L165.94063 37.55ZM174.94063 37.55L174.94063 36.128124L181.55 28.55Q180.425 28.596874 179.56563 28.596874L175.33125 28.596874L175.33125 27.175L183.81563 27.175L183.81563 28.346874L178.19063 34.925L177.1125 36.128124Q178.28438 36.034374 179.33125 36.034374L184.12813 36.034374L184.12813 37.55L174.94063 37.55ZM191.97188 34.20625L193.78438 34.440624Q193.3625 36.01875 192.19063 36.909374Q191.03438 37.784374 189.22188 37.784374Q186.95625 37.784374 185.6125 36.39375Q184.28438 34.9875 184.28438 32.45625Q184.28438 29.83125 185.62813 28.39375Q186.97188 26.940624 189.12813 26.940624Q191.20625 26.940624 192.51875 28.3625Q193.84688 29.76875 193.84688 32.346874Q193.84688 32.503124 193.83125 32.815624L186.09688 32.815624Q186.19063 34.51875 187.06563 35.425Q187.94063 36.33125 189.2375 36.33125Q190.20625 36.33125 190.87813 35.83125Q191.56563 35.315624 191.97188 34.20625ZM186.19063 31.3625L191.9875 31.3625Q191.87813 30.065624 191.33125 29.409374Q190.4875 28.39375 189.14375 28.39375Q187.94063 28.39375 187.1125 29.20625Q186.28438 30.003124 186.19063 31.3625ZM195.84688 37.55L195.84688 27.175L197.425 27.175L197.425 28.753124Q198.03438 27.64375 198.55 27.3Q199.06563 26.940624 199.675 26.940624Q200.56563 26.940624 201.4875 27.503124L200.87813 29.14375Q200.2375 28.753124 199.59688 28.753124Q199.01875 28.753124 198.55 29.1125Q198.09688 29.45625 197.89375 30.065624Q197.6125 31.003124 197.6125 32.1125L197.6125 37.55L195.84688 37.55ZM209.97188 34.20625L211.78438 34.440624Q211.3625 36.01875 210.19063 36.909374Q209.03438 37.784374 207.22188 37.784374Q204.95625 37.784374 203.6125 36.39375Q202.28438 34.9875 202.28438 32.45625Q202.28438 29.83125 203.62813 28.39375Q204.97188 26.940624 207.12813 26.940624Q209.20625 26.940624 210.51875 28.3625Q211.84688 29.76875 211.84688 32.346874Q211.84688 32.503124 211.83125 32.815624L204.09688 32.815624Q204.19063 34.51875 205.06563 35.425Q205.94063 36.33125 207.2375 36.33125Q208.20625 36.33125 208.87813 35.83125Q209.56563 35.315624 209.97188 34.20625ZM204.19063 31.3625L209.9875 31.3625Q209.87813 30.065624 209.33125 29.409374Q208.4875 28.39375 207.14375 28.39375Q205.94063 28.39375 205.1125 29.20625Q204.28438 30.003124 204.19063 31.3625ZM213.15938 34.45625L214.90938 34.175Q215.05 35.221874 215.72188 35.784374Q216.39375 36.33125 217.59688 36.33125Q218.8 36.33125 219.37813 35.846874Q219.97188 35.346874 219.97188 34.690624Q219.97188 34.096874 219.45625 33.753124Q219.09688 33.51875 217.65938 33.159374Q215.72188 32.659374 214.97188 32.315624Q214.2375 31.95625 213.84688 31.33125Q213.45625 30.690624 213.45625 29.925Q213.45625 29.2375 213.76875 28.64375Q214.09688 28.05 214.64375 27.659374Q215.05 27.3625 215.75313 27.159374Q216.47188 26.940624 217.28438 26.940624Q218.50313 26.940624 219.425 27.3Q220.34688 27.64375 220.78438 28.253124Q221.22188 28.846874 221.39375 29.846874L219.675 30.08125Q219.55 29.284374 218.9875 28.846874Q218.425 28.39375 217.40938 28.39375Q216.19063 28.39375 215.675 28.8Q215.15938 29.190624 215.15938 29.721874Q215.15938 30.065624 215.37813 30.346874Q215.58125 30.628124 216.05 30.815624Q216.31563 30.909374 217.59688 31.253124Q219.47188 31.753124 220.20625 32.08125Q220.94063 32.39375 221.3625 33.003124Q221.78438 33.596874 221.78438 34.503124Q221.78438 35.378124 221.26875 36.159374Q220.75313 36.940624 219.78438 37.3625Q218.81563 37.784374 217.59688 37.784374Q215.58125 37.784374 214.51875 36.940624Q213.45625 36.096874 213.15938 34.45625ZM227.70625 35.971874L227.95625 37.534374Q227.22188 37.690624 226.62813 37.690624Q225.675 37.690624 225.14375 37.39375Q224.62813 37.08125 224.40938 36.596874Q224.19063 36.096874 224.19063 34.51875L224.19063 28.55L222.90938 28.55L222.90938 27.175L224.19063 27.175L224.19063 24.6125L225.94063 23.55L225.94063 27.175L227.70625 27.175L227.70625 28.55L225.94063 28.55L225.94063 34.6125Q225.94063 35.3625 226.03438 35.58125Q226.12813 35.784374 226.33125 35.925Q226.55 36.05 226.94063 36.05Q227.22188 36.05 227.70625 35.971874ZM229.87813 25.253124L229.87813 23.2375L231.64375 23.2375L231.64375 25.253124L229.87813 25.253124ZM229.87813 37.55L229.87813 27.175L231.64375 27.175L231.64375 37.55L229.87813 37.55ZM239.83125 37.55L239.83125 23.2375L241.58125 23.2375L241.58125 37.55L239.83125 37.55ZM250.64375 36.26875Q249.65938 37.096874 248.75313 37.440624Q247.84688 37.784374 246.81563 37.784374Q245.1125 37.784374 244.19063 36.95625Q243.26875 36.1125 243.26875 34.815624Q243.26875 34.05 243.6125 33.425Q243.97188 32.8 244.53438 32.425Q245.09688 32.034374 245.8 31.83125Q246.31563 31.70625 247.3625 31.565624Q249.4875 31.315624 250.4875 30.971874Q250.50313 30.6125 250.50313 30.503124Q250.50313 29.440624 250.00313 28.9875Q249.33125 28.39375 248.00313 28.39375Q246.75313 28.39375 246.15938 28.83125Q245.58125 29.26875 245.3 30.378124L243.58125 30.14375Q243.81563 29.034374 244.34688 28.3625Q244.87813 27.675 245.89375 27.315624Q246.90938 26.940624 248.25313 26.940624Q249.58125 26.940624 250.40938 27.253124Q251.2375 27.565624 251.62813 28.05Q252.01875 28.51875 252.175 29.2375Q252.26875 29.690624 252.26875 30.8625L252.26875 33.20625Q252.26875 35.659374 252.37813 36.315624Q252.4875 36.95625 252.83125 37.55L250.9875 37.55Q250.72188 37.003124 250.64375 36.26875ZM250.4875 32.346874Q249.53438 32.7375 247.6125 33.003124Q246.53438 33.159374 246.08125 33.3625Q245.64375 33.55 245.39375 33.925Q245.14375 34.3 245.14375 34.76875Q245.14375 35.471874 245.675 35.940624Q246.20625 36.409374 247.2375 36.409374Q248.25313 36.409374 249.03438 35.971874Q249.83125 35.51875 250.20625 34.753124Q250.4875 34.14375 250.4875 32.9875L250.4875 32.346874ZM260.8625 37.55L260.8625 27.175L262.45624 27.175L262.45624 28.659374Q263.59686 26.940624 265.7531 26.940624Q266.6906 26.940624 267.47186 27.284374Q268.26874 27.6125 268.65936 28.159374Q269.05 28.70625 269.20624 29.45625Q269.3 29.95625 269.3 31.175L269.3 37.55L267.53436 37.55L267.53436 31.2375Q267.53436 30.159374 267.33124 29.628124Q267.1281 29.096874 266.59686 28.784374Q266.08124 28.471874 265.3781 28.471874Q264.2531 28.471874 263.4406 29.190624Q262.6281 29.89375 262.6281 31.878124L262.6281 37.55L260.8625 37.55ZM270.22186 32.3625Q270.22186 29.4875 271.8156 28.096874Q273.15936 26.940624 275.08124 26.940624Q277.22186 26.940624 278.5656 28.346874Q279.925 29.753124 279.925 32.221874Q279.925 34.221874 279.33124 35.378124Q278.7375 36.51875 277.58124 37.159374Q276.4406 37.784374 275.08124 37.784374Q272.89374 37.784374 271.55 36.39375Q270.22186 34.9875 270.22186 32.3625ZM272.01874 32.3625Q272.01874 34.3625 272.8781 35.346874Q273.7531 36.33125 275.08124 36.33125Q276.39374 36.33125 277.2531 35.346874Q278.1281 34.346874 278.1281 32.3Q278.1281 30.378124 277.2531 29.39375Q276.3781 28.39375 275.08124 28.39375Q273.7531 28.39375 272.8781 29.39375Q272.01874 30.378124 272.01874 32.3625ZM281.15936 34.45625L282.90936 34.175Q283.05 35.221874 283.72186 35.784374Q284.39374 36.33125 285.59686 36.33125Q286.8 36.33125 287.3781 35.846874Q287.97186 35.346874 287.97186 34.690624Q287.97186 34.096874 287.45624 33.753124Q287.09686 33.51875 285.65936 33.159374Q283.72186 32.659374 282.97186 32.315624Q282.2375 31.95625 281.84686 31.33125Q281.45624 30.690624 281.45624 29.925Q281.45624 29.2375 281.76874 28.64375Q282.09686 28.05 282.64374 27.659374Q283.05 27.3625 283.7531 27.159374Q284.47186 26.940624 285.28436 26.940624Q286.5031 26.940624 287.425 27.3Q288.34686 27.64375 288.78436 28.253124Q289.22186 28.846874 289.39374 29.846874L287.675 30.08125Q287.55 29.284374 286.9875 28.846874Q286.425 28.39375 285.40936 28.39375Q284.1906 28.39375 283.675 28.8Q283.15936 29.190624 283.15936 29.721874Q283.15936 30.065624 283.3781 30.346874Q283.58124 30.628124 284.05 30.815624Q284.3156 30.909374 285.59686 31.253124Q287.47186 31.753124 288.20624 32.08125Q288.9406 32.39375 289.3625 33.003124Q289.78436 33.596874 289.78436 34.503124Q289.78436 35.378124 289.26874 36.159374Q288.7531 36.940624 287.78436 37.3625Q286.8156 37.784374 285.59686 37.784374Q283.58124 37.784374 282.51874 36.940624Q281.45624 36.096874 281.15936 34.45625ZM295.70624 35.971874L295.95624 37.534374Q295.22186 37.690624 294.6281 37.690624Q293.675 37.690624 293.14374 37.39375Q292.6281 37.08125 292.40936 36.596874Q292.1906 36.096874 292.1906 34.51875L292.1906 28.55L290.90936 28.55L290.90936 27.175L292.1906 27.175L292.1906 24.6125L293.9406 23.55L293.9406 27.175L295.70624 27.175L295.70624 28.55L293.9406 28.55L293.9406 34.6125Q293.9406 35.3625 294.03436 35.58125Q294.1281 35.784374 294.33124 35.925Q294.55 36.05 294.9406 36.05Q295.22186 36.05 295.70624 35.971874ZM297.84686 37.55L297.84686 27.175L299.425 27.175L299.425 28.753124Q300.03436 27.64375 300.55 27.3Q301.0656 26.940624 301.675 26.940624Q302.5656 26.940624 303.4875 27.503124L302.8781 29.14375Q302.2375 28.753124 301.59686 28.753124Q301.01874 28.753124 300.55 29.1125Q300.09686 29.45625 299.89374 30.065624Q299.6125 31.003124 299.6125 32.1125L299.6125 37.55L297.84686 37.55ZM311.64374 36.26875Q310.65936 37.096874 309.7531 37.440624Q308.84686 37.784374 307.8156 37.784374Q306.1125 37.784374 305.1906 36.95625Q304.26874 36.1125 304.26874 34.815624Q304.26874 34.05 304.6125 33.425Q304.97186 32.8 305.53436 32.425Q306.09686 32.034374 306.8 31.83125Q307.3156 31.70625 308.3625 31.565624Q310.4875 31.315624 311.4875 30.971874Q311.5031 30.6125 311.5031 30.503124Q311.5031 29.440624 311.0031 28.9875Q310.33124 28.39375 309.0031 28.39375Q307.7531 28.39375 307.15936 28.83125Q306.58124 29.26875 306.3 30.378124L304.58124 30.14375Q304.8156 29.034374 305.34686 28.3625Q305.8781 27.675 306.89374 27.315624Q307.90936 26.940624 309.2531 26.940624Q310.58124 26.940624 311.40936 27.253124Q312.2375 27.565624 312.6281 28.05Q313.01874 28.51875 313.175 29.2375Q313.26874 29.690624 313.26874 30.8625L313.26874 33.20625Q313.26874 35.659374 313.3781 36.315624Q313.4875 36.95625 313.83124 37.55L311.9875 37.55Q311.72186 37.003124 311.64374 36.26875ZM311.4875 32.346874Q310.53436 32.7375 308.6125 33.003124Q307.53436 33.159374 307.08124 33.3625Q306.64374 33.55 306.39374 33.925Q306.14374 34.3 306.14374 34.76875Q306.14374 35.471874 306.675 35.940624Q307.20624 36.409374 308.2375 36.409374Q309.2531 36.409374 310.03436 35.971874Q310.83124 35.51875 311.20624 34.753124Q311.4875 34.14375 311.4875 32.9875L311.4875 32.346874ZM328.64374 36.26875Q327.65936 37.096874 326.7531 37.440624Q325.84686 37.784374 324.8156 37.784374Q323.1125 37.784374 322.1906 36.95625Q321.26874 36.1125 321.26874 34.815624Q321.26874 34.05 321.6125 33.425Q321.97186 32.8 322.53436 32.425Q323.09686 32.034374 323.8 31.83125Q324.3156 31.70625 325.3625 31.565624Q327.4875 31.315624 328.4875 30.971874Q328.5031 30.6125 328.5031 30.503124Q328.5031 29.440624 328.0031 28.9875Q327.33124 28.39375 326.0031 28.39375Q324.7531 28.39375 324.15936 28.83125Q323.58124 29.26875 323.3 30.378124L321.58124 30.14375Q321.8156 29.034374 322.34686 28.3625Q322.8781 27.675 323.89374 27.315624Q324.90936 26.940624 326.2531 26.940624Q327.58124 26.940624 328.40936 27.253124Q329.2375 27.565624 329.6281 28.05Q330.01874 28.51875 330.175 29.2375Q330.26874 29.690624 330.26874 30.8625L330.26874 33.20625Q330.26874 35.659374 330.3781 36.315624Q330.4875 36.95625 330.83124 37.55L328.9875 37.55Q328.72186 37.003124 328.64374 36.26875ZM328.4875 32.346874Q327.53436 32.7375 325.6125 33.003124Q324.53436 33.159374 324.08124 33.3625Q323.64374 33.55 323.39374 33.925Q323.14374 34.3 323.14374 34.76875Q323.14374 35.471874 323.675 35.940624Q324.20624 36.409374 325.2375 36.409374Q326.2531 36.409374 327.03436 35.971874Q327.83124 35.51875 328.20624 34.753124Q328.4875 34.14375 328.4875 32.9875L328.4875 32.346874ZM332.8625 41.51875L332.8625 27.175L334.47186 27.175L334.47186 28.51875Q335.03436 27.7375 335.7375 27.346874Q336.45624 26.940624 337.47186 26.940624Q338.8 26.940624 339.8156 27.628124Q340.83124 28.315624 341.34686 29.565624Q341.8781 30.8 341.8781 32.284374Q341.8781 33.878124 341.3 35.159374Q340.7375 36.425 339.64374 37.1125Q338.55 37.784374 337.34686 37.784374Q336.47186 37.784374 335.76874 37.409374Q335.08124 37.034374 334.6281 36.471874L334.6281 41.51875L332.8625 41.51875ZM334.45624 32.425Q334.45624 34.425 335.26874 35.378124Q336.08124 36.33125 337.2375 36.33125Q338.40936 36.33125 339.2375 35.346874Q340.08124 34.3625 340.08124 32.26875Q340.08124 30.3 339.2531 29.315624Q338.4406 28.315624 337.3156 28.315624Q336.1906 28.315624 335.3156 29.378124Q334.45624 30.425 334.45624 32.425ZM343.8625 41.51875L343.8625 27.175L345.47186 27.175L345.47186 28.51875Q346.03436 27.7375 346.7375 27.346874Q347.45624 26.940624 348.47186 26.940624Q349.8 26.940624 350.8156 27.628124Q351.83124 28.315624 352.34686 29.565624Q352.8781 30.8 352.8781 32.284374Q352.8781 33.878124 352.3 35.159374Q351.7375 36.425 350.64374 37.1125Q349.55 37.784374 348.34686 37.784374Q347.47186 37.784374 346.76874 37.409374Q346.08124 37.034374 345.6281 36.471874L345.6281 41.51875L343.8625 41.51875ZM345.45624 32.425Q345.45624 34.425 346.26874 35.378124Q347.08124 36.33125 348.2375 36.33125Q349.40936 36.33125 350.2375 35.346874Q351.08124 34.3625 351.08124 32.26875Q351.08124 30.3 350.2531 29.315624Q349.4406 28.315624 348.3156 28.315624Q347.1906 28.315624 346.3156 29.378124Q345.45624 30.425 345.45624 32.425ZM354.83124 37.55L354.83124 23.2375L356.58124 23.2375L356.58124 37.55L354.83124 37.55ZM358.8781 25.253124L358.8781 23.2375L360.64374 23.2375L360.64374 25.253124L358.8781 25.253124ZM358.8781 37.55L358.8781 27.175L360.64374 27.175L360.64374 37.55L358.8781 37.55ZM369.64374 33.753124L371.3625 33.971874Q371.08124 35.76875 369.90936 36.784374Q368.7531 37.784374 367.05 37.784374Q364.925 37.784374 363.6281 36.39375Q362.33124 35.003124 362.33124 32.409374Q362.33124 30.721874 362.8781 29.471874Q363.4406 28.20625 364.58124 27.58125Q365.72186 26.940624 367.0656 26.940624Q368.7531 26.940624 369.8156 27.8Q370.89374 28.659374 371.20624 30.221874L369.4875 30.4875Q369.2531 29.440624 368.6281 28.925Q368.0031 28.39375 367.1281 28.39375Q365.8 28.39375 364.97186 29.346874Q364.14374 30.3 364.14374 32.346874Q364.14374 34.440624 364.9406 35.39375Q365.7375 36.33125 367.03436 36.33125Q368.0656 36.33125 368.7531 35.70625Q369.45624 35.065624 369.64374 33.753124ZM379.64374 36.26875Q378.65936 37.096874 377.7531 37.440624Q376.84686 37.784374 375.8156 37.784374Q374.1125 37.784374 373.1906 36.95625Q372.26874 36.1125 372.26874 34.815624Q372.26874 34.05 372.6125 33.425Q372.97186 32.8 373.53436 32.425Q374.09686 32.034374 374.8 31.83125Q375.3156 31.70625 376.3625 31.565624Q378.4875 31.315624 379.4875 30.971874Q379.5031 30.6125 379.5031 30.503124Q379.5031 29.440624 379.0031 28.9875Q378.33124 28.39375 377.0031 28.39375Q375.7531 28.39375 375.15936 28.83125Q374.58124 29.26875 374.3 30.378124L372.58124 30.14375Q372.8156 29.034374 373.34686 28.3625Q373.8781 27.675 374.89374 27.315624Q375.90936 26.940624 377.2531 26.940624Q378.58124 26.940624 379.40936 27.253124Q380.2375 27.565624 380.6281 28.05Q381.01874 28.51875 381.175 29.2375Q381.26874 29.690624 381.26874 30.8625L381.26874 33.20625Q381.26874 35.659374 381.3781 36.315624Q381.4875 36.95625 381.83124 37.55L379.9875 37.55Q379.72186 37.003124 379.64374 36.26875ZM379.4875 32.346874Q378.53436 32.7375 376.6125 33.003124Q375.53436 33.159374 375.08124 33.3625Q374.64374 33.55 374.39374 33.925Q374.14374 34.3 374.14374 34.76875Q374.14374 35.471874 374.675 35.940624Q375.20624 36.409374 376.2375 36.409374Q377.2531 36.409374 378.03436 35.971874Q378.83124 35.51875 379.20624 34.753124Q379.4875 34.14375 379.4875 32.9875L379.4875 32.346874ZM382.9406 37.55L382.9406 36.128124L389.55 28.55Q388.425 28.596874 387.5656 28.596874L383.33124 28.596874L383.33124 27.175L391.8156 27.175L391.8156 28.346874L386.1906 34.925L385.1125 36.128124Q386.28436 36.034374 387.33124 36.034374L392.1281 36.034374L392.1281 37.55L382.9406 37.55ZM392.8781 25.253124L392.8781 23.2375L394.64374 23.2375L394.64374 25.253124L392.8781 25.253124ZM392.8781 37.55L392.8781 27.175L394.64374 27.175L394.64374 37.55L392.8781 37.55ZM396.22186 32.3625Q396.22186 29.4875 397.8156 28.096874Q399.15936 26.940624 401.08124 26.940624Q403.22186 26.940624 404.5656 28.346874Q405.925 29.753124 405.925 32.221874Q405.925 34.221874 405.33124 35.378124Q404.7375 36.51875 403.58124 37.159374Q402.4406 37.784374 401.08124 37.784374Q398.89374 37.784374 397.55 36.39375Q396.22186 34.9875 396.22186 32.3625ZM398.01874 32.3625Q398.01874 34.3625 398.8781 35.346874Q399.7531 36.33125 401.08124 36.33125Q402.39374 36.33125 403.2531 35.346874Q404.1281 34.346874 404.1281 32.3Q404.1281 30.378124 403.2531 29.39375Q402.3781 28.39375 401.08124 28.39375Q399.7531 28.39375 398.8781 29.39375Q398.01874 30.378124 398.01874 32.3625ZM407.8625 37.55L407.8625 27.175L409.45624 27.175L409.45624 28.659374Q410.59686 26.940624 412.7531 26.940624Q413.6906 26.940624 414.47186 27.284374Q415.26874 27.6125 415.65936 28.159374Q416.05 28.70625 416.20624 29.45625Q416.3 29.95625 416.3 31.175L416.3 37.55L414.53436 37.55L414.53436 31.2375Q414.53436 30.159374 414.33124 29.628124Q414.1281 29.096874 413.59686 28.784374Q413.08124 28.471874 412.3781 28.471874Q411.2531 28.471874 410.4406 29.190624Q409.6281 29.89375 409.6281 31.878124L409.6281 37.55L407.8625 37.55ZM424.97186 34.20625L426.78436 34.440624Q426.3625 36.01875 425.1906 36.909374Q424.03436 37.784374 422.22186 37.784374Q419.95624 37.784374 418.6125 36.39375Q417.28436 34.9875 417.28436 32.45625Q417.28436 29.83125 418.6281 28.39375Q419.97186 26.940624 422.1281 26.940624Q424.20624 26.940624 425.51874 28.3625Q426.84686 29.76875 426.84686 32.346874Q426.84686 32.503124 426.83124 32.815624L419.09686 32.815624Q419.1906 34.51875 420.0656 35.425Q420.9406 36.33125 422.2375 36.33125Q423.20624 36.33125 423.8781 35.83125Q424.5656 35.315624 424.97186 34.20625ZM419.1906 31.3625L424.9875 31.3625Q424.8781 30.065624 424.33124 29.409374Q423.4875 28.39375 422.14374 28.39375Q420.9406 28.39375 420.1125 29.20625Q419.28436 30.003124 419.1906 31.3625ZM432.15936 34.01875Q432.14374 33.675 432.14374 33.503124Q432.14374 32.45625 432.4406 31.70625Q432.65936 31.14375 433.14374 30.565624Q433.4875 30.14375 434.39374 29.346874Q435.3156 28.534374 435.58124 28.065624Q435.8625 27.58125 435.8625 27.01875Q435.8625 25.9875 435.05 25.221874Q434.2531 24.440624 433.09686 24.440624Q431.97186 24.440624 431.22186 25.14375Q430.47186 25.846874 430.2375 27.33125L428.425 27.1125Q428.675 25.1125 429.8781 24.05Q431.08124 22.9875 433.0656 22.9875Q435.175 22.9875 436.425 24.128124Q437.675 25.26875 437.675 26.89375Q437.675 27.83125 437.22186 28.628124Q436.78436 29.409374 435.5031 30.55Q434.64374 31.315624 434.3781 31.675Q434.1281 32.034374 433.9875 32.503124Q433.8625 32.971874 433.84686 34.01875L432.15936 34.01875ZM432.05 37.55L432.05 35.55L434.05 35.55L434.05 37.55L432.05 37.55Z" fill-rule="nonzero"/></svg>