<svg version="1.1" viewBox="0.0 0.0 600.0 371.0" fill="none" stroke="none" stroke-linecap="square" stroke-miterlimit="10" width="600" height="371" xmlns:xlink="http://www.w3.org/1999/xlink" xmlns="http://www.w3.org/2000/svg"><path fill="#ffffff" d="M0 0L600.0 0L600.0 371.0L0 371.0L0 0Z" fill-rule="nonzero"/><path fill="#ea4335" d="M288.02927 55.39907C292.0114 55.0776 296.00488 54.916668 300.0 54.916668L300.0 203.68333Z" fill-rule="nonzero"/><path fill="#4285f4" d="M300.0 54.916668C380.99402 54.916668 447.10553 119.71003 448.7365 200.6876C450.3675 281.6652 386.91855 349.06805 305.99023 352.32935C225.0619 355.59064 156.39505 293.51187 151.50475 212.66563C146.61446 131.81941 207.2979 61.91638 288.02927 55.39907L300.0 203.68333Z" fill-rule="nonzero"/><path fill="#1a1a1a" d="M19.471874 65.916664L19.471874 57.322914L20.628124 57.322914L25.14375 64.072914L25.14375 57.322914L26.2375 57.322914L26.2375 65.916664L25.065624 65.916664L20.55 59.166664L20.55 65.916664L19.471874 65.916664ZM27.95625 62.80729Q27.95625 61.072914 28.909374 60.24479Q29.70625 59.55729 30.8625 59.55729Q32.14375 59.55729 32.95625 60.40104Q33.784374 61.229164 33.784374 62.71354Q33.784374 63.916664 33.425 64.604164Q33.065624 65.291664 32.3625 65.68229Q31.675 66.05729 30.8625 66.05729Q29.565624 66.05729 28.753124 65.229164Q27.95625 64.385414 27.95625 62.80729ZM29.034374 62.80729Q29.034374 63.99479 29.55 64.58854Q30.08125 65.18229 30.8625 65.18229Q31.659374 65.18229 32.175 64.58854Q32.690624 63.99479 32.690624 62.77604Q32.690624 61.61979 32.159374 61.02604Q31.64375 60.43229 30.8625 60.43229Q30.08125 60.43229 29.55 61.02604Q29.034374 61.604164 29.034374 62.80729Z" fill-rule="nonzero"/><path fill="#9e9e9e" d="M23.01875 82.916664L21.971874 82.916664L21.971874 76.197914Q21.58125 76.55729 20.95625 76.93229Q20.346874 77.291664 19.8625 77.46354L19.8625 76.447914Q20.7375 76.02604 21.39375 75.447914Q22.065624 74.854164 22.346874 74.291664L23.01875 74.291664L23.01875 82.916664ZM26.6125 82.916664L26.6125 81.71354L27.815624 81.71354L27.815624 82.916664Q27.815624 83.572914 27.58125 83.979164Q27.346874 84.40104 26.846874 84.61979L26.55 84.166664Q26.878124 84.02604 27.034374 83.729164Q27.190624 83.447914 27.221874 82.916664L26.6125 82.916664ZM29.05 80.65104L30.1125 80.510414Q30.284374 81.40104 30.721874 81.80729Q31.159374 82.197914 31.784374 82.197914Q32.534374 82.197914 33.05 81.68229Q33.565624 81.166664 33.565624 80.40104Q33.565624 79.68229 33.08125 79.21354Q32.6125 78.729164 31.878124 78.729164Q31.58125 78.729164 31.128124 78.854164L31.253124 77.916664Q31.3625 77.93229 31.425 77.93229Q32.096874 77.93229 32.628124 77.58854Q33.175 77.229164 33.175 76.49479Q33.175 75.916664 32.784374 75.541664Q32.39375 75.15104 31.76875 75.15104Q31.159374 75.15104 30.7375 75.541664Q30.33125 75.93229 30.221874 76.697914L29.159374 76.510414Q29.346874 75.46354 30.034374 74.885414Q30.721874 74.291664 31.7375 74.291664Q32.440624 74.291664 33.034374 74.604164Q33.628124 74.90104 33.940624 75.416664Q34.253124 75.93229 34.253124 76.52604Q34.253124 77.072914 33.95625 77.541664Q33.659374 77.99479 33.08125 78.260414Q33.83125 78.43229 34.253124 78.99479Q34.675 79.541664 34.675 80.385414Q34.675 81.510414 33.846874 82.291664Q33.034374 83.072914 31.784374 83.072914Q30.659374 83.072914 29.909374 82.40104Q29.159374 81.71354 29.05 80.65104ZM36.253124 76.385414Q36.253124 75.46354 36.70625 74.822914Q37.175 74.18229 38.05 74.18229Q38.8625 74.18229 39.39375 74.760414Q39.925 75.33854 39.925 76.447914Q39.925 77.541664 39.378124 78.135414Q38.846874 78.71354 38.065624 78.71354Q37.284374 78.71354 36.76875 78.135414Q36.253124 77.55729 36.253124 76.385414ZM38.08125 74.90104Q37.690624 74.90104 37.425 75.24479Q37.175 75.58854 37.175 76.49479Q37.175 77.322914 37.425 77.666664Q37.690624 77.99479 38.08125 77.99479Q38.4875 77.99479 38.7375 77.65104Q39.003124 77.30729 39.003124 76.416664Q39.003124 75.572914 38.7375 75.24479Q38.471874 74.90104 38.08125 74.90104ZM38.08125 83.229164L42.784374 74.18229L43.64375 74.18229L38.95625 83.229164L38.08125 83.229164ZM41.8 80.90104Q41.8 79.979164 42.253124 79.33854Q42.721874 78.697914 43.6125 78.697914Q44.425 78.697914 44.95625 79.27604Q45.4875 79.83854 45.4875 80.96354Q45.4875 82.05729 44.940624 82.65104Q44.409374 83.229164 43.6125 83.229164Q42.846874 83.229164 42.315624 82.65104Q41.8 82.072914 41.8 80.90104ZM43.64375 79.416664Q43.2375 79.416664 42.971874 79.760414Q42.721874 80.104164 42.721874 81.010414Q42.721874 81.822914 42.9875 82.166664Q43.253124 82.510414 43.64375 82.510414Q44.034374 82.510414 44.3 82.166664Q44.565624 81.822914 44.565624 80.916664Q44.565624 80.08854 44.3 79.760414Q44.034374 79.416664 43.64375 79.416664Z" fill-rule="nonzero"/><path stroke="#757575" stroke-width="1.0" stroke-linecap="butt" d="M18.55 70.416664L145.23334 70.416664L294.3093 62.469616" fill-rule="nonzero"/><path fill="#9e9e9e" d="M296.3093 62.469616C296.3093 61.365047 295.41385 60.469616 294.3093 60.469616C293.2047 60.469616 292.3093 61.365047 292.3093 62.469616C292.3093 63.57419 293.2047 64.46962 294.3093 64.46962C295.41385 64.46962 296.3093 63.57419 296.3093 62.469616" fill-rule="nonzero"/><path fill="#1a1a1a" d="M570.9969 329.6844L572.0594 329.59064Q572.1375 330.2469 572.41876 330.65314Q572.7 331.0594 573.27814 331.325Q573.8719 331.575 574.60626 331.575Q575.2469 331.575 575.7469 331.3875Q576.2469 331.1844 576.48126 330.85626Q576.73126 330.5125 576.73126 330.1219Q576.73126 329.71564 576.4969 329.41876Q576.2625 329.10626 575.73126 328.90314Q575.3719 328.7625 574.1844 328.48126Q573.0125 328.2 572.54376 327.95Q571.91876 327.6219 571.6219 327.15314Q571.325 326.66876 571.325 326.075Q571.325 325.4344 571.6844 324.8719Q572.0594 324.29376 572.7625 324.0125Q573.48126 323.71564 574.34064 323.71564Q575.29376 323.71564 576.02814 324.02814Q576.7625 324.325 577.15314 324.9344Q577.54376 325.52814 577.575 326.27814L576.48126 326.35626Q576.3875 325.54376 575.8719 325.1375Q575.3719 324.71564 574.3875 324.71564Q573.35626 324.71564 572.8875 325.09064Q572.41876 325.46564 572.41876 325.9969Q572.41876 326.46564 572.7469 326.7625Q573.075 327.0594 574.45 327.3719Q575.84064 327.6844 576.35626 327.91876Q577.10626 328.27814 577.46564 328.8094Q577.825 329.325 577.825 330.02814Q577.825 330.71564 577.4344 331.325Q577.04376 331.91876 576.3094 332.2625Q575.575 332.59064 574.65314 332.59064Q573.48126 332.59064 572.6844 332.2625Q571.90314 331.91876 571.45 331.23126Q571.0125 330.54376 570.9969 329.6844ZM579.2469 325.075L579.2469 323.85626L580.3094 323.85626L580.3094 325.075L579.2469 325.075ZM579.2469 332.45L579.2469 326.23126L580.3094 326.23126L580.3094 332.45L579.2469 332.45Z" fill-rule="nonzero"/><path fill="#9e9e9e" d="M547.10626 347.46564L548.1219 347.3719Q548.2469 348.09064 548.60626 348.41876Q548.98126 348.73126 549.54376 348.73126Q550.02814 348.73126 550.3875 348.5125Q550.7625 348.27814 550.9969 347.91876Q551.23126 347.54376 551.3875 346.91876Q551.54376 346.27814 551.54376 345.6219Q551.54376 345.54376 551.54376 345.40314Q551.23126 345.90314 550.6844 346.23126Q550.1375 346.54376 549.4969 346.54376Q548.41876 346.54376 547.6844 345.77814Q546.95 344.9969 546.95 343.73126Q546.95 342.41876 547.71564 341.6219Q548.4969 340.825 549.65314 340.825Q550.48126 340.825 551.16876 341.27814Q551.8719 341.73126 552.23126 342.575Q552.59064 343.40314 552.59064 344.98126Q552.59064 346.6219 552.23126 347.60626Q551.8875 348.575 551.16876 349.09064Q550.46564 349.59064 549.52814 349.59064Q548.5125 349.59064 547.8719 349.04376Q547.23126 348.48126 547.10626 347.46564ZM551.41876 343.66876Q551.41876 342.7625 550.9344 342.23126Q550.46564 341.7 549.77814 341.7Q549.075 341.7 548.54376 342.27814Q548.02814 342.84064 548.02814 343.7625Q548.02814 344.575 548.52814 345.09064Q549.02814 345.60626 549.7469 345.60626Q550.48126 345.60626 550.95 345.09064Q551.41876 344.575 551.41876 343.66876ZM555.575 344.79376Q554.91876 344.54376 554.59064 344.10626Q554.27814 343.65314 554.27814 343.04376Q554.27814 342.10626 554.95 341.46564Q555.6375 340.825 556.7469 340.825Q557.8719 340.825 558.5594 341.48126Q559.2469 342.1375 559.2469 343.075Q559.2469 343.66876 558.9344 344.10626Q558.6219 344.54376 557.98126 344.79376Q558.77814 345.04376 559.1844 345.6219Q559.59064 346.2 559.59064 346.9969Q559.59064 348.09064 558.8094 348.84064Q558.04376 349.59064 556.7625 349.59064Q555.4969 349.59064 554.71564 348.84064Q553.9344 348.09064 553.9344 346.96564Q553.9344 346.1219 554.35626 345.5594Q554.79376 344.9969 555.575 344.79376ZM555.35626 342.9969Q555.35626 343.60626 555.7469 343.9969Q556.15314 344.3875 556.77814 344.3875Q557.3875 344.3875 557.77814 344.0125Q558.16876 343.6219 558.16876 343.0594Q558.16876 342.48126 557.7625 342.09064Q557.35626 341.6844 556.7625 341.6844Q556.15314 341.6844 555.7469 342.075Q555.35626 342.46564 555.35626 342.9969ZM555.02814 346.96564Q555.02814 347.41876 555.23126 347.84064Q555.45 348.2625 555.8719 348.4969Q556.29376 348.73126 556.77814 348.73126Q557.52814 348.73126 558.0125 348.2469Q558.5125 347.7625 558.5125 347.0125Q558.5125 346.2469 558.0125 345.7469Q557.5125 345.2469 556.7469 345.2469Q555.9969 345.2469 555.5125 345.7469Q555.02814 346.23126 555.02814 346.96564ZM561.5125 349.45L561.5125 348.2469L562.71564 348.2469L562.71564 349.45Q562.71564 350.10626 562.48126 350.5125Q562.2469 350.9344 561.7469 351.15314L561.45 350.7Q561.77814 350.5594 561.9344 350.2625Q562.09064 349.98126 562.1219 349.45L561.5125 349.45ZM564.0125 341.98126L564.0125 340.96564L569.575 340.96564L569.575 341.79376Q568.7625 342.66876 567.95 344.1219Q567.15314 345.5594 566.71564 347.09064Q566.3875 348.16876 566.3094 349.45L565.21564 349.45Q565.23126 348.4344 565.60626 346.9969Q565.9969 345.5594 566.7 344.23126Q567.41876 342.90314 568.23126 341.98126L564.0125 341.98126ZM571.15314 342.91876Q571.15314 341.9969 571.60626 341.35626Q572.075 340.71564 572.95 340.71564Q573.7625 340.71564 574.29376 341.29376Q574.825 341.8719 574.825 342.98126Q574.825 344.075 574.27814 344.66876Q573.7469 345.2469 572.96564 345.2469Q572.1844 345.2469 571.66876 344.66876Q571.15314 344.09064 571.15314 342.91876ZM572.98126 341.4344Q572.59064 341.4344 572.325 341.77814Q572.075 342.1219 572.075 343.02814Q572.075 343.85626 572.325 344.2Q572.59064 344.52814 572.98126 344.52814Q573.3875 344.52814 573.6375 344.1844Q573.90314 343.84064 573.90314 342.95Q573.90314 342.10626 573.6375 341.77814Q573.3719 341.4344 572.98126 341.4344ZM572.98126 349.7625L577.6844 340.71564L578.54376 340.71564L573.85626 349.7625L572.98126 349.7625ZM576.7 347.4344Q576.7 346.5125 577.15314 345.8719Q577.6219 345.23126 578.5125 345.23126Q579.325 345.23126 579.85626 345.8094Q580.3875 346.3719 580.3875 347.4969Q580.3875 348.59064 579.84064 349.1844Q579.3094 349.7625 578.5125 349.7625Q577.7469 349.7625 577.21564 349.1844Q576.7 348.60626 576.7 347.4344ZM578.54376 345.95Q578.1375 345.95 577.8719 346.29376Q577.6219 346.6375 577.6219 347.54376Q577.6219 348.35626 577.8875 348.7Q578.15314 349.04376 578.54376 349.04376Q578.9344 349.04376 579.2 348.7Q579.46564 348.35626 579.46564 347.45Q579.46564 346.6219 579.2 346.29376Q578.9344 345.95 578.54376 345.95Z" fill-rule="nonzero"/><path stroke="#757575" stroke-width="1.0" stroke-linecap="butt" d="M581.45 336.95L454.76666 336.95L305.6907 344.89706" fill-rule="nonzero"/><path fill="#9e9e9e" d="M307.6907 344.89706C307.6907 343.79248 306.7953 342.89706 305.6907 342.89706C304.58615 342.89706 303.6907 343.79248 303.6907 344.89706C303.6907 346.00162 304.58615 346.89706 305.6907 346.89706C306.7953 346.89706 307.6907 346.00162 307.6907 344.89706" fill-rule="nonzero"/><path fill="#757575" d="M20.409374 37.55L20.409374 23.2375L22.315624 23.2375L22.315624 37.55L20.409374 37.55ZM25.83125 37.55L25.83125 23.2375L27.58125 23.2375L27.58125 37.55L25.83125 37.55ZM39.70625 35.971874L39.95625 37.534374Q39.221874 37.690624 38.628124 37.690624Q37.675 37.690624 37.14375 37.39375Q36.628124 37.08125 36.409374 36.596874Q36.190624 36.096874 36.190624 34.51875L36.190624 28.55L34.909374 28.55L34.909374 27.175L36.190624 27.175L36.190624 24.6125L37.940624 23.55L37.940624 27.175L39.70625 27.175L39.70625 28.55L37.940624 28.55L37.940624 34.6125Q37.940624 35.3625 38.034374 35.58125Q38.128124 35.784374 38.33125 35.925Q38.55 36.05 38.940624 36.05Q39.221874 36.05 39.70625 35.971874ZM48.659374 37.55L48.659374 36.01875Q47.45625 37.784374 45.378124 37.784374Q44.45625 37.784374 43.659374 37.440624Q42.8625 37.08125 42.471874 36.55Q42.096874 36.01875 41.940624 35.2375Q41.83125 34.721874 41.83125 33.596874L41.83125 27.175L43.58125 27.175L43.58125 32.925Q43.58125 34.3 43.690624 34.784374Q43.8625 35.471874 44.39375 35.878124Q44.940624 36.26875 45.721874 36.26875Q46.51875 36.26875 47.20625 35.8625Q47.909374 35.45625 48.190624 34.76875Q48.4875 34.065624 48.4875 32.7375L48.4875 27.175L50.2375 27.175L50.2375 37.55L48.659374 37.55ZM51.221874 32.3625Q51.221874 29.4875 52.815624 28.096874Q54.159374 26.940624 56.08125 26.940624Q58.221874 26.940624 59.565624 28.346874Q60.925 29.753124 60.925 32.221874Q60.925 34.221874 60.33125 35.378124Q59.7375 36.51875 58.58125 37.159374Q57.440624 37.784374 56.08125 37.784374Q53.89375 37.784374 52.55 36.39375Q51.221874 34.9875 51.221874 32.3625ZM53.01875 32.3625Q53.01875 34.3625 53.878124 35.346874Q54.753124 36.33125 56.08125 36.33125Q57.39375 36.33125 58.253124 35.346874Q59.128124 34.346874 59.128124 32.3Q59.128124 30.378124 58.253124 29.39375Q57.378124 28.39375 56.08125 28.39375Q54.753124 28.39375 53.878124 29.39375Q53.01875 30.378124 53.01875 32.3625ZM68.8625 41.51875L68.8625 27.175L70.47188 27.175L70.47188 28.51875Q71.03438 27.7375 71.7375 27.346874Q72.45625 26.940624 73.47188 26.940624Q74.8 26.940624 75.81563 27.628124Q76.83125 28.315624 77.34688 29.565624Q77.87813 30.8 77.87813 32.284374Q77.87813 33.878124 77.3 35.159374Q76.7375 36.425 75.64375 37.1125Q74.55 37.784374 73.34688 37.784374Q72.47188 37.784374 71.76875 37.409374Q71.08125 37.034374 70.62813 36.471874L70.62813 41.51875L68.8625 41.51875ZM70.45625 32.425Q70.45625 34.425 71.26875 35.378124Q72.08125 36.33125 73.2375 36.33125Q74.40938 36.33125 75.2375 35.346874Q76.08125 34.3625 76.08125 32.26875Q76.08125 30.3 75.25313 29.315624Q74.44063 28.315624 73.31563 28.315624Q72.19063 28.315624 71.31563 29.378124Q70.45625 30.425 70.45625 32.425ZM86.64375 36.26875Q85.65938 37.096874 84.75313 37.440624Q83.84688 37.784374 82.81563 37.784374Q81.1125 37.784374 80.19063 36.95625Q79.26875 36.1125 79.26875 34.815624Q79.26875 34.05 79.6125 33.425Q79.97188 32.8 80.53438 32.425Q81.09688 32.034374 81.8 31.83125Q82.31563 31.70625 83.3625 31.565624Q85.4875 31.315624 86.4875 30.971874Q86.50313 30.6125 86.50313 30.503124Q86.50313 29.440624 86.00313 28.9875Q85.33125 28.39375 84.00313 28.39375Q82.75313 28.39375 82.15938 28.83125Q81.58125 29.26875 81.3 30.378124L79.58125 30.14375Q79.81563 29.034374 80.34688 28.3625Q80.87813 27.675 81.89375 27.315624Q82.90938 26.940624 84.25313 26.940624Q85.58125 26.940624 86.40938 27.253124Q87.2375 27.565624 87.62813 28.05Q88.01875 28.51875 88.175 29.2375Q88.26875 29.690624 88.26875 30.8625L88.26875 33.20625Q88.26875 35.659374 88.37813 36.315624Q88.4875 36.95625 88.83125 37.55L86.9875 37.55Q86.72188 37.003124 86.64375 36.26875ZM86.4875 32.346874Q85.53438 32.7375 83.6125 33.003124Q82.53438 33.159374 82.08125 33.3625Q81.64375 33.55 81.39375 33.925Q81.14375 34.3 81.14375 34.76875Q81.14375 35.471874 81.675 35.940624Q82.20625 36.409374 83.2375 36.409374Q84.25313 36.409374 85.03438 35.971874Q85.83125 35.51875 86.20625 34.753124Q86.4875 34.14375 86.4875 32.9875L86.4875 32.346874ZM97.97188 34.20625L99.78438 34.440624Q99.3625 36.01875 98.19063 36.909374Q97.03438 37.784374 95.22188 37.784374Q92.95625 37.784374 91.6125 36.39375Q90.28438 34.9875 90.28438 32.45625Q90.28438 29.83125 91.62813 28.39375Q92.97188 26.940624 95.12813 26.940624Q97.20625 26.940624 98.51875 28.3625Q99.84688 29.76875 99.84688 32.346874Q99.84688 32.503124 99.83125 32.815624L92.09688 32.815624Q92.19063 34.51875 93.06563 35.425Q93.94063 36.33125 95.2375 36.33125Q96.20625 36.33125 96.87813 35.83125Q97.56563 35.315624 97.97188 34.20625ZM92.19063 31.3625L97.9875 31.3625Q97.87813 30.065624 97.33125 29.409374Q96.4875 28.39375 95.14375 28.39375Q93.94063 28.39375 93.1125 29.20625Q92.28438 30.003124 92.19063 31.3625ZM101.15938 34.45625L102.90938 34.175Q103.05 35.221874 103.72188 35.784374Q104.39375 36.33125 105.59688 36.33125Q106.8 36.33125 107.37813 35.846874Q107.97188 35.346874 107.97188 34.690624Q107.97188 34.096874 107.45625 33.753124Q107.09688 33.51875 105.65938 33.159374Q103.72188 32.659374 102.97188 32.315624Q102.2375 31.95625 101.84688 31.33125Q101.45625 30.690624 101.45625 29.925Q101.45625 29.2375 101.76875 28.64375Q102.09688 28.05 102.64375 27.659374Q103.05 27.3625 103.75313 27.159374Q104.47188 26.940624 105.28438 26.940624Q106.50313 26.940624 107.425 27.3Q108.34688 27.64375 108.78438 28.253124Q109.22188 28.846874 109.39375 29.846874L107.675 30.08125Q107.55 29.284374 106.9875 28.846874Q106.425 28.39375 105.40938 28.39375Q104.19063 28.39375 103.675 28.8Q103.15938 29.190624 103.15938 29.721874Q103.15938 30.065624 103.37813 30.346874Q103.58125 30.628124 104.05 30.815624Q104.31563 30.909374 105.59688 31.253124Q107.47188 31.753124 108.20625 32.08125Q108.94063 32.39375 109.3625 33.003124Q109.78438 33.596874 109.78438 34.503124Q109.78438 35.378124 109.26875 36.159374Q108.75313 36.940624 107.78438 37.3625Q106.81563 37.784374 105.59688 37.784374Q103.58125 37.784374 102.51875 36.940624Q101.45625 36.096874 101.15938 34.45625ZM118.97188 34.20625L120.78438 34.440624Q120.3625 36.01875 119.19063 36.909374Q118.03438 37.784374 116.22188 37.784374Q113.95625 37.784374 112.6125 36.39375Q111.28438 34.9875 111.28438 32.45625Q111.28438 29.83125 112.62813 28.39375Q113.97188 26.940624 116.12813 26.940624Q118.20625 26.940624 119.51875 28.3625Q120.84688 29.76875 120.84688 32.346874Q120.84688 32.503124 120.83125 32.815624L113.09688 32.815624Q113.19063 34.51875 114.06563 35.425Q114.94063 36.33125 116.2375 36.33125Q117.20625 36.33125 117.87813 35.83125Q118.56563 35.315624 118.97188 34.20625ZM113.19063 31.3625L118.9875 31.3625Q118.87813 30.065624 118.33125 29.409374Q117.4875 28.39375 116.14375 28.39375Q114.94063 28.39375 114.1125 29.20625Q113.28438 30.003124 113.19063 31.3625ZM135.59688 37.55L135.59688 36.2375Q134.6125 37.784374 132.69063 37.784374Q131.45625 37.784374 130.40938 37.096874Q129.37813 36.409374 128.8 35.190624Q128.2375 33.971874 128.2375 32.378124Q128.2375 30.815624 128.75313 29.55Q129.26875 28.284374 130.3 27.6125Q131.34688 26.940624 132.6125 26.940624Q133.55 26.940624 134.28438 27.346874Q135.01875 27.7375 135.4875 28.3625L135.4875 23.2375L137.22188 23.2375L137.22188 37.55L135.59688 37.55ZM130.03438 32.378124Q130.03438 34.3625 130.87813 35.346874Q131.72188 36.33125 132.8625 36.33125Q134.01875 36.33125 134.81563 35.39375Q135.62813 34.45625 135.62813 32.51875Q135.62813 30.39375 134.8 29.39375Q133.9875 28.39375 132.78438 28.39375Q131.6125 28.39375 130.81563 29.3625Q130.03438 30.315624 130.03438 32.378124ZM139.87813 25.253124L139.87813 23.2375L141.64375 23.2375L141.64375 25.253124L139.87813 25.253124ZM139.87813 37.55L139.87813 27.175L141.64375 27.175L141.64375 37.55L139.87813 37.55ZM149.84688 37.55L149.84688 27.175L151.425 27.175L151.425 28.753124Q152.03438 27.64375 152.55 27.3Q153.06563 26.940624 153.675 26.940624Q154.56563 26.940624 155.4875 27.503124L154.87813 29.14375Q154.2375 28.753124 153.59688 28.753124Q153.01875 28.753124 152.55 29.1125Q152.09688 29.45625 151.89375 30.065624Q151.6125 31.003124 151.6125 32.1125L151.6125 37.55L149.84688 37.55ZM163.97188 34.20625L165.78438 34.440624Q165.3625 36.01875 164.19063 36.909374Q163.03438 37.784374 161.22188 37.784374Q158.95625 37.784374 157.6125 36.39375Q156.28438 34.9875 156.28438 32.45625Q156.28438 29.83125 157.62813 28.39375Q158.97188 26.940624 161.12813 26.940624Q163.20625 26.940624 164.51875 28.3625Q165.84688 29.76875 165.84688 32.346874Q165.84688 32.503124 165.83125 32.815624L158.09688 32.815624Q158.19063 34.51875 159.06563 35.425Q159.94063 36.33125 161.2375 36.33125Q162.20625 36.33125 162.87813 35.83125Q163.56563 35.315624 163.97188 34.20625ZM158.19063 31.3625L163.9875 31.3625Q163.87813 30.065624 163.33125 29.409374Q162.4875 28.39375 161.14375 28.39375Q159.94063 28.39375 159.1125 29.20625Q158.28438 30.003124 158.19063 31.3625ZM167.15938 34.45625L168.90938 34.175Q169.05 35.221874 169.72188 35.784374Q170.39375 36.33125 171.59688 36.33125Q172.8 36.33125 173.37813 35.846874Q173.97188 35.346874 173.97188 34.690624Q173.97188 34.096874 173.45625 33.753124Q173.09688 33.51875 171.65938 33.159374Q169.72188 32.659374 168.97188 32.315624Q168.2375 31.95625 167.84688 31.33125Q167.45625 30.690624 167.45625 29.925Q167.45625 29.2375 167.76875 28.64375Q168.09688 28.05 168.64375 27.659374Q169.05 27.3625 169.75313 27.159374Q170.47188 26.940624 171.28438 26.940624Q172.50313 26.940624 173.425 27.3Q174.34688 27.64375 174.78438 28.253124Q175.22188 28.846874 175.39375 29.846874L173.675 30.08125Q173.55 29.284374 172.9875 28.846874Q172.425 28.39375 171.40938 28.39375Q170.19063 28.39375 169.675 28.8Q169.15938 29.190624 169.15938 29.721874Q169.15938 30.065624 169.37813 30.346874Q169.58125 30.628124 170.05 30.815624Q170.31563 30.909374 171.59688 31.253124Q173.47188 31.753124 174.20625 32.08125Q174.94063 32.39375 175.3625 33.003124Q175.78438 33.596874 175.78438 34.503124Q175.78438 35.378124 175.26875 36.159374Q174.75313 36.940624 173.78438 37.3625Q172.81563 37.784374 171.59688 37.784374Q169.58125 37.784374 168.51875 36.940624Q167.45625 36.096874 167.15938 34.45625ZM177.87813 25.253124L177.87813 23.2375L179.64375 23.2375L179.64375 25.253124L177.87813 25.253124ZM177.87813 37.55L177.87813 27.175L179.64375 27.175L179.64375 37.55L177.87813 37.55ZM188.59688 37.55L188.59688 36.2375Q187.6125 37.784374 185.69063 37.784374Q184.45625 37.784374 183.40938 37.096874Q182.37813 36.409374 181.8 35.190624Q181.2375 33.971874 181.2375 32.378124Q181.2375 30.815624 181.75313 29.55Q182.26875 28.284374 183.3 27.6125Q184.34688 26.940624 185.6125 26.940624Q186.55 26.940624 187.28438 27.346874Q188.01875 27.7375 188.4875 28.3625L188.4875 23.2375L190.22188 23.2375L190.22188 37.55L188.59688 37.55ZM183.03438 32.378124Q183.03438 34.3625 183.87813 35.346874Q184.72188 36.33125 185.8625 36.33125Q187.01875 36.33125 187.81563 35.39375Q188.62813 34.45625 188.62813 32.51875Q188.62813 30.39375 187.8 29.39375Q186.9875 28.39375 185.78438 28.39375Q184.6125 28.39375 183.81563 29.3625Q183.03438 30.315624 183.03438 32.378124ZM199.97188 34.20625L201.78438 34.440624Q201.3625 36.01875 200.19063 36.909374Q199.03438 37.784374 197.22188 37.784374Q194.95625 37.784374 193.6125 36.39375Q192.28438 34.9875 192.28438 32.45625Q192.28438 29.83125 193.62813 28.39375Q194.97188 26.940624 197.12813 26.940624Q199.20625 26.940624 200.51875 28.3625Q201.84688 29.76875 201.84688 32.346874Q201.84688 32.503124 201.83125 32.815624L194.09688 32.815624Q194.19063 34.51875 195.06563 35.425Q195.94063 36.33125 197.2375 36.33125Q198.20625 36.33125 198.87813 35.83125Q199.56563 35.315624 199.97188 34.20625ZM194.19063 31.3625L199.9875 31.3625Q199.87813 30.065624 199.33125 29.409374Q198.4875 28.39375 197.14375 28.39375Q195.94063 28.39375 195.1125 29.20625Q194.28438 30.003124 194.19063 31.3625ZM203.8625 37.55L203.8625 27.175L205.45625 27.175L205.45625 28.659374Q206.59688 26.940624 208.75313 26.940624Q209.69063 26.940624 210.47188 27.284374Q211.26875 27.6125 211.65938 28.159374Q212.05 28.70625 212.20625 29.45625Q212.3 29.95625 212.3 31.175L212.3 37.55L210.53438 37.55L210.53438 31.2375Q210.53438 30.159374 210.33125 29.628124Q210.12813 29.096874 209.59688 28.784374Q209.08125 28.471874 208.37813 28.471874Q207.25313 28.471874 206.44063 29.190624Q205.62813 29.89375 205.62813 31.878124L205.62813 37.55L203.8625 37.55ZM212.94063 37.55L212.94063 36.128124L219.55 28.55Q218.425 28.596874 217.56563 28.596874L213.33125 28.596874L213.33125 27.175L221.81563 27.175L221.81563 28.346874L216.19063 34.925L215.1125 36.128124Q216.28438 36.034374 217.33125 36.034374L222.12813 36.034374L222.12813 37.55L212.94063 37.55ZM229.64375 36.26875Q228.65938 37.096874 227.75313 37.440624Q226.84688 37.784374 225.81563 37.784374Q224.1125 37.784374 223.19063 36.95625Q222.26875 36.1125 222.26875 34.815624Q222.26875 34.05 222.6125 33.425Q222.97188 32.8 223.53438 32.425Q224.09688 32.034374 224.8 31.83125Q225.31563 31.70625 226.3625 31.565624Q228.4875 31.315624 229.4875 30.971874Q229.50313 30.6125 229.50313 30.503124Q229.50313 29.440624 229.00313 28.9875Q228.33125 28.39375 227.00313 28.39375Q225.75313 28.39375 225.15938 28.83125Q224.58125 29.26875 224.3 30.378124L222.58125 30.14375Q222.81563 29.034374 223.34688 28.3625Q223.87813 27.675 224.89375 27.315624Q225.90938 26.940624 227.25313 26.940624Q228.58125 26.940624 229.40938 27.253124Q230.2375 27.565624 230.62813 28.05Q231.01875 28.51875 231.175 29.2375Q231.26875 29.690624 231.26875 30.8625L231.26875 33.20625Q231.26875 35.659374 231.37813 36.315624Q231.4875 36.95625 231.83125 37.55L229.9875 37.55Q229.72188 37.003124 229.64375 36.26875ZM229.4875 32.346874Q228.53438 32.7375 226.6125 33.003124Q225.53438 33.159374 225.08125 33.3625Q224.64375 33.55 224.39375 33.925Q224.14375 34.3 224.14375 34.76875Q224.14375 35.471874 224.675 35.940624Q225.20625 36.409374 226.2375 36.409374Q227.25313 36.409374 228.03438 35.971874Q228.83125 35.51875 229.20625 34.753124Q229.4875 34.14375 229.4875 32.9875L229.4875 32.346874ZM246.97188 34.20625L248.78438 34.440624Q248.3625 36.01875 247.19063 36.909374Q246.03438 37.784374 244.22188 37.784374Q241.95625 37.784374 240.6125 36.39375Q239.28438 34.9875 239.28438 32.45625Q239.28438 29.83125 240.62813 28.39375Q241.97188 26.940624 244.12813 26.940624Q246.20625 26.940624 247.51875 28.3625Q248.84688 29.76875 248.84688 32.346874Q248.84688 32.503124 248.83125 32.815624L241.09688 32.815624Q241.19063 34.51875 242.06563 35.425Q242.94063 36.33125 244.2375 36.33125Q245.20625 36.33125 245.87813 35.83125Q246.56563 35.315624 246.97188 34.20625ZM241.19063 31.3625L246.9875 31.3625Q246.87813 30.065624 246.33125 29.409374Q245.4875 28.39375 244.14375 28.39375Q242.94063 28.39375 242.1125 29.20625Q241.28438 30.003124 241.19063 31.3625ZM245.25313 25.89375L243.83125 25.89375L241.58125 23.159374L243.925 23.159374L245.25313 25.89375ZM256.8781 25.253124L256.8781 23.2375L258.64374 23.2375L258.64374 25.253124L256.8781 25.253124ZM256.8781 37.55L256.8781 27.175L258.64374 27.175L258.64374 37.55L256.8781 37.55ZM260.8625 37.55L260.8625 27.175L262.45624 27.175L262.45624 28.659374Q263.59686 26.940624 265.7531 26.940624Q266.6906 26.940624 267.47186 27.284374Q268.26874 27.6125 268.65936 28.159374Q269.05 28.70625 269.20624 29.45625Q269.3 29.95625 269.3 31.175L269.3 37.55L267.53436 37.55L267.53436 31.2375Q267.53436 30.159374 267.33124 29.628124Q267.1281 29.096874 266.59686 28.784374Q266.08124 28.471874 265.3781 28.471874Q264.2531 28.471874 263.4406 29.190624Q262.6281 29.89375 262.6281 31.878124L262.6281 37.55L260.8625 37.55ZM277.1281 37.55L277.1281 23.2375L287.4875 23.2375L287.4875 24.925L279.03436 24.925L279.03436 29.3L286.9406 29.3L286.9406 30.9875L279.03436 30.9875L279.03436 35.8625L287.8156 35.8625L287.8156 37.55L277.1281 37.55ZM296.65936 37.55L296.65936 36.01875Q295.45624 37.784374 293.3781 37.784374Q292.45624 37.784374 291.65936 37.440624Q290.8625 37.08125 290.47186 36.55Q290.09686 36.01875 289.9406 35.2375Q289.83124 34.721874 289.83124 33.596874L289.83124 27.175L291.58124 27.175L291.58124 32.925Q291.58124 34.3 291.6906 34.784374Q291.8625 35.471874 292.39374 35.878124Q292.9406 36.26875 293.72186 36.26875Q294.51874 36.26875 295.20624 35.8625Q295.90936 35.45625 296.1906 34.76875Q296.4875 34.065624 296.4875 32.7375L296.4875 27.175L298.2375 27.175L298.2375 37.55L296.65936 37.55ZM299.84686 37.55L299.84686 27.175L301.425 27.175L301.425 28.753124Q302.03436 27.64375 302.55 27.3Q303.0656 26.940624 303.675 26.940624Q304.5656 26.940624 305.4875 27.503124L304.8781 29.14375Q304.2375 28.753124 303.59686 28.753124Q303.01874 28.753124 302.55 29.1125Q302.09686 29.45625 301.89374 30.065624Q301.6125 31.003124 301.6125 32.1125L301.6125 37.55L299.84686 37.55ZM306.22186 32.3625Q306.22186 29.4875 307.8156 28.096874Q309.15936 26.940624 311.08124 26.940624Q313.22186 26.940624 314.5656 28.346874Q315.925 29.753124 315.925 32.221874Q315.925 34.221874 315.33124 35.378124Q314.7375 36.51875 313.58124 37.159374Q312.4406 37.784374 311.08124 37.784374Q308.89374 37.784374 307.55 36.39375Q306.22186 34.9875 306.22186 32.3625ZM308.01874 32.3625Q308.01874 34.3625 308.8781 35.346874Q309.7531 36.33125 311.08124 36.33125Q312.39374 36.33125 313.2531 35.346874Q314.1281 34.346874 314.1281 32.3Q314.1281 30.378124 313.2531 29.39375Q312.3781 28.39375 311.08124 28.39375Q309.7531 28.39375 308.8781 29.39375Q308.01874 30.378124 308.01874 32.3625ZM317.8625 41.51875L317.8625 27.175L319.47186 27.175L319.47186 28.51875Q320.03436 27.7375 320.7375 27.346874Q321.45624 26.940624 322.47186 26.940624Q323.8 26.940624 324.8156 27.628124Q325.83124 28.315624 326.34686 29.565624Q326.8781 30.8 326.8781 32.284374Q326.8781 33.878124 326.3 35.159374Q325.7375 36.425 324.64374 37.1125Q323.55 37.784374 322.34686 37.784374Q321.47186 37.784374 320.76874 37.409374Q320.08124 37.034374 319.6281 36.471874L319.6281 41.51875L317.8625 41.51875ZM319.45624 32.425Q319.45624 34.425 320.26874 35.378124Q321.08124 36.33125 322.2375 36.33125Q323.40936 36.33125 324.2375 35.346874Q325.08124 34.3625 325.08124 32.26875Q325.08124 30.3 324.2531 29.315624Q323.4406 28.315624 322.3156 28.315624Q321.1906 28.315624 320.3156 29.378124Q319.45624 30.425 319.45624 32.425ZM335.64374 36.26875Q334.65936 37.096874 333.7531 37.440624Q332.84686 37.784374 331.8156 37.784374Q330.1125 37.784374 329.1906 36.95625Q328.26874 36.1125 328.26874 34.815624Q328.26874 34.05 328.6125 33.425Q328.97186 32.8 329.53436 32.425Q330.09686 32.034374 330.8 31.83125Q331.3156 31.70625 332.3625 31.565624Q334.4875 31.315624 335.4875 30.971874Q335.5031 30.6125 335.5031 30.503124Q335.5031 29.440624 335.0031 28.9875Q334.33124 28.39375 333.0031 28.39375Q331.7531 28.39375 331.15936 28.83125Q330.58124 29.26875 330.3 30.378124L328.58124 30.14375Q328.8156 29.034374 329.34686 28.3625Q329.8781 27.675 330.89374 27.315624Q331.90936 26.940624 333.2531 26.940624Q334.58124 26.940624 335.40936 27.253124Q336.2375 27.565624 336.6281 28.05Q337.01874 28.51875 337.175 29.2375Q337.26874 29.690624 337.26874 30.8625L337.26874 33.20625Q337.26874 35.659374 337.3781 36.315624Q337.4875 36.95625 337.83124 37.55L335.9875 37.55Q335.72186 37.003124 335.64374 36.26875ZM335.4875 32.346874Q334.53436 32.7375 332.6125 33.003124Q331.53436 33.159374 331.08124 33.3625Q330.64374 33.55 330.39374 33.925Q330.14374 34.3 330.14374 34.76875Q330.14374 35.471874 330.675 35.940624Q331.20624 36.409374 332.2375 36.409374Q333.2531 36.409374 334.03436 35.971874Q334.83124 35.51875 335.20624 34.753124Q335.4875 34.14375 335.4875 32.9875L335.4875 32.346874ZM343.15936 34.01875Q343.14374 33.675 343.14374 33.503124Q343.14374 32.45625 343.4406 31.70625Q343.65936 31.14375 344.14374 30.565624Q344.4875 30.14375 345.39374 29.346874Q346.3156 28.534374 346.58124 28.065624Q346.8625 27.58125 346.8625 27.01875Q346.8625 25.9875 346.05 25.221874Q345.2531 24.440624 344.09686 24.440624Q342.97186 24.440624 342.22186 25.14375Q341.47186 25.846874 341.2375 27.33125L339.425 27.1125Q339.675 25.1125 340.8781 24.05Q342.08124 22.9875 344.0656 22.9875Q346.175 22.9875 347.425 24.128124Q348.675 25.26875 348.675 26.89375Q348.675 27.83125 348.22186 28.628124Q347.78436 29.409374 346.5031 30.55Q345.64374 31.315624 345.3781 31.675Q345.1281 32.034374 344.9875 32.503124Q344.8625 32.971874 344.84686 34.01875L343.15936 34.01875ZM343.05 37.55L343.05 35.55L345.05 35.55L345.05 37.55L343.05 37.55Z" fill-rule="nonzero"/></svg>