<svg version="1.1" viewBox="0.0 0.0 600.0 371.0" fill="none" stroke="none" stroke-linecap="square" stroke-miterlimit="10" width="600" height="371" xmlns:xlink="http://www.w3.org/1999/xlink" xmlns="http://www.w3.org/2000/svg"><path fill="#ffffff" d="M0 0L600.0 0L600.0 371.0L0 371.0L0 0Z" fill-rule="nonzero"/><path fill="#4285f4" d="M300.0 54.916668C303.99512 54.916668 307.9886 55.0776 311.97073 55.39907L300.0 203.68333Z" fill-rule="nonzero"/><path fill="#ea4335" d="M311.97073 55.39907C371.40305 60.19694 422.22906 100.016594 441.1106 156.57368C459.99213 213.13078 443.28098 275.49765 398.65054 315.03677L300.0 203.68333Z" fill-rule="nonzero"/><path fill="#fbbc04" d="M398.65054 315.03677C349.08356 358.9493 276.45847 364.8122 220.4893 329.41943C164.52013 294.02667 138.68314 225.90015 157.10692 162.29385C175.53072 98.68755 233.77919 54.916668 300.0 54.916668L300.0 203.68333Z" fill-rule="nonzero"/><path fill="#1a1a1a" d="M19.440624 249.29906L19.440624 240.7053L21.159374 240.7053L23.190624 246.78343Q23.471874 247.6428 23.596874 248.06468Q23.7375 247.59593 24.05 246.68968L26.1125 240.7053L27.64375 240.7053L27.64375 249.29906L26.55 249.29906L26.55 242.11156L24.05 249.29906L23.01875 249.29906L20.534374 241.98656L20.534374 249.29906L19.440624 249.29906ZM32.409374 248.53343Q31.815624 249.03343 31.26875 249.23656Q30.7375 249.43968 30.1125 249.43968Q29.08125 249.43968 28.534374 248.93968Q27.9875 248.43968 27.9875 247.65843Q27.9875 247.2053 28.190624 246.8303Q28.39375 246.43968 28.7375 246.22093Q29.08125 245.98656 29.503124 245.87718Q29.8 245.78343 30.440624 245.7053Q31.70625 245.56468 32.315624 245.34593Q32.315624 245.12718 32.315624 245.0803Q32.315624 244.42406 32.01875 244.15843Q31.6125 243.81468 30.815624 243.81468Q30.08125 243.81468 29.721874 244.0803Q29.3625 244.3303 29.190624 244.98656L28.159374 244.84593Q28.3 244.18968 28.628124 243.78343Q28.95625 243.37718 29.565624 243.15843Q30.175 242.93968 30.971874 242.93968Q31.76875 242.93968 32.26875 243.12718Q32.76875 243.31468 33.003124 243.59593Q33.2375 243.87718 33.33125 244.31468Q33.378124 244.5803 33.378124 245.28343L33.378124 246.68968Q33.378124 248.15843 33.440624 248.54906Q33.51875 248.93968 33.721874 249.29906L32.6125 249.29906Q32.45625 248.97093 32.409374 248.53343ZM32.315624 246.17406Q31.7375 246.40843 30.596874 246.5803Q29.940624 246.67406 29.675 246.79906Q29.409374 246.90843 29.253124 247.12718Q29.1125 247.34593 29.1125 247.62718Q29.1125 248.04906 29.425 248.3303Q29.753124 248.61156 30.3625 248.61156Q30.971874 248.61156 31.440624 248.34593Q31.925 248.0803 32.14375 247.61156Q32.315624 247.25218 32.315624 246.56468L32.315624 246.17406ZM34.925 247.43968L35.95625 247.28343Q36.05 247.90843 36.440624 248.23656Q36.846874 248.56468 37.58125 248.56468Q38.3 248.56468 38.64375 248.28343Q39.003124 247.98656 39.003124 247.5803Q39.003124 247.22093 38.690624 247.0178Q38.471874 246.87718 37.6125 246.65843Q36.45625 246.36156 36.003124 246.15843Q35.565624 245.93968 35.33125 245.56468Q35.096874 245.18968 35.096874 244.72093Q35.096874 244.31468 35.284374 243.9553Q35.471874 243.59593 35.8 243.36156Q36.05 243.18968 36.471874 243.06468Q36.89375 242.93968 37.39375 242.93968Q38.1125 242.93968 38.659374 243.15843Q39.221874 243.36156 39.4875 243.72093Q39.753124 244.0803 39.846874 244.67406L38.815624 244.81468Q38.753124 244.34593 38.409374 244.0803Q38.08125 243.79906 37.45625 243.79906Q36.7375 243.79906 36.425 244.04906Q36.1125 244.28343 36.1125 244.61156Q36.1125 244.81468 36.2375 244.97093Q36.378124 245.1428 36.64375 245.25218Q36.8 245.31468 37.58125 245.5178Q38.70625 245.8303 39.14375 246.0178Q39.58125 246.2053 39.83125 246.56468Q40.08125 246.92406 40.08125 247.47093Q40.08125 248.00218 39.76875 248.47093Q39.471874 248.92406 38.89375 249.18968Q38.315624 249.43968 37.58125 249.43968Q36.3625 249.43968 35.721874 248.93968Q35.096874 248.42406 34.925 247.43968ZM46.409374 247.0178L47.440624 247.15843Q47.26875 248.22093 46.565624 248.8303Q45.8625 249.43968 44.846874 249.43968Q43.565624 249.43968 42.784374 248.61156Q42.01875 247.7678 42.01875 246.2053Q42.01875 245.2053 42.346874 244.4553Q42.690624 243.68968 43.3625 243.31468Q44.05 242.93968 44.8625 242.93968Q45.8625 242.93968 46.503124 243.4553Q47.159374 243.9553 47.346874 244.90843L46.315624 245.06468Q46.175 244.43968 45.8 244.12718Q45.425 243.79906 44.89375 243.79906Q44.096874 243.79906 43.596874 244.37718Q43.096874 244.93968 43.096874 246.17406Q43.096874 247.43968 43.58125 248.00218Q44.065624 248.56468 44.83125 248.56468Q45.45625 248.56468 45.8625 248.18968Q46.284374 247.81468 46.409374 247.0178ZM48.346874 249.29906L48.346874 240.7053L49.39375 240.7053L49.39375 243.78343Q50.128124 242.93968 51.253124 242.93968Q51.95625 242.93968 52.45625 243.22093Q52.971874 243.48656 53.190624 243.97093Q53.409374 244.43968 53.409374 245.36156L53.409374 249.29906L52.3625 249.29906L52.3625 245.36156Q52.3625 244.56468 52.01875 244.2053Q51.675 243.84593 51.05 243.84593Q50.58125 243.84593 50.159374 244.09593Q49.753124 244.3303 49.565624 244.75218Q49.39375 245.15843 49.39375 245.8928L49.39375 249.29906L48.346874 249.29906ZM55.346874 241.92406L55.346874 240.7053L56.409374 240.7053L56.409374 241.92406L55.346874 241.92406ZM55.346874 249.29906L55.346874 243.0803L56.409374 243.0803L56.409374 249.29906L55.346874 249.29906ZM57.95625 246.18968Q57.95625 244.4553 58.909374 243.62718Q59.70625 242.93968 60.8625 242.93968Q62.14375 242.93968 62.95625 243.78343Q63.784374 244.61156 63.784374 246.09593Q63.784374 247.29906 63.425 247.98656Q63.065624 248.67406 62.3625 249.06468Q61.675 249.43968 60.8625 249.43968Q59.565624 249.43968 58.753124 248.61156Q57.95625 247.7678 57.95625 246.18968ZM59.034374 246.18968Q59.034374 247.37718 59.55 247.97093Q60.08125 248.56468 60.8625 248.56468Q61.659374 248.56468 62.175 247.97093Q62.690624 247.37718 62.690624 246.15843Q62.690624 245.00218 62.159374 244.40843Q61.64375 243.81468 60.8625 243.81468Q60.08125 243.81468 59.55 244.40843Q59.034374 244.98656 59.034374 246.18968Z" fill-rule="nonzero"/><path fill="#9e9e9e" d="M24.51875 259.81467L23.471874 259.8928Q23.33125 259.2678 23.08125 258.98654Q22.64375 258.53342 22.01875 258.53342Q21.51875 258.53342 21.128124 258.81467Q20.64375 259.18967 20.346874 259.8928Q20.065624 260.5803 20.05 261.86154Q20.425 261.28342 20.971874 261.00217Q21.534374 260.72092 22.14375 260.72092Q23.190624 260.72092 23.925 261.50217Q24.675 262.28342 24.675 263.50217Q24.675 264.31467 24.315624 265.0178Q23.971874 265.7053 23.3625 266.0803Q22.753124 266.43967 21.9875 266.43967Q20.659374 266.43967 19.83125 265.47092Q19.003124 264.50217 19.003124 262.28342Q19.003124 259.78342 19.925 258.65842Q20.721874 257.67404 22.08125 257.67404Q23.096874 257.67404 23.7375 258.25217Q24.39375 258.81467 24.51875 259.81467ZM20.221874 263.5178Q20.221874 264.06467 20.440624 264.56467Q20.675 265.04904 21.08125 265.31467Q21.503124 265.5803 21.971874 265.5803Q22.628124 265.5803 23.1125 265.04904Q23.596874 264.50217 23.596874 263.5803Q23.596874 262.68967 23.1125 262.17404Q22.64375 261.65842 21.925 261.65842Q21.20625 261.65842 20.70625 262.17404Q20.221874 262.68967 20.221874 263.5178ZM30.01875 266.29904L28.971874 266.29904L28.971874 259.5803Q28.58125 259.93967 27.95625 260.31467Q27.346874 260.67404 26.8625 260.84592L26.8625 259.8303Q27.7375 259.40842 28.39375 258.8303Q29.065624 258.23654 29.346874 257.67404L30.01875 257.67404L30.01875 266.29904ZM33.6125 266.29904L33.6125 265.09592L34.815624 265.09592L34.815624 266.29904Q34.815624 266.9553 34.58125 267.36154Q34.346874 267.78342 33.846874 268.00217L33.55 267.54904Q33.878124 267.40842 34.034374 267.11154Q34.190624 266.8303 34.221874 266.29904L33.6125 266.29904ZM36.05 264.04904L37.159374 263.9553Q37.284374 264.7678 37.721874 265.17404Q38.175 265.5803 38.815624 265.5803Q39.565624 265.5803 40.096874 265.00217Q40.628124 264.42404 40.628124 263.48654Q40.628124 262.5803 40.1125 262.06467Q39.6125 261.53342 38.784374 261.53342Q38.284374 261.53342 37.8625 261.7678Q37.45625 262.00217 37.221874 262.36154L36.2375 262.23654L37.065624 257.8303L41.346874 257.8303L41.346874 258.8303L37.909374 258.8303L37.45625 261.1428Q38.221874 260.59592 39.065624 260.59592Q40.190624 260.59592 40.95625 261.37717Q41.7375 262.15842 41.7375 263.3928Q41.7375 264.54904 41.065624 265.40842Q40.2375 266.43967 38.815624 266.43967Q37.64375 266.43967 36.89375 265.78342Q36.159374 265.12717 36.05 264.04904ZM43.253124 259.7678Q43.253124 258.84592 43.70625 258.2053Q44.175 257.56467 45.05 257.56467Q45.8625 257.56467 46.39375 258.1428Q46.925 258.72092 46.925 259.8303Q46.925 260.92404 46.378124 261.5178Q45.846874 262.09592 45.065624 262.09592Q44.284374 262.09592 43.76875 261.5178Q43.253124 260.93967 43.253124 259.7678ZM45.08125 258.28342Q44.690624 258.28342 44.425 258.62717Q44.175 258.97092 44.175 259.87717Q44.175 260.7053 44.425 261.04904Q44.690624 261.37717 45.08125 261.37717Q45.4875 261.37717 45.7375 261.03342Q46.003124 260.68967 46.003124 259.79904Q46.003124 258.9553 45.7375 258.62717Q45.471874 258.28342 45.08125 258.28342ZM45.08125 266.61154L49.784374 257.56467L50.64375 257.56467L45.95625 266.61154L45.08125 266.61154ZM48.8 264.28342Q48.8 263.36154 49.253124 262.72092Q49.721874 262.0803 50.6125 262.0803Q51.425 262.0803 51.95625 262.65842Q52.4875 263.22092 52.4875 264.34592Q52.4875 265.43967 51.940624 266.03342Q51.409374 266.61154 50.6125 266.61154Q49.846874 266.61154 49.315624 266.03342Q48.8 265.4553 48.8 264.28342ZM50.64375 262.79904Q50.2375 262.79904 49.971874 263.1428Q49.721874 263.48654 49.721874 264.3928Q49.721874 265.2053 49.9875 265.54904Q50.253124 265.8928 50.64375 265.8928Q51.034374 265.8928 51.3 265.54904Q51.565624 265.2053 51.565624 264.29904Q51.565624 263.47092 51.3 263.1428Q51.034374 262.79904 50.64375 262.79904Z" fill-rule="nonzero"/><path stroke="#757575" stroke-width="1.0" stroke-linecap="butt" d="M18.55 253.79906L145.23334 253.79906L167.85571 253.79906" fill-rule="nonzero"/><path fill="#9e9e9e" d="M169.85571 253.79906C169.85571 252.69449 168.96028 251.79906 167.85571 251.79906C166.75114 251.79906 165.85571 252.69449 165.85571 253.79906C165.85571 254.90363 166.75114 255.79906 167.85571 255.79906C168.96028 255.79906 169.85571 254.90363 169.85571 253.79906" fill-rule="nonzero"/><path fill="#1a1a1a" d="M502.3719 65.916664L502.3719 57.322914L505.6219 57.322914Q506.46564 57.322914 506.91876 57.40104Q507.5594 57.510414 507.98126 57.80729Q508.41876 58.104164 508.66876 58.635414Q508.9344 59.166664 508.9344 59.80729Q508.9344 60.90104 508.23126 61.666664Q507.54376 62.416664 505.71564 62.416664L503.5125 62.416664L503.5125 65.916664L502.3719 65.916664ZM503.5125 61.416664L505.73126 61.416664Q506.84064 61.416664 507.29376 61.010414Q507.7625 60.58854 507.7625 59.83854Q507.7625 59.30729 507.48126 58.93229Q507.21564 58.541664 506.77814 58.416664Q506.48126 58.33854 505.71564 58.33854L503.5125 58.33854L503.5125 61.416664ZM510.23126 65.916664L510.23126 59.697914L511.1844 59.697914L511.1844 60.635414Q511.54376 59.979164 511.84064 59.77604Q512.15314 59.55729 512.52814 59.55729Q513.0594 59.55729 513.60626 59.885414L513.2469 60.86979Q512.85626 60.635414 512.48126 60.635414Q512.1219 60.635414 511.84064 60.854164Q511.575 61.05729 511.46564 61.43229Q511.27814 61.99479 511.27814 62.65104L511.27814 65.916664L510.23126 65.916664ZM518.4969 63.916664L519.59064 64.041664Q519.34064 64.99479 518.6375 65.52604Q517.9344 66.05729 516.85626 66.05729Q515.4969 66.05729 514.6844 65.21354Q513.8875 64.36979 513.8875 62.854164Q513.8875 61.291664 514.7 60.43229Q515.5125 59.55729 516.79376 59.55729Q518.04376 59.55729 518.825 60.40104Q519.6219 61.24479 519.6219 62.791664Q519.6219 62.885414 519.6219 63.072914L514.98126 63.072914Q515.04376 64.104164 515.5594 64.65104Q516.075 65.18229 516.85626 65.18229Q517.4344 65.18229 517.84064 64.885414Q518.2625 64.572914 518.4969 63.916664ZM515.04376 62.21354L518.5125 62.21354Q518.45 61.416664 518.1219 61.02604Q517.60626 60.416664 516.8094 60.416664Q516.075 60.416664 515.575 60.90104Q515.09064 61.385414 515.04376 62.21354ZM521.4969 65.916664L521.4969 60.510414L520.5594 60.510414L520.5594 59.697914L521.4969 59.697914L521.4969 59.02604Q521.4969 58.40104 521.60626 58.104164Q521.7625 57.68229 522.1375 57.43229Q522.52814 57.18229 523.21564 57.18229Q523.66876 57.18229 524.2 57.291664L524.04376 58.197914Q523.71564 58.15104 523.41876 58.15104Q522.9344 58.15104 522.73126 58.354164Q522.54376 58.55729 522.54376 59.11979L522.54376 59.697914L523.7625 59.697914L523.7625 60.510414L522.54376 60.510414L522.54376 65.916664L521.4969 65.916664ZM528.4969 63.916664L529.59064 64.041664Q529.34064 64.99479 528.6375 65.52604Q527.9344 66.05729 526.85626 66.05729Q525.4969 66.05729 524.6844 65.21354Q523.8875 64.36979 523.8875 62.854164Q523.8875 61.291664 524.7 60.43229Q525.5125 59.55729 526.79376 59.55729Q528.04376 59.55729 528.825 60.40104Q529.6219 61.24479 529.6219 62.791664Q529.6219 62.885414 529.6219 63.072914L524.98126 63.072914Q525.04376 64.104164 525.5594 64.65104Q526.075 65.18229 526.85626 65.18229Q527.4344 65.18229 527.84064 64.885414Q528.2625 64.572914 528.4969 63.916664ZM525.04376 62.21354L528.5125 62.21354Q528.45 61.416664 528.1219 61.02604Q527.60626 60.416664 526.8094 60.416664Q526.075 60.416664 525.575 60.90104Q525.09064 61.385414 525.04376 62.21354ZM531.23126 65.916664L531.23126 59.697914L532.1844 59.697914L532.1844 60.635414Q532.54376 59.979164 532.84064 59.77604Q533.15314 59.55729 533.52814 59.55729Q534.0594 59.55729 534.60626 59.885414L534.2469 60.86979Q533.85626 60.635414 533.48126 60.635414Q533.1219 60.635414 532.84064 60.854164Q532.575 61.05729 532.46564 61.43229Q532.27814 61.99479 532.27814 62.65104L532.27814 65.916664L531.23126 65.916664ZM535.2469 58.541664L535.2469 57.322914L536.3094 57.322914L536.3094 58.541664L535.2469 58.541664ZM535.2469 65.916664L535.2469 59.697914L536.3094 59.697914L536.3094 65.916664L535.2469 65.916664ZM537.825 64.05729L538.85626 63.90104Q538.95 64.52604 539.34064 64.854164Q539.7469 65.18229 540.48126 65.18229Q541.2 65.18229 541.54376 64.90104Q541.90314 64.604164 541.90314 64.197914Q541.90314 63.83854 541.59064 63.635414Q541.3719 63.49479 540.5125 63.27604Q539.35626 62.979164 538.90314 62.77604Q538.46564 62.55729 538.23126 62.18229Q537.9969 61.80729 537.9969 61.33854Q537.9969 60.93229 538.1844 60.572914Q538.3719 60.21354 538.7 59.979164Q538.95 59.80729 539.3719 59.68229Q539.79376 59.55729 540.29376 59.55729Q541.0125 59.55729 541.5594 59.77604Q542.1219 59.979164 542.3875 60.33854Q542.65314 60.697914 542.7469 61.291664L541.71564 61.43229Q541.65314 60.96354 541.3094 60.697914Q540.98126 60.416664 540.35626 60.416664Q539.6375 60.416664 539.325 60.666664Q539.0125 60.90104 539.0125 61.229164Q539.0125 61.43229 539.1375 61.58854Q539.27814 61.760414 539.54376 61.86979Q539.7 61.93229 540.48126 62.135414Q541.60626 62.447914 542.04376 62.635414Q542.48126 62.822914 542.73126 63.18229Q542.98126 63.541664 542.98126 64.08854Q542.98126 64.61979 542.66876 65.08854Q542.3719 65.541664 541.79376 65.80729Q541.21564 66.05729 540.48126 66.05729Q539.2625 66.05729 538.6219 65.55729Q537.9969 65.041664 537.825 64.05729ZM549.3094 63.635414L550.34064 63.77604Q550.16876 64.83854 549.46564 65.447914Q548.7625 66.05729 547.7469 66.05729Q546.46564 66.05729 545.6844 65.229164Q544.91876 64.385414 544.91876 62.822914Q544.91876 61.822914 545.2469 61.072914Q545.59064 60.30729 546.2625 59.93229Q546.95 59.55729 547.7625 59.55729Q548.7625 59.55729 549.40314 60.072914Q550.0594 60.572914 550.2469 61.52604L549.21564 61.68229Q549.075 61.05729 548.7 60.74479Q548.325 60.416664 547.79376 60.416664Q546.9969 60.416664 546.4969 60.99479Q545.9969 61.55729 545.9969 62.791664Q545.9969 64.05729 546.48126 64.61979Q546.96564 65.18229 547.73126 65.18229Q548.35626 65.18229 548.7625 64.80729Q549.1844 64.43229 549.3094 63.635414ZM550.85626 62.80729Q550.85626 61.072914 551.8094 60.24479Q552.60626 59.55729 553.7625 59.55729Q555.04376 59.55729 555.85626 60.40104Q556.6844 61.229164 556.6844 62.71354Q556.6844 63.916664 556.325 64.604164Q555.96564 65.291664 555.2625 65.68229Q554.575 66.05729 553.7625 66.05729Q552.46564 66.05729 551.65314 65.229164Q550.85626 64.385414 550.85626 62.80729ZM551.9344 62.80729Q551.9344 63.99479 552.45 64.58854Q552.98126 65.18229 553.7625 65.18229Q554.5594 65.18229 555.075 64.58854Q555.59064 63.99479 555.59064 62.77604Q555.59064 61.61979 555.0594 61.02604Q554.54376 60.43229 553.7625 60.43229Q552.98126 60.43229 552.45 61.02604Q551.9344 61.604164 551.9344 62.80729ZM561.2469 65.916664L561.2469 59.697914L562.1844 59.697914L562.1844 60.572914Q562.8719 59.55729 564.16876 59.55729Q564.73126 59.55729 565.2 59.760414Q565.6844 59.96354 565.91876 60.291664Q566.15314 60.61979 566.2469 61.05729Q566.29376 61.354164 566.29376 62.08854L566.29376 65.916664L565.2469 65.916664L565.2469 62.135414Q565.2469 61.479164 565.1219 61.166664Q564.9969 60.854164 564.6844 60.666664Q564.3719 60.46354 563.95 60.46354Q563.27814 60.46354 562.77814 60.90104Q562.29376 61.322914 562.29376 62.510414L562.29376 65.916664L561.2469 65.916664ZM567.85626 62.80729Q567.85626 61.072914 568.8094 60.24479Q569.60626 59.55729 570.7625 59.55729Q572.04376 59.55729 572.85626 60.40104Q573.6844 61.229164 573.6844 62.71354Q573.6844 63.916664 573.325 64.604164Q572.96564 65.291664 572.2625 65.68229Q571.575 66.05729 570.7625 66.05729Q569.46564 66.05729 568.65314 65.229164Q567.85626 64.385414 567.85626 62.80729ZM568.9344 62.80729Q568.9344 63.99479 569.45 64.58854Q569.98126 65.18229 570.7625 65.18229Q571.5594 65.18229 572.075 64.58854Q572.59064 63.99479 572.59064 62.77604Q572.59064 61.61979 572.0594 61.02604Q571.54376 60.43229 570.7625 60.43229Q569.98126 60.43229 569.45 61.02604Q568.9344 61.604164 568.9344 62.80729ZM575.2469 65.916664L575.2469 59.697914L576.1844 59.697914L576.1844 60.572914Q576.8719 59.55729 578.16876 59.55729Q578.73126 59.55729 579.2 59.760414Q579.6844 59.96354 579.91876 60.291664Q580.15314 60.61979 580.2469 61.05729Q580.29376 61.354164 580.29376 62.08854L580.29376 65.916664L579.2469 65.916664L579.2469 62.135414Q579.2469 61.479164 579.1219 61.166664Q578.9969 60.854164 578.6844 60.666664Q578.3719 60.46354 577.95 60.46354Q577.27814 60.46354 576.77814 60.90104Q576.29376 61.322914 576.29376 62.510414L576.29376 65.916664L575.2469 65.916664Z" fill-rule="nonzero"/><path fill="#9e9e9e" d="M557.91876 82.916664L556.8719 82.916664L556.8719 76.197914Q556.48126 76.55729 555.85626 76.93229Q555.2469 77.291664 554.7625 77.46354L554.7625 76.447914Q555.6375 76.02604 556.29376 75.447914Q556.96564 74.854164 557.2469 74.291664L557.91876 74.291664L557.91876 82.916664ZM561.5125 82.916664L561.5125 81.71354L562.71564 81.71354L562.71564 82.916664Q562.71564 83.572914 562.48126 83.979164Q562.2469 84.40104 561.7469 84.61979L561.45 84.166664Q561.77814 84.02604 561.9344 83.729164Q562.09064 83.447914 562.1219 82.916664L561.5125 82.916664ZM563.95 80.65104L565.0125 80.510414Q565.1844 81.40104 565.6219 81.80729Q566.0594 82.197914 566.6844 82.197914Q567.4344 82.197914 567.95 81.68229Q568.46564 81.166664 568.46564 80.40104Q568.46564 79.68229 567.98126 79.21354Q567.5125 78.729164 566.77814 78.729164Q566.48126 78.729164 566.02814 78.854164L566.15314 77.916664Q566.2625 77.93229 566.325 77.93229Q566.9969 77.93229 567.52814 77.58854Q568.075 77.229164 568.075 76.49479Q568.075 75.916664 567.6844 75.541664Q567.29376 75.15104 566.66876 75.15104Q566.0594 75.15104 565.6375 75.541664Q565.23126 75.93229 565.1219 76.697914L564.0594 76.510414Q564.2469 75.46354 564.9344 74.885414Q565.6219 74.291664 566.6375 74.291664Q567.34064 74.291664 567.9344 74.604164Q568.52814 74.90104 568.84064 75.416664Q569.15314 75.93229 569.15314 76.52604Q569.15314 77.072914 568.85626 77.541664Q568.5594 77.99479 567.98126 78.260414Q568.73126 78.43229 569.15314 78.99479Q569.575 79.541664 569.575 80.385414Q569.575 81.510414 568.7469 82.291664Q567.9344 83.072914 566.6844 83.072914Q565.5594 83.072914 564.8094 82.40104Q564.0594 81.71354 563.95 80.65104ZM571.15314 76.385414Q571.15314 75.46354 571.60626 74.822914Q572.075 74.18229 572.95 74.18229Q573.7625 74.18229 574.29376 74.760414Q574.825 75.33854 574.825 76.447914Q574.825 77.541664 574.27814 78.135414Q573.7469 78.71354 572.96564 78.71354Q572.1844 78.71354 571.66876 78.135414Q571.15314 77.55729 571.15314 76.385414ZM572.98126 74.90104Q572.59064 74.90104 572.325 75.24479Q572.075 75.58854 572.075 76.49479Q572.075 77.322914 572.325 77.666664Q572.59064 77.99479 572.98126 77.99479Q573.3875 77.99479 573.6375 77.65104Q573.90314 77.30729 573.90314 76.416664Q573.90314 75.572914 573.6375 75.24479Q573.3719 74.90104 572.98126 74.90104ZM572.98126 83.229164L577.6844 74.18229L578.54376 74.18229L573.85626 83.229164L572.98126 83.229164ZM576.7 80.90104Q576.7 79.979164 577.15314 79.33854Q577.6219 78.697914 578.5125 78.697914Q579.325 78.697914 579.85626 79.27604Q580.3875 79.83854 580.3875 80.96354Q580.3875 82.05729 579.84064 82.65104Q579.3094 83.229164 578.5125 83.229164Q577.7469 83.229164 577.21564 82.65104Q576.7 82.072914 576.7 80.90104ZM578.54376 79.416664Q578.1375 79.416664 577.8719 79.760414Q577.6219 80.104164 577.6219 81.010414Q577.6219 81.822914 577.8875 82.166664Q578.15314 82.510414 578.54376 82.510414Q578.9344 82.510414 579.2 82.166664Q579.46564 81.822914 579.46564 80.916664Q579.46564 80.08854 579.2 79.760414Q578.9344 79.416664 578.54376 79.416664Z" fill-rule="nonzero"/><path stroke="#757575" stroke-width="1.0" stroke-linecap="butt" d="M581.45 70.416664L454.76666 70.416664L305.6907 62.469616" fill-rule="nonzero"/><path fill="#9e9e9e" d="M307.6907 62.469616C307.6907 61.365047 306.7953 60.469616 305.6907 60.469616C304.58615 60.469616 303.6907 61.365047 303.6907 62.469616C303.6907 63.57419 304.58615 64.46962 305.6907 64.46962C306.7953 64.46962 307.6907 63.57419 307.6907 62.469616" fill-rule="nonzero"/><path fill="#1a1a1a" d="M529.4344 154.42917L529.4344 145.83542L535.23126 145.83542L535.23126 146.85104L530.575 146.85104L530.575 149.5073L534.60626 149.5073L534.60626 150.52292L530.575 150.52292L530.575 154.42917L529.4344 154.42917ZM540.4969 152.42917L541.59064 152.55417Q541.34064 153.5073 540.6375 154.03854Q539.9344 154.5698 538.85626 154.5698Q537.4969 154.5698 536.6844 153.72604Q535.8875 152.8823 535.8875 151.36667Q535.8875 149.80417 536.7 148.9448Q537.5125 148.0698 538.79376 148.0698Q540.04376 148.0698 540.825 148.91354Q541.6219 149.7573 541.6219 151.30417Q541.6219 151.39792 541.6219 151.58542L536.98126 151.58542Q537.04376 152.61667 537.5594 153.16354Q538.075 153.6948 538.85626 153.6948Q539.4344 153.6948 539.84064 153.39792Q540.2625 153.08542 540.4969 152.42917ZM537.04376 150.72604L540.5125 150.72604Q540.45 149.92917 540.1219 149.53854Q539.60626 148.92917 538.8094 148.92917Q538.075 148.92917 537.575 149.41354Q537.09064 149.89792 537.04376 150.72604ZM543.2469 154.42917L543.2469 148.21042L544.1844 148.21042L544.1844 149.08542Q544.48126 148.61667 544.96564 148.35104Q545.45 148.0698 546.075 148.0698Q546.7625 148.0698 547.2 148.35104Q547.65314 148.6323 547.825 149.14792Q548.575 148.0698 549.7469 148.0698Q550.6844 148.0698 551.16876 148.58542Q551.66876 149.08542 551.66876 150.16354L551.66876 154.42917L550.6219 154.42917L550.6219 150.5073Q550.6219 149.8823 550.5125 149.60104Q550.41876 149.3198 550.15314 149.14792Q549.8875 148.97604 549.5125 148.97604Q548.85626 148.97604 548.41876 149.41354Q547.9969 149.85104 547.9969 150.8198L547.9969 154.42917L546.9344 154.42917L546.9344 150.3823Q546.9344 149.67917 546.66876 149.33542Q546.41876 148.97604 545.84064 148.97604Q545.3875 148.97604 545.0125 149.21042Q544.6375 149.4448 544.46564 149.89792Q544.29376 150.35104 544.29376 151.1948L544.29376 154.42917L543.2469 154.42917ZM554.2469 154.42917L554.2469 148.21042L555.1844 148.21042L555.1844 149.08542Q555.48126 148.61667 555.96564 148.35104Q556.45 148.0698 557.075 148.0698Q557.7625 148.0698 558.2 148.35104Q558.65314 148.6323 558.825 149.14792Q559.575 148.0698 560.7469 148.0698Q561.6844 148.0698 562.16876 148.58542Q562.66876 149.08542 562.66876 150.16354L562.66876 154.42917L561.6219 154.42917L561.6219 150.5073Q561.6219 149.8823 561.5125 149.60104Q561.41876 149.3198 561.15314 149.14792Q560.8875 148.97604 560.5125 148.97604Q559.85626 148.97604 559.41876 149.41354Q558.9969 149.85104 558.9969 150.8198L558.9969 154.42917L557.9344 154.42917L557.9344 150.3823Q557.9344 149.67917 557.66876 149.33542Q557.41876 148.97604 556.84064 148.97604Q556.3875 148.97604 556.0125 149.21042Q555.6375 149.4448 555.46564 149.89792Q555.29376 150.35104 555.29376 151.1948L555.29376 154.42917L554.2469 154.42917ZM565.2469 147.05417L565.2469 145.83542L566.3094 145.83542L566.3094 147.05417L565.2469 147.05417ZM565.2469 154.42917L565.2469 148.21042L566.3094 148.21042L566.3094 154.42917L565.2469 154.42917ZM568.2469 154.42917L568.2469 148.21042L569.1844 148.21042L569.1844 149.08542Q569.8719 148.0698 571.16876 148.0698Q571.73126 148.0698 572.2 148.27292Q572.6844 148.47604 572.91876 148.80417Q573.15314 149.1323 573.2469 149.5698Q573.29376 149.86667 573.29376 150.60104L573.29376 154.42917L572.2469 154.42917L572.2469 150.64792Q572.2469 149.99167 572.1219 149.67917Q571.9969 149.36667 571.6844 149.17917Q571.3719 148.97604 570.95 148.97604Q570.27814 148.97604 569.77814 149.41354Q569.29376 149.83542 569.29376 151.02292L569.29376 154.42917L568.2469 154.42917ZM579.3094 153.66354Q578.71564 154.16354 578.16876 154.36667Q577.6375 154.5698 577.0125 154.5698Q575.98126 154.5698 575.4344 154.0698Q574.8875 153.5698 574.8875 152.78854Q574.8875 152.33542 575.09064 151.96042Q575.29376 151.5698 575.6375 151.35104Q575.98126 151.11667 576.40314 151.0073Q576.7 150.91354 577.34064 150.83542Q578.60626 150.6948 579.21564 150.47604Q579.21564 150.2573 579.21564 150.21042Q579.21564 149.55417 578.91876 149.28854Q578.5125 148.9448 577.71564 148.9448Q576.98126 148.9448 576.6219 149.21042Q576.2625 149.46042 576.09064 150.11667L575.0594 149.97604Q575.2 149.3198 575.52814 148.91354Q575.85626 148.5073 576.46564 148.28854Q577.075 148.0698 577.8719 148.0698Q578.66876 148.0698 579.16876 148.2573Q579.66876 148.4448 579.90314 148.72604Q580.1375 149.0073 580.23126 149.4448Q580.27814 149.71042 580.27814 150.41354L580.27814 151.8198Q580.27814 153.28854 580.34064 153.67917Q580.41876 154.0698 580.6219 154.42917L579.5125 154.42917Q579.35626 154.10104 579.3094 153.66354ZM579.21564 151.30417Q578.6375 151.53854 577.4969 151.71042Q576.84064 151.80417 576.575 151.92917Q576.3094 152.03854 576.15314 152.2573Q576.0125 152.47604 576.0125 152.7573Q576.0125 153.17917 576.325 153.46042Q576.65314 153.74167 577.2625 153.74167Q577.8719 153.74167 578.34064 153.47604Q578.825 153.21042 579.04376 152.74167Q579.21564 152.3823 579.21564 151.6948L579.21564 151.30417Z" fill-rule="nonzero"/><path fill="#9e9e9e" d="M546.95 169.16354L548.0125 169.02292Q548.1844 169.91354 548.6219 170.3198Q549.0594 170.71042 549.6844 170.71042Q550.4344 170.71042 550.95 170.1948Q551.46564 169.67917 551.46564 168.91354Q551.46564 168.1948 550.98126 167.72604Q550.5125 167.24167 549.77814 167.24167Q549.48126 167.24167 549.02814 167.36667L549.15314 166.42917Q549.2625 166.4448 549.325 166.4448Q549.9969 166.4448 550.52814 166.10104Q551.075 165.74167 551.075 165.0073Q551.075 164.42917 550.6844 164.05417Q550.29376 163.66354 549.66876 163.66354Q549.0594 163.66354 548.6375 164.05417Q548.23126 164.4448 548.1219 165.21042L547.0594 165.02292Q547.2469 163.97604 547.9344 163.39792Q548.6219 162.80417 549.6375 162.80417Q550.34064 162.80417 550.9344 163.11667Q551.52814 163.41354 551.84064 163.92917Q552.15314 164.4448 552.15314 165.03854Q552.15314 165.58542 551.85626 166.05417Q551.5594 166.5073 550.98126 166.77292Q551.73126 166.9448 552.15314 167.5073Q552.575 168.05417 552.575 168.89792Q552.575 170.02292 551.7469 170.80417Q550.9344 171.58542 549.6844 171.58542Q548.5594 171.58542 547.8094 170.91354Q547.0594 170.22604 546.95 169.16354ZM554.0125 163.96042L554.0125 162.9448L559.575 162.9448L559.575 163.77292Q558.7625 164.64792 557.95 166.10104Q557.15314 167.53854 556.71564 169.0698Q556.3875 170.14792 556.3094 171.42917L555.21564 171.42917Q555.23126 170.41354 555.60626 168.97604Q555.9969 167.53854 556.7 166.21042Q557.41876 164.8823 558.23126 163.96042L554.0125 163.96042ZM561.5125 171.42917L561.5125 170.22604L562.71564 170.22604L562.71564 171.42917Q562.71564 172.08542 562.48126 172.49167Q562.2469 172.91354 561.7469 173.1323L561.45 172.67917Q561.77814 172.53854 561.9344 172.24167Q562.09064 171.96042 562.1219 171.42917L561.5125 171.42917ZM569.4969 170.41354L569.4969 171.42917L563.8094 171.42917Q563.8094 171.05417 563.9344 170.6948Q564.15314 170.11667 564.6219 169.55417Q565.10626 168.99167 566.0125 168.2573Q567.41876 167.10104 567.90314 166.42917Q568.40314 165.7573 568.40314 165.16354Q568.40314 164.53854 567.95 164.11667Q567.4969 163.67917 566.77814 163.67917Q566.0125 163.67917 565.5594 164.1323Q565.10626 164.58542 565.09064 165.39792L564.0125 165.28854Q564.1219 164.0698 564.84064 163.4448Q565.575 162.80417 566.8094 162.80417Q568.04376 162.80417 568.7625 163.49167Q569.48126 164.17917 569.48126 165.1948Q569.48126 165.71042 569.2625 166.21042Q569.0594 166.6948 568.5594 167.2573Q568.075 167.80417 566.95 168.7573Q565.9969 169.55417 565.71564 169.85104Q565.45 170.1323 565.27814 170.41354L569.4969 170.41354ZM571.15314 164.89792Q571.15314 163.97604 571.60626 163.33542Q572.075 162.6948 572.95 162.6948Q573.7625 162.6948 574.29376 163.27292Q574.825 163.85104 574.825 164.96042Q574.825 166.05417 574.27814 166.64792Q573.7469 167.22604 572.96564 167.22604Q572.1844 167.22604 571.66876 166.64792Q571.15314 166.0698 571.15314 164.89792ZM572.98126 163.41354Q572.59064 163.41354 572.325 163.7573Q572.075 164.10104 572.075 165.0073Q572.075 165.83542 572.325 166.17917Q572.59064 166.5073 572.98126 166.5073Q573.3875 166.5073 573.6375 166.16354Q573.90314 165.8198 573.90314 164.92917Q573.90314 164.08542 573.6375 163.7573Q573.3719 163.41354 572.98126 163.41354ZM572.98126 171.74167L577.6844 162.6948L578.54376 162.6948L573.85626 171.74167L572.98126 171.74167ZM576.7 169.41354Q576.7 168.49167 577.15314 167.85104Q577.6219 167.21042 578.5125 167.21042Q579.325 167.21042 579.85626 167.78854Q580.3875 168.35104 580.3875 169.47604Q580.3875 170.5698 579.84064 171.16354Q579.3094 171.74167 578.5125 171.74167Q577.7469 171.74167 577.21564 171.16354Q576.7 170.58542 576.7 169.41354ZM578.54376 167.92917Q578.1375 167.92917 577.8719 168.27292Q577.6219 168.61667 577.6219 169.52292Q577.6219 170.33542 577.8875 170.67917Q578.15314 171.02292 578.54376 171.02292Q578.9344 171.02292 579.2 170.67917Q579.46564 170.33542 579.46564 169.42917Q579.46564 168.60104 579.2 168.27292Q578.9344 167.92917 578.54376 167.92917Z" fill-rule="nonzero"/><path stroke="#757575" stroke-width="1.0" stroke-linecap="butt" d="M581.45 158.92917L454.76666 158.92917L434.05508 158.92917" fill-rule="nonzero"/><path fill="#9e9e9e" d="M436.05508 158.92917C436.05508 157.8246 435.15964 156.92917 434.05508 156.92917C432.9505 156.92917 432.05508 157.8246 432.05508 158.92917C432.05508 160.03374 432.9505 160.92917 434.05508 160.92917C435.15964 160.92917 436.05508 160.03374 436.05508 158.92917" fill-rule="nonzero"/><path fill="#757575" d="M30.940624 36.01875Q32.26875 36.925 33.378124 37.346874L32.815624 38.659374Q31.26875 38.1125 29.7375 36.909374Q28.14375 37.8 26.221874 37.8Q24.284374 37.8 22.690624 36.8625Q21.1125 35.925 20.253124 34.221874Q19.409374 32.51875 19.409374 30.39375Q19.409374 28.26875 20.26875 26.534374Q21.128124 24.8 22.70625 23.89375Q24.3 22.971874 26.26875 22.971874Q28.253124 22.971874 29.83125 23.925Q31.425 24.8625 32.253124 26.565624Q33.096874 28.253124 33.096874 30.378124Q33.096874 32.14375 32.565624 33.565624Q32.034374 34.971874 30.940624 36.01875ZM26.76875 33.596874Q28.409374 34.05 29.471874 34.95625Q31.14375 33.440624 31.14375 30.378124Q31.14375 28.64375 30.55 27.346874Q29.971874 26.05 28.83125 25.33125Q27.690624 24.6125 26.26875 24.6125Q24.159374 24.6125 22.753124 26.065624Q21.3625 27.503124 21.3625 30.39375Q21.3625 33.190624 22.7375 34.690624Q24.128124 36.175 26.26875 36.175Q27.284374 36.175 28.190624 35.784374Q27.3 35.221874 26.315624 34.971874L26.76875 33.596874ZM42.659374 37.55L42.659374 36.01875Q41.45625 37.784374 39.378124 37.784374Q38.45625 37.784374 37.659374 37.440624Q36.8625 37.08125 36.471874 36.55Q36.096874 36.01875 35.940624 35.2375Q35.83125 34.721874 35.83125 33.596874L35.83125 27.175L37.58125 27.175L37.58125 32.925Q37.58125 34.3 37.690624 34.784374Q37.8625 35.471874 38.39375 35.878124Q38.940624 36.26875 39.721874 36.26875Q40.51875 36.26875 41.20625 35.8625Q41.909374 35.45625 42.190624 34.76875Q42.4875 34.065624 42.4875 32.7375L42.4875 27.175L44.2375 27.175L44.2375 37.55L42.659374 37.55ZM52.64375 36.26875Q51.659374 37.096874 50.753124 37.440624Q49.846874 37.784374 48.815624 37.784374Q47.1125 37.784374 46.190624 36.95625Q45.26875 36.1125 45.26875 34.815624Q45.26875 34.05 45.6125 33.425Q45.971874 32.8 46.534374 32.425Q47.096874 32.034374 47.8 31.83125Q48.315624 31.70625 49.3625 31.565624Q51.4875 31.315624 52.4875 30.971874Q52.503124 30.6125 52.503124 30.503124Q52.503124 29.440624 52.003124 28.9875Q51.33125 28.39375 50.003124 28.39375Q48.753124 28.39375 48.159374 28.83125Q47.58125 29.26875 47.3 30.378124L45.58125 30.14375Q45.815624 29.034374 46.346874 28.3625Q46.878124 27.675 47.89375 27.315624Q48.909374 26.940624 50.253124 26.940624Q51.58125 26.940624 52.409374 27.253124Q53.2375 27.565624 53.628124 28.05Q54.01875 28.51875 54.175 29.2375Q54.26875 29.690624 54.26875 30.8625L54.26875 33.20625Q54.26875 35.659374 54.378124 36.315624Q54.4875 36.95625 54.83125 37.55L52.9875 37.55Q52.721874 37.003124 52.64375 36.26875ZM52.4875 32.346874Q51.534374 32.7375 49.6125 33.003124Q48.534374 33.159374 48.08125 33.3625Q47.64375 33.55 47.39375 33.925Q47.14375 34.3 47.14375 34.76875Q47.14375 35.471874 47.675 35.940624Q48.20625 36.409374 49.2375 36.409374Q50.253124 36.409374 51.034374 35.971874Q51.83125 35.51875 52.20625 34.753124Q52.4875 34.14375 52.4875 32.9875L52.4875 32.346874ZM56.83125 37.55L56.83125 23.2375L58.58125 23.2375L58.58125 37.55L56.83125 37.55ZM73.97188 34.20625L75.78438 34.440624Q75.3625 36.01875 74.19063 36.909374Q73.03438 37.784374 71.22188 37.784374Q68.95625 37.784374 67.6125 36.39375Q66.28438 34.9875 66.28438 32.45625Q66.28438 29.83125 67.62813 28.39375Q68.97188 26.940624 71.12813 26.940624Q73.20625 26.940624 74.51875 28.3625Q75.84688 29.76875 75.84688 32.346874Q75.84688 32.503124 75.83125 32.815624L68.09688 32.815624Q68.19063 34.51875 69.06563 35.425Q69.94063 36.33125 71.2375 36.33125Q72.20625 36.33125 72.87813 35.83125Q73.56563 35.315624 73.97188 34.20625ZM68.19063 31.3625L73.9875 31.3625Q73.87813 30.065624 73.33125 29.409374Q72.4875 28.39375 71.14375 28.39375Q69.94063 28.39375 69.1125 29.20625Q68.28438 30.003124 68.19063 31.3625ZM72.25313 25.89375L70.83125 25.89375L68.58125 23.159374L70.925 23.159374L72.25313 25.89375ZM83.87813 25.253124L83.87813 23.2375L85.64375 23.2375L85.64375 25.253124L83.87813 25.253124ZM83.87813 37.55L83.87813 27.175L85.64375 27.175L85.64375 37.55L83.87813 37.55ZM87.83125 37.55L87.83125 23.2375L89.58125 23.2375L89.58125 37.55L87.83125 37.55ZM101.70625 35.971874L101.95625 37.534374Q101.22188 37.690624 100.62813 37.690624Q99.675 37.690624 99.14375 37.39375Q98.62813 37.08125 98.40938 36.596874Q98.19063 36.096874 98.19063 34.51875L98.19063 28.55L96.90938 28.55L96.90938 27.175L98.19063 27.175L98.19063 24.6125L99.94063 23.55L99.94063 27.175L101.70625 27.175L101.70625 28.55L99.94063 28.55L99.94063 34.6125Q99.94063 35.3625 100.03438 35.58125Q100.12813 35.784374 100.33125 35.925Q100.55 36.05 100.94063 36.05Q101.22188 36.05 101.70625 35.971874ZM110.65938 37.55L110.65938 36.01875Q109.45625 37.784374 107.37813 37.784374Q106.45625 37.784374 105.65938 37.440624Q104.8625 37.08125 104.47188 36.55Q104.09688 36.01875 103.94063 35.2375Q103.83125 34.721874 103.83125 33.596874L103.83125 27.175L105.58125 27.175L105.58125 32.925Q105.58125 34.3 105.69063 34.784374Q105.8625 35.471874 106.39375 35.878124Q106.94063 36.26875 107.72188 36.26875Q108.51875 36.26875 109.20625 35.8625Q109.90938 35.45625 110.19063 34.76875Q110.4875 34.065624 110.4875 32.7375L110.4875 27.175L112.2375 27.175L112.2375 37.55L110.65938 37.55ZM113.22188 32.3625Q113.22188 29.4875 114.81563 28.096874Q116.15938 26.940624 118.08125 26.940624Q120.22188 26.940624 121.56563 28.346874Q122.925 29.753124 122.925 32.221874Q122.925 34.221874 122.33125 35.378124Q121.7375 36.51875 120.58125 37.159374Q119.44063 37.784374 118.08125 37.784374Q115.89375 37.784374 114.55 36.39375Q113.22188 34.9875 113.22188 32.3625ZM115.01875 32.3625Q115.01875 34.3625 115.87813 35.346874Q116.75313 36.33125 118.08125 36.33125Q119.39375 36.33125 120.25313 35.346874Q121.12813 34.346874 121.12813 32.3Q121.12813 30.378124 120.25313 29.39375Q119.37813 28.39375 118.08125 28.39375Q116.75313 28.39375 115.87813 29.39375Q115.01875 30.378124 115.01875 32.3625ZM130.55 38.409374L132.25313 38.659374Q132.3625 39.45625 132.84688 39.815624Q133.50313 40.3 134.64375 40.3Q135.8625 40.3 136.51875 39.815624Q137.19063 39.33125 137.425 38.45625Q137.56563 37.909374 137.55 36.190624Q136.39375 37.55 134.675 37.55Q132.53438 37.55 131.3625 36.003124Q130.19063 34.45625 130.19063 32.3Q130.19063 30.815624 130.72188 29.565624Q131.26875 28.315624 132.28438 27.628124Q133.31563 26.940624 134.69063 26.940624Q136.51875 26.940624 137.72188 28.425L137.72188 27.175L139.33125 27.175L139.33125 36.14375Q139.33125 38.565624 138.83125 39.565624Q138.34688 40.58125 137.26875 41.159374Q136.20625 41.753124 134.64375 41.753124Q132.8 41.753124 131.64375 40.925Q130.50313 40.096874 130.55 38.409374ZM132.00313 32.175Q132.00313 34.221874 132.81563 35.159374Q133.62813 36.096874 134.84688 36.096874Q136.05 36.096874 136.8625 35.159374Q137.69063 34.221874 137.69063 32.2375Q137.69063 30.33125 136.84688 29.3625Q136.00313 28.39375 134.81563 28.39375Q133.64375 28.39375 132.81563 29.346874Q132.00313 30.3 132.00313 32.175ZM148.97188 34.20625L150.78438 34.440624Q150.3625 36.01875 149.19063 36.909374Q148.03438 37.784374 146.22188 37.784374Q143.95625 37.784374 142.6125 36.39375Q141.28438 34.9875 141.28438 32.45625Q141.28438 29.83125 142.62813 28.39375Q143.97188 26.940624 146.12813 26.940624Q148.20625 26.940624 149.51875 28.3625Q150.84688 29.76875 150.84688 32.346874Q150.84688 32.503124 150.83125 32.815624L143.09688 32.815624Q143.19063 34.51875 144.06563 35.425Q144.94063 36.33125 146.2375 36.33125Q147.20625 36.33125 147.87813 35.83125Q148.56563 35.315624 148.97188 34.20625ZM143.19063 31.3625L148.9875 31.3625Q148.87813 30.065624 148.33125 29.409374Q147.4875 28.39375 146.14375 28.39375Q144.94063 28.39375 144.1125 29.20625Q143.28438 30.003124 143.19063 31.3625ZM152.8625 37.55L152.8625 27.175L154.45625 27.175L154.45625 28.659374Q155.59688 26.940624 157.75313 26.940624Q158.69063 26.940624 159.47188 27.284374Q160.26875 27.6125 160.65938 28.159374Q161.05 28.70625 161.20625 29.45625Q161.3 29.95625 161.3 31.175L161.3 37.55L159.53438 37.55L159.53438 31.2375Q159.53438 30.159374 159.33125 29.628124Q159.12813 29.096874 158.59688 28.784374Q158.08125 28.471874 157.37813 28.471874Q156.25313 28.471874 155.44063 29.190624Q154.62813 29.89375 154.62813 31.878124L154.62813 37.55L152.8625 37.55ZM169.97188 34.20625L171.78438 34.440624Q171.3625 36.01875 170.19063 36.909374Q169.03438 37.784374 167.22188 37.784374Q164.95625 37.784374 163.6125 36.39375Q162.28438 34.9875 162.28438 32.45625Q162.28438 29.83125 163.62813 28.39375Q164.97188 26.940624 167.12813 26.940624Q169.20625 26.940624 170.51875 28.3625Q171.84688 29.76875 171.84688 32.346874Q171.84688 32.503124 171.83125 32.815624L164.09688 32.815624Q164.19063 34.51875 165.06563 35.425Q165.94063 36.33125 167.2375 36.33125Q168.20625 36.33125 168.87813 35.83125Q169.56563 35.315624 169.97188 34.20625ZM164.19063 31.3625L169.9875 31.3625Q169.87813 30.065624 169.33125 29.409374Q168.4875 28.39375 167.14375 28.39375Q165.94063 28.39375 165.1125 29.20625Q164.28438 30.003124 164.19063 31.3625ZM173.84688 37.55L173.84688 27.175L175.425 27.175L175.425 28.753124Q176.03438 27.64375 176.55 27.3Q177.06563 26.940624 177.675 26.940624Q178.56563 26.940624 179.4875 27.503124L178.87813 29.14375Q178.2375 28.753124 177.59688 28.753124Q177.01875 28.753124 176.55 29.1125Q176.09688 29.45625 175.89375 30.065624Q175.6125 31.003124 175.6125 32.1125L175.6125 37.55L173.84688 37.55ZM187.97188 34.20625L189.78438 34.440624Q189.3625 36.01875 188.19063 36.909374Q187.03438 37.784374 185.22188 37.784374Q182.95625 37.784374 181.6125 36.39375Q180.28438 34.9875 180.28438 32.45625Q180.28438 29.83125 181.62813 28.39375Q182.97188 26.940624 185.12813 26.940624Q187.20625 26.940624 188.51875 28.3625Q189.84688 29.76875 189.84688 32.346874Q189.84688 32.503124 189.83125 32.815624L182.09688 32.815624Q182.19063 34.51875 183.06563 35.425Q183.94063 36.33125 185.2375 36.33125Q186.20625 36.33125 186.87813 35.83125Q187.56563 35.315624 187.97188 34.20625ZM182.19063 31.3625L187.9875 31.3625Q187.87813 30.065624 187.33125 29.409374Q186.4875 28.39375 185.14375 28.39375Q183.94063 28.39375 183.1125 29.20625Q182.28438 30.003124 182.19063 31.3625ZM195.15938 34.01875Q195.14375 33.675 195.14375 33.503124Q195.14375 32.45625 195.44063 31.70625Q195.65938 31.14375 196.14375 30.565624Q196.4875 30.14375 197.39375 29.346874Q198.31563 28.534374 198.58125 28.065624Q198.8625 27.58125 198.8625 27.01875Q198.8625 25.9875 198.05 25.221874Q197.25313 24.440624 196.09688 24.440624Q194.97188 24.440624 194.22188 25.14375Q193.47188 25.846874 193.2375 27.33125L191.425 27.1125Q191.675 25.1125 192.87813 24.05Q194.08125 22.9875 196.06563 22.9875Q198.175 22.9875 199.425 24.128124Q200.675 25.26875 200.675 26.89375Q200.675 27.83125 200.22188 28.628124Q199.78438 29.409374 198.50313 30.55Q197.64375 31.315624 197.37813 31.675Q197.12813 32.034374 196.9875 32.503124Q196.8625 32.971874 196.84688 34.01875L195.15938 34.01875ZM195.05 37.55L195.05 35.55L197.05 35.55L197.05 37.55L195.05 37.55Z" fill-rule="nonzero"/></svg>