<svg version="1.1" viewBox="0.0 0.0 600.0 371.0" fill="none" stroke="none" stroke-linecap="square" stroke-miterlimit="10" width="600" height="371" xmlns:xlink="http://www.w3.org/1999/xlink" xmlns="http://www.w3.org/2000/svg"><path fill="#ffffff" d="M0 0L600.0 0L600.0 371.0L0 371.0L0 0Z" fill-rule="nonzero"/><path fill="#4285f4" d="M300.0 78.916664C358.84518 78.916664 411.09378 116.556915 429.72818 172.3737C448.36255 228.19049 429.20486 289.66968 382.16153 325.02045L300.0 215.68333Z" fill-rule="nonzero"/><path fill="#ea4335" d="M382.16153 325.02045C376.28668 329.43512 370.06558 333.3691 363.55862 336.7842L300.0 215.68333Z" fill-rule="nonzero"/><path fill="#34a853" d="M201.36354 310.42493C163.39113 270.89148 152.69142 212.505 174.17747 162.07536C195.66354 111.64573 245.18394 78.916664 300.0 78.916664L300.0 215.68333Z" fill-rule="nonzero"/><path fill="#fbbc04" d="M363.55862 336.7842C309.65277 365.0762 243.53607 354.33118 201.36354 310.42493L300.0 215.68333Z" fill-rule="nonzero"/><path fill="#1a1a1a" d="M19.4875 160.25577L19.4875 151.66202L23.3 151.66202Q24.45625 151.66202 25.05 151.8964Q25.64375 152.13077 26.003124 152.72452Q26.3625 153.30264 26.3625 154.00577Q26.3625 154.92764 25.76875 155.55264Q25.175 156.17764 23.940624 156.34952Q24.39375 156.56827 24.628124 156.7714Q25.128124 157.22452 25.565624 157.91202L27.065624 160.25577L25.628124 160.25577L24.503124 158.47452Q24.003124 157.69327 23.675 157.28702Q23.3625 156.88077 23.096874 156.72452Q22.846874 156.55264 22.58125 156.47452Q22.39375 156.44327 21.95625 156.44327L20.628124 156.44327L20.628124 160.25577L19.4875 160.25577ZM20.628124 155.4589L23.08125 155.4589Q23.846874 155.4589 24.284374 155.30264Q24.7375 155.13077 24.95625 154.78702Q25.190624 154.42764 25.190624 154.00577Q25.190624 153.3964 24.7375 153.00577Q24.3 152.61514 23.346874 152.61514L20.628124 152.61514L20.628124 155.4589ZM32.409374 159.49014Q31.815624 159.99014 31.26875 160.19327Q30.7375 160.3964 30.1125 160.3964Q29.08125 160.3964 28.534374 159.8964Q27.9875 159.3964 27.9875 158.61514Q27.9875 158.16202 28.190624 157.78702Q28.39375 157.3964 28.7375 157.17764Q29.08125 156.94327 29.503124 156.8339Q29.8 156.74014 30.440624 156.66202Q31.70625 156.5214 32.315624 156.30264Q32.315624 156.0839 32.315624 156.03702Q32.315624 155.38077 32.01875 155.11514Q31.6125 154.7714 30.815624 154.7714Q30.08125 154.7714 29.721874 155.03702Q29.3625 155.28702 29.190624 155.94327L28.159374 155.80264Q28.3 155.1464 28.628124 154.74014Q28.95625 154.3339 29.565624 154.11514Q30.175 153.8964 30.971874 153.8964Q31.76875 153.8964 32.26875 154.0839Q32.76875 154.2714 33.003124 154.55264Q33.2375 154.8339 33.33125 155.2714Q33.378124 155.53702 33.378124 156.24014L33.378124 157.6464Q33.378124 159.11514 33.440624 159.50577Q33.51875 159.8964 33.721874 160.25577L32.6125 160.25577Q32.45625 159.92764 32.409374 159.49014ZM32.315624 157.13077Q31.7375 157.36514 30.596874 157.53702Q29.940624 157.63077 29.675 157.75577Q29.409374 157.86514 29.253124 158.0839Q29.1125 158.30264 29.1125 158.5839Q29.1125 159.00577 29.425 159.28702Q29.753124 159.56827 30.3625 159.56827Q30.971874 159.56827 31.440624 159.30264Q31.925 159.03702 32.14375 158.56827Q32.315624 158.2089 32.315624 157.5214L32.315624 157.13077ZM35.33125 160.25577L35.33125 154.03702L36.284374 154.03702L36.284374 154.97452Q36.64375 154.31827 36.940624 154.11514Q37.253124 153.8964 37.628124 153.8964Q38.159374 153.8964 38.70625 154.22452L38.346874 155.2089Q37.95625 154.97452 37.58125 154.97452Q37.221874 154.97452 36.940624 155.19327Q36.675 155.3964 36.565624 155.7714Q36.378124 156.3339 36.378124 156.99014L36.378124 160.25577L35.33125 160.25577ZM43.409374 159.49014Q42.815624 159.99014 42.26875 160.19327Q41.7375 160.3964 41.1125 160.3964Q40.08125 160.3964 39.534374 159.8964Q38.9875 159.3964 38.9875 158.61514Q38.9875 158.16202 39.190624 157.78702Q39.39375 157.3964 39.7375 157.17764Q40.08125 156.94327 40.503124 156.8339Q40.8 156.74014 41.440624 156.66202Q42.70625 156.5214 43.315624 156.30264Q43.315624 156.0839 43.315624 156.03702Q43.315624 155.38077 43.01875 155.11514Q42.6125 154.7714 41.815624 154.7714Q41.08125 154.7714 40.721874 155.03702Q40.3625 155.28702 40.190624 155.94327L39.159374 155.80264Q39.3 155.1464 39.628124 154.74014Q39.95625 154.3339 40.565624 154.11514Q41.175 153.8964 41.971874 153.8964Q42.76875 153.8964 43.26875 154.0839Q43.76875 154.2714 44.003124 154.55264Q44.2375 154.8339 44.33125 155.2714Q44.378124 155.53702 44.378124 156.24014L44.378124 157.6464Q44.378124 159.11514 44.440624 159.50577Q44.51875 159.8964 44.721874 160.25577L43.6125 160.25577Q43.45625 159.92764 43.409374 159.49014ZM43.315624 157.13077Q42.7375 157.36514 41.596874 157.53702Q40.940624 157.63077 40.675 157.75577Q40.409374 157.86514 40.253124 158.0839Q40.1125 158.30264 40.1125 158.5839Q40.1125 159.00577 40.425 159.28702Q40.753124 159.56827 41.3625 159.56827Q41.971874 159.56827 42.440624 159.30264Q42.925 159.03702 43.14375 158.56827Q43.315624 158.2089 43.315624 157.5214L43.315624 157.13077ZM46.346874 160.25577L46.346874 154.03702L47.284374 154.03702L47.284374 154.91202Q47.58125 154.44327 48.065624 154.17764Q48.55 153.8964 49.175 153.8964Q49.8625 153.8964 50.3 154.17764Q50.753124 154.4589 50.925 154.97452Q51.675 153.8964 52.846874 153.8964Q53.784374 153.8964 54.26875 154.41202Q54.76875 154.91202 54.76875 155.99014L54.76875 160.25577L53.721874 160.25577L53.721874 156.3339Q53.721874 155.7089 53.6125 155.42764Q53.51875 155.1464 53.253124 154.97452Q52.9875 154.80264 52.6125 154.80264Q51.95625 154.80264 51.51875 155.24014Q51.096874 155.67764 51.096874 156.6464L51.096874 160.25577L50.034374 160.25577L50.034374 156.2089Q50.034374 155.50577 49.76875 155.16202Q49.51875 154.80264 48.940624 154.80264Q48.4875 154.80264 48.1125 155.03702Q47.7375 155.2714 47.565624 155.72452Q47.39375 156.17764 47.39375 157.0214L47.39375 160.25577L46.346874 160.25577ZM61.596874 158.25577L62.690624 158.38077Q62.440624 159.3339 61.7375 159.86514Q61.034374 160.3964 59.95625 160.3964Q58.596874 160.3964 57.784374 159.55264Q56.9875 158.7089 56.9875 157.19327Q56.9875 155.63077 57.8 154.7714Q58.6125 153.8964 59.89375 153.8964Q61.14375 153.8964 61.925 154.74014Q62.721874 155.5839 62.721874 157.13077Q62.721874 157.22452 62.721874 157.41202L58.08125 157.41202Q58.14375 158.44327 58.659374 158.99014Q59.175 159.5214 59.95625 159.5214Q60.534374 159.5214 60.940624 159.22452Q61.3625 158.91202 61.596874 158.25577ZM58.14375 156.55264L61.6125 156.55264Q61.55 155.75577 61.221874 155.36514Q60.70625 154.75577 59.909374 154.75577Q59.175 154.75577 58.675 155.24014Q58.190624 155.72452 58.14375 156.55264ZM64.34688 160.25577L64.34688 154.03702L65.28438 154.03702L65.28438 154.91202Q65.97188 153.8964 67.26875 153.8964Q67.83125 153.8964 68.3 154.09952Q68.78438 154.30264 69.01875 154.63077Q69.25313 154.9589 69.34688 155.3964Q69.39375 155.69327 69.39375 156.42764L69.39375 160.25577L68.34688 160.25577L68.34688 156.47452Q68.34688 155.81827 68.22188 155.50577Q68.09688 155.19327 67.78438 155.00577Q67.47188 154.80264 67.05 154.80264Q66.37813 154.80264 65.87813 155.24014Q65.39375 155.66202 65.39375 156.84952L65.39375 160.25577L64.34688 160.25577ZM73.64375 159.31827L73.8 160.24014Q73.34688 160.3339 73.00313 160.3339Q72.425 160.3339 72.1125 160.16202Q71.8 159.97452 71.65938 159.67764Q71.53438 159.38077 71.53438 158.42764L71.53438 154.84952L70.76875 154.84952L70.76875 154.03702L71.53438 154.03702L71.53438 152.49014L72.58125 151.86514L72.58125 154.03702L73.64375 154.03702L73.64375 154.84952L72.58125 154.84952L72.58125 158.49014Q72.58125 158.94327 72.62813 159.06827Q72.69063 159.19327 72.81563 159.2714Q72.94063 159.34952 73.175 159.34952Q73.3625 159.34952 73.64375 159.31827ZM78.59688 158.25577L79.69063 158.38077Q79.44063 159.3339 78.7375 159.86514Q78.03438 160.3964 76.95625 160.3964Q75.59688 160.3964 74.78438 159.55264Q73.9875 158.7089 73.9875 157.19327Q73.9875 155.63077 74.8 154.7714Q75.6125 153.8964 76.89375 153.8964Q78.14375 153.8964 78.925 154.74014Q79.72188 155.5839 79.72188 157.13077Q79.72188 157.22452 79.72188 157.41202L75.08125 157.41202Q75.14375 158.44327 75.65938 158.99014Q76.175 159.5214 76.95625 159.5214Q77.53438 159.5214 77.94063 159.22452Q78.3625 158.91202 78.59688 158.25577ZM75.14375 156.55264L78.6125 156.55264Q78.55 155.75577 78.22188 155.36514Q77.70625 154.75577 76.90938 154.75577Q76.175 154.75577 75.675 155.24014Q75.19063 155.72452 75.14375 156.55264Z" fill-rule="nonzero"/><path fill="#9e9e9e" d="M19.05 174.99014L20.1125 174.84952Q20.284374 175.74014 20.721874 176.1464Q21.159374 176.53702 21.784374 176.53702Q22.534374 176.53702 23.05 176.0214Q23.565624 175.50577 23.565624 174.74014Q23.565624 174.0214 23.08125 173.55264Q22.6125 173.06827 21.878124 173.06827Q21.58125 173.06827 21.128124 173.19327L21.253124 172.25577Q21.3625 172.2714 21.425 172.2714Q22.096874 172.2714 22.628124 171.92764Q23.175 171.56827 23.175 170.8339Q23.175 170.25577 22.784374 169.88077Q22.39375 169.49014 21.76875 169.49014Q21.159374 169.49014 20.7375 169.88077Q20.33125 170.2714 20.221874 171.03702L19.159374 170.84952Q19.346874 169.80264 20.034374 169.22452Q20.721874 168.63077 21.7375 168.63077Q22.440624 168.63077 23.034374 168.94327Q23.628124 169.24014 23.940624 169.75577Q24.253124 170.2714 24.253124 170.86514Q24.253124 171.41202 23.95625 171.88077Q23.659374 172.3339 23.08125 172.59952Q23.83125 172.7714 24.253124 173.3339Q24.675 173.88077 24.675 174.72452Q24.675 175.84952 23.846874 176.63077Q23.034374 177.41202 21.784374 177.41202Q20.659374 177.41202 19.909374 176.74014Q19.159374 176.05264 19.05 174.99014ZM26.1125 169.78702L26.1125 168.7714L31.675 168.7714L31.675 169.59952Q30.8625 170.47452 30.05 171.92764Q29.253124 173.36514 28.815624 174.8964Q28.4875 175.97452 28.409374 177.25577L27.315624 177.25577Q27.33125 176.24014 27.70625 174.80264Q28.096874 173.36514 28.8 172.03702Q29.51875 170.7089 30.33125 169.78702L26.1125 169.78702ZM33.6125 177.25577L33.6125 176.05264L34.815624 176.05264L34.815624 177.25577Q34.815624 177.91202 34.58125 178.31827Q34.346874 178.74014 33.846874 178.9589L33.55 178.50577Q33.878124 178.36514 34.034374 178.06827Q34.190624 177.78702 34.221874 177.25577L33.6125 177.25577ZM41.596874 176.24014L41.596874 177.25577L35.909374 177.25577Q35.909374 176.88077 36.034374 176.5214Q36.253124 175.94327 36.721874 175.38077Q37.20625 174.81827 38.1125 174.0839Q39.51875 172.92764 40.003124 172.25577Q40.503124 171.5839 40.503124 170.99014Q40.503124 170.36514 40.05 169.94327Q39.596874 169.50577 38.878124 169.50577Q38.1125 169.50577 37.659374 169.9589Q37.20625 170.41202 37.190624 171.22452L36.1125 171.11514Q36.221874 169.8964 36.940624 169.2714Q37.675 168.63077 38.909374 168.63077Q40.14375 168.63077 40.8625 169.31827Q41.58125 170.00577 41.58125 171.0214Q41.58125 171.53702 41.3625 172.03702Q41.159374 172.5214 40.659374 173.0839Q40.175 173.63077 39.05 174.5839Q38.096874 175.38077 37.815624 175.67764Q37.55 175.9589 37.378124 176.24014L41.596874 176.24014ZM43.253124 170.72452Q43.253124 169.80264 43.70625 169.16202Q44.175 168.5214 45.05 168.5214Q45.8625 168.5214 46.39375 169.09952Q46.925 169.67764 46.925 170.78702Q46.925 171.88077 46.378124 172.47452Q45.846874 173.05264 45.065624 173.05264Q44.284374 173.05264 43.76875 172.47452Q43.253124 171.8964 43.253124 170.72452ZM45.08125 169.24014Q44.690624 169.24014 44.425 169.5839Q44.175 169.92764 44.175 170.8339Q44.175 171.66202 44.425 172.00577Q44.690624 172.3339 45.08125 172.3339Q45.4875 172.3339 45.7375 171.99014Q46.003124 171.6464 46.003124 170.75577Q46.003124 169.91202 45.7375 169.5839Q45.471874 169.24014 45.08125 169.24014ZM45.08125 177.56827L49.784374 168.5214L50.64375 168.5214L45.95625 177.56827L45.08125 177.56827ZM48.8 175.24014Q48.8 174.31827 49.253124 173.67764Q49.721874 173.03702 50.6125 173.03702Q51.425 173.03702 51.95625 173.61514Q52.4875 174.17764 52.4875 175.30264Q52.4875 176.3964 51.940624 176.99014Q51.409374 177.56827 50.6125 177.56827Q49.846874 177.56827 49.315624 176.99014Q48.8 176.41202 48.8 175.24014ZM50.64375 173.75577Q50.2375 173.75577 49.971874 174.09952Q49.721874 174.44327 49.721874 175.34952Q49.721874 176.16202 49.9875 176.50577Q50.253124 176.84952 50.64375 176.84952Q51.034374 176.84952 51.3 176.50577Q51.565624 176.16202 51.565624 175.25577Q51.565624 174.42764 51.3 174.09952Q51.034374 173.75577 50.64375 173.75577Z" fill-rule="nonzero"/><path stroke="#757575" stroke-width="1.0" stroke-linecap="butt" d="M18.55 164.75577L157.23334 164.75577L180.4686 164.75577" fill-rule="nonzero"/><path fill="#9e9e9e" d="M182.4686 164.75577C182.4686 163.6512 181.57318 162.75577 180.4686 162.75577C179.36403 162.75577 178.4686 163.6512 178.4686 164.75577C178.4686 165.86034 179.36403 166.75577 180.4686 166.75577C181.57318 166.75577 182.4686 165.86034 182.4686 164.75577" fill-rule="nonzero"/><path fill="#1a1a1a" d="M19.440624 332.45L19.440624 323.85626L21.159374 323.85626L23.190624 329.9344Q23.471874 330.79376 23.596874 331.21564Q23.7375 330.7469 24.05 329.84064L26.1125 323.85626L27.64375 323.85626L27.64375 332.45L26.55 332.45L26.55 325.2625L24.05 332.45L23.01875 332.45L20.534374 325.1375L20.534374 332.45L19.440624 332.45ZM32.409374 331.6844Q31.815624 332.1844 31.26875 332.3875Q30.7375 332.59064 30.1125 332.59064Q29.08125 332.59064 28.534374 332.09064Q27.9875 331.59064 27.9875 330.8094Q27.9875 330.35626 28.190624 329.98126Q28.39375 329.59064 28.7375 329.3719Q29.08125 329.1375 29.503124 329.02814Q29.8 328.9344 30.440624 328.85626Q31.70625 328.71564 32.315624 328.4969Q32.315624 328.27814 32.315624 328.23126Q32.315624 327.575 32.01875 327.3094Q31.6125 326.96564 30.815624 326.96564Q30.08125 326.96564 29.721874 327.23126Q29.3625 327.48126 29.190624 328.1375L28.159374 327.9969Q28.3 327.34064 28.628124 326.9344Q28.95625 326.52814 29.565624 326.3094Q30.175 326.09064 30.971874 326.09064Q31.76875 326.09064 32.26875 326.27814Q32.76875 326.46564 33.003124 326.7469Q33.2375 327.02814 33.33125 327.46564Q33.378124 327.73126 33.378124 328.4344L33.378124 329.84064Q33.378124 331.3094 33.440624 331.7Q33.51875 332.09064 33.721874 332.45L32.6125 332.45Q32.45625 332.1219 32.409374 331.6844ZM32.315624 329.325Q31.7375 329.5594 30.596874 329.73126Q29.940624 329.825 29.675 329.95Q29.409374 330.0594 29.253124 330.27814Q29.1125 330.4969 29.1125 330.77814Q29.1125 331.2 29.425 331.48126Q29.753124 331.7625 30.3625 331.7625Q30.971874 331.7625 31.440624 331.4969Q31.925 331.23126 32.14375 330.7625Q32.315624 330.40314 32.315624 329.71564L32.315624 329.325ZM35.346874 325.075L35.346874 323.85626L36.409374 323.85626L36.409374 325.075L35.346874 325.075ZM35.346874 332.45L35.346874 326.23126L36.409374 326.23126L36.409374 332.45L35.346874 332.45Z" fill-rule="nonzero"/><path fill="#9e9e9e" d="M24.596874 348.4344L24.596874 349.45L18.909374 349.45Q18.909374 349.075 19.034374 348.71564Q19.253124 348.1375 19.721874 347.575Q20.20625 347.0125 21.1125 346.27814Q22.51875 345.1219 23.003124 344.45Q23.503124 343.77814 23.503124 343.1844Q23.503124 342.5594 23.05 342.1375Q22.596874 341.7 21.878124 341.7Q21.1125 341.7 20.659374 342.15314Q20.20625 342.60626 20.190624 343.41876L19.1125 343.3094Q19.221874 342.09064 19.940624 341.46564Q20.675 340.825 21.909374 340.825Q23.14375 340.825 23.8625 341.5125Q24.58125 342.2 24.58125 343.21564Q24.58125 343.73126 24.3625 344.23126Q24.159374 344.71564 23.659374 345.27814Q23.175 345.825 22.05 346.77814Q21.096874 347.575 20.815624 347.8719Q20.55 348.15314 20.378124 348.4344L24.596874 348.4344ZM26.05 345.21564Q26.05 343.6844 26.3625 342.7625Q26.675 341.825 27.284374 341.325Q27.909374 340.825 28.846874 340.825Q29.534374 340.825 30.05 341.10626Q30.58125 341.3875 30.925 341.91876Q31.26875 342.4344 31.45625 343.1844Q31.64375 343.9344 31.64375 345.21564Q31.64375 346.73126 31.33125 347.65314Q31.034374 348.575 30.409374 349.09064Q29.8 349.59064 28.846874 349.59064Q27.6125 349.59064 26.89375 348.7Q26.05 347.6375 26.05 345.21564ZM27.128124 345.21564Q27.128124 347.325 27.628124 348.02814Q28.128124 348.73126 28.846874 348.73126Q29.58125 348.73126 30.065624 348.02814Q30.565624 347.325 30.565624 345.21564Q30.565624 343.09064 30.065624 342.40314Q29.58125 341.7 28.83125 341.7Q28.1125 341.7 27.675 342.3094Q27.128124 343.09064 27.128124 345.21564ZM33.6125 349.45L33.6125 348.2469L34.815624 348.2469L34.815624 349.45Q34.815624 350.10626 34.58125 350.5125Q34.346874 350.9344 33.846874 351.15314L33.55 350.7Q33.878124 350.5594 34.034374 350.2625Q34.190624 349.98126 34.221874 349.45L33.6125 349.45ZM36.05 347.2L37.159374 347.10626Q37.284374 347.91876 37.721874 348.325Q38.175 348.73126 38.815624 348.73126Q39.565624 348.73126 40.096874 348.15314Q40.628124 347.575 40.628124 346.6375Q40.628124 345.73126 40.1125 345.21564Q39.6125 344.6844 38.784374 344.6844Q38.284374 344.6844 37.8625 344.91876Q37.45625 345.15314 37.221874 345.5125L36.2375 345.3875L37.065624 340.98126L41.346874 340.98126L41.346874 341.98126L37.909374 341.98126L37.45625 344.29376Q38.221874 343.7469 39.065624 343.7469Q40.190624 343.7469 40.95625 344.52814Q41.7375 345.3094 41.7375 346.54376Q41.7375 347.7 41.065624 348.5594Q40.2375 349.59064 38.815624 349.59064Q37.64375 349.59064 36.89375 348.9344Q36.159374 348.27814 36.05 347.2ZM43.253124 342.91876Q43.253124 341.9969 43.70625 341.35626Q44.175 340.71564 45.05 340.71564Q45.8625 340.71564 46.39375 341.29376Q46.925 341.8719 46.925 342.98126Q46.925 344.075 46.378124 344.66876Q45.846874 345.2469 45.065624 345.2469Q44.284374 345.2469 43.76875 344.66876Q43.253124 344.09064 43.253124 342.91876ZM45.08125 341.4344Q44.690624 341.4344 44.425 341.77814Q44.175 342.1219 44.175 343.02814Q44.175 343.85626 44.425 344.2Q44.690624 344.52814 45.08125 344.52814Q45.4875 344.52814 45.7375 344.1844Q46.003124 343.84064 46.003124 342.95Q46.003124 342.10626 45.7375 341.77814Q45.471874 341.4344 45.08125 341.4344ZM45.08125 349.7625L49.784374 340.71564L50.64375 340.71564L45.95625 349.7625L45.08125 349.7625ZM48.8 347.4344Q48.8 346.5125 49.253124 345.8719Q49.721874 345.23126 50.6125 345.23126Q51.425 345.23126 51.95625 345.8094Q52.4875 346.3719 52.4875 347.4969Q52.4875 348.59064 51.940624 349.1844Q51.409374 349.7625 50.6125 349.7625Q49.846874 349.7625 49.315624 349.1844Q48.8 348.60626 48.8 347.4344ZM50.64375 345.95Q50.2375 345.95 49.971874 346.29376Q49.721874 346.6375 49.721874 347.54376Q49.721874 348.35626 49.9875 348.7Q50.253124 349.04376 50.64375 349.04376Q51.034374 349.04376 51.3 348.7Q51.565624 348.35626 51.565624 347.45Q51.565624 346.6219 51.3 346.29376Q51.034374 345.95 50.64375 345.95Z" fill-rule="nonzero"/><path stroke="#757575" stroke-width="1.0" stroke-linecap="butt" d="M18.55 336.95L157.23334 336.95L279.15802 343.92914" fill-rule="nonzero"/><path fill="#9e9e9e" d="M281.15802 343.92914C281.15802 342.82455 280.2626 341.92914 279.15802 341.92914C278.05347 341.92914 277.15802 342.82455 277.15802 343.92914C277.15802 345.0337 278.05347 345.92914 279.15802 345.92914C280.2626 345.92914 281.15802 345.0337 281.15802 343.92914" fill-rule="nonzero"/><path fill="#1a1a1a" d="M489.0125 161.44543L490.15314 161.44543L490.15314 166.41418Q490.15314 167.71106 489.85626 168.47668Q489.5594 169.22668 488.79376 169.71106Q488.02814 170.17981 486.79376 170.17981Q485.59064 170.17981 484.8094 169.77356Q484.04376 169.35168 483.71564 168.57043Q483.3875 167.77356 483.3875 166.41418L483.3875 161.44543L484.52814 161.44543L484.52814 166.39856Q484.52814 167.52356 484.73126 168.05481Q484.95 168.58606 485.45 168.88293Q485.96564 169.16418 486.7 169.16418Q487.95 169.16418 488.48126 168.60168Q489.0125 168.02356 489.0125 166.39856L489.0125 161.44543ZM492.2469 170.03918L492.2469 163.82043L493.1844 163.82043L493.1844 164.69543Q493.8719 163.67981 495.16876 163.67981Q495.73126 163.67981 496.2 163.88293Q496.6844 164.08606 496.91876 164.41418Q497.15314 164.74231 497.2469 165.17981Q497.29376 165.47668 497.29376 166.21106L497.29376 170.03918L496.2469 170.03918L496.2469 166.25793Q496.2469 165.60168 496.1219 165.28918Q495.9969 164.97668 495.6844 164.78918Q495.3719 164.58606 494.95 164.58606Q494.27814 164.58606 493.77814 165.02356Q493.29376 165.44543 493.29376 166.63293L493.29376 170.03918L492.2469 170.03918ZM503.3094 169.27356Q502.71564 169.77356 502.16876 169.97668Q501.6375 170.17981 501.0125 170.17981Q499.98126 170.17981 499.4344 169.67981Q498.8875 169.17981 498.8875 168.39856Q498.8875 167.94543 499.09064 167.57043Q499.29376 167.17981 499.6375 166.96106Q499.98126 166.72668 500.40314 166.61731Q500.7 166.52356 501.34064 166.44543Q502.60626 166.30481 503.21564 166.08606Q503.21564 165.86731 503.21564 165.82043Q503.21564 165.16418 502.91876 164.89856Q502.5125 164.55481 501.71564 164.55481Q500.98126 164.55481 500.6219 164.82043Q500.2625 165.07043 500.09064 165.72668L499.0594 165.58606Q499.2 164.92981 499.52814 164.52356Q499.85626 164.11731 500.46564 163.89856Q501.075 163.67981 501.8719 163.67981Q502.66876 163.67981 503.16876 163.86731Q503.66876 164.05481 503.90314 164.33606Q504.1375 164.61731 504.23126 165.05481Q504.27814 165.32043 504.27814 166.02356L504.27814 167.42981Q504.27814 168.89856 504.34064 169.28918Q504.41876 169.67981 504.6219 170.03918L503.5125 170.03918Q503.35626 169.71106 503.3094 169.27356ZM503.21564 166.91418Q502.6375 167.14856 501.4969 167.32043Q500.84064 167.41418 500.575 167.53918Q500.3094 167.64856 500.15314 167.86731Q500.0125 168.08606 500.0125 168.36731Q500.0125 168.78918 500.325 169.07043Q500.65314 169.35168 501.2625 169.35168Q501.8719 169.35168 502.34064 169.08606Q502.825 168.82043 503.04376 168.35168Q503.21564 167.99231 503.21564 167.30481L503.21564 166.91418ZM510.96564 170.03918L508.60626 163.82043L509.71564 163.82043L511.0594 167.53918Q511.2625 168.14856 511.45 168.78918Q511.59064 168.30481 511.84064 167.61731L513.23126 163.82043L514.3094 163.82043L511.95 170.03918L510.96564 170.03918ZM513.85626 166.92981Q513.85626 165.19543 514.8094 164.36731Q515.60626 163.67981 516.7625 163.67981Q518.04376 163.67981 518.85626 164.52356Q519.6844 165.35168 519.6844 166.83606Q519.6844 168.03918 519.325 168.72668Q518.96564 169.41418 518.2625 169.80481Q517.575 170.17981 516.7625 170.17981Q515.46564 170.17981 514.65314 169.35168Q513.85626 168.50793 513.85626 166.92981ZM514.9344 166.92981Q514.9344 168.11731 515.45 168.71106Q515.98126 169.30481 516.7625 169.30481Q517.5594 169.30481 518.075 168.71106Q518.59064 168.11731 518.59064 166.89856Q518.59064 165.74231 518.0594 165.14856Q517.54376 164.55481 516.7625 164.55481Q515.98126 164.55481 515.45 165.14856Q514.9344 165.72668 514.9344 166.92981ZM521.21564 170.03918L521.21564 161.44543L522.27814 161.44543L522.27814 170.03918L521.21564 170.03918ZM526.54376 169.10168L526.7 170.02356Q526.2469 170.11731 525.90314 170.11731Q525.325 170.11731 525.0125 169.94543Q524.7 169.75793 524.5594 169.46106Q524.4344 169.16418 524.4344 168.21106L524.4344 164.63293L523.66876 164.63293L523.66876 163.82043L524.4344 163.82043L524.4344 162.27356L525.48126 161.64856L525.48126 163.82043L526.54376 163.82043L526.54376 164.63293L525.48126 164.63293L525.48126 168.27356Q525.48126 168.72668 525.52814 168.85168Q525.59064 168.97668 525.71564 169.05481Q525.84064 169.13293 526.075 169.13293Q526.2625 169.13293 526.54376 169.10168ZM531.3094 169.27356Q530.71564 169.77356 530.16876 169.97668Q529.6375 170.17981 529.0125 170.17981Q527.98126 170.17981 527.4344 169.67981Q526.8875 169.17981 526.8875 168.39856Q526.8875 167.94543 527.09064 167.57043Q527.29376 167.17981 527.6375 166.96106Q527.98126 166.72668 528.40314 166.61731Q528.7 166.52356 529.34064 166.44543Q530.60626 166.30481 531.21564 166.08606Q531.21564 165.86731 531.21564 165.82043Q531.21564 165.16418 530.91876 164.89856Q530.5125 164.55481 529.71564 164.55481Q528.98126 164.55481 528.6219 164.82043Q528.2625 165.07043 528.09064 165.72668L527.0594 165.58606Q527.2 164.92981 527.52814 164.52356Q527.85626 164.11731 528.46564 163.89856Q529.075 163.67981 529.8719 163.67981Q530.66876 163.67981 531.16876 163.86731Q531.66876 164.05481 531.90314 164.33606Q532.1375 164.61731 532.23126 165.05481Q532.27814 165.32043 532.27814 166.02356L532.27814 167.42981Q532.27814 168.89856 532.34064 169.28918Q532.41876 169.67981 532.6219 170.03918L531.5125 170.03918Q531.35626 169.71106 531.3094 169.27356ZM531.21564 166.91418Q530.6375 167.14856 529.4969 167.32043Q528.84064 167.41418 528.575 167.53918Q528.3094 167.64856 528.15314 167.86731Q528.0125 168.08606 528.0125 168.36731Q528.0125 168.78918 528.325 169.07043Q528.65314 169.35168 529.2625 169.35168Q529.8719 169.35168 530.34064 169.08606Q530.825 168.82043 531.04376 168.35168Q531.21564 167.99231 531.21564 167.30481L531.21564 166.91418ZM541.3094 169.27356Q540.71564 169.77356 540.16876 169.97668Q539.6375 170.17981 539.0125 170.17981Q537.98126 170.17981 537.4344 169.67981Q536.8875 169.17981 536.8875 168.39856Q536.8875 167.94543 537.09064 167.57043Q537.29376 167.17981 537.6375 166.96106Q537.98126 166.72668 538.40314 166.61731Q538.7 166.52356 539.34064 166.44543Q540.60626 166.30481 541.21564 166.08606Q541.21564 165.86731 541.21564 165.82043Q541.21564 165.16418 540.91876 164.89856Q540.5125 164.55481 539.71564 164.55481Q538.98126 164.55481 538.6219 164.82043Q538.2625 165.07043 538.09064 165.72668L537.0594 165.58606Q537.2 164.92981 537.52814 164.52356Q537.85626 164.11731 538.46564 163.89856Q539.075 163.67981 539.8719 163.67981Q540.66876 163.67981 541.16876 163.86731Q541.66876 164.05481 541.90314 164.33606Q542.1375 164.61731 542.23126 165.05481Q542.27814 165.32043 542.27814 166.02356L542.27814 167.42981Q542.27814 168.89856 542.34064 169.28918Q542.41876 169.67981 542.6219 170.03918L541.5125 170.03918Q541.35626 169.71106 541.3094 169.27356ZM541.21564 166.91418Q540.6375 167.14856 539.4969 167.32043Q538.84064 167.41418 538.575 167.53918Q538.3094 167.64856 538.15314 167.86731Q538.0125 168.08606 538.0125 168.36731Q538.0125 168.78918 538.325 169.07043Q538.65314 169.35168 539.2625 169.35168Q539.8719 169.35168 540.34064 169.08606Q540.825 168.82043 541.04376 168.35168Q541.21564 167.99231 541.21564 167.30481L541.21564 166.91418ZM544.21564 170.03918L544.21564 161.44543L545.27814 161.44543L545.27814 170.03918L544.21564 170.03918ZM550.2469 170.03918L550.2469 163.82043L551.1844 163.82043L551.1844 164.69543Q551.48126 164.22668 551.96564 163.96106Q552.45 163.67981 553.075 163.67981Q553.7625 163.67981 554.2 163.96106Q554.65314 164.24231 554.825 164.75793Q555.575 163.67981 556.7469 163.67981Q557.6844 163.67981 558.16876 164.19543Q558.66876 164.69543 558.66876 165.77356L558.66876 170.03918L557.6219 170.03918L557.6219 166.11731Q557.6219 165.49231 557.5125 165.21106Q557.41876 164.92981 557.15314 164.75793Q556.8875 164.58606 556.5125 164.58606Q555.85626 164.58606 555.41876 165.02356Q554.9969 165.46106 554.9969 166.42981L554.9969 170.03918L553.9344 170.03918L553.9344 165.99231Q553.9344 165.28918 553.66876 164.94543Q553.41876 164.58606 552.84064 164.58606Q552.3875 164.58606 552.0125 164.82043Q551.6375 165.05481 551.46564 165.50793Q551.29376 165.96106 551.29376 166.80481L551.29376 170.03918L550.2469 170.03918ZM565.4969 168.03918L566.59064 168.16418Q566.34064 169.11731 565.6375 169.64856Q564.9344 170.17981 563.85626 170.17981Q562.4969 170.17981 561.6844 169.33606Q560.8875 168.49231 560.8875 166.97668Q560.8875 165.41418 561.7 164.55481Q562.5125 163.67981 563.79376 163.67981Q565.04376 163.67981 565.825 164.52356Q566.6219 165.36731 566.6219 166.91418Q566.6219 167.00793 566.6219 167.19543L561.98126 167.19543Q562.04376 168.22668 562.5594 168.77356Q563.075 169.30481 563.85626 169.30481Q564.4344 169.30481 564.84064 169.00793Q565.2625 168.69543 565.4969 168.03918ZM562.04376 166.33606L565.5125 166.33606Q565.45 165.53918 565.1219 165.14856Q564.60626 164.53918 563.8094 164.53918Q563.075 164.53918 562.575 165.02356Q562.09064 165.50793 562.04376 166.33606ZM567.825 168.17981L568.85626 168.02356Q568.95 168.64856 569.34064 168.97668Q569.7469 169.30481 570.48126 169.30481Q571.2 169.30481 571.54376 169.02356Q571.90314 168.72668 571.90314 168.32043Q571.90314 167.96106 571.59064 167.75793Q571.3719 167.61731 570.5125 167.39856Q569.35626 167.10168 568.90314 166.89856Q568.46564 166.67981 568.23126 166.30481Q567.9969 165.92981 567.9969 165.46106Q567.9969 165.05481 568.1844 164.69543Q568.3719 164.33606 568.7 164.10168Q568.95 163.92981 569.3719 163.80481Q569.79376 163.67981 570.29376 163.67981Q571.0125 163.67981 571.5594 163.89856Q572.1219 164.10168 572.3875 164.46106Q572.65314 164.82043 572.7469 165.41418L571.71564 165.55481Q571.65314 165.08606 571.3094 164.82043Q570.98126 164.53918 570.35626 164.53918Q569.6375 164.53918 569.325 164.78918Q569.0125 165.02356 569.0125 165.35168Q569.0125 165.55481 569.1375 165.71106Q569.27814 165.88293 569.54376 165.99231Q569.7 166.05481 570.48126 166.25793Q571.60626 166.57043 572.04376 166.75793Q572.48126 166.94543 572.73126 167.30481Q572.98126 167.66418 572.98126 168.21106Q572.98126 168.74231 572.66876 169.21106Q572.3719 169.66418 571.79376 169.92981Q571.21564 170.17981 570.48126 170.17981Q569.2625 170.17981 568.6219 169.67981Q567.9969 169.16418 567.825 168.17981ZM579.4969 168.03918L580.59064 168.16418Q580.34064 169.11731 579.6375 169.64856Q578.9344 170.17981 577.85626 170.17981Q576.4969 170.17981 575.6844 169.33606Q574.8875 168.49231 574.8875 166.97668Q574.8875 165.41418 575.7 164.55481Q576.5125 163.67981 577.79376 163.67981Q579.04376 163.67981 579.825 164.52356Q580.6219 165.36731 580.6219 166.91418Q580.6219 167.00793 580.6219 167.19543L575.98126 167.19543Q576.04376 168.22668 576.5594 168.77356Q577.075 169.30481 577.85626 169.30481Q578.4344 169.30481 578.84064 169.00793Q579.2625 168.69543 579.4969 168.03918ZM576.04376 166.33606L579.5125 166.33606Q579.45 165.53918 579.1219 165.14856Q578.60626 164.53918 577.8094 164.53918Q577.075 164.53918 576.575 165.02356Q576.09064 165.50793 576.04376 166.33606Z" fill-rule="nonzero"/><path fill="#9e9e9e" d="M546.95 184.77356L548.0125 184.63293Q548.1844 185.52356 548.6219 185.92981Q549.0594 186.32043 549.6844 186.32043Q550.4344 186.32043 550.95 185.80481Q551.46564 185.28918 551.46564 184.52356Q551.46564 183.80481 550.98126 183.33606Q550.5125 182.85168 549.77814 182.85168Q549.48126 182.85168 549.02814 182.97668L549.15314 182.03918Q549.2625 182.05481 549.325 182.05481Q549.9969 182.05481 550.52814 181.71106Q551.075 181.35168 551.075 180.61731Q551.075 180.03918 550.6844 179.66418Q550.29376 179.27356 549.66876 179.27356Q549.0594 179.27356 548.6375 179.66418Q548.23126 180.05481 548.1219 180.82043L547.0594 180.63293Q547.2469 179.58606 547.9344 179.00793Q548.6219 178.41418 549.6375 178.41418Q550.34064 178.41418 550.9344 178.72668Q551.52814 179.02356 551.84064 179.53918Q552.15314 180.05481 552.15314 180.64856Q552.15314 181.19543 551.85626 181.66418Q551.5594 182.11731 550.98126 182.38293Q551.73126 182.55481 552.15314 183.11731Q552.575 183.66418 552.575 184.50793Q552.575 185.63293 551.7469 186.41418Q550.9344 187.19543 549.6844 187.19543Q548.5594 187.19543 547.8094 186.52356Q547.0594 185.83606 546.95 184.77356ZM554.10626 185.05481L555.1219 184.96106Q555.2469 185.67981 555.60626 186.00793Q555.98126 186.32043 556.54376 186.32043Q557.02814 186.32043 557.3875 186.10168Q557.7625 185.86731 557.9969 185.50793Q558.23126 185.13293 558.3875 184.50793Q558.54376 183.86731 558.54376 183.21106Q558.54376 183.13293 558.54376 182.99231Q558.23126 183.49231 557.6844 183.82043Q557.1375 184.13293 556.4969 184.13293Q555.41876 184.13293 554.6844 183.36731Q553.95 182.58606 553.95 181.32043Q553.95 180.00793 554.71564 179.21106Q555.4969 178.41418 556.65314 178.41418Q557.48126 178.41418 558.16876 178.86731Q558.8719 179.32043 559.23126 180.16418Q559.59064 180.99231 559.59064 182.57043Q559.59064 184.21106 559.23126 185.19543Q558.8875 186.16418 558.16876 186.67981Q557.46564 187.17981 556.52814 187.17981Q555.5125 187.17981 554.8719 186.63293Q554.23126 186.07043 554.10626 185.05481ZM558.41876 181.25793Q558.41876 180.35168 557.9344 179.82043Q557.46564 179.28918 556.77814 179.28918Q556.075 179.28918 555.54376 179.86731Q555.02814 180.42981 555.02814 181.35168Q555.02814 182.16418 555.52814 182.67981Q556.02814 183.19543 556.7469 183.19543Q557.48126 183.19543 557.95 182.67981Q558.41876 182.16418 558.41876 181.25793ZM561.5125 187.03918L561.5125 185.83606L562.71564 185.83606L562.71564 187.03918Q562.71564 187.69543 562.48126 188.10168Q562.2469 188.52356 561.7469 188.74231L561.45 188.28918Q561.77814 188.14856 561.9344 187.85168Q562.09064 187.57043 562.1219 187.03918L561.5125 187.03918ZM564.0125 179.57043L564.0125 178.55481L569.575 178.55481L569.575 179.38293Q568.7625 180.25793 567.95 181.71106Q567.15314 183.14856 566.71564 184.67981Q566.3875 185.75793 566.3094 187.03918L565.21564 187.03918Q565.23126 186.02356 565.60626 184.58606Q565.9969 183.14856 566.7 181.82043Q567.41876 180.49231 568.23126 179.57043L564.0125 179.57043ZM571.15314 180.50793Q571.15314 179.58606 571.60626 178.94543Q572.075 178.30481 572.95 178.30481Q573.7625 178.30481 574.29376 178.88293Q574.825 179.46106 574.825 180.57043Q574.825 181.66418 574.27814 182.25793Q573.7469 182.83606 572.96564 182.83606Q572.1844 182.83606 571.66876 182.25793Q571.15314 181.67981 571.15314 180.50793ZM572.98126 179.02356Q572.59064 179.02356 572.325 179.36731Q572.075 179.71106 572.075 180.61731Q572.075 181.44543 572.325 181.78918Q572.59064 182.11731 572.98126 182.11731Q573.3875 182.11731 573.6375 181.77356Q573.90314 181.42981 573.90314 180.53918Q573.90314 179.69543 573.6375 179.36731Q573.3719 179.02356 572.98126 179.02356ZM572.98126 187.35168L577.6844 178.30481L578.54376 178.30481L573.85626 187.35168L572.98126 187.35168ZM576.7 185.02356Q576.7 184.10168 577.15314 183.46106Q577.6219 182.82043 578.5125 182.82043Q579.325 182.82043 579.85626 183.39856Q580.3875 183.96106 580.3875 185.08606Q580.3875 186.17981 579.84064 186.77356Q579.3094 187.35168 578.5125 187.35168Q577.7469 187.35168 577.21564 186.77356Q576.7 186.19543 576.7 185.02356ZM578.54376 183.53918Q578.1375 183.53918 577.8719 183.88293Q577.6219 184.22668 577.6219 185.13293Q577.6219 185.94543 577.8875 186.28918Q578.15314 186.63293 578.54376 186.63293Q578.9344 186.63293 579.2 186.28918Q579.46564 185.94543 579.46564 185.03918Q579.46564 184.21106 579.2 183.88293Q578.9344 183.53918 578.54376 183.53918Z" fill-rule="nonzero"/><path stroke="#757575" stroke-width="1.0" stroke-linecap="butt" d="M581.45 174.53918L442.76666 174.53918L423.24176 174.53918" fill-rule="nonzero"/><path fill="#9e9e9e" d="M425.24176 174.53918C425.24176 173.43462 424.3463 172.53918 423.24176 172.53918C422.13718 172.53918 421.24176 173.43462 421.24176 174.53918C421.24176 175.64375 422.13718 176.53918 423.24176 176.53918C424.3463 176.53918 425.24176 175.64375 425.24176 174.53918" fill-rule="nonzero"/><path fill="#1a1a1a" d="M455.3719 320.99747L455.3719 312.40372L458.6219 312.40372Q459.46564 312.40372 459.91876 312.48184Q460.5594 312.59122 460.98126 312.8881Q461.41876 313.18497 461.66876 313.71622Q461.9344 314.24747 461.9344 314.8881Q461.9344 315.98184 461.23126 316.74747Q460.54376 317.49747 458.71564 317.49747L456.5125 317.49747L456.5125 320.99747L455.3719 320.99747ZM456.5125 316.49747L458.73126 316.49747Q459.84064 316.49747 460.29376 316.09122Q460.7625 315.66934 460.7625 314.91934Q460.7625 314.3881 460.48126 314.0131Q460.21564 313.62247 459.77814 313.49747Q459.48126 313.41934 458.71564 313.41934L456.5125 313.41934L456.5125 316.49747ZM463.2469 313.62247L463.2469 312.40372L464.3094 312.40372L464.3094 313.62247L463.2469 313.62247ZM463.2469 320.99747L463.2469 314.77872L464.3094 314.77872L464.3094 320.99747L463.2469 320.99747ZM470.325 320.99747L470.325 320.0756Q469.59064 321.1381 468.34064 321.1381Q467.79376 321.1381 467.3094 320.93497Q466.84064 320.71622 466.60626 320.40372Q466.3719 320.0756 466.27814 319.60684Q466.21564 319.30997 466.21564 318.62247L466.21564 314.77872L467.27814 314.77872L467.27814 318.23184Q467.27814 319.04434 467.34064 319.34122Q467.4344 319.74747 467.7469 319.99747Q468.075 320.23184 468.5594 320.23184Q469.02814 320.23184 469.4344 319.99747Q469.85626 319.74747 470.02814 319.3256Q470.21564 318.90372 470.21564 318.10684L470.21564 314.77872L471.2625 314.77872L471.2625 320.99747L470.325 320.99747ZM469.71564 313.99747L468.8719 313.99747L467.5125 312.35684L468.9344 312.35684L469.71564 313.99747ZM477.96564 320.99747L475.60626 314.77872L476.71564 314.77872L478.0594 318.49747Q478.2625 319.10684 478.45 319.74747Q478.59064 319.2631 478.84064 318.5756L480.23126 314.77872L481.3094 314.77872L478.95 320.99747L477.96564 320.99747ZM480.85626 317.8881Q480.85626 316.15372 481.8094 315.3256Q482.60626 314.6381 483.7625 314.6381Q485.04376 314.6381 485.85626 315.48184Q486.6844 316.30997 486.6844 317.79434Q486.6844 318.99747 486.325 319.68497Q485.96564 320.37247 485.2625 320.7631Q484.575 321.1381 483.7625 321.1381Q482.46564 321.1381 481.65314 320.30997Q480.85626 319.46622 480.85626 317.8881ZM481.9344 317.8881Q481.9344 319.0756 482.45 319.66934Q482.98126 320.2631 483.7625 320.2631Q484.5594 320.2631 485.075 319.66934Q485.59064 319.0756 485.59064 317.85684Q485.59064 316.7006 485.0594 316.10684Q484.54376 315.5131 483.7625 315.5131Q482.98126 315.5131 482.45 316.10684Q481.9344 316.68497 481.9344 317.8881ZM488.21564 320.99747L488.21564 312.40372L489.27814 312.40372L489.27814 320.99747L488.21564 320.99747ZM493.54376 320.05997L493.7 320.98184Q493.2469 321.0756 492.90314 321.0756Q492.325 321.0756 492.0125 320.90372Q491.7 320.71622 491.5594 320.41934Q491.4344 320.12247 491.4344 319.16934L491.4344 315.59122L490.66876 315.59122L490.66876 314.77872L491.4344 314.77872L491.4344 313.23184L492.48126 312.60684L492.48126 314.77872L493.54376 314.77872L493.54376 315.59122L492.48126 315.59122L492.48126 319.23184Q492.48126 319.68497 492.52814 319.80997Q492.59064 319.93497 492.71564 320.0131Q492.84064 320.09122 493.075 320.09122Q493.2625 320.09122 493.54376 320.05997ZM498.4969 318.99747L499.59064 319.12247Q499.34064 320.0756 498.6375 320.60684Q497.9344 321.1381 496.85626 321.1381Q495.4969 321.1381 494.6844 320.29434Q493.8875 319.4506 493.8875 317.93497Q493.8875 316.37247 494.7 315.5131Q495.5125 314.6381 496.79376 314.6381Q498.04376 314.6381 498.825 315.48184Q499.6219 316.3256 499.6219 317.87247Q499.6219 317.96622 499.6219 318.15372L494.98126 318.15372Q495.04376 319.18497 495.5594 319.73184Q496.075 320.2631 496.85626 320.2631Q497.4344 320.2631 497.84064 319.96622Q498.2625 319.65372 498.4969 318.99747ZM495.04376 317.29434L498.5125 317.29434Q498.45 316.49747 498.1219 316.10684Q497.60626 315.49747 496.8094 315.49747Q496.075 315.49747 495.575 315.98184Q495.09064 316.46622 495.04376 317.29434ZM508.3094 320.23184Q507.71564 320.73184 507.16876 320.93497Q506.6375 321.1381 506.0125 321.1381Q504.98126 321.1381 504.4344 320.6381Q503.8875 320.1381 503.8875 319.35684Q503.8875 318.90372 504.09064 318.52872Q504.29376 318.1381 504.6375 317.91934Q504.98126 317.68497 505.40314 317.5756Q505.7 317.48184 506.34064 317.40372Q507.60626 317.2631 508.21564 317.04434Q508.21564 316.8256 508.21564 316.77872Q508.21564 316.12247 507.91876 315.85684Q507.5125 315.5131 506.71564 315.5131Q505.98126 315.5131 505.6219 315.77872Q505.2625 316.02872 505.09064 316.68497L504.0594 316.54434Q504.2 315.8881 504.52814 315.48184Q504.85626 315.0756 505.46564 314.85684Q506.075 314.6381 506.8719 314.6381Q507.66876 314.6381 508.16876 314.8256Q508.66876 315.0131 508.90314 315.29434Q509.1375 315.5756 509.23126 316.0131Q509.27814 316.27872 509.27814 316.98184L509.27814 318.3881Q509.27814 319.85684 509.34064 320.24747Q509.41876 320.6381 509.6219 320.99747L508.5125 320.99747Q508.35626 320.66934 508.3094 320.23184ZM508.21564 317.87247Q507.6375 318.10684 506.4969 318.27872Q505.84064 318.37247 505.575 318.49747Q505.3094 318.60684 505.15314 318.8256Q505.0125 319.04434 505.0125 319.3256Q505.0125 319.74747 505.325 320.02872Q505.65314 320.30997 506.2625 320.30997Q506.8719 320.30997 507.34064 320.04434Q507.825 319.77872 508.04376 319.30997Q508.21564 318.9506 508.21564 318.2631L508.21564 317.87247ZM511.21564 320.99747L511.21564 312.40372L512.27814 312.40372L512.27814 320.99747L511.21564 320.99747ZM514.21564 320.99747L514.21564 312.40372L515.27814 312.40372L515.27814 320.99747L514.21564 320.99747ZM521.3094 320.23184Q520.71564 320.73184 520.16876 320.93497Q519.6375 321.1381 519.0125 321.1381Q517.98126 321.1381 517.4344 320.6381Q516.8875 320.1381 516.8875 319.35684Q516.8875 318.90372 517.09064 318.52872Q517.29376 318.1381 517.6375 317.91934Q517.98126 317.68497 518.40314 317.5756Q518.7 317.48184 519.34064 317.40372Q520.60626 317.2631 521.21564 317.04434Q521.21564 316.8256 521.21564 316.77872Q521.21564 316.12247 520.91876 315.85684Q520.5125 315.5131 519.71564 315.5131Q518.98126 315.5131 518.6219 315.77872Q518.2625 316.02872 518.09064 316.68497L517.0594 316.54434Q517.2 315.8881 517.52814 315.48184Q517.85626 315.0756 518.46564 314.85684Q519.075 314.6381 519.8719 314.6381Q520.66876 314.6381 521.16876 314.8256Q521.66876 315.0131 521.90314 315.29434Q522.1375 315.5756 522.23126 316.0131Q522.27814 316.27872 522.27814 316.98184L522.27814 318.3881Q522.27814 319.85684 522.34064 320.24747Q522.41876 320.6381 522.6219 320.99747L521.5125 320.99747Q521.35626 320.66934 521.3094 320.23184ZM521.21564 317.87247Q520.6375 318.10684 519.4969 318.27872Q518.84064 318.37247 518.575 318.49747Q518.3094 318.60684 518.15314 318.8256Q518.0125 319.04434 518.0125 319.3256Q518.0125 319.74747 518.325 320.02872Q518.65314 320.30997 519.2625 320.30997Q519.8719 320.30997 520.34064 320.04434Q520.825 319.77872 521.04376 319.30997Q521.21564 318.9506 521.21564 318.2631L521.21564 317.87247ZM526.825 319.1381L527.85626 318.98184Q527.95 319.60684 528.34064 319.93497Q528.7469 320.2631 529.48126 320.2631Q530.2 320.2631 530.54376 319.98184Q530.90314 319.68497 530.90314 319.27872Q530.90314 318.91934 530.59064 318.71622Q530.3719 318.5756 529.5125 318.35684Q528.35626 318.05997 527.90314 317.85684Q527.46564 317.6381 527.23126 317.2631Q526.9969 316.8881 526.9969 316.41934Q526.9969 316.0131 527.1844 315.65372Q527.3719 315.29434 527.7 315.05997Q527.95 314.8881 528.3719 314.7631Q528.79376 314.6381 529.29376 314.6381Q530.0125 314.6381 530.5594 314.85684Q531.1219 315.05997 531.3875 315.41934Q531.65314 315.77872 531.7469 316.37247L530.71564 316.5131Q530.65314 316.04434 530.3094 315.77872Q529.98126 315.49747 529.35626 315.49747Q528.6375 315.49747 528.325 315.74747Q528.0125 315.98184 528.0125 316.30997Q528.0125 316.5131 528.1375 316.66934Q528.27814 316.84122 528.54376 316.9506Q528.7 317.0131 529.48126 317.21622Q530.60626 317.52872 531.04376 317.71622Q531.48126 317.90372 531.73126 318.2631Q531.98126 318.62247 531.98126 319.16934Q531.98126 319.7006 531.66876 320.16934Q531.3719 320.62247 530.79376 320.8881Q530.21564 321.1381 529.48126 321.1381Q528.2625 321.1381 527.6219 320.6381Q526.9969 320.12247 526.825 319.1381ZM538.4969 318.99747L539.59064 319.12247Q539.34064 320.0756 538.6375 320.60684Q537.9344 321.1381 536.85626 321.1381Q535.4969 321.1381 534.6844 320.29434Q533.8875 319.4506 533.8875 317.93497Q533.8875 316.37247 534.7 315.5131Q535.5125 314.6381 536.79376 314.6381Q538.04376 314.6381 538.825 315.48184Q539.6219 316.3256 539.6219 317.87247Q539.6219 317.96622 539.6219 318.15372L534.98126 318.15372Q535.04376 319.18497 535.5594 319.73184Q536.075 320.2631 536.85626 320.2631Q537.4344 320.2631 537.84064 319.96622Q538.2625 319.65372 538.4969 318.99747ZM535.04376 317.29434L538.5125 317.29434Q538.45 316.49747 538.1219 316.10684Q537.60626 315.49747 536.8094 315.49747Q536.075 315.49747 535.575 315.98184Q535.09064 316.46622 535.04376 317.29434ZM543.54376 320.05997L543.7 320.98184Q543.2469 321.0756 542.90314 321.0756Q542.325 321.0756 542.0125 320.90372Q541.7 320.71622 541.5594 320.41934Q541.4344 320.12247 541.4344 319.16934L541.4344 315.59122L540.66876 315.59122L540.66876 314.77872L541.4344 314.77872L541.4344 313.23184L542.48126 312.60684L542.48126 314.77872L543.54376 314.77872L543.54376 315.59122L542.48126 315.59122L542.48126 319.23184Q542.48126 319.68497 542.52814 319.80997Q542.59064 319.93497 542.71564 320.0131Q542.84064 320.09122 543.075 320.09122Q543.2625 320.09122 543.54376 320.05997ZM546.54376 320.05997L546.7 320.98184Q546.2469 321.0756 545.90314 321.0756Q545.325 321.0756 545.0125 320.90372Q544.7 320.71622 544.5594 320.41934Q544.4344 320.12247 544.4344 319.16934L544.4344 315.59122L543.66876 315.59122L543.66876 314.77872L544.4344 314.77872L544.4344 313.23184L545.48126 312.60684L545.48126 314.77872L546.54376 314.77872L546.54376 315.59122L545.48126 315.59122L545.48126 319.23184Q545.48126 319.68497 545.52814 319.80997Q545.59064 319.93497 545.71564 320.0131Q545.84064 320.09122 546.075 320.09122Q546.2625 320.09122 546.54376 320.05997ZM547.2469 313.62247L547.2469 312.40372L548.3094 312.40372L548.3094 313.62247L547.2469 313.62247ZM547.2469 320.99747L547.2469 314.77872L548.3094 314.77872L548.3094 320.99747L547.2469 320.99747ZM550.2469 320.99747L550.2469 314.77872L551.1844 314.77872L551.1844 315.65372Q551.48126 315.18497 551.96564 314.91934Q552.45 314.6381 553.075 314.6381Q553.7625 314.6381 554.2 314.91934Q554.65314 315.2006 554.825 315.71622Q555.575 314.6381 556.7469 314.6381Q557.6844 314.6381 558.16876 315.15372Q558.66876 315.65372 558.66876 316.73184L558.66876 320.99747L557.6219 320.99747L557.6219 317.0756Q557.6219 316.4506 557.5125 316.16934Q557.41876 315.8881 557.15314 315.71622Q556.8875 315.54434 556.5125 315.54434Q555.85626 315.54434 555.41876 315.98184Q554.9969 316.41934 554.9969 317.3881L554.9969 320.99747L553.9344 320.99747L553.9344 316.9506Q553.9344 316.24747 553.66876 315.90372Q553.41876 315.54434 552.84064 315.54434Q552.3875 315.54434 552.0125 315.77872Q551.6375 316.0131 551.46564 316.46622Q551.29376 316.91934 551.29376 317.7631L551.29376 320.99747L550.2469 320.99747ZM565.3094 320.23184Q564.71564 320.73184 564.16876 320.93497Q563.6375 321.1381 563.0125 321.1381Q561.98126 321.1381 561.4344 320.6381Q560.8875 320.1381 560.8875 319.35684Q560.8875 318.90372 561.09064 318.52872Q561.29376 318.1381 561.6375 317.91934Q561.98126 317.68497 562.40314 317.5756Q562.7 317.48184 563.34064 317.40372Q564.60626 317.2631 565.21564 317.04434Q565.21564 316.8256 565.21564 316.77872Q565.21564 316.12247 564.91876 315.85684Q564.5125 315.5131 563.71564 315.5131Q562.98126 315.5131 562.6219 315.77872Q562.2625 316.02872 562.09064 316.68497L561.0594 316.54434Q561.2 315.8881 561.52814 315.48184Q561.85626 315.0756 562.46564 314.85684Q563.075 314.6381 563.8719 314.6381Q564.66876 314.6381 565.16876 314.8256Q565.66876 315.0131 565.90314 315.29434Q566.1375 315.5756 566.23126 316.0131Q566.27814 316.27872 566.27814 316.98184L566.27814 318.3881Q566.27814 319.85684 566.34064 320.24747Q566.41876 320.6381 566.6219 320.99747L565.5125 320.99747Q565.35626 320.66934 565.3094 320.23184ZM565.21564 317.87247Q564.6375 318.10684 563.4969 318.27872Q562.84064 318.37247 562.575 318.49747Q562.3094 318.60684 562.15314 318.8256Q562.0125 319.04434 562.0125 319.3256Q562.0125 319.74747 562.325 320.02872Q562.65314 320.30997 563.2625 320.30997Q563.8719 320.30997 564.34064 320.04434Q564.825 319.77872 565.04376 319.30997Q565.21564 318.9506 565.21564 318.2631L565.21564 317.87247ZM568.2469 320.99747L568.2469 314.77872L569.1844 314.77872L569.1844 315.65372Q569.8719 314.6381 571.16876 314.6381Q571.73126 314.6381 572.2 314.84122Q572.6844 315.04434 572.91876 315.37247Q573.15314 315.7006 573.2469 316.1381Q573.29376 316.43497 573.29376 317.16934L573.29376 320.99747L572.2469 320.99747L572.2469 317.21622Q572.2469 316.55997 572.1219 316.24747Q571.9969 315.93497 571.6844 315.74747Q571.3719 315.54434 570.95 315.54434Q570.27814 315.54434 569.77814 315.98184Q569.29376 316.40372 569.29376 317.59122L569.29376 320.99747L568.2469 320.99747ZM579.3094 320.23184Q578.71564 320.73184 578.16876 320.93497Q577.6375 321.1381 577.0125 321.1381Q575.98126 321.1381 575.4344 320.6381Q574.8875 320.1381 574.8875 319.35684Q574.8875 318.90372 575.09064 318.52872Q575.29376 318.1381 575.6375 317.91934Q575.98126 317.68497 576.40314 317.5756Q576.7 317.48184 577.34064 317.40372Q578.60626 317.2631 579.21564 317.04434Q579.21564 316.8256 579.21564 316.77872Q579.21564 316.12247 578.91876 315.85684Q578.5125 315.5131 577.71564 315.5131Q576.98126 315.5131 576.6219 315.77872Q576.2625 316.02872 576.09064 316.68497L575.0594 316.54434Q575.2 315.8881 575.52814 315.48184Q575.85626 315.0756 576.46564 314.85684Q577.075 314.6381 577.8719 314.6381Q578.66876 314.6381 579.16876 314.8256Q579.66876 315.0131 579.90314 315.29434Q580.1375 315.5756 580.23126 316.0131Q580.27814 316.27872 580.27814 316.98184L580.27814 318.3881Q580.27814 319.85684 580.34064 320.24747Q580.41876 320.6381 580.6219 320.99747L579.5125 320.99747Q579.35626 320.66934 579.3094 320.23184ZM579.21564 317.87247Q578.6375 318.10684 577.4969 318.27872Q576.84064 318.37247 576.575 318.49747Q576.3094 318.60684 576.15314 318.8256Q576.0125 319.04434 576.0125 319.3256Q576.0125 319.74747 576.325 320.02872Q576.65314 320.30997 577.2625 320.30997Q577.8719 320.30997 578.34064 320.04434Q578.825 319.77872 579.04376 319.30997Q579.21564 318.9506 579.21564 318.2631L579.21564 317.87247Z" fill-rule="nonzero"/><path fill="#9e9e9e" d="M559.4969 336.98184L559.4969 337.99747L553.8094 337.99747Q553.8094 337.62247 553.9344 337.2631Q554.15314 336.68497 554.6219 336.12247Q555.10626 335.55997 556.0125 334.8256Q557.41876 333.66934 557.90314 332.99747Q558.40314 332.3256 558.40314 331.73184Q558.40314 331.10684 557.95 330.68497Q557.4969 330.24747 556.77814 330.24747Q556.0125 330.24747 555.5594 330.7006Q555.10626 331.15372 555.09064 331.96622L554.0125 331.85684Q554.1219 330.6381 554.84064 330.0131Q555.575 329.37247 556.8094 329.37247Q558.04376 329.37247 558.7625 330.05997Q559.48126 330.74747 559.48126 331.7631Q559.48126 332.27872 559.2625 332.77872Q559.0594 333.2631 558.5594 333.8256Q558.075 334.37247 556.95 335.3256Q555.9969 336.12247 555.71564 336.41934Q555.45 336.7006 555.27814 336.98184L559.4969 336.98184ZM561.5125 337.99747L561.5125 336.79434L562.71564 336.79434L562.71564 337.99747Q562.71564 338.65372 562.48126 339.05997Q562.2469 339.48184 561.7469 339.7006L561.45 339.24747Q561.77814 339.10684 561.9344 338.80997Q562.09064 338.52872 562.1219 337.99747L561.5125 337.99747ZM569.41876 331.5131L568.3719 331.59122Q568.23126 330.96622 567.98126 330.68497Q567.54376 330.23184 566.91876 330.23184Q566.41876 330.23184 566.02814 330.5131Q565.54376 330.8881 565.2469 331.59122Q564.96564 332.27872 564.95 333.55997Q565.325 332.98184 565.8719 332.7006Q566.4344 332.41934 567.04376 332.41934Q568.09064 332.41934 568.825 333.2006Q569.575 333.98184 569.575 335.2006Q569.575 336.0131 569.21564 336.71622Q568.8719 337.40372 568.2625 337.77872Q567.65314 338.1381 566.8875 338.1381Q565.5594 338.1381 564.73126 337.16934Q563.90314 336.2006 563.90314 333.98184Q563.90314 331.48184 564.825 330.35684Q565.6219 329.37247 566.98126 329.37247Q567.9969 329.37247 568.6375 329.9506Q569.29376 330.5131 569.41876 331.5131ZM565.1219 335.21622Q565.1219 335.7631 565.34064 336.2631Q565.575 336.74747 565.98126 337.0131Q566.40314 337.27872 566.8719 337.27872Q567.52814 337.27872 568.0125 336.74747Q568.4969 336.2006 568.4969 335.27872Q568.4969 334.3881 568.0125 333.87247Q567.54376 333.35684 566.825 333.35684Q566.10626 333.35684 565.60626 333.87247Q565.1219 334.3881 565.1219 335.21622ZM571.15314 331.46622Q571.15314 330.54434 571.60626 329.90372Q572.075 329.2631 572.95 329.2631Q573.7625 329.2631 574.29376 329.84122Q574.825 330.41934 574.825 331.52872Q574.825 332.62247 574.27814 333.21622Q573.7469 333.79434 572.96564 333.79434Q572.1844 333.79434 571.66876 333.21622Q571.15314 332.6381 571.15314 331.46622ZM572.98126 329.98184Q572.59064 329.98184 572.325 330.3256Q572.075 330.66934 572.075 331.5756Q572.075 332.40372 572.325 332.74747Q572.59064 333.0756 572.98126 333.0756Q573.3875 333.0756 573.6375 332.73184Q573.90314 332.3881 573.90314 331.49747Q573.90314 330.65372 573.6375 330.3256Q573.3719 329.98184 572.98126 329.98184ZM572.98126 338.30997L577.6844 329.2631L578.54376 329.2631L573.85626 338.30997L572.98126 338.30997ZM576.7 335.98184Q576.7 335.05997 577.15314 334.41934Q577.6219 333.77872 578.5125 333.77872Q579.325 333.77872 579.85626 334.35684Q580.3875 334.91934 580.3875 336.04434Q580.3875 337.1381 579.84064 337.73184Q579.3094 338.30997 578.5125 338.30997Q577.7469 338.30997 577.21564 337.73184Q576.7 337.15372 576.7 335.98184ZM578.54376 334.49747Q578.1375 334.49747 577.8719 334.84122Q577.6219 335.18497 577.6219 336.09122Q577.6219 336.90372 577.8875 337.24747Q578.15314 337.59122 578.54376 337.59122Q578.9344 337.59122 579.2 337.24747Q579.46564 336.90372 579.46564 335.99747Q579.46564 335.16934 579.2 334.84122Q578.9344 334.49747 578.54376 334.49747Z" fill-rule="nonzero"/><path stroke="#757575" stroke-width="1.0" stroke-linecap="butt" d="M581.45 325.49747L442.76666 325.49747L369.44226 325.49747" fill-rule="nonzero"/><path fill="#9e9e9e" d="M371.44226 325.49747C371.44226 324.3929 370.5468 323.49747 369.44226 323.49747C368.33768 323.49747 367.44226 324.3929 367.44226 325.49747C367.44226 326.60205 368.33768 327.49747 369.44226 327.49747C370.5468 327.49747 371.44226 326.60205 371.44226 325.49747" fill-rule="nonzero"/><path fill="#757575" d="M30.940624 35.01875Q32.26875 35.925 33.378124 36.346874L32.815624 37.659374Q31.26875 37.1125 29.7375 35.909374Q28.14375 36.8 26.221874 36.8Q24.284374 36.8 22.690624 35.8625Q21.1125 34.925 20.253124 33.221874Q19.409374 31.51875 19.409374 29.39375Q19.409374 27.26875 20.26875 25.534374Q21.128124 23.8 22.70625 22.89375Q24.3 21.971874 26.26875 21.971874Q28.253124 21.971874 29.83125 22.925Q31.425 23.8625 32.253124 25.565624Q33.096874 27.253124 33.096874 29.378124Q33.096874 31.14375 32.565624 32.565624Q32.034374 33.971874 30.940624 35.01875ZM26.76875 32.596874Q28.409374 33.05 29.471874 33.95625Q31.14375 32.440624 31.14375 29.378124Q31.14375 27.64375 30.55 26.346874Q29.971874 25.05 28.83125 24.33125Q27.690624 23.6125 26.26875 23.6125Q24.159374 23.6125 22.753124 25.065624Q21.3625 26.503124 21.3625 29.39375Q21.3625 32.190624 22.7375 33.690624Q24.128124 35.175 26.26875 35.175Q27.284374 35.175 28.190624 34.784374Q27.3 34.221874 26.315624 33.971874L26.76875 32.596874ZM42.659374 36.55L42.659374 35.01875Q41.45625 36.784374 39.378124 36.784374Q38.45625 36.784374 37.659374 36.440624Q36.8625 36.08125 36.471874 35.55Q36.096874 35.01875 35.940624 34.2375Q35.83125 33.721874 35.83125 32.596874L35.83125 26.175L37.58125 26.175L37.58125 31.925Q37.58125 33.3 37.690624 33.784374Q37.8625 34.471874 38.39375 34.878124Q38.940624 35.26875 39.721874 35.26875Q40.51875 35.26875 41.20625 34.8625Q41.909374 34.45625 42.190624 33.76875Q42.4875 33.065624 42.4875 31.7375L42.4875 26.175L44.2375 26.175L44.2375 36.55L42.659374 36.55ZM52.64375 35.26875Q51.659374 36.096874 50.753124 36.440624Q49.846874 36.784374 48.815624 36.784374Q47.1125 36.784374 46.190624 35.95625Q45.26875 35.1125 45.26875 33.815624Q45.26875 33.05 45.6125 32.425Q45.971874 31.8 46.534374 31.425Q47.096874 31.034374 47.8 30.83125Q48.315624 30.70625 49.3625 30.565624Q51.4875 30.315624 52.4875 29.971874Q52.503124 29.6125 52.503124 29.503124Q52.503124 28.440624 52.003124 27.9875Q51.33125 27.39375 50.003124 27.39375Q48.753124 27.39375 48.159374 27.83125Q47.58125 28.26875 47.3 29.378124L45.58125 29.14375Q45.815624 28.034374 46.346874 27.3625Q46.878124 26.675 47.89375 26.315624Q48.909374 25.940624 50.253124 25.940624Q51.58125 25.940624 52.409374 26.253124Q53.2375 26.565624 53.628124 27.05Q54.01875 27.51875 54.175 28.2375Q54.26875 28.690624 54.26875 29.8625L54.26875 32.20625Q54.26875 34.659374 54.378124 35.315624Q54.4875 35.95625 54.83125 36.55L52.9875 36.55Q52.721874 36.003124 52.64375 35.26875ZM52.4875 31.346874Q51.534374 31.7375 49.6125 32.003124Q48.534374 32.159374 48.08125 32.3625Q47.64375 32.55 47.39375 32.925Q47.14375 33.3 47.14375 33.76875Q47.14375 34.471874 47.675 34.940624Q48.20625 35.409374 49.2375 35.409374Q50.253124 35.409374 51.034374 34.971874Q51.83125 34.51875 52.20625 33.753124Q52.4875 33.14375 52.4875 31.9875L52.4875 31.346874ZM56.8625 36.55L56.8625 26.175L58.45625 26.175L58.45625 27.659374Q59.596874 25.940624 61.753124 25.940624Q62.690624 25.940624 63.471874 26.284374Q64.26875 26.6125 64.65938 27.159374Q65.05 27.70625 65.20625 28.45625Q65.3 28.95625 65.3 30.175L65.3 36.55L63.534374 36.55L63.534374 30.2375Q63.534374 29.159374 63.33125 28.628124Q63.128124 28.096874 62.596874 27.784374Q62.08125 27.471874 61.378124 27.471874Q60.253124 27.471874 59.440624 28.190624Q58.628124 28.89375 58.628124 30.878124L58.628124 36.55L56.8625 36.55ZM70.70625 34.971874L70.95625 36.534374Q70.22188 36.690624 69.62813 36.690624Q68.675 36.690624 68.14375 36.39375Q67.62813 36.08125 67.40938 35.596874Q67.19063 35.096874 67.19063 33.51875L67.19063 27.55L65.90938 27.55L65.90938 26.175L67.19063 26.175L67.19063 23.6125L68.94063 22.55L68.94063 26.175L70.70625 26.175L70.70625 27.55L68.94063 27.55L68.94063 33.6125Q68.94063 34.3625 69.03438 34.58125Q69.12813 34.784374 69.33125 34.925Q69.55 35.05 69.94063 35.05Q70.22188 35.05 70.70625 34.971874ZM72.22188 31.3625Q72.22188 28.4875 73.81563 27.096874Q75.15938 25.940624 77.08125 25.940624Q79.22188 25.940624 80.56563 27.346874Q81.925 28.753124 81.925 31.221874Q81.925 33.221874 81.33125 34.378124Q80.7375 35.51875 79.58125 36.159374Q78.44063 36.784374 77.08125 36.784374Q74.89375 36.784374 73.55 35.39375Q72.22188 33.9875 72.22188 31.3625ZM74.01875 31.3625Q74.01875 33.3625 74.87813 34.346874Q75.75313 35.33125 77.08125 35.33125Q78.39375 35.33125 79.25313 34.346874Q80.12813 33.346874 80.12813 31.3Q80.12813 29.378124 79.25313 28.39375Q78.37813 27.39375 77.08125 27.39375Q75.75313 27.39375 74.87813 28.39375Q74.01875 29.378124 74.01875 31.3625ZM89.15938 33.45625L90.90938 33.175Q91.05 34.221874 91.72188 34.784374Q92.39375 35.33125 93.59688 35.33125Q94.8 35.33125 95.37813 34.846874Q95.97188 34.346874 95.97188 33.690624Q95.97188 33.096874 95.45625 32.753124Q95.09688 32.51875 93.65938 32.159374Q91.72188 31.659374 90.97188 31.315624Q90.2375 30.95625 89.84688 30.33125Q89.45625 29.690624 89.45625 28.925Q89.45625 28.2375 89.76875 27.64375Q90.09688 27.05 90.64375 26.659374Q91.05 26.3625 91.75313 26.159374Q92.47188 25.940624 93.28438 25.940624Q94.50313 25.940624 95.425 26.3Q96.34688 26.64375 96.78438 27.253124Q97.22188 27.846874 97.39375 28.846874L95.675 29.08125Q95.55 28.284374 94.9875 27.846874Q94.425 27.39375 93.40938 27.39375Q92.19063 27.39375 91.675 27.8Q91.15938 28.190624 91.15938 28.721874Q91.15938 29.065624 91.37813 29.346874Q91.58125 29.628124 92.05 29.815624Q92.31563 29.909374 93.59688 30.253124Q95.47188 30.753124 96.20625 31.08125Q96.94063 31.39375 97.3625 32.003124Q97.78438 32.596874 97.78438 33.503124Q97.78438 34.378124 97.26875 35.159374Q96.75313 35.940624 95.78438 36.3625Q94.81563 36.784374 93.59688 36.784374Q91.58125 36.784374 90.51875 35.940624Q89.45625 35.096874 89.15938 33.45625ZM99.8625 40.51875L99.8625 26.175L101.47188 26.175L101.47188 27.51875Q102.03438 26.7375 102.7375 26.346874Q103.45625 25.940624 104.47188 25.940624Q105.8 25.940624 106.81563 26.628124Q107.83125 27.315624 108.34688 28.565624Q108.87813 29.8 108.87813 31.284374Q108.87813 32.878124 108.3 34.159374Q107.7375 35.425 106.64375 36.1125Q105.55 36.784374 104.34688 36.784374Q103.47188 36.784374 102.76875 36.409374Q102.08125 36.034374 101.62813 35.471874L101.62813 40.51875L99.8625 40.51875ZM101.45625 31.425Q101.45625 33.425 102.26875 34.378124Q103.08125 35.33125 104.2375 35.33125Q105.40938 35.33125 106.2375 34.346874Q107.08125 33.3625 107.08125 31.26875Q107.08125 29.3 106.25313 28.315624Q105.44063 27.315624 104.31563 27.315624Q103.19063 27.315624 102.31563 28.378124Q101.45625 29.425 101.45625 31.425ZM117.97188 33.20625L119.78438 33.440624Q119.3625 35.01875 118.19063 35.909374Q117.03438 36.784374 115.22188 36.784374Q112.95625 36.784374 111.6125 35.39375Q110.28438 33.9875 110.28438 31.45625Q110.28438 28.83125 111.62813 27.39375Q112.97188 25.940624 115.12813 25.940624Q117.20625 25.940624 118.51875 27.3625Q119.84688 28.76875 119.84688 31.346874Q119.84688 31.503124 119.83125 31.815624L112.09688 31.815624Q112.19063 33.51875 113.06563 34.425Q113.94063 35.33125 115.2375 35.33125Q116.20625 35.33125 116.87813 34.83125Q117.56563 34.315624 117.97188 33.20625ZM112.19063 30.3625L117.9875 30.3625Q117.87813 29.065624 117.33125 28.409374Q116.4875 27.39375 115.14375 27.39375Q113.94063 27.39375 113.1125 28.20625Q112.28438 29.003124 112.19063 30.3625ZM121.15938 33.45625L122.90938 33.175Q123.05 34.221874 123.72188 34.784374Q124.39375 35.33125 125.59688 35.33125Q126.8 35.33125 127.37813 34.846874Q127.97188 34.346874 127.97188 33.690624Q127.97188 33.096874 127.45625 32.753124Q127.09688 32.51875 125.65938 32.159374Q123.72188 31.659374 122.97188 31.315624Q122.2375 30.95625 121.84688 30.33125Q121.45625 29.690624 121.45625 28.925Q121.45625 28.2375 121.76875 27.64375Q122.09688 27.05 122.64375 26.659374Q123.05 26.3625 123.75313 26.159374Q124.47188 25.940624 125.28438 25.940624Q126.50313 25.940624 127.425 26.3Q128.34688 26.64375 128.78438 27.253124Q129.22188 27.846874 129.39375 28.846874L127.675 29.08125Q127.55 28.284374 126.9875 27.846874Q126.425 27.39375 125.40938 27.39375Q124.19063 27.39375 123.675 27.8Q123.15938 28.190624 123.15938 28.721874Q123.15938 29.065624 123.37813 29.346874Q123.58125 29.628124 124.05 29.815624Q124.31563 29.909374 125.59688 30.253124Q127.47188 30.753124 128.20625 31.08125Q128.94063 31.39375 129.3625 32.003124Q129.78438 32.596874 129.78438 33.503124Q129.78438 34.378124 129.26875 35.159374Q128.75313 35.940624 127.78438 36.3625Q126.81563 36.784374 125.59688 36.784374Q123.58125 36.784374 122.51875 35.940624Q121.45625 35.096874 121.15938 33.45625ZM131.15938 33.45625L132.90938 33.175Q133.05 34.221874 133.72188 34.784374Q134.39375 35.33125 135.59688 35.33125Q136.8 35.33125 137.37813 34.846874Q137.97188 34.346874 137.97188 33.690624Q137.97188 33.096874 137.45625 32.753124Q137.09688 32.51875 135.65938 32.159374Q133.72188 31.659374 132.97188 31.315624Q132.2375 30.95625 131.84688 30.33125Q131.45625 29.690624 131.45625 28.925Q131.45625 28.2375 131.76875 27.64375Q132.09688 27.05 132.64375 26.659374Q133.05 26.3625 133.75313 26.159374Q134.47188 25.940624 135.28438 25.940624Q136.50313 25.940624 137.425 26.3Q138.34688 26.64375 138.78438 27.253124Q139.22188 27.846874 139.39375 28.846874L137.675 29.08125Q137.55 28.284374 136.9875 27.846874Q136.425 27.39375 135.40938 27.39375Q134.19063 27.39375 133.675 27.8Q133.15938 28.190624 133.15938 28.721874Q133.15938 29.065624 133.37813 29.346874Q133.58125 29.628124 134.05 29.815624Q134.31563 29.909374 135.59688 30.253124Q137.47188 30.753124 138.20625 31.08125Q138.94063 31.39375 139.3625 32.003124Q139.78438 32.596874 139.78438 33.503124Q139.78438 34.378124 139.26875 35.159374Q138.75313 35.940624 137.78438 36.3625Q136.81563 36.784374 135.59688 36.784374Q133.58125 36.784374 132.51875 35.940624Q131.45625 35.096874 131.15938 33.45625ZM141.22188 31.3625Q141.22188 28.4875 142.81563 27.096874Q144.15938 25.940624 146.08125 25.940624Q148.22188 25.940624 149.56563 27.346874Q150.925 28.753124 150.925 31.221874Q150.925 33.221874 150.33125 34.378124Q149.7375 35.51875 148.58125 36.159374Q147.44063 36.784374 146.08125 36.784374Q143.89375 36.784374 142.55 35.39375Q141.22188 33.9875 141.22188 31.3625ZM143.01875 31.3625Q143.01875 33.3625 143.87813 34.346874Q144.75313 35.33125 146.08125 35.33125Q147.39375 35.33125 148.25313 34.346874Q149.12813 33.346874 149.12813 31.3Q149.12813 29.378124 148.25313 28.39375Q147.37813 27.39375 146.08125 27.39375Q144.75313 27.39375 143.87813 28.39375Q143.01875 29.378124 143.01875 31.3625ZM162.70625 34.971874L162.95625 36.534374Q162.22188 36.690624 161.62813 36.690624Q160.675 36.690624 160.14375 36.39375Q159.62813 36.08125 159.40938 35.596874Q159.19063 35.096874 159.19063 33.51875L159.19063 27.55L157.90938 27.55L157.90938 26.175L159.19063 26.175L159.19063 23.6125L160.94063 22.55L160.94063 26.175L162.70625 26.175L162.70625 27.55L160.94063 27.55L160.94063 33.6125Q160.94063 34.3625 161.03438 34.58125Q161.12813 34.784374 161.33125 34.925Q161.55 35.05 161.94063 35.05Q162.22188 35.05 162.70625 34.971874ZM164.87813 24.253124L164.87813 22.2375L166.64375 22.2375L166.64375 24.253124L164.87813 24.253124ZM164.87813 36.55L164.87813 26.175L166.64375 26.175L166.64375 36.55L164.87813 36.55ZM181.64375 32.753124L183.3625 32.971874Q183.08125 34.76875 181.90938 35.784374Q180.75313 36.784374 179.05 36.784374Q176.925 36.784374 175.62813 35.39375Q174.33125 34.003124 174.33125 31.409374Q174.33125 29.721874 174.87813 28.471874Q175.44063 27.20625 176.58125 26.58125Q177.72188 25.940624 179.06563 25.940624Q180.75313 25.940624 181.81563 26.8Q182.89375 27.659374 183.20625 29.221874L181.4875 29.4875Q181.25313 28.440624 180.62813 27.925Q180.00313 27.39375 179.12813 27.39375Q177.8 27.39375 176.97188 28.346874Q176.14375 29.3 176.14375 31.346874Q176.14375 33.440624 176.94063 34.39375Q177.7375 35.33125 179.03438 35.33125Q180.06563 35.33125 180.75313 34.70625Q181.45625 34.065624 181.64375 32.753124ZM191.64375 35.26875Q190.65938 36.096874 189.75313 36.440624Q188.84688 36.784374 187.81563 36.784374Q186.1125 36.784374 185.19063 35.95625Q184.26875 35.1125 184.26875 33.815624Q184.26875 33.05 184.6125 32.425Q184.97188 31.8 185.53438 31.425Q186.09688 31.034374 186.8 30.83125Q187.31563 30.70625 188.3625 30.565624Q190.4875 30.315624 191.4875 29.971874Q191.50313 29.6125 191.50313 29.503124Q191.50313 28.440624 191.00313 27.9875Q190.33125 27.39375 189.00313 27.39375Q187.75313 27.39375 187.15938 27.83125Q186.58125 28.26875 186.3 29.378124L184.58125 29.14375Q184.81563 28.034374 185.34688 27.3625Q185.87813 26.675 186.89375 26.315624Q187.90938 25.940624 189.25313 25.940624Q190.58125 25.940624 191.40938 26.253124Q192.2375 26.565624 192.62813 27.05Q193.01875 27.51875 193.175 28.2375Q193.26875 28.690624 193.26875 29.8625L193.26875 32.20625Q193.26875 34.659374 193.37813 35.315624Q193.4875 35.95625 193.83125 36.55L191.9875 36.55Q191.72188 36.003124 191.64375 35.26875ZM191.4875 31.346874Q190.53438 31.7375 188.6125 32.003124Q187.53438 32.159374 187.08125 32.3625Q186.64375 32.55 186.39375 32.925Q186.14375 33.3 186.14375 33.76875Q186.14375 34.471874 186.675 34.940624Q187.20625 35.409374 188.2375 35.409374Q189.25313 35.409374 190.03438 34.971874Q190.83125 34.51875 191.20625 33.753124Q191.4875 33.14375 191.4875 31.9875L191.4875 31.346874ZM195.8625 40.51875L195.8625 26.175L197.47188 26.175L197.47188 27.51875Q198.03438 26.7375 198.7375 26.346874Q199.45625 25.940624 200.47188 25.940624Q201.8 25.940624 202.81563 26.628124Q203.83125 27.315624 204.34688 28.565624Q204.87813 29.8 204.87813 31.284374Q204.87813 32.878124 204.3 34.159374Q203.7375 35.425 202.64375 36.1125Q201.55 36.784374 200.34688 36.784374Q199.47188 36.784374 198.76875 36.409374Q198.08125 36.034374 197.62813 35.471874L197.62813 40.51875L195.8625 40.51875ZM197.45625 31.425Q197.45625 33.425 198.26875 34.378124Q199.08125 35.33125 200.2375 35.33125Q201.40938 35.33125 202.2375 34.346874Q203.08125 33.3625 203.08125 31.26875Q203.08125 29.3 202.25313 28.315624Q201.44063 27.315624 200.31563 27.315624Q199.19063 27.315624 198.31563 28.378124Q197.45625 29.425 197.45625 31.425ZM206.87813 24.253124L206.87813 22.2375L208.64375 22.2375L208.64375 24.253124L206.87813 24.253124ZM206.87813 36.55L206.87813 26.175L208.64375 26.175L208.64375 36.55L206.87813 36.55ZM214.70625 34.971874L214.95625 36.534374Q214.22188 36.690624 213.62813 36.690624Q212.675 36.690624 212.14375 36.39375Q211.62813 36.08125 211.40938 35.596874Q211.19063 35.096874 211.19063 33.51875L211.19063 27.55L209.90938 27.55L209.90938 26.175L211.19063 26.175L211.19063 23.6125L212.94063 22.55L212.94063 26.175L214.70625 26.175L214.70625 27.55L212.94063 27.55L212.94063 33.6125Q212.94063 34.3625 213.03438 34.58125Q213.12813 34.784374 213.33125 34.925Q213.55 35.05 213.94063 35.05Q214.22188 35.05 214.70625 34.971874ZM223.64375 35.26875Q222.65938 36.096874 221.75313 36.440624Q220.84688 36.784374 219.81563 36.784374Q218.1125 36.784374 217.19063 35.95625Q216.26875 35.1125 216.26875 33.815624Q216.26875 33.05 216.6125 32.425Q216.97188 31.8 217.53438 31.425Q218.09688 31.034374 218.8 30.83125Q219.31563 30.70625 220.3625 30.565624Q222.4875 30.315624 223.4875 29.971874Q223.50313 29.6125 223.50313 29.503124Q223.50313 28.440624 223.00313 27.9875Q222.33125 27.39375 221.00313 27.39375Q219.75313 27.39375 219.15938 27.83125Q218.58125 28.26875 218.3 29.378124L216.58125 29.14375Q216.81563 28.034374 217.34688 27.3625Q217.87813 26.675 218.89375 26.315624Q219.90938 25.940624 221.25313 25.940624Q222.58125 25.940624 223.40938 26.253124Q224.2375 26.565624 224.62813 27.05Q225.01875 27.51875 225.175 28.2375Q225.26875 28.690624 225.26875 29.8625L225.26875 32.20625Q225.26875 34.659374 225.37813 35.315624Q225.4875 35.95625 225.83125 36.55L223.9875 36.55Q223.72188 36.003124 223.64375 35.26875ZM223.4875 31.346874Q222.53438 31.7375 220.6125 32.003124Q219.53438 32.159374 219.08125 32.3625Q218.64375 32.55 218.39375 32.925Q218.14375 33.3 218.14375 33.76875Q218.14375 34.471874 218.675 34.940624Q219.20625 35.409374 220.2375 35.409374Q221.25313 35.409374 222.03438 34.971874Q222.83125 34.51875 223.20625 33.753124Q223.4875 33.14375 223.4875 31.9875L223.4875 31.346874ZM240.59688 36.55L240.59688 35.2375Q239.6125 36.784374 237.69063 36.784374Q236.45625 36.784374 235.40938 36.096874Q234.37813 35.409374 233.8 34.190624Q233.2375 32.971874 233.2375 31.378124Q233.2375 29.815624 233.75313 28.55Q234.26875 27.284374 235.3 26.6125Q236.34688 25.940624 237.6125 25.940624Q238.55 25.940624 239.28438 26.346874Q240.01875 26.7375 240.4875 27.3625L240.4875 22.2375L242.22188 22.2375L242.22188 36.55L240.59688 36.55ZM235.03438 31.378124Q235.03438 33.3625 235.87813 34.346874Q236.72188 35.33125 237.8625 35.33125Q239.01875 35.33125 239.81563 34.39375Q240.62813 33.45625 240.62813 31.51875Q240.62813 29.39375 239.8 28.39375Q238.9875 27.39375 237.78438 27.39375Q236.6125 27.39375 235.81563 28.3625Q235.03438 29.315624 235.03438 31.378124ZM244.87813 24.253124L244.87813 22.2375L246.64375 22.2375L246.64375 24.253124L244.87813 24.253124ZM244.87813 36.55L244.87813 26.175L246.64375 26.175L246.64375 36.55L244.87813 36.55ZM261.59686 36.55L261.59686 35.2375Q260.6125 36.784374 258.6906 36.784374Q257.45624 36.784374 256.40936 36.096874Q255.37813 35.409374 254.8 34.190624Q254.2375 32.971874 254.2375 31.378124Q254.2375 29.815624 254.75313 28.55Q255.26875 27.284374 256.3 26.6125Q257.34686 25.940624 258.6125 25.940624Q259.55 25.940624 260.28436 26.346874Q261.01874 26.7375 261.4875 27.3625L261.4875 22.2375L263.22186 22.2375L263.22186 36.55L261.59686 36.55ZM256.03436 31.378124Q256.03436 33.3625 256.8781 34.346874Q257.72186 35.33125 258.8625 35.33125Q260.01874 35.33125 260.8156 34.39375Q261.6281 33.45625 261.6281 31.51875Q261.6281 29.39375 260.8 28.39375Q259.9875 27.39375 258.78436 27.39375Q257.6125 27.39375 256.8156 28.3625Q256.03436 29.315624 256.03436 31.378124ZM265.22186 31.3625Q265.22186 28.4875 266.8156 27.096874Q268.15936 25.940624 270.08124 25.940624Q272.22186 25.940624 273.5656 27.346874Q274.925 28.753124 274.925 31.221874Q274.925 33.221874 274.33124 34.378124Q273.7375 35.51875 272.58124 36.159374Q271.4406 36.784374 270.08124 36.784374Q267.89374 36.784374 266.55 35.39375Q265.22186 33.9875 265.22186 31.3625ZM267.01874 31.3625Q267.01874 33.3625 267.8781 34.346874Q268.7531 35.33125 270.08124 35.33125Q271.39374 35.33125 272.2531 34.346874Q273.1281 33.346874 273.1281 31.3Q273.1281 29.378124 272.2531 28.39375Q271.3781 27.39375 270.08124 27.39375Q268.7531 27.39375 267.8781 28.39375Q267.01874 29.378124 267.01874 31.3625ZM279.7531 36.55L275.8 26.175L277.65936 26.175L279.89374 32.39375Q280.2531 33.39375 280.55 34.471874Q280.78436 33.659374 281.20624 32.503124L283.5031 26.175L285.3156 26.175L281.39374 36.55L279.7531 36.55ZM292.97186 33.20625L294.78436 33.440624Q294.3625 35.01875 293.1906 35.909374Q292.03436 36.784374 290.22186 36.784374Q287.95624 36.784374 286.6125 35.39375Q285.28436 33.9875 285.28436 31.45625Q285.28436 28.83125 286.6281 27.39375Q287.97186 25.940624 290.1281 25.940624Q292.20624 25.940624 293.51874 27.3625Q294.84686 28.76875 294.84686 31.346874Q294.84686 31.503124 294.83124 31.815624L287.09686 31.815624Q287.1906 33.51875 288.0656 34.425Q288.9406 35.33125 290.2375 35.33125Q291.20624 35.33125 291.8781 34.83125Q292.5656 34.315624 292.97186 33.20625ZM287.1906 30.3625L292.9875 30.3625Q292.8781 29.065624 292.33124 28.409374Q291.4875 27.39375 290.14374 27.39375Q288.9406 27.39375 288.1125 28.20625Q287.28436 29.003124 287.1906 30.3625ZM296.84686 36.55L296.84686 26.175L298.425 26.175L298.425 27.753124Q299.03436 26.64375 299.55 26.3Q300.0656 25.940624 300.675 25.940624Q301.5656 25.940624 302.4875 26.503124L301.8781 28.14375Q301.2375 27.753124 300.59686 27.753124Q300.01874 27.753124 299.55 28.1125Q299.09686 28.45625 298.89374 29.065624Q298.6125 30.003124 298.6125 31.1125L298.6125 36.55L296.84686 36.55ZM316.64374 35.26875Q315.65936 36.096874 314.7531 36.440624Q313.84686 36.784374 312.8156 36.784374Q311.1125 36.784374 310.1906 35.95625Q309.26874 35.1125 309.26874 33.815624Q309.26874 33.05 309.6125 32.425Q309.97186 31.8 310.53436 31.425Q311.09686 31.034374 311.8 30.83125Q312.3156 30.70625 313.3625 30.565624Q315.4875 30.315624 316.4875 29.971874Q316.5031 29.6125 316.5031 29.503124Q316.5031 28.440624 316.0031 27.9875Q315.33124 27.39375 314.0031 27.39375Q312.7531 27.39375 312.15936 27.83125Q311.58124 28.26875 311.3 29.378124L309.58124 29.14375Q309.8156 28.034374 310.34686 27.3625Q310.8781 26.675 311.89374 26.315624Q312.90936 25.940624 314.2531 25.940624Q315.58124 25.940624 316.40936 26.253124Q317.2375 26.565624 317.6281 27.05Q318.01874 27.51875 318.175 28.2375Q318.26874 28.690624 318.26874 29.8625L318.26874 32.20625Q318.26874 34.659374 318.3781 35.315624Q318.4875 35.95625 318.83124 36.55L316.9875 36.55Q316.72186 36.003124 316.64374 35.26875ZM316.4875 31.346874Q315.53436 31.7375 313.6125 32.003124Q312.53436 32.159374 312.08124 32.3625Q311.64374 32.55 311.39374 32.925Q311.14374 33.3 311.14374 33.76875Q311.14374 34.471874 311.675 34.940624Q312.20624 35.409374 313.2375 35.409374Q314.2531 35.409374 315.03436 34.971874Q315.83124 34.51875 316.20624 33.753124Q316.4875 33.14375 316.4875 31.9875L316.4875 31.346874ZM321.28436 36.55L321.28436 27.55L319.7375 27.55L319.7375 26.175L321.28436 26.175L321.28436 25.08125Q321.28436 24.034374 321.47186 23.51875Q321.72186 22.83125 322.3625 22.409374Q323.0031 21.9875 324.15936 21.9875Q324.90936 21.9875 325.8 22.159374L325.53436 23.690624Q324.9875 23.596874 324.5031 23.596874Q323.70624 23.596874 323.3625 23.940624Q323.03436 24.284374 323.03436 25.221874L323.03436 26.175L325.0656 26.175L325.0656 27.55L323.03436 27.55L323.03436 36.55L321.28436 36.55ZM327.28436 36.55L327.28436 27.55L325.7375 27.55L325.7375 26.175L327.28436 26.175L327.28436 25.08125Q327.28436 24.034374 327.47186 23.51875Q327.72186 22.83125 328.3625 22.409374Q329.0031 21.9875 330.15936 21.9875Q330.90936 21.9875 331.8 22.159374L331.53436 23.690624Q330.9875 23.596874 330.5031 23.596874Q329.70624 23.596874 329.3625 23.940624Q329.03436 24.284374 329.03436 25.221874L329.03436 26.175L331.0656 26.175L331.0656 27.55L329.03436 27.55L329.03436 36.55L327.28436 36.55ZM332.84686 36.55L332.84686 26.175L334.425 26.175L334.425 27.753124Q335.03436 26.64375 335.55 26.3Q336.0656 25.940624 336.675 25.940624Q337.5656 25.940624 338.4875 26.503124L337.8781 28.14375Q337.2375 27.753124 336.59686 27.753124Q336.01874 27.753124 335.55 28.1125Q335.09686 28.45625 334.89374 29.065624Q334.6125 30.003124 334.6125 31.1125L334.6125 36.55L332.84686 36.55ZM339.22186 31.3625Q339.22186 28.4875 340.8156 27.096874Q342.15936 25.940624 344.08124 25.940624Q346.22186 25.940624 347.5656 27.346874Q348.925 28.753124 348.925 31.221874Q348.925 33.221874 348.33124 34.378124Q347.7375 35.51875 346.58124 36.159374Q345.4406 36.784374 344.08124 36.784374Q341.89374 36.784374 340.55 35.39375Q339.22186 33.9875 339.22186 31.3625ZM341.01874 31.3625Q341.01874 33.3625 341.8781 34.346874Q342.7531 35.33125 344.08124 35.33125Q345.39374 35.33125 346.2531 34.346874Q347.1281 33.346874 347.1281 31.3Q347.1281 29.378124 346.2531 28.39375Q345.3781 27.39375 344.08124 27.39375Q342.7531 27.39375 341.8781 28.39375Q341.01874 29.378124 341.01874 31.3625ZM350.8625 36.55L350.8625 26.175L352.45624 26.175L352.45624 27.659374Q353.59686 25.940624 355.7531 25.940624Q356.6906 25.940624 357.47186 26.284374Q358.26874 26.6125 358.65936 27.159374Q359.05 27.70625 359.20624 28.45625Q359.3 28.95625 359.3 30.175L359.3 36.55L357.53436 36.55L357.53436 30.2375Q357.53436 29.159374 357.33124 28.628124Q357.1281 28.096874 356.59686 27.784374Q356.08124 27.471874 355.3781 27.471874Q354.2531 27.471874 353.4406 28.190624Q352.6281 28.89375 352.6281 30.878124L352.6281 36.55L350.8625 36.55ZM364.70624 34.971874L364.95624 36.534374Q364.22186 36.690624 363.6281 36.690624Q362.675 36.690624 362.14374 36.39375Q361.6281 36.08125 361.40936 35.596874Q361.1906 35.096874 361.1906 33.51875L361.1906 27.55L359.90936 27.55L359.90936 26.175L361.1906 26.175L361.1906 23.6125L362.9406 22.55L362.9406 26.175L364.70624 26.175L364.70624 27.55L362.9406 27.55L362.9406 33.6125Q362.9406 34.3625 363.03436 34.58125Q363.1281 34.784374 363.33124 34.925Q363.55 35.05 363.9406 35.05Q364.22186 35.05 364.70624 34.971874ZM373.64374 35.26875Q372.65936 36.096874 371.7531 36.440624Q370.84686 36.784374 369.8156 36.784374Q368.1125 36.784374 367.1906 35.95625Q366.26874 35.1125 366.26874 33.815624Q366.26874 33.05 366.6125 32.425Q366.97186 31.8 367.53436 31.425Q368.09686 31.034374 368.8 30.83125Q369.3156 30.70625 370.3625 30.565624Q372.4875 30.315624 373.4875 29.971874Q373.5031 29.6125 373.5031 29.503124Q373.5031 28.440624 373.0031 27.9875Q372.33124 27.39375 371.0031 27.39375Q369.7531 27.39375 369.15936 27.83125Q368.58124 28.26875 368.3 29.378124L366.58124 29.14375Q366.8156 28.034374 367.34686 27.3625Q367.8781 26.675 368.89374 26.315624Q369.90936 25.940624 371.2531 25.940624Q372.58124 25.940624 373.40936 26.253124Q374.2375 26.565624 374.6281 27.05Q375.01874 27.51875 375.175 28.2375Q375.26874 28.690624 375.26874 29.8625L375.26874 32.20625Q375.26874 34.659374 375.3781 35.315624Q375.4875 35.95625 375.83124 36.55L373.9875 36.55Q373.72186 36.003124 373.64374 35.26875ZM373.4875 31.346874Q372.53436 31.7375 370.6125 32.003124Q369.53436 32.159374 369.08124 32.3625Q368.64374 32.55 368.39374 32.925Q368.14374 33.3 368.14374 33.76875Q368.14374 34.471874 368.675 34.940624Q369.20624 35.409374 370.2375 35.409374Q371.2531 35.409374 372.03436 34.971874Q372.83124 34.51875 373.20624 33.753124Q373.4875 33.14375 373.4875 31.9875L373.4875 31.346874ZM377.84686 36.55L377.84686 26.175L379.425 26.175L379.425 27.753124Q380.03436 26.64375 380.55 26.3Q381.0656 25.940624 381.675 25.940624Q382.5656 25.940624 383.4875 26.503124L382.8781 28.14375Q382.2375 27.753124 381.59686 27.753124Q381.01874 27.753124 380.55 28.1125Q380.09686 28.45625 379.89374 29.065624Q379.6125 30.003124 379.6125 31.1125L379.6125 36.55L377.84686 36.55ZM391.97186 33.20625L393.78436 33.440624Q393.3625 35.01875 392.1906 35.909374Q391.03436 36.784374 389.22186 36.784374Q386.95624 36.784374 385.6125 35.39375Q384.28436 33.9875 384.28436 31.45625Q384.28436 28.83125 385.6281 27.39375Q386.97186 25.940624 389.1281 25.940624Q391.20624 25.940624 392.51874 27.3625Q393.84686 28.76875 393.84686 31.346874Q393.84686 31.503124 393.83124 31.815624L386.09686 31.815624Q386.1906 33.51875 387.0656 34.425Q387.9406 35.33125 389.2375 35.33125Q390.20624 35.33125 390.8781 34.83125Q391.5656 34.315624 391.97186 33.20625ZM386.1906 30.3625L391.9875 30.3625Q391.8781 29.065624 391.33124 28.409374Q390.4875 27.39375 389.14374 27.39375Q387.9406 27.39375 387.1125 28.20625Q386.28436 29.003124 386.1906 30.3625ZM401.8625 40.51875L401.8625 26.175L403.47186 26.175L403.47186 27.51875Q404.03436 26.7375 404.7375 26.346874Q405.45624 25.940624 406.47186 25.940624Q407.8 25.940624 408.8156 26.628124Q409.83124 27.315624 410.34686 28.565624Q410.8781 29.8 410.8781 31.284374Q410.8781 32.878124 410.3 34.159374Q409.7375 35.425 408.64374 36.1125Q407.55 36.784374 406.34686 36.784374Q405.47186 36.784374 404.76874 36.409374Q404.08124 36.034374 403.6281 35.471874L403.6281 40.51875L401.8625 40.51875ZM403.45624 31.425Q403.45624 33.425 404.26874 34.378124Q405.08124 35.33125 406.2375 35.33125Q407.40936 35.33125 408.2375 34.346874Q409.08124 33.3625 409.08124 31.26875Q409.08124 29.3 408.2531 28.315624Q407.4406 27.315624 406.3156 27.315624Q405.1906 27.315624 404.3156 28.378124Q403.45624 29.425 403.45624 31.425ZM412.84686 36.55L412.84686 26.175L414.425 26.175L414.425 27.753124Q415.03436 26.64375 415.55 26.3Q416.0656 25.940624 416.675 25.940624Q417.5656 25.940624 418.4875 26.503124L417.8781 28.14375Q417.2375 27.753124 416.59686 27.753124Q416.01874 27.753124 415.55 28.1125Q415.09686 28.45625 414.89374 29.065624Q414.6125 30.003124 414.6125 31.1125L414.6125 36.55L412.84686 36.55ZM419.22186 31.3625Q419.22186 28.4875 420.8156 27.096874Q422.15936 25.940624 424.08124 25.940624Q426.22186 25.940624 427.5656 27.346874Q428.925 28.753124 428.925 31.221874Q428.925 33.221874 428.33124 34.378124Q427.7375 35.51875 426.58124 36.159374Q425.4406 36.784374 424.08124 36.784374Q421.89374 36.784374 420.55 35.39375Q419.22186 33.9875 419.22186 31.3625ZM421.01874 31.3625Q421.01874 33.3625 421.8781 34.346874Q422.7531 35.33125 424.08124 35.33125Q425.39374 35.33125 426.2531 34.346874Q427.1281 33.346874 427.1281 31.3Q427.1281 29.378124 426.2531 28.39375Q425.3781 27.39375 424.08124 27.39375Q422.7531 27.39375 421.8781 28.39375Q421.01874 29.378124 421.01874 31.3625ZM432.4875 36.55L430.8625 36.55L430.8625 22.2375L432.6125 22.2375L432.6125 27.346874Q433.7375 25.940624 435.45624 25.940624Q436.40936 25.940624 437.26874 26.33125Q438.1281 26.721874 438.675 27.425Q439.22186 28.1125 439.53436 29.096874Q439.84686 30.08125 439.84686 31.20625Q439.84686 33.878124 438.53436 35.33125Q437.22186 36.784374 435.3781 36.784374Q433.53436 36.784374 432.4875 35.253124L432.4875 36.55ZM432.47186 31.284374Q432.47186 33.14375 432.97186 33.9875Q433.8156 35.33125 435.22186 35.33125Q436.3781 35.33125 437.20624 34.33125Q438.05 33.33125 438.05 31.346874Q438.05 29.315624 437.2375 28.3625Q436.4406 27.39375 435.3 27.39375Q434.14374 27.39375 433.3 28.39375Q432.47186 29.39375 432.47186 31.284374ZM441.83124 36.55L441.83124 22.2375L443.58124 22.2375L443.58124 36.55L441.83124 36.55ZM452.97186 33.20625L454.78436 33.440624Q454.3625 35.01875 453.1906 35.909374Q452.03436 36.784374 450.22186 36.784374Q447.95624 36.784374 446.6125 35.39375Q445.28436 33.9875 445.28436 31.45625Q445.28436 28.83125 446.6281 27.39375Q447.97186 25.940624 450.1281 25.940624Q452.20624 25.940624 453.51874 27.3625Q454.84686 28.76875 454.84686 31.346874Q454.84686 31.503124 454.83124 31.815624L447.09686 31.815624Q447.1906 33.51875 448.0656 34.425Q448.9406 35.33125 450.2375 35.33125Q451.20624 35.33125 451.8781 34.83125Q452.5656 34.315624 452.97186 33.20625ZM447.1906 30.3625L452.9875 30.3625Q452.8781 29.065624 452.33124 28.409374Q451.4875 27.39375 450.14374 27.39375Q448.9406 27.39375 448.1125 28.20625Q447.28436 29.003124 447.1906 30.3625ZM456.8625 36.55L456.8625 26.175L458.4406 26.175L458.4406 27.628124Q458.925 26.878124 459.7375 26.409374Q460.55 25.940624 461.58124 25.940624Q462.7375 25.940624 463.47186 26.425Q464.20624 26.89375 464.51874 27.753124Q465.7531 25.940624 467.72186 25.940624Q469.26874 25.940624 470.09686 26.8Q470.925 27.659374 470.925 29.425L470.925 36.55L469.175 36.55L469.175 30.01875Q469.175 28.95625 469.0031 28.503124Q468.83124 28.034374 468.3781 27.753124Q467.9406 27.471874 467.33124 27.471874Q466.2375 27.471874 465.5031 28.20625Q464.78436 28.925 464.78436 30.51875L464.78436 36.55L463.03436 36.55L463.03436 29.815624Q463.03436 28.64375 462.59686 28.065624Q462.175 27.471874 461.1906 27.471874Q460.45624 27.471874 459.8156 27.8625Q459.1906 28.253124 458.90936 29.003124Q458.6281 29.753124 458.6281 31.175L458.6281 36.55L456.8625 36.55ZM472.8781 24.253124L472.8781 22.2375L474.64374 22.2375L474.64374 24.253124L472.8781 24.253124ZM472.8781 36.55L472.8781 26.175L474.64374 26.175L474.64374 36.55L472.8781 36.55ZM489.64374 32.753124L491.3625 32.971874Q491.08124 34.76875 489.90936 35.784374Q488.7531 36.784374 487.05 36.784374Q484.925 36.784374 483.6281 35.39375Q482.33124 34.003124 482.33124 31.409374Q482.33124 29.721874 482.8781 28.471874Q483.4406 27.20625 484.58124 26.58125Q485.72186 25.940624 487.0656 25.940624Q488.7531 25.940624 489.8156 26.8Q490.89374 27.659374 491.20624 29.221874L489.4875 29.4875Q489.2531 28.440624 488.6281 27.925Q488.0031 27.39375 487.1281 27.39375Q485.8 27.39375 484.97186 28.346874Q484.14374 29.3 484.14374 31.346874Q484.14374 33.440624 484.9406 34.39375Q485.7375 35.33125 487.03436 35.33125Q488.0656 35.33125 488.7531 34.70625Q489.45624 34.065624 489.64374 32.753124ZM492.22186 31.3625Q492.22186 28.4875 493.8156 27.096874Q495.15936 25.940624 497.08124 25.940624Q499.22186 25.940624 500.5656 27.346874Q501.925 28.753124 501.925 31.221874Q501.925 33.221874 501.33124 34.378124Q500.7375 35.51875 499.58124 36.159374Q498.4406 36.784374 497.08124 36.784374Q494.89374 36.784374 493.55 35.39375Q492.22186 33.9875 492.22186 31.3625ZM494.01874 31.3625Q494.01874 33.3625 494.8781 34.346874Q495.7531 35.33125 497.08124 35.33125Q498.39374 35.33125 499.2531 34.346874Q500.1281 33.346874 500.1281 31.3Q500.1281 29.378124 499.2531 28.39375Q498.3781 27.39375 497.08124 27.39375Q495.7531 27.39375 494.8781 28.39375Q494.01874 29.378124 494.01874 31.3625ZM503.8625 36.55L503.8625 26.175L505.45624 26.175L505.45624 27.659374Q506.59686 25.940624 508.7531 25.940624Q509.6906 25.940624 510.47186 26.284374Q511.26874 26.6125 511.65936 27.159374Q512.05 27.70625 512.20624 28.45625Q512.3 28.95625 512.3 30.175L512.3 36.55L510.53436 36.55L510.53436 30.2375Q510.53436 29.159374 510.33124 28.628124Q510.1281 28.096874 509.59686 27.784374Q509.08124 27.471874 508.3781 27.471874Q507.2531 27.471874 506.4406 28.190624Q505.6281 28.89375 505.6281 30.878124L505.6281 36.55L503.8625 36.55Z" fill-rule="nonzero"/><path fill="#757575" d="M26.596874 60.55L26.596874 59.2375Q25.6125 60.784374 23.690624 60.784374Q22.45625 60.784374 21.409374 60.096874Q20.378124 59.409374 19.8 58.190624Q19.2375 56.971874 19.2375 55.378124Q19.2375 53.815624 19.753124 52.55Q20.26875 51.284374 21.3 50.6125Q22.346874 49.940624 23.6125 49.940624Q24.55 49.940624 25.284374 50.346874Q26.01875 50.7375 26.4875 51.3625L26.4875 46.2375L28.221874 46.2375L28.221874 60.55L26.596874 60.55ZM21.034374 55.378124Q21.034374 57.3625 21.878124 58.346874Q22.721874 59.33125 23.8625 59.33125Q25.01875 59.33125 25.815624 58.39375Q26.628124 57.45625 26.628124 55.51875Q26.628124 53.39375 25.8 52.39375Q24.9875 51.39375 23.784374 51.39375Q22.6125 51.39375 21.815624 52.3625Q21.034374 53.315624 21.034374 55.378124ZM30.221874 55.3625Q30.221874 52.4875 31.815624 51.096874Q33.159374 49.940624 35.08125 49.940624Q37.221874 49.940624 38.565624 51.346874Q39.925 52.753124 39.925 55.221874Q39.925 57.221874 39.33125 58.378124Q38.7375 59.51875 37.58125 60.159374Q36.440624 60.784374 35.08125 60.784374Q32.89375 60.784374 31.55 59.39375Q30.221874 57.9875 30.221874 55.3625ZM32.01875 55.3625Q32.01875 57.3625 32.878124 58.346874Q33.753124 59.33125 35.08125 59.33125Q36.39375 59.33125 37.253124 58.346874Q38.128124 57.346874 38.128124 55.3Q38.128124 53.378124 37.253124 52.39375Q36.378124 51.39375 35.08125 51.39375Q33.753124 51.39375 32.878124 52.39375Q32.01875 53.378124 32.01875 55.3625ZM48.64375 56.753124L50.3625 56.971874Q50.08125 58.76875 48.909374 59.784374Q47.753124 60.784374 46.05 60.784374Q43.925 60.784374 42.628124 59.39375Q41.33125 58.003124 41.33125 55.409374Q41.33125 53.721874 41.878124 52.471874Q42.440624 51.20625 43.58125 50.58125Q44.721874 49.940624 46.065624 49.940624Q47.753124 49.940624 48.815624 50.8Q49.89375 51.659374 50.20625 53.221874L48.4875 53.4875Q48.253124 52.440624 47.628124 51.925Q47.003124 51.39375 46.128124 51.39375Q44.8 51.39375 43.971874 52.346874Q43.14375 53.3 43.14375 55.346874Q43.14375 57.440624 43.940624 58.39375Q44.7375 59.33125 46.034374 59.33125Q47.065624 59.33125 47.753124 58.70625Q48.45625 58.065624 48.64375 56.753124ZM58.659374 60.55L58.659374 59.01875Q57.45625 60.784374 55.378124 60.784374Q54.45625 60.784374 53.659374 60.440624Q52.8625 60.08125 52.471874 59.55Q52.096874 59.01875 51.940624 58.2375Q51.83125 57.721874 51.83125 56.596874L51.83125 50.175L53.58125 50.175L53.58125 55.925Q53.58125 57.3 53.690624 57.784374Q53.8625 58.471874 54.39375 58.878124Q54.940624 59.26875 55.721874 59.26875Q56.51875 59.26875 57.20625 58.8625Q57.909374 58.45625 58.190624 57.76875Q58.4875 57.065624 58.4875 55.7375L58.4875 50.175L60.2375 50.175L60.2375 60.55L58.659374 60.55ZM61.8625 60.55L61.8625 50.175L63.440624 50.175L63.440624 51.628124Q63.925 50.878124 64.7375 50.409374Q65.55 49.940624 66.58125 49.940624Q67.7375 49.940624 68.47188 50.425Q69.20625 50.89375 69.51875 51.753124Q70.75313 49.940624 72.72188 49.940624Q74.26875 49.940624 75.09688 50.8Q75.925 51.659374 75.925 53.425L75.925 60.55L74.175 60.55L74.175 54.01875Q74.175 52.95625 74.00313 52.503124Q73.83125 52.034374 73.37813 51.753124Q72.94063 51.471874 72.33125 51.471874Q71.2375 51.471874 70.50313 52.20625Q69.78438 52.925 69.78438 54.51875L69.78438 60.55L68.03438 60.55L68.03438 53.815624Q68.03438 52.64375 67.59688 52.065624Q67.175 51.471874 66.19063 51.471874Q65.45625 51.471874 64.81563 51.8625Q64.19063 52.253124 63.909374 53.003124Q63.628124 53.753124 63.628124 55.175L63.628124 60.55L61.8625 60.55ZM84.97188 57.20625L86.78438 57.440624Q86.3625 59.01875 85.19063 59.909374Q84.03438 60.784374 82.22188 60.784374Q79.95625 60.784374 78.6125 59.39375Q77.28438 57.9875 77.28438 55.45625Q77.28438 52.83125 78.62813 51.39375Q79.97188 49.940624 82.12813 49.940624Q84.20625 49.940624 85.51875 51.3625Q86.84688 52.76875 86.84688 55.346874Q86.84688 55.503124 86.83125 55.815624L79.09688 55.815624Q79.19063 57.51875 80.06563 58.425Q80.94063 59.33125 82.2375 59.33125Q83.20625 59.33125 83.87813 58.83125Q84.56563 58.315624 84.97188 57.20625ZM79.19063 54.3625L84.9875 54.3625Q84.87813 53.065624 84.33125 52.409374Q83.4875 51.39375 82.14375 51.39375Q80.94063 51.39375 80.1125 52.20625Q79.28438 53.003124 79.19063 54.3625ZM88.8625 60.55L88.8625 50.175L90.45625 50.175L90.45625 51.659374Q91.59688 49.940624 93.75313 49.940624Q94.69063 49.940624 95.47188 50.284374Q96.26875 50.6125 96.65938 51.159374Q97.05 51.70625 97.20625 52.45625Q97.3 52.95625 97.3 54.175L97.3 60.55L95.53438 60.55L95.53438 54.2375Q95.53438 53.159374 95.33125 52.628124Q95.12813 52.096874 94.59688 51.784374Q94.08125 51.471874 93.37813 51.471874Q92.25313 51.471874 91.44063 52.190624Q90.62813 52.89375 90.62813 54.878124L90.62813 60.55L88.8625 60.55ZM102.70625 58.971874L102.95625 60.534374Q102.22188 60.690624 101.62813 60.690624Q100.675 60.690624 100.14375 60.39375Q99.62813 60.08125 99.40938 59.596874Q99.19063 59.096874 99.19063 57.51875L99.19063 51.55L97.90938 51.55L97.90938 50.175L99.19063 50.175L99.19063 47.6125L100.94063 46.55L100.94063 50.175L102.70625 50.175L102.70625 51.55L100.94063 51.55L100.94063 57.6125Q100.94063 58.3625 101.03438 58.58125Q101.12813 58.784374 101.33125 58.925Q101.55 59.05 101.94063 59.05Q102.22188 59.05 102.70625 58.971874ZM104.87813 48.253124L104.87813 46.2375L106.64375 46.2375L106.64375 48.253124L104.87813 48.253124ZM104.87813 60.55L104.87813 50.175L106.64375 50.175L106.64375 60.55L104.87813 60.55ZM114.15938 57.45625L115.90938 57.175Q116.05 58.221874 116.72188 58.784374Q117.39375 59.33125 118.59688 59.33125Q119.8 59.33125 120.37813 58.846874Q120.97188 58.346874 120.97188 57.690624Q120.97188 57.096874 120.45625 56.753124Q120.09688 56.51875 118.65938 56.159374Q116.72188 55.659374 115.97188 55.315624Q115.2375 54.95625 114.84688 54.33125Q114.45625 53.690624 114.45625 52.925Q114.45625 52.2375 114.76875 51.64375Q115.09688 51.05 115.64375 50.659374Q116.05 50.3625 116.75313 50.159374Q117.47188 49.940624 118.28438 49.940624Q119.50313 49.940624 120.425 50.3Q121.34688 50.64375 121.78438 51.253124Q122.22188 51.846874 122.39375 52.846874L120.675 53.08125Q120.55 52.284374 119.9875 51.846874Q119.425 51.39375 118.40938 51.39375Q117.19063 51.39375 116.675 51.8Q116.15938 52.190624 116.15938 52.721874Q116.15938 53.065624 116.37813 53.346874Q116.58125 53.628124 117.05 53.815624Q117.31563 53.909374 118.59688 54.253124Q120.47188 54.753124 121.20625 55.08125Q121.94063 55.39375 122.3625 56.003124Q122.78438 56.596874 122.78438 57.503124Q122.78438 58.378124 122.26875 59.159374Q121.75313 59.940624 120.78438 60.3625Q119.81563 60.784374 118.59688 60.784374Q116.58125 60.784374 115.51875 59.940624Q114.45625 59.096874 114.15938 57.45625ZM131.64375 56.753124L133.3625 56.971874Q133.08125 58.76875 131.90938 59.784374Q130.75313 60.784374 129.05 60.784374Q126.925 60.784374 125.62813 59.39375Q124.33125 58.003124 124.33125 55.409374Q124.33125 53.721874 124.87813 52.471874Q125.44063 51.20625 126.58125 50.58125Q127.72188 49.940624 129.06563 49.940624Q130.75313 49.940624 131.81563 50.8Q132.89375 51.659374 133.20625 53.221874L131.4875 53.4875Q131.25313 52.440624 130.62813 51.925Q130.00313 51.39375 129.12813 51.39375Q127.8 51.39375 126.97188 52.346874Q126.14375 53.3 126.14375 55.346874Q126.14375 57.440624 126.94063 58.39375Q127.7375 59.33125 129.03438 59.33125Q130.06563 59.33125 130.75313 58.70625Q131.45625 58.065624 131.64375 56.753124ZM141.64375 59.26875Q140.65938 60.096874 139.75313 60.440624Q138.84688 60.784374 137.81563 60.784374Q136.1125 60.784374 135.19063 59.95625Q134.26875 59.1125 134.26875 57.815624Q134.26875 57.05 134.6125 56.425Q134.97188 55.8 135.53438 55.425Q136.09688 55.034374 136.8 54.83125Q137.31563 54.70625 138.3625 54.565624Q140.4875 54.315624 141.4875 53.971874Q141.50313 53.6125 141.50313 53.503124Q141.50313 52.440624 141.00313 51.9875Q140.33125 51.39375 139.00313 51.39375Q137.75313 51.39375 137.15938 51.83125Q136.58125 52.26875 136.3 53.378124L134.58125 53.14375Q134.81563 52.034374 135.34688 51.3625Q135.87813 50.675 136.89375 50.315624Q137.90938 49.940624 139.25313 49.940624Q140.58125 49.940624 141.40938 50.253124Q142.2375 50.565624 142.62813 51.05Q143.01875 51.51875 143.175 52.2375Q143.26875 52.690624 143.26875 53.8625L143.26875 56.20625Q143.26875 58.659374 143.37813 59.315624Q143.4875 59.95625 143.83125 60.55L141.9875 60.55Q141.72188 60.003124 141.64375 59.26875ZM141.4875 55.346874Q140.53438 55.7375 138.6125 56.003124Q137.53438 56.159374 137.08125 56.3625Q136.64375 56.55 136.39375 56.925Q136.14375 57.3 136.14375 57.76875Q136.14375 58.471874 136.675 58.940624Q137.20625 59.409374 138.2375 59.409374Q139.25313 59.409374 140.03438 58.971874Q140.83125 58.51875 141.20625 57.753124Q141.4875 57.14375 141.4875 55.9875L141.4875 55.346874ZM152.59688 60.55L152.59688 59.2375Q151.6125 60.784374 149.69063 60.784374Q148.45625 60.784374 147.40938 60.096874Q146.37813 59.409374 145.8 58.190624Q145.2375 56.971874 145.2375 55.378124Q145.2375 53.815624 145.75313 52.55Q146.26875 51.284374 147.3 50.6125Q148.34688 49.940624 149.6125 49.940624Q150.55 49.940624 151.28438 50.346874Q152.01875 50.7375 152.4875 51.3625L152.4875 46.2375L154.22188 46.2375L154.22188 60.55L152.59688 60.55ZM147.03438 55.378124Q147.03438 57.3625 147.87813 58.346874Q148.72188 59.33125 149.8625 59.33125Q151.01875 59.33125 151.81563 58.39375Q152.62813 57.45625 152.62813 55.51875Q152.62813 53.39375 151.8 52.39375Q150.9875 51.39375 149.78438 51.39375Q148.6125 51.39375 147.81563 52.3625Q147.03438 53.315624 147.03438 55.378124ZM163.65938 60.55L163.65938 59.01875Q162.45625 60.784374 160.37813 60.784374Q159.45625 60.784374 158.65938 60.440624Q157.8625 60.08125 157.47188 59.55Q157.09688 59.01875 156.94063 58.2375Q156.83125 57.721874 156.83125 56.596874L156.83125 50.175L158.58125 50.175L158.58125 55.925Q158.58125 57.3 158.69063 57.784374Q158.8625 58.471874 159.39375 58.878124Q159.94063 59.26875 160.72188 59.26875Q161.51875 59.26875 162.20625 58.8625Q162.90938 58.45625 163.19063 57.76875Q163.4875 57.065624 163.4875 55.7375L163.4875 50.175L165.2375 50.175L165.2375 60.55L163.65938 60.55ZM170.70625 58.971874L170.95625 60.534374Q170.22188 60.690624 169.62813 60.690624Q168.675 60.690624 168.14375 60.39375Q167.62813 60.08125 167.40938 59.596874Q167.19063 59.096874 167.19063 57.51875L167.19063 51.55L165.90938 51.55L165.90938 50.175L167.19063 50.175L167.19063 47.6125L168.94063 46.55L168.94063 50.175L170.70625 50.175L170.70625 51.55L168.94063 51.55L168.94063 57.6125Q168.94063 58.3625 169.03438 58.58125Q169.12813 58.784374 169.33125 58.925Q169.55 59.05 169.94063 59.05Q170.22188 59.05 170.70625 58.971874ZM172.87813 48.253124L172.87813 46.2375L174.64375 46.2375L174.64375 48.253124L172.87813 48.253124ZM172.87813 60.55L172.87813 50.175L174.64375 50.175L174.64375 60.55L172.87813 60.55ZM180.15938 57.01875Q180.14375 56.675 180.14375 56.503124Q180.14375 55.45625 180.44063 54.70625Q180.65938 54.14375 181.14375 53.565624Q181.4875 53.14375 182.39375 52.346874Q183.31563 51.534374 183.58125 51.065624Q183.8625 50.58125 183.8625 50.01875Q183.8625 48.9875 183.05 48.221874Q182.25313 47.440624 181.09688 47.440624Q179.97188 47.440624 179.22188 48.14375Q178.47188 48.846874 178.2375 50.33125L176.425 50.1125Q176.675 48.1125 177.87813 47.05Q179.08125 45.9875 181.06563 45.9875Q183.175 45.9875 184.425 47.128124Q185.675 48.26875 185.675 49.89375Q185.675 50.83125 185.22188 51.628124Q184.78438 52.409374 183.50313 53.55Q182.64375 54.315624 182.37813 54.675Q182.12813 55.034374 181.9875 55.503124Q181.8625 55.971874 181.84688 57.01875L180.15938 57.01875ZM180.05 60.55L180.05 58.55L182.05 58.55L182.05 60.55L180.05 60.55Z" fill-rule="nonzero"/></svg>