<svg version="1.1" viewBox="0.0 0.0 600.0 371.0" fill="none" stroke="none" stroke-linecap="square" stroke-miterlimit="10" width="600" height="371" xmlns:xlink="http://www.w3.org/1999/xlink" xmlns="http://www.w3.org/2000/svg"><path fill="#ffffff" d="M0 0L600.0 0L600.0 371.0L0 371.0L0 0Z" fill-rule="nonzero"/><path fill="#4285f4" d="M300.0 78.916664C343.00363 78.916664 383.50302 99.14287 409.33713 133.52182C435.17123 167.90076 443.33124 212.42844 431.36685 253.7342L300.0 215.68333Z" fill-rule="nonzero"/><path fill="#ea4335" d="M431.36685 253.7342C411.73526 321.5104 343.76398 363.226 274.44464 350.04123C205.12527 336.85645 157.21524 273.09976 163.83685 202.84901C170.45848 132.59827 229.43788 78.916664 300.0 78.916664L300.0 215.68333Z" fill-rule="nonzero"/><path fill="#1a1a1a" d="M19.471874 289.2368L19.471874 280.64304L20.628124 280.64304L25.14375 287.39304L25.14375 280.64304L26.2375 280.64304L26.2375 289.2368L25.065624 289.2368L20.55 282.4868L20.55 289.2368L19.471874 289.2368ZM27.95625 286.1274Q27.95625 284.39304 28.909374 283.5649Q29.70625 282.8774 30.8625 282.8774Q32.14375 282.8774 32.95625 283.72116Q33.784374 284.5493 33.784374 286.03366Q33.784374 287.2368 33.425 287.9243Q33.065624 288.6118 32.3625 289.0024Q31.675 289.3774 30.8625 289.3774Q29.565624 289.3774 28.753124 288.5493Q27.95625 287.70554 27.95625 286.1274ZM29.034374 286.1274Q29.034374 287.3149 29.55 287.90866Q30.08125 288.5024 30.8625 288.5024Q31.659374 288.5024 32.175 287.90866Q32.690624 287.3149 32.690624 286.09616Q32.690624 284.9399 32.159374 284.34616Q31.64375 283.7524 30.8625 283.7524Q30.08125 283.7524 29.55 284.34616Q29.034374 284.9243 29.034374 286.1274Z" fill-rule="nonzero"/><path fill="#9e9e9e" d="M19.1125 298.76804L19.1125 297.7524L24.675 297.7524L24.675 298.58054Q23.8625 299.45554 23.05 300.90866Q22.253124 302.34616 21.815624 303.8774Q21.4875 304.95554 21.409374 306.2368L20.315624 306.2368Q20.33125 305.22116 20.70625 303.78366Q21.096874 302.34616 21.8 301.01804Q22.51875 299.6899 23.33125 298.76804L19.1125 298.76804ZM26.05 302.0024Q26.05 300.47116 26.3625 299.5493Q26.675 298.6118 27.284374 298.1118Q27.909374 297.6118 28.846874 297.6118Q29.534374 297.6118 30.05 297.89304Q30.58125 298.1743 30.925 298.70554Q31.26875 299.22116 31.45625 299.97116Q31.64375 300.72116 31.64375 302.0024Q31.64375 303.51804 31.33125 304.4399Q31.034374 305.3618 30.409374 305.8774Q29.8 306.3774 28.846874 306.3774Q27.6125 306.3774 26.89375 305.4868Q26.05 304.4243 26.05 302.0024ZM27.128124 302.0024Q27.128124 304.1118 27.628124 304.8149Q28.128124 305.51804 28.846874 305.51804Q29.58125 305.51804 30.065624 304.8149Q30.565624 304.1118 30.565624 302.0024Q30.565624 299.8774 30.065624 299.1899Q29.58125 298.4868 28.83125 298.4868Q28.1125 298.4868 27.675 299.09616Q27.128124 299.8774 27.128124 302.0024ZM33.6125 306.2368L33.6125 305.03366L34.815624 305.03366L34.815624 306.2368Q34.815624 306.89304 34.58125 307.2993Q34.346874 307.72116 33.846874 307.9399L33.55 307.4868Q33.878124 307.34616 34.034374 307.0493Q34.190624 306.76804 34.221874 306.2368L33.6125 306.2368ZM36.05 303.9868L37.159374 303.89304Q37.284374 304.70554 37.721874 305.1118Q38.175 305.51804 38.815624 305.51804Q39.565624 305.51804 40.096874 304.9399Q40.628124 304.3618 40.628124 303.4243Q40.628124 302.51804 40.1125 302.0024Q39.6125 301.47116 38.784374 301.47116Q38.284374 301.47116 37.8625 301.70554Q37.45625 301.9399 37.221874 302.2993L36.2375 302.1743L37.065624 297.76804L41.346874 297.76804L41.346874 298.76804L37.909374 298.76804L37.45625 301.08054Q38.221874 300.53366 39.065624 300.53366Q40.190624 300.53366 40.95625 301.3149Q41.7375 302.09616 41.7375 303.33054Q41.7375 304.4868 41.065624 305.34616Q40.2375 306.3774 38.815624 306.3774Q37.64375 306.3774 36.89375 305.72116Q36.159374 305.0649 36.05 303.9868ZM43.253124 299.70554Q43.253124 298.78366 43.70625 298.14304Q44.175 297.5024 45.05 297.5024Q45.8625 297.5024 46.39375 298.08054Q46.925 298.65866 46.925 299.76804Q46.925 300.8618 46.378124 301.45554Q45.846874 302.03366 45.065624 302.03366Q44.284374 302.03366 43.76875 301.45554Q43.253124 300.8774 43.253124 299.70554ZM45.08125 298.22116Q44.690624 298.22116 44.425 298.5649Q44.175 298.90866 44.175 299.8149Q44.175 300.64304 44.425 300.9868Q44.690624 301.3149 45.08125 301.3149Q45.4875 301.3149 45.7375 300.97116Q46.003124 300.6274 46.003124 299.7368Q46.003124 298.89304 45.7375 298.5649Q45.471874 298.22116 45.08125 298.22116ZM45.08125 306.5493L49.784374 297.5024L50.64375 297.5024L45.95625 306.5493L45.08125 306.5493ZM48.8 304.22116Q48.8 303.2993 49.253124 302.65866Q49.721874 302.01804 50.6125 302.01804Q51.425 302.01804 51.95625 302.59616Q52.4875 303.15866 52.4875 304.28366Q52.4875 305.3774 51.940624 305.97116Q51.409374 306.5493 50.6125 306.5493Q49.846874 306.5493 49.315624 305.97116Q48.8 305.39304 48.8 304.22116ZM50.64375 302.7368Q50.2375 302.7368 49.971874 303.08054Q49.721874 303.4243 49.721874 304.33054Q49.721874 305.14304 49.9875 305.4868Q50.253124 305.83054 50.64375 305.83054Q51.034374 305.83054 51.3 305.4868Q51.565624 305.14304 51.565624 304.2368Q51.565624 303.40866 51.3 303.08054Q51.034374 302.7368 50.64375 302.7368Z" fill-rule="nonzero"/><path stroke="#757575" stroke-width="1.0" stroke-linecap="butt" d="M18.55 293.7368L157.23334 293.7368L196.12973 293.7368" fill-rule="nonzero"/><path fill="#9e9e9e" d="M198.12973 293.7368C198.12973 292.6322 197.2343 291.7368 196.12973 291.7368C195.02516 291.7368 194.12973 292.6322 194.12973 293.7368C194.12973 294.84134 195.02516 295.7368 196.12973 295.7368C197.2343 295.7368 198.12973 294.84134 198.12973 293.7368" fill-rule="nonzero"/><path fill="#1a1a1a" d="M570.9969 130.36427L572.0594 130.27052Q572.1375 130.92677 572.41876 131.33302Q572.7 131.73927 573.27814 132.0049Q573.8719 132.2549 574.60626 132.2549Q575.2469 132.2549 575.7469 132.0674Q576.2469 131.86427 576.48126 131.53615Q576.73126 131.1924 576.73126 130.80177Q576.73126 130.39552 576.4969 130.09865Q576.2625 129.78615 575.73126 129.58302Q575.3719 129.4424 574.1844 129.16115Q573.0125 128.8799 572.54376 128.6299Q571.91876 128.30177 571.6219 127.83302Q571.325 127.34865 571.325 126.7549Q571.325 126.11427 571.6844 125.55177Q572.0594 124.97365 572.7625 124.6924Q573.48126 124.39552 574.34064 124.39552Q575.29376 124.39552 576.02814 124.70802Q576.7625 125.0049 577.15314 125.61427Q577.54376 126.20802 577.575 126.95802L576.48126 127.03615Q576.3875 126.22365 575.8719 125.8174Q575.3719 125.39552 574.3875 125.39552Q573.35626 125.39552 572.8875 125.77052Q572.41876 126.14552 572.41876 126.67677Q572.41876 127.14552 572.7469 127.4424Q573.075 127.73927 574.45 128.05177Q575.84064 128.36427 576.35626 128.59865Q577.10626 128.95802 577.46564 129.48927Q577.825 130.0049 577.825 130.70802Q577.825 131.39552 577.4344 132.0049Q577.04376 132.59865 576.3094 132.9424Q575.575 133.27052 574.65314 133.27052Q573.48126 133.27052 572.6844 132.9424Q571.90314 132.59865 571.45 131.91115Q571.0125 131.22365 570.9969 130.36427ZM579.2469 125.7549L579.2469 124.53615L580.3094 124.53615L580.3094 125.7549L579.2469 125.7549ZM579.2469 133.1299L579.2469 126.91115L580.3094 126.91115L580.3094 133.1299L579.2469 133.1299Z" fill-rule="nonzero"/><path fill="#9e9e9e" d="M552.4969 149.11427L552.4969 150.1299L546.8094 150.1299Q546.8094 149.7549 546.9344 149.39552Q547.15314 148.8174 547.6219 148.2549Q548.10626 147.6924 549.0125 146.95802Q550.41876 145.80177 550.90314 145.1299Q551.40314 144.45802 551.40314 143.86427Q551.40314 143.23927 550.95 142.8174Q550.4969 142.3799 549.77814 142.3799Q549.0125 142.3799 548.5594 142.83302Q548.10626 143.28615 548.09064 144.09865L547.0125 143.98927Q547.1219 142.77052 547.84064 142.14552Q548.575 141.5049 549.8094 141.5049Q551.04376 141.5049 551.7625 142.1924Q552.48126 142.8799 552.48126 143.89552Q552.48126 144.41115 552.2625 144.91115Q552.0594 145.39552 551.5594 145.95802Q551.075 146.5049 549.95 147.45802Q548.9969 148.2549 548.71564 148.55177Q548.45 148.83302 548.27814 149.11427L552.4969 149.11427ZM554.10626 148.14552L555.1219 148.05177Q555.2469 148.77052 555.60626 149.09865Q555.98126 149.41115 556.54376 149.41115Q557.02814 149.41115 557.3875 149.1924Q557.7625 148.95802 557.9969 148.59865Q558.23126 148.22365 558.3875 147.59865Q558.54376 146.95802 558.54376 146.30177Q558.54376 146.22365 558.54376 146.08302Q558.23126 146.58302 557.6844 146.91115Q557.1375 147.22365 556.4969 147.22365Q555.41876 147.22365 554.6844 146.45802Q553.95 145.67677 553.95 144.41115Q553.95 143.09865 554.71564 142.30177Q555.4969 141.5049 556.65314 141.5049Q557.48126 141.5049 558.16876 141.95802Q558.8719 142.41115 559.23126 143.2549Q559.59064 144.08302 559.59064 145.66115Q559.59064 147.30177 559.23126 148.28615Q558.8875 149.2549 558.16876 149.77052Q557.46564 150.27052 556.52814 150.27052Q555.5125 150.27052 554.8719 149.72365Q554.23126 149.16115 554.10626 148.14552ZM558.41876 144.34865Q558.41876 143.4424 557.9344 142.91115Q557.46564 142.3799 556.77814 142.3799Q556.075 142.3799 555.54376 142.95802Q555.02814 143.52052 555.02814 144.4424Q555.02814 145.2549 555.52814 145.77052Q556.02814 146.28615 556.7469 146.28615Q557.48126 146.28615 557.95 145.77052Q558.41876 145.2549 558.41876 144.34865ZM561.5125 150.1299L561.5125 148.92677L562.71564 148.92677L562.71564 150.1299Q562.71564 150.78615 562.48126 151.1924Q562.2469 151.61427 561.7469 151.83302L561.45 151.3799Q561.77814 151.23927 561.9344 150.9424Q562.09064 150.66115 562.1219 150.1299L561.5125 150.1299ZM563.95 147.8799L565.0594 147.78615Q565.1844 148.59865 565.6219 149.0049Q566.075 149.41115 566.71564 149.41115Q567.46564 149.41115 567.9969 148.83302Q568.52814 148.2549 568.52814 147.3174Q568.52814 146.41115 568.0125 145.89552Q567.5125 145.36427 566.6844 145.36427Q566.1844 145.36427 565.7625 145.59865Q565.35626 145.83302 565.1219 146.1924L564.1375 146.0674L564.96564 141.66115L569.2469 141.66115L569.2469 142.66115L565.8094 142.66115L565.35626 144.97365Q566.1219 144.42677 566.96564 144.42677Q568.09064 144.42677 568.85626 145.20802Q569.6375 145.98927 569.6375 147.22365Q569.6375 148.3799 568.96564 149.23927Q568.1375 150.27052 566.71564 150.27052Q565.54376 150.27052 564.79376 149.61427Q564.0594 148.95802 563.95 147.8799ZM571.15314 143.59865Q571.15314 142.67677 571.60626 142.03615Q572.075 141.39552 572.95 141.39552Q573.7625 141.39552 574.29376 141.97365Q574.825 142.55177 574.825 143.66115Q574.825 144.7549 574.27814 145.34865Q573.7469 145.92677 572.96564 145.92677Q572.1844 145.92677 571.66876 145.34865Q571.15314 144.77052 571.15314 143.59865ZM572.98126 142.11427Q572.59064 142.11427 572.325 142.45802Q572.075 142.80177 572.075 143.70802Q572.075 144.53615 572.325 144.8799Q572.59064 145.20802 572.98126 145.20802Q573.3875 145.20802 573.6375 144.86427Q573.90314 144.52052 573.90314 143.6299Q573.90314 142.78615 573.6375 142.45802Q573.3719 142.11427 572.98126 142.11427ZM572.98126 150.4424L577.6844 141.39552L578.54376 141.39552L573.85626 150.4424L572.98126 150.4424ZM576.7 148.11427Q576.7 147.1924 577.15314 146.55177Q577.6219 145.91115 578.5125 145.91115Q579.325 145.91115 579.85626 146.48927Q580.3875 147.05177 580.3875 148.17677Q580.3875 149.27052 579.84064 149.86427Q579.3094 150.4424 578.5125 150.4424Q577.7469 150.4424 577.21564 149.86427Q576.7 149.28615 576.7 148.11427ZM578.54376 146.6299Q578.1375 146.6299 577.8719 146.97365Q577.6219 147.3174 577.6219 148.22365Q577.6219 149.03615 577.8875 149.3799Q578.15314 149.72365 578.54376 149.72365Q578.9344 149.72365 579.2 149.3799Q579.46564 149.03615 579.46564 148.1299Q579.46564 147.30177 579.2 146.97365Q578.9344 146.6299 578.54376 146.6299Z" fill-rule="nonzero"/><path stroke="#757575" stroke-width="1.0" stroke-linecap="butt" d="M581.45 137.6299L442.76666 137.6299L403.87027 137.6299" fill-rule="nonzero"/><path fill="#9e9e9e" d="M405.87027 137.6299C405.87027 136.52533 404.97482 135.6299 403.87027 135.6299C402.7657 135.6299 401.87027 136.52533 401.87027 137.6299C401.87027 138.73447 402.7657 139.6299 403.87027 139.6299C404.97482 139.6299 405.87027 138.73447 405.87027 137.6299" fill-rule="nonzero"/><path fill="#757575" d="M20.128124 37.55L20.128124 23.2375L26.471874 23.2375Q28.378124 23.2375 29.378124 23.628124Q30.378124 24.003124 30.971874 24.9875Q31.565624 25.95625 31.565624 27.14375Q31.565624 28.659374 30.58125 29.70625Q29.596874 30.753124 27.534374 31.034374Q28.284374 31.39375 28.675 31.753124Q29.503124 32.503124 30.253124 33.659374L32.7375 37.55L30.3625 37.55L28.45625 34.565624Q27.628124 33.284374 27.096874 32.596874Q26.565624 31.909374 26.128124 31.64375Q25.70625 31.3625 25.26875 31.253124Q24.940624 31.190624 24.221874 31.190624L22.01875 31.190624L22.01875 37.55L20.128124 37.55ZM22.01875 29.55L26.096874 29.55Q27.39375 29.55 28.1125 29.284374Q28.846874 29.01875 29.221874 28.425Q29.6125 27.83125 29.6125 27.14375Q29.6125 26.128124 28.878124 25.471874Q28.14375 24.815624 26.55 24.815624L22.01875 24.815624L22.01875 29.55ZM33.878124 25.253124L33.878124 23.2375L35.64375 23.2375L35.64375 25.253124L33.878124 25.253124ZM33.878124 37.55L33.878124 27.175L35.64375 27.175L35.64375 37.55L33.878124 37.55ZM44.971874 34.20625L46.784374 34.440624Q46.3625 36.01875 45.190624 36.909374Q44.034374 37.784374 42.221874 37.784374Q39.95625 37.784374 38.6125 36.39375Q37.284374 34.9875 37.284374 32.45625Q37.284374 29.83125 38.628124 28.39375Q39.971874 26.940624 42.128124 26.940624Q44.20625 26.940624 45.51875 28.3625Q46.846874 29.76875 46.846874 32.346874Q46.846874 32.503124 46.83125 32.815624L39.096874 32.815624Q39.190624 34.51875 40.065624 35.425Q40.940624 36.33125 42.2375 36.33125Q43.20625 36.33125 43.878124 35.83125Q44.565624 35.315624 44.971874 34.20625ZM39.190624 31.3625L44.9875 31.3625Q44.878124 30.065624 44.33125 29.409374Q43.4875 28.39375 42.14375 28.39375Q40.940624 28.39375 40.1125 29.20625Q39.284374 30.003124 39.190624 31.3625ZM48.159374 34.45625L49.909374 34.175Q50.05 35.221874 50.721874 35.784374Q51.39375 36.33125 52.596874 36.33125Q53.8 36.33125 54.378124 35.846874Q54.971874 35.346874 54.971874 34.690624Q54.971874 34.096874 54.45625 33.753124Q54.096874 33.51875 52.659374 33.159374Q50.721874 32.659374 49.971874 32.315624Q49.2375 31.95625 48.846874 31.33125Q48.45625 30.690624 48.45625 29.925Q48.45625 29.2375 48.76875 28.64375Q49.096874 28.05 49.64375 27.659374Q50.05 27.3625 50.753124 27.159374Q51.471874 26.940624 52.284374 26.940624Q53.503124 26.940624 54.425 27.3Q55.346874 27.64375 55.784374 28.253124Q56.221874 28.846874 56.39375 29.846874L54.675 30.08125Q54.55 29.284374 53.9875 28.846874Q53.425 28.39375 52.409374 28.39375Q51.190624 28.39375 50.675 28.8Q50.159374 29.190624 50.159374 29.721874Q50.159374 30.065624 50.378124 30.346874Q50.58125 30.628124 51.05 30.815624Q51.315624 30.909374 52.596874 31.253124Q54.471874 31.753124 55.20625 32.08125Q55.940624 32.39375 56.3625 33.003124Q56.784374 33.596874 56.784374 34.503124Q56.784374 35.378124 56.26875 36.159374Q55.753124 36.940624 54.784374 37.3625Q53.815624 37.784374 52.596874 37.784374Q50.58125 37.784374 49.51875 36.940624Q48.45625 36.096874 48.159374 34.45625ZM65.64375 33.753124L67.3625 33.971874Q67.08125 35.76875 65.90938 36.784374Q64.75313 37.784374 63.05 37.784374Q60.925 37.784374 59.628124 36.39375Q58.33125 35.003124 58.33125 32.409374Q58.33125 30.721874 58.878124 29.471874Q59.440624 28.20625 60.58125 27.58125Q61.721874 26.940624 63.065624 26.940624Q64.75313 26.940624 65.81563 27.8Q66.89375 28.659374 67.20625 30.221874L65.4875 30.4875Q65.25313 29.440624 64.62813 28.925Q64.00313 28.39375 63.128124 28.39375Q61.8 28.39375 60.971874 29.346874Q60.14375 30.3 60.14375 32.346874Q60.14375 34.440624 60.940624 35.39375Q61.7375 36.33125 63.034374 36.33125Q64.06563 36.33125 64.75313 35.70625Q65.45625 35.065624 65.64375 33.753124ZM68.87813 25.253124L68.87813 23.2375L70.64375 23.2375L70.64375 25.253124L68.87813 25.253124ZM68.87813 37.55L68.87813 27.175L70.64375 27.175L70.64375 37.55L68.87813 37.55ZM85.64375 36.26875Q84.65938 37.096874 83.75313 37.440624Q82.84688 37.784374 81.81563 37.784374Q80.1125 37.784374 79.19063 36.95625Q78.26875 36.1125 78.26875 34.815624Q78.26875 34.05 78.6125 33.425Q78.97188 32.8 79.53438 32.425Q80.09688 32.034374 80.8 31.83125Q81.31563 31.70625 82.3625 31.565624Q84.4875 31.315624 85.4875 30.971874Q85.50313 30.6125 85.50313 30.503124Q85.50313 29.440624 85.00313 28.9875Q84.33125 28.39375 83.00313 28.39375Q81.75313 28.39375 81.15938 28.83125Q80.58125 29.26875 80.3 30.378124L78.58125 30.14375Q78.81563 29.034374 79.34688 28.3625Q79.87813 27.675 80.89375 27.315624Q81.90938 26.940624 83.25313 26.940624Q84.58125 26.940624 85.40938 27.253124Q86.2375 27.565624 86.62813 28.05Q87.01875 28.51875 87.175 29.2375Q87.26875 29.690624 87.26875 30.8625L87.26875 33.20625Q87.26875 35.659374 87.37813 36.315624Q87.4875 36.95625 87.83125 37.55L85.9875 37.55Q85.72188 37.003124 85.64375 36.26875ZM85.4875 32.346874Q84.53438 32.7375 82.6125 33.003124Q81.53438 33.159374 81.08125 33.3625Q80.64375 33.55 80.39375 33.925Q80.14375 34.3 80.14375 34.76875Q80.14375 35.471874 80.675 35.940624Q81.20625 36.409374 82.2375 36.409374Q83.25313 36.409374 84.03438 35.971874Q84.83125 35.51875 85.20625 34.753124Q85.4875 34.14375 85.4875 32.9875L85.4875 32.346874ZM95.84688 37.55L95.84688 27.175L97.425 27.175L97.425 28.753124Q98.03438 27.64375 98.55 27.3Q99.06563 26.940624 99.675 26.940624Q100.56563 26.940624 101.4875 27.503124L100.87813 29.14375Q100.2375 28.753124 99.59688 28.753124Q99.01875 28.753124 98.55 29.1125Q98.09688 29.45625 97.89375 30.065624Q97.6125 31.003124 97.6125 32.1125L97.6125 37.55L95.84688 37.55ZM102.87813 25.253124L102.87813 23.2375L104.64375 23.2375L104.64375 25.253124L102.87813 25.253124ZM102.87813 37.55L102.87813 27.175L104.64375 27.175L104.64375 37.55L102.87813 37.55ZM113.64375 33.753124L115.3625 33.971874Q115.08125 35.76875 113.90938 36.784374Q112.75313 37.784374 111.05 37.784374Q108.925 37.784374 107.62813 36.39375Q106.33125 35.003124 106.33125 32.409374Q106.33125 30.721874 106.87813 29.471874Q107.44063 28.20625 108.58125 27.58125Q109.72188 26.940624 111.06563 26.940624Q112.75313 26.940624 113.81563 27.8Q114.89375 28.659374 115.20625 30.221874L113.4875 30.4875Q113.25313 29.440624 112.62813 28.925Q112.00313 28.39375 111.12813 28.39375Q109.8 28.39375 108.97188 29.346874Q108.14375 30.3 108.14375 32.346874Q108.14375 34.440624 108.94063 35.39375Q109.7375 36.33125 111.03438 36.33125Q112.06563 36.33125 112.75313 35.70625Q113.45625 35.065624 113.64375 33.753124ZM116.22188 32.3625Q116.22188 29.4875 117.81563 28.096874Q119.15938 26.940624 121.08125 26.940624Q123.22188 26.940624 124.56563 28.346874Q125.925 29.753124 125.925 32.221874Q125.925 34.221874 125.33125 35.378124Q124.7375 36.51875 123.58125 37.159374Q122.44063 37.784374 121.08125 37.784374Q118.89375 37.784374 117.55 36.39375Q116.22188 34.9875 116.22188 32.3625ZM118.01875 32.3625Q118.01875 34.3625 118.87813 35.346874Q119.75313 36.33125 121.08125 36.33125Q122.39375 36.33125 123.25313 35.346874Q124.12813 34.346874 124.12813 32.3Q124.12813 30.378124 123.25313 29.39375Q122.37813 28.39375 121.08125 28.39375Q119.75313 28.39375 118.87813 29.39375Q118.01875 30.378124 118.01875 32.3625ZM127.84688 37.55L127.84688 27.175L129.425 27.175L129.425 28.753124Q130.03438 27.64375 130.55 27.3Q131.06563 26.940624 131.675 26.940624Q132.56563 26.940624 133.4875 27.503124L132.87813 29.14375Q132.2375 28.753124 131.59688 28.753124Q131.01875 28.753124 130.55 29.1125Q130.09688 29.45625 129.89375 30.065624Q129.6125 31.003124 129.6125 32.1125L129.6125 37.55L127.84688 37.55ZM141.59688 37.55L141.59688 36.2375Q140.6125 37.784374 138.69063 37.784374Q137.45625 37.784374 136.40938 37.096874Q135.37813 36.409374 134.8 35.190624Q134.2375 33.971874 134.2375 32.378124Q134.2375 30.815624 134.75313 29.55Q135.26875 28.284374 136.3 27.6125Q137.34688 26.940624 138.6125 26.940624Q139.55 26.940624 140.28438 27.346874Q141.01875 27.7375 141.4875 28.3625L141.4875 23.2375L143.22188 23.2375L143.22188 37.55L141.59688 37.55ZM136.03438 32.378124Q136.03438 34.3625 136.87813 35.346874Q137.72188 36.33125 138.8625 36.33125Q140.01875 36.33125 140.81563 35.39375Q141.62813 34.45625 141.62813 32.51875Q141.62813 30.39375 140.8 29.39375Q139.9875 28.39375 138.78438 28.39375Q137.6125 28.39375 136.81563 29.3625Q136.03438 30.315624 136.03438 32.378124ZM152.64375 36.26875Q151.65938 37.096874 150.75313 37.440624Q149.84688 37.784374 148.81563 37.784374Q147.1125 37.784374 146.19063 36.95625Q145.26875 36.1125 145.26875 34.815624Q145.26875 34.05 145.6125 33.425Q145.97188 32.8 146.53438 32.425Q147.09688 32.034374 147.8 31.83125Q148.31563 31.70625 149.3625 31.565624Q151.4875 31.315624 152.4875 30.971874Q152.50313 30.6125 152.50313 30.503124Q152.50313 29.440624 152.00313 28.9875Q151.33125 28.39375 150.00313 28.39375Q148.75313 28.39375 148.15938 28.83125Q147.58125 29.26875 147.3 30.378124L145.58125 30.14375Q145.81563 29.034374 146.34688 28.3625Q146.87813 27.675 147.89375 27.315624Q148.90938 26.940624 150.25313 26.940624Q151.58125 26.940624 152.40938 27.253124Q153.2375 27.565624 153.62813 28.05Q154.01875 28.51875 154.175 29.2375Q154.26875 29.690624 154.26875 30.8625L154.26875 33.20625Q154.26875 35.659374 154.37813 36.315624Q154.4875 36.95625 154.83125 37.55L152.9875 37.55Q152.72188 37.003124 152.64375 36.26875ZM152.4875 32.346874Q151.53438 32.7375 149.6125 33.003124Q148.53438 33.159374 148.08125 33.3625Q147.64375 33.55 147.39375 33.925Q147.14375 34.3 147.14375 34.76875Q147.14375 35.471874 147.675 35.940624Q148.20625 36.409374 149.2375 36.409374Q150.25313 36.409374 151.03438 35.971874Q151.83125 35.51875 152.20625 34.753124Q152.4875 34.14375 152.4875 32.9875L152.4875 32.346874ZM156.84688 37.55L156.84688 27.175L158.425 27.175L158.425 28.753124Q159.03438 27.64375 159.55 27.3Q160.06563 26.940624 160.675 26.940624Q161.56563 26.940624 162.4875 27.503124L161.87813 29.14375Q161.2375 28.753124 160.59688 28.753124Q160.01875 28.753124 159.55 29.1125Q159.09688 29.45625 158.89375 30.065624Q158.6125 31.003124 158.6125 32.1125L158.6125 37.55L156.84688 37.55ZM170.97188 34.20625L172.78438 34.440624Q172.3625 36.01875 171.19063 36.909374Q170.03438 37.784374 168.22188 37.784374Q165.95625 37.784374 164.6125 36.39375Q163.28438 34.9875 163.28438 32.45625Q163.28438 29.83125 164.62813 28.39375Q165.97188 26.940624 168.12813 26.940624Q170.20625 26.940624 171.51875 28.3625Q172.84688 29.76875 172.84688 32.346874Q172.84688 32.503124 172.83125 32.815624L165.09688 32.815624Q165.19063 34.51875 166.06563 35.425Q166.94063 36.33125 168.2375 36.33125Q169.20625 36.33125 169.87813 35.83125Q170.56563 35.315624 170.97188 34.20625ZM165.19063 31.3625L170.9875 31.3625Q170.87813 30.065624 170.33125 29.409374Q169.4875 28.39375 168.14375 28.39375Q166.94063 28.39375 166.1125 29.20625Q165.28438 30.003124 165.19063 31.3625ZM180.83125 37.55L180.83125 23.2375L182.58125 23.2375L182.58125 37.55L180.83125 37.55ZM191.97188 34.20625L193.78438 34.440624Q193.3625 36.01875 192.19063 36.909374Q191.03438 37.784374 189.22188 37.784374Q186.95625 37.784374 185.6125 36.39375Q184.28438 34.9875 184.28438 32.45625Q184.28438 29.83125 185.62813 28.39375Q186.97188 26.940624 189.12813 26.940624Q191.20625 26.940624 192.51875 28.3625Q193.84688 29.76875 193.84688 32.346874Q193.84688 32.503124 193.83125 32.815624L186.09688 32.815624Q186.19063 34.51875 187.06563 35.425Q187.94063 36.33125 189.2375 36.33125Q190.20625 36.33125 190.87813 35.83125Q191.56563 35.315624 191.97188 34.20625ZM186.19063 31.3625L191.9875 31.3625Q191.87813 30.065624 191.33125 29.409374Q190.4875 28.39375 189.14375 28.39375Q187.94063 28.39375 187.1125 29.20625Q186.28438 30.003124 186.19063 31.3625ZM208.59688 37.55L208.59688 36.2375Q207.6125 37.784374 205.69063 37.784374Q204.45625 37.784374 203.40938 37.096874Q202.37813 36.409374 201.8 35.190624Q201.2375 33.971874 201.2375 32.378124Q201.2375 30.815624 201.75313 29.55Q202.26875 28.284374 203.3 27.6125Q204.34688 26.940624 205.6125 26.940624Q206.55 26.940624 207.28438 27.346874Q208.01875 27.7375 208.4875 28.3625L208.4875 23.2375L210.22188 23.2375L210.22188 37.55L208.59688 37.55ZM203.03438 32.378124Q203.03438 34.3625 203.87813 35.346874Q204.72188 36.33125 205.8625 36.33125Q207.01875 36.33125 207.81563 35.39375Q208.62813 34.45625 208.62813 32.51875Q208.62813 30.39375 207.8 29.39375Q206.9875 28.39375 205.78438 28.39375Q204.6125 28.39375 203.81563 29.3625Q203.03438 30.315624 203.03438 32.378124ZM219.64375 36.26875Q218.65938 37.096874 217.75313 37.440624Q216.84688 37.784374 215.81563 37.784374Q214.1125 37.784374 213.19063 36.95625Q212.26875 36.1125 212.26875 34.815624Q212.26875 34.05 212.6125 33.425Q212.97188 32.8 213.53438 32.425Q214.09688 32.034374 214.8 31.83125Q215.31563 31.70625 216.3625 31.565624Q218.4875 31.315624 219.4875 30.971874Q219.50313 30.6125 219.50313 30.503124Q219.50313 29.440624 219.00313 28.9875Q218.33125 28.39375 217.00313 28.39375Q215.75313 28.39375 215.15938 28.83125Q214.58125 29.26875 214.3 30.378124L212.58125 30.14375Q212.81563 29.034374 213.34688 28.3625Q213.87813 27.675 214.89375 27.315624Q215.90938 26.940624 217.25313 26.940624Q218.58125 26.940624 219.40938 27.253124Q220.2375 27.565624 220.62813 28.05Q221.01875 28.51875 221.175 29.2375Q221.26875 29.690624 221.26875 30.8625L221.26875 33.20625Q221.26875 35.659374 221.37813 36.315624Q221.4875 36.95625 221.83125 37.55L219.9875 37.55Q219.72188 37.003124 219.64375 36.26875ZM219.4875 32.346874Q218.53438 32.7375 216.6125 33.003124Q215.53438 33.159374 215.08125 33.3625Q214.64375 33.55 214.39375 33.925Q214.14375 34.3 214.14375 34.76875Q214.14375 35.471874 214.675 35.940624Q215.20625 36.409374 216.2375 36.409374Q217.25313 36.409374 218.03438 35.971874Q218.83125 35.51875 219.20625 34.753124Q219.4875 34.14375 219.4875 32.9875L219.4875 32.346874ZM227.70625 35.971874L227.95625 37.534374Q227.22188 37.690624 226.62813 37.690624Q225.675 37.690624 225.14375 37.39375Q224.62813 37.08125 224.40938 36.596874Q224.19063 36.096874 224.19063 34.51875L224.19063 28.55L222.90938 28.55L222.90938 27.175L224.19063 27.175L224.19063 24.6125L225.94063 23.55L225.94063 27.175L227.70625 27.175L227.70625 28.55L225.94063 28.55L225.94063 34.6125Q225.94063 35.3625 226.03438 35.58125Q226.12813 35.784374 226.33125 35.925Q226.55 36.05 226.94063 36.05Q227.22188 36.05 227.70625 35.971874ZM236.97188 34.20625L238.78438 34.440624Q238.3625 36.01875 237.19063 36.909374Q236.03438 37.784374 234.22188 37.784374Q231.95625 37.784374 230.6125 36.39375Q229.28438 34.9875 229.28438 32.45625Q229.28438 29.83125 230.62813 28.39375Q231.97188 26.940624 234.12813 26.940624Q236.20625 26.940624 237.51875 28.3625Q238.84688 29.76875 238.84688 32.346874Q238.84688 32.503124 238.83125 32.815624L231.09688 32.815624Q231.19063 34.51875 232.06563 35.425Q232.94063 36.33125 234.2375 36.33125Q235.20625 36.33125 235.87813 35.83125Q236.56563 35.315624 236.97188 34.20625ZM231.19063 31.3625L236.9875 31.3625Q236.87813 30.065624 236.33125 29.409374Q235.4875 28.39375 234.14375 28.39375Q232.94063 28.39375 232.1125 29.20625Q231.28438 30.003124 231.19063 31.3625ZM253.59688 37.55L253.59688 36.2375Q252.6125 37.784374 250.69063 37.784374Q249.45625 37.784374 248.40938 37.096874Q247.37813 36.409374 246.8 35.190624Q246.2375 33.971874 246.2375 32.378124Q246.2375 30.815624 246.75313 29.55Q247.26875 28.284374 248.3 27.6125Q249.34688 26.940624 250.6125 26.940624Q251.55 26.940624 252.28438 27.346874Q253.01875 27.7375 253.4875 28.3625L253.4875 23.2375L255.22188 23.2375L255.22188 37.55L253.59688 37.55ZM248.03438 32.378124Q248.03438 34.3625 248.87813 35.346874Q249.72188 36.33125 250.8625 36.33125Q252.01875 36.33125 252.81563 35.39375Q253.62813 34.45625 253.62813 32.51875Q253.62813 30.39375 252.8 29.39375Q251.9875 28.39375 250.78438 28.39375Q249.6125 28.39375 248.81563 29.3625Q248.03438 30.315624 248.03438 32.378124ZM257.8781 25.253124L257.8781 23.2375L259.64374 23.2375L259.64374 25.253124L257.8781 25.253124ZM257.8781 37.55L257.8781 27.175L259.64374 27.175L259.64374 37.55L257.8781 37.55ZM267.15936 34.45625L268.90936 34.175Q269.05 35.221874 269.72186 35.784374Q270.39374 36.33125 271.59686 36.33125Q272.8 36.33125 273.3781 35.846874Q273.97186 35.346874 273.97186 34.690624Q273.97186 34.096874 273.45624 33.753124Q273.09686 33.51875 271.65936 33.159374Q269.72186 32.659374 268.97186 32.315624Q268.2375 31.95625 267.84686 31.33125Q267.45624 30.690624 267.45624 29.925Q267.45624 29.2375 267.76874 28.64375Q268.09686 28.05 268.64374 27.659374Q269.05 27.3625 269.7531 27.159374Q270.47186 26.940624 271.28436 26.940624Q272.5031 26.940624 273.425 27.3Q274.34686 27.64375 274.78436 28.253124Q275.22186 28.846874 275.39374 29.846874L273.675 30.08125Q273.55 29.284374 272.9875 28.846874Q272.425 28.39375 271.40936 28.39375Q270.1906 28.39375 269.675 28.8Q269.15936 29.190624 269.15936 29.721874Q269.15936 30.065624 269.3781 30.346874Q269.58124 30.628124 270.05 30.815624Q270.3156 30.909374 271.59686 31.253124Q273.47186 31.753124 274.20624 32.08125Q274.9406 32.39375 275.3625 33.003124Q275.78436 33.596874 275.78436 34.503124Q275.78436 35.378124 275.26874 36.159374Q274.7531 36.940624 273.78436 37.3625Q272.8156 37.784374 271.59686 37.784374Q269.58124 37.784374 268.51874 36.940624Q267.45624 36.096874 267.15936 34.45625ZM284.64374 33.753124L286.3625 33.971874Q286.08124 35.76875 284.90936 36.784374Q283.7531 37.784374 282.05 37.784374Q279.925 37.784374 278.6281 36.39375Q277.33124 35.003124 277.33124 32.409374Q277.33124 30.721874 277.8781 29.471874Q278.4406 28.20625 279.58124 27.58125Q280.72186 26.940624 282.0656 26.940624Q283.7531 26.940624 284.8156 27.8Q285.89374 28.659374 286.20624 30.221874L284.4875 30.4875Q284.2531 29.440624 283.6281 28.925Q283.0031 28.39375 282.1281 28.39375Q280.8 28.39375 279.97186 29.346874Q279.14374 30.3 279.14374 32.346874Q279.14374 34.440624 279.9406 35.39375Q280.7375 36.33125 282.03436 36.33125Q283.0656 36.33125 283.7531 35.70625Q284.45624 35.065624 284.64374 33.753124ZM294.64374 36.26875Q293.65936 37.096874 292.7531 37.440624Q291.84686 37.784374 290.8156 37.784374Q289.1125 37.784374 288.1906 36.95625Q287.26874 36.1125 287.26874 34.815624Q287.26874 34.05 287.6125 33.425Q287.97186 32.8 288.53436 32.425Q289.09686 32.034374 289.8 31.83125Q290.3156 31.70625 291.3625 31.565624Q293.4875 31.315624 294.4875 30.971874Q294.5031 30.6125 294.5031 30.503124Q294.5031 29.440624 294.0031 28.9875Q293.33124 28.39375 292.0031 28.39375Q290.7531 28.39375 290.15936 28.83125Q289.58124 29.26875 289.3 30.378124L287.58124 30.14375Q287.8156 29.034374 288.34686 28.3625Q288.8781 27.675 289.89374 27.315624Q290.90936 26.940624 292.2531 26.940624Q293.58124 26.940624 294.40936 27.253124Q295.2375 27.565624 295.6281 28.05Q296.01874 28.51875 296.175 29.2375Q296.26874 29.690624 296.26874 30.8625L296.26874 33.20625Q296.26874 35.659374 296.3781 36.315624Q296.4875 36.95625 296.83124 37.55L294.9875 37.55Q294.72186 37.003124 294.64374 36.26875ZM294.4875 32.346874Q293.53436 32.7375 291.6125 33.003124Q290.53436 33.159374 290.08124 33.3625Q289.64374 33.55 289.39374 33.925Q289.14374 34.3 289.14374 34.76875Q289.14374 35.471874 289.675 35.940624Q290.20624 36.409374 291.2375 36.409374Q292.2531 36.409374 293.03436 35.971874Q293.83124 35.51875 294.20624 34.753124Q294.4875 34.14375 294.4875 32.9875L294.4875 32.346874ZM305.59686 37.55L305.59686 36.2375Q304.6125 37.784374 302.6906 37.784374Q301.45624 37.784374 300.40936 37.096874Q299.3781 36.409374 298.8 35.190624Q298.2375 33.971874 298.2375 32.378124Q298.2375 30.815624 298.7531 29.55Q299.26874 28.284374 300.3 27.6125Q301.34686 26.940624 302.6125 26.940624Q303.55 26.940624 304.28436 27.346874Q305.01874 27.7375 305.4875 28.3625L305.4875 23.2375L307.22186 23.2375L307.22186 37.55L305.59686 37.55ZM300.03436 32.378124Q300.03436 34.3625 300.8781 35.346874Q301.72186 36.33125 302.8625 36.33125Q304.01874 36.33125 304.8156 35.39375Q305.6281 34.45625 305.6281 32.51875Q305.6281 30.39375 304.8 29.39375Q303.9875 28.39375 302.78436 28.39375Q301.6125 28.39375 300.8156 29.3625Q300.03436 30.315624 300.03436 32.378124ZM316.97186 34.20625L318.78436 34.440624Q318.3625 36.01875 317.1906 36.909374Q316.03436 37.784374 314.22186 37.784374Q311.95624 37.784374 310.6125 36.39375Q309.28436 34.9875 309.28436 32.45625Q309.28436 29.83125 310.6281 28.39375Q311.97186 26.940624 314.1281 26.940624Q316.20624 26.940624 317.51874 28.3625Q318.84686 29.76875 318.84686 32.346874Q318.84686 32.503124 318.83124 32.815624L311.09686 32.815624Q311.1906 34.51875 312.0656 35.425Q312.9406 36.33125 314.2375 36.33125Q315.20624 36.33125 315.8781 35.83125Q316.5656 35.315624 316.97186 34.20625ZM311.1906 31.3625L316.9875 31.3625Q316.8781 30.065624 316.33124 29.409374Q315.4875 28.39375 314.14374 28.39375Q312.9406 28.39375 312.1125 29.20625Q311.28436 30.003124 311.1906 31.3625ZM320.8625 37.55L320.8625 27.175L322.45624 27.175L322.45624 28.659374Q323.59686 26.940624 325.7531 26.940624Q326.6906 26.940624 327.47186 27.284374Q328.26874 27.6125 328.65936 28.159374Q329.05 28.70625 329.20624 29.45625Q329.3 29.95625 329.3 31.175L329.3 37.55L327.53436 37.55L327.53436 31.2375Q327.53436 30.159374 327.33124 29.628124Q327.1281 29.096874 326.59686 28.784374Q326.08124 28.471874 325.3781 28.471874Q324.2531 28.471874 323.4406 29.190624Q322.6281 29.89375 322.6281 31.878124L322.6281 37.55L320.8625 37.55ZM329.9406 37.55L329.9406 36.128124L336.55 28.55Q335.425 28.596874 334.5656 28.596874L330.33124 28.596874L330.33124 27.175L338.8156 27.175L338.8156 28.346874L333.1906 34.925L332.1125 36.128124Q333.28436 36.034374 334.33124 36.034374L339.1281 36.034374L339.1281 37.55L329.9406 37.55ZM346.64374 36.26875Q345.65936 37.096874 344.7531 37.440624Q343.84686 37.784374 342.8156 37.784374Q341.1125 37.784374 340.1906 36.95625Q339.26874 36.1125 339.26874 34.815624Q339.26874 34.05 339.6125 33.425Q339.97186 32.8 340.53436 32.425Q341.09686 32.034374 341.8 31.83125Q342.3156 31.70625 343.3625 31.565624Q345.4875 31.315624 346.4875 30.971874Q346.5031 30.6125 346.5031 30.503124Q346.5031 29.440624 346.0031 28.9875Q345.33124 28.39375 344.0031 28.39375Q342.7531 28.39375 342.15936 28.83125Q341.58124 29.26875 341.3 30.378124L339.58124 30.14375Q339.8156 29.034374 340.34686 28.3625Q340.8781 27.675 341.89374 27.315624Q342.90936 26.940624 344.2531 26.940624Q345.58124 26.940624 346.40936 27.253124Q347.2375 27.565624 347.6281 28.05Q348.01874 28.51875 348.175 29.2375Q348.26874 29.690624 348.26874 30.8625L348.26874 33.20625Q348.26874 35.659374 348.3781 36.315624Q348.4875 36.95625 348.83124 37.55L346.9875 37.55Q346.72186 37.003124 346.64374 36.26875ZM346.4875 32.346874Q345.53436 32.7375 343.6125 33.003124Q342.53436 33.159374 342.08124 33.3625Q341.64374 33.55 341.39374 33.925Q341.14374 34.3 341.14374 34.76875Q341.14374 35.471874 341.675 35.940624Q342.20624 36.409374 343.2375 36.409374Q344.2531 36.409374 345.03436 35.971874Q345.83124 35.51875 346.20624 34.753124Q346.4875 34.14375 346.4875 32.9875L346.4875 32.346874ZM356.84686 37.55L356.84686 27.175L358.425 27.175L358.425 28.753124Q359.03436 27.64375 359.55 27.3Q360.0656 26.940624 360.675 26.940624Q361.5656 26.940624 362.4875 27.503124L361.8781 29.14375Q361.2375 28.753124 360.59686 28.753124Q360.01874 28.753124 359.55 29.1125Q359.09686 29.45625 358.89374 30.065624Q358.6125 31.003124 358.6125 32.1125L358.6125 37.55L356.84686 37.55ZM370.97186 34.20625L372.78436 34.440624Q372.3625 36.01875 371.1906 36.909374Q370.03436 37.784374 368.22186 37.784374Q365.95624 37.784374 364.6125 36.39375Q363.28436 34.9875 363.28436 32.45625Q363.28436 29.83125 364.6281 28.39375Q365.97186 26.940624 368.1281 26.940624Q370.20624 26.940624 371.51874 28.3625Q372.84686 29.76875 372.84686 32.346874Q372.84686 32.503124 372.83124 32.815624L365.09686 32.815624Q365.1906 34.51875 366.0656 35.425Q366.9406 36.33125 368.2375 36.33125Q369.20624 36.33125 369.8781 35.83125Q370.5656 35.315624 370.97186 34.20625ZM365.1906 31.3625L370.9875 31.3625Q370.8781 30.065624 370.33124 29.409374Q369.4875 28.39375 368.14374 28.39375Q366.9406 28.39375 366.1125 29.20625Q365.28436 30.003124 365.1906 31.3625ZM374.83124 37.55L374.83124 23.2375L376.58124 23.2375L376.58124 37.55L374.83124 37.55ZM385.64374 36.26875Q384.65936 37.096874 383.7531 37.440624Q382.84686 37.784374 381.8156 37.784374Q380.1125 37.784374 379.1906 36.95625Q378.26874 36.1125 378.26874 34.815624Q378.26874 34.05 378.6125 33.425Q378.97186 32.8 379.53436 32.425Q380.09686 32.034374 380.8 31.83125Q381.3156 31.70625 382.3625 31.565624Q384.4875 31.315624 385.4875 30.971874Q385.5031 30.6125 385.5031 30.503124Q385.5031 29.440624 385.0031 28.9875Q384.33124 28.39375 383.0031 28.39375Q381.7531 28.39375 381.15936 28.83125Q380.58124 29.26875 380.3 30.378124L378.58124 30.14375Q378.8156 29.034374 379.34686 28.3625Q379.8781 27.675 380.89374 27.315624Q381.90936 26.940624 383.2531 26.940624Q384.58124 26.940624 385.40936 27.253124Q386.2375 27.565624 386.6281 28.05Q387.01874 28.51875 387.175 29.2375Q387.26874 29.690624 387.26874 30.8625L387.26874 33.20625Q387.26874 35.659374 387.3781 36.315624Q387.4875 36.95625 387.83124 37.55L385.9875 37.55Q385.72186 37.003124 385.64374 36.26875ZM385.4875 32.346874Q384.53436 32.7375 382.6125 33.003124Q381.53436 33.159374 381.08124 33.3625Q380.64374 33.55 380.39374 33.925Q380.14374 34.3 380.14374 34.76875Q380.14374 35.471874 380.675 35.940624Q381.20624 36.409374 382.2375 36.409374Q383.2531 36.409374 384.03436 35.971874Q384.83124 35.51875 385.20624 34.753124Q385.4875 34.14375 385.4875 32.9875L385.4875 32.346874ZM393.70624 35.971874L393.95624 37.534374Q393.22186 37.690624 392.6281 37.690624Q391.675 37.690624 391.14374 37.39375Q390.6281 37.08125 390.40936 36.596874Q390.1906 36.096874 390.1906 34.51875L390.1906 28.55L388.90936 28.55L388.90936 27.175L390.1906 27.175L390.1906 24.6125L391.9406 23.55L391.9406 27.175L393.70624 27.175L393.70624 28.55L391.9406 28.55L391.9406 34.6125Q391.9406 35.3625 392.03436 35.58125Q392.1281 35.784374 392.33124 35.925Q392.55 36.05 392.9406 36.05Q393.22186 36.05 393.70624 35.971874ZM395.8781 25.253124L395.8781 23.2375L397.64374 23.2375L397.64374 25.253124L395.8781 25.253124ZM395.8781 37.55L395.8781 27.175L397.64374 27.175L397.64374 37.55L395.8781 37.55ZM402.7531 37.55L398.8 27.175L400.65936 27.175L402.89374 33.39375Q403.2531 34.39375 403.55 35.471874Q403.78436 34.659374 404.20624 33.503124L406.5031 27.175L408.3156 27.175L404.39374 37.55L402.7531 37.55ZM415.97186 34.20625L417.78436 34.440624Q417.3625 36.01875 416.1906 36.909374Q415.03436 37.784374 413.22186 37.784374Q410.95624 37.784374 409.6125 36.39375Q408.28436 34.9875 408.28436 32.45625Q408.28436 29.83125 409.6281 28.39375Q410.97186 26.940624 413.1281 26.940624Q415.20624 26.940624 416.51874 28.3625Q417.84686 29.76875 417.84686 32.346874Q417.84686 32.503124 417.83124 32.815624L410.09686 32.815624Q410.1906 34.51875 411.0656 35.425Q411.9406 36.33125 413.2375 36.33125Q414.20624 36.33125 414.8781 35.83125Q415.5656 35.315624 415.97186 34.20625ZM410.1906 31.3625L415.9875 31.3625Q415.8781 30.065624 415.33124 29.409374Q414.4875 28.39375 413.14374 28.39375Q411.9406 28.39375 411.1125 29.20625Q410.28436 30.003124 410.1906 31.3625ZM432.64374 36.26875Q431.65936 37.096874 430.7531 37.440624Q429.84686 37.784374 428.8156 37.784374Q427.1125 37.784374 426.1906 36.95625Q425.26874 36.1125 425.26874 34.815624Q425.26874 34.05 425.6125 33.425Q425.97186 32.8 426.53436 32.425Q427.09686 32.034374 427.8 31.83125Q428.3156 31.70625 429.3625 31.565624Q431.4875 31.315624 432.4875 30.971874Q432.5031 30.6125 432.5031 30.503124Q432.5031 29.440624 432.0031 28.9875Q431.33124 28.39375 430.0031 28.39375Q428.7531 28.39375 428.15936 28.83125Q427.58124 29.26875 427.3 30.378124L425.58124 30.14375Q425.8156 29.034374 426.34686 28.3625Q426.8781 27.675 427.89374 27.315624Q428.90936 26.940624 430.2531 26.940624Q431.58124 26.940624 432.40936 27.253124Q433.2375 27.565624 433.6281 28.05Q434.01874 28.51875 434.175 29.2375Q434.26874 29.690624 434.26874 30.8625L434.26874 33.20625Q434.26874 35.659374 434.3781 36.315624Q434.4875 36.95625 434.83124 37.55L432.9875 37.55Q432.72186 37.003124 432.64374 36.26875ZM432.4875 32.346874Q431.53436 32.7375 429.6125 33.003124Q428.53436 33.159374 428.08124 33.3625Q427.64374 33.55 427.39374 33.925Q427.14374 34.3 427.14374 34.76875Q427.14374 35.471874 427.675 35.940624Q428.20624 36.409374 429.2375 36.409374Q430.2531 36.409374 431.03436 35.971874Q431.83124 35.51875 432.20624 34.753124Q432.4875 34.14375 432.4875 32.9875L432.4875 32.346874ZM436.8781 25.253124L436.8781 23.2375L438.64374 23.2375L438.64374 25.253124L436.8781 25.253124ZM436.8781 37.55L436.8781 27.175L438.64374 27.175L438.64374 37.55L436.8781 37.55ZM450.70624 35.971874L450.95624 37.534374Q450.22186 37.690624 449.6281 37.690624Q448.675 37.690624 448.14374 37.39375Q447.6281 37.08125 447.40936 36.596874Q447.1906 36.096874 447.1906 34.51875L447.1906 28.55L445.90936 28.55L445.90936 27.175L447.1906 27.175L447.1906 24.6125L448.9406 23.55L448.9406 27.175L450.70624 27.175L450.70624 28.55L448.9406 28.55L448.9406 34.6125Q448.9406 35.3625 449.03436 35.58125Q449.1281 35.784374 449.33124 35.925Q449.55 36.05 449.9406 36.05Q450.22186 36.05 450.70624 35.971874ZM459.65936 37.55L459.65936 36.01875Q458.45624 37.784374 456.3781 37.784374Q455.45624 37.784374 454.65936 37.440624Q453.8625 37.08125 453.47186 36.55Q453.09686 36.01875 452.9406 35.2375Q452.83124 34.721874 452.83124 33.596874L452.83124 27.175L454.58124 27.175L454.58124 32.925Q454.58124 34.3 454.6906 34.784374Q454.8625 35.471874 455.39374 35.878124Q455.9406 36.26875 456.72186 36.26875Q457.51874 36.26875 458.20624 35.8625Q458.90936 35.45625 459.1906 34.76875Q459.4875 34.065624 459.4875 32.7375L459.4875 27.175L461.2375 27.175L461.2375 37.55L459.65936 37.55ZM462.22186 32.3625Q462.22186 29.4875 463.8156 28.096874Q465.15936 26.940624 467.08124 26.940624Q469.22186 26.940624 470.5656 28.346874Q471.925 29.753124 471.925 32.221874Q471.925 34.221874 471.33124 35.378124Q470.7375 36.51875 469.58124 37.159374Q468.4406 37.784374 467.08124 37.784374Q464.89374 37.784374 463.55 36.39375Q462.22186 34.9875 462.22186 32.3625ZM464.01874 32.3625Q464.01874 34.3625 464.8781 35.346874Q465.7531 36.33125 467.08124 36.33125Q468.39374 36.33125 469.2531 35.346874Q470.1281 34.346874 470.1281 32.3Q470.1281 30.378124 469.2531 29.39375Q468.3781 28.39375 467.08124 28.39375Q465.7531 28.39375 464.8781 29.39375Q464.01874 30.378124 464.01874 32.3625ZM473.8781 25.253124L473.8781 23.2375L475.64374 23.2375L475.64374 25.253124L473.8781 25.253124ZM473.8781 37.55L473.8781 27.175L475.64374 27.175L475.64374 37.55L473.8781 37.55Z" fill-rule="nonzero"/><path fill="#757575" d="M26.596874 61.55L26.596874 60.2375Q25.6125 61.784374 23.690624 61.784374Q22.45625 61.784374 21.409374 61.096874Q20.378124 60.409374 19.8 59.190624Q19.2375 57.971874 19.2375 56.378124Q19.2375 54.815624 19.753124 53.55Q20.26875 52.284374 21.3 51.6125Q22.346874 50.940624 23.6125 50.940624Q24.55 50.940624 25.284374 51.346874Q26.01875 51.7375 26.4875 52.3625L26.4875 47.2375L28.221874 47.2375L28.221874 61.55L26.596874 61.55ZM21.034374 56.378124Q21.034374 58.3625 21.878124 59.346874Q22.721874 60.33125 23.8625 60.33125Q25.01875 60.33125 25.815624 59.39375Q26.628124 58.45625 26.628124 56.51875Q26.628124 54.39375 25.8 53.39375Q24.9875 52.39375 23.784374 52.39375Q22.6125 52.39375 21.815624 53.3625Q21.034374 54.315624 21.034374 56.378124ZM30.221874 56.3625Q30.221874 53.4875 31.815624 52.096874Q33.159374 50.940624 35.08125 50.940624Q37.221874 50.940624 38.565624 52.346874Q39.925 53.753124 39.925 56.221874Q39.925 58.221874 39.33125 59.378124Q38.7375 60.51875 37.58125 61.159374Q36.440624 61.784374 35.08125 61.784374Q32.89375 61.784374 31.55 60.39375Q30.221874 58.9875 30.221874 56.3625ZM32.01875 56.3625Q32.01875 58.3625 32.878124 59.346874Q33.753124 60.33125 35.08125 60.33125Q36.39375 60.33125 37.253124 59.346874Q38.128124 58.346874 38.128124 56.3Q38.128124 54.378124 37.253124 53.39375Q36.378124 52.39375 35.08125 52.39375Q33.753124 52.39375 32.878124 53.39375Q32.01875 54.378124 32.01875 56.3625ZM48.64375 57.753124L50.3625 57.971874Q50.08125 59.76875 48.909374 60.784374Q47.753124 61.784374 46.05 61.784374Q43.925 61.784374 42.628124 60.39375Q41.33125 59.003124 41.33125 56.409374Q41.33125 54.721874 41.878124 53.471874Q42.440624 52.20625 43.58125 51.58125Q44.721874 50.940624 46.065624 50.940624Q47.753124 50.940624 48.815624 51.8Q49.89375 52.659374 50.20625 54.221874L48.4875 54.4875Q48.253124 53.440624 47.628124 52.925Q47.003124 52.39375 46.128124 52.39375Q44.8 52.39375 43.971874 53.346874Q43.14375 54.3 43.14375 56.346874Q43.14375 58.440624 43.940624 59.39375Q44.7375 60.33125 46.034374 60.33125Q47.065624 60.33125 47.753124 59.70625Q48.45625 59.065624 48.64375 57.753124ZM58.659374 61.55L58.659374 60.01875Q57.45625 61.784374 55.378124 61.784374Q54.45625 61.784374 53.659374 61.440624Q52.8625 61.08125 52.471874 60.55Q52.096874 60.01875 51.940624 59.2375Q51.83125 58.721874 51.83125 57.596874L51.83125 51.175L53.58125 51.175L53.58125 56.925Q53.58125 58.3 53.690624 58.784374Q53.8625 59.471874 54.39375 59.878124Q54.940624 60.26875 55.721874 60.26875Q56.51875 60.26875 57.20625 59.8625Q57.909374 59.45625 58.190624 58.76875Q58.4875 58.065624 58.4875 56.7375L58.4875 51.175L60.2375 51.175L60.2375 61.55L58.659374 61.55ZM61.8625 61.55L61.8625 51.175L63.440624 51.175L63.440624 52.628124Q63.925 51.878124 64.7375 51.409374Q65.55 50.940624 66.58125 50.940624Q67.7375 50.940624 68.47188 51.425Q69.20625 51.89375 69.51875 52.753124Q70.75313 50.940624 72.72188 50.940624Q74.26875 50.940624 75.09688 51.8Q75.925 52.659374 75.925 54.425L75.925 61.55L74.175 61.55L74.175 55.01875Q74.175 53.95625 74.00313 53.503124Q73.83125 53.034374 73.37813 52.753124Q72.94063 52.471874 72.33125 52.471874Q71.2375 52.471874 70.50313 53.20625Q69.78438 53.925 69.78438 55.51875L69.78438 61.55L68.03438 61.55L68.03438 54.815624Q68.03438 53.64375 67.59688 53.065624Q67.175 52.471874 66.19063 52.471874Q65.45625 52.471874 64.81563 52.8625Q64.19063 53.253124 63.909374 54.003124Q63.628124 54.753124 63.628124 56.175L63.628124 61.55L61.8625 61.55ZM84.97188 58.20625L86.78438 58.440624Q86.3625 60.01875 85.19063 60.909374Q84.03438 61.784374 82.22188 61.784374Q79.95625 61.784374 78.6125 60.39375Q77.28438 58.9875 77.28438 56.45625Q77.28438 53.83125 78.62813 52.39375Q79.97188 50.940624 82.12813 50.940624Q84.20625 50.940624 85.51875 52.3625Q86.84688 53.76875 86.84688 56.346874Q86.84688 56.503124 86.83125 56.815624L79.09688 56.815624Q79.19063 58.51875 80.06563 59.425Q80.94063 60.33125 82.2375 60.33125Q83.20625 60.33125 83.87813 59.83125Q84.56563 59.315624 84.97188 58.20625ZM79.19063 55.3625L84.9875 55.3625Q84.87813 54.065624 84.33125 53.409374Q83.4875 52.39375 82.14375 52.39375Q80.94063 52.39375 80.1125 53.20625Q79.28438 54.003124 79.19063 55.3625ZM88.8625 61.55L88.8625 51.175L90.45625 51.175L90.45625 52.659374Q91.59688 50.940624 93.75313 50.940624Q94.69063 50.940624 95.47188 51.284374Q96.26875 51.6125 96.65938 52.159374Q97.05 52.70625 97.20625 53.45625Q97.3 53.95625 97.3 55.175L97.3 61.55L95.53438 61.55L95.53438 55.2375Q95.53438 54.159374 95.33125 53.628124Q95.12813 53.096874 94.59688 52.784374Q94.08125 52.471874 93.37813 52.471874Q92.25313 52.471874 91.44063 53.190624Q90.62813 53.89375 90.62813 55.878124L90.62813 61.55L88.8625 61.55ZM102.70625 59.971874L102.95625 61.534374Q102.22188 61.690624 101.62813 61.690624Q100.675 61.690624 100.14375 61.39375Q99.62813 61.08125 99.40938 60.596874Q99.19063 60.096874 99.19063 58.51875L99.19063 52.55L97.90938 52.55L97.90938 51.175L99.19063 51.175L99.19063 48.6125L100.94063 47.55L100.94063 51.175L102.70625 51.175L102.70625 52.55L100.94063 52.55L100.94063 58.6125Q100.94063 59.3625 101.03438 59.58125Q101.12813 59.784374 101.33125 59.925Q101.55 60.05 101.94063 60.05Q102.22188 60.05 102.70625 59.971874ZM104.87813 49.253124L104.87813 47.2375L106.64375 47.2375L106.64375 49.253124L104.87813 49.253124ZM104.87813 61.55L104.87813 51.175L106.64375 51.175L106.64375 61.55L104.87813 61.55ZM112.15938 58.01875Q112.14375 57.675 112.14375 57.503124Q112.14375 56.45625 112.44063 55.70625Q112.65938 55.14375 113.14375 54.565624Q113.4875 54.14375 114.39375 53.346874Q115.31563 52.534374 115.58125 52.065624Q115.8625 51.58125 115.8625 51.01875Q115.8625 49.9875 115.05 49.221874Q114.25313 48.440624 113.09688 48.440624Q111.97188 48.440624 111.22188 49.14375Q110.47188 49.846874 110.2375 51.33125L108.425 51.1125Q108.675 49.1125 109.87813 48.05Q111.08125 46.9875 113.06563 46.9875Q115.175 46.9875 116.425 48.128124Q117.675 49.26875 117.675 50.89375Q117.675 51.83125 117.22188 52.628124Q116.78438 53.409374 115.50313 54.55Q114.64375 55.315624 114.37813 55.675Q114.12813 56.034374 113.9875 56.503124Q113.8625 56.971874 113.84688 58.01875L112.15938 58.01875ZM112.05 61.55L112.05 59.55L114.05 59.55L114.05 61.55L112.05 61.55ZM129.22188 65.75313Q127.76875 63.925 126.76875 61.471874Q125.76875 59.003124 125.76875 56.3625Q125.76875 54.034374 126.51875 51.909374Q127.39375 49.440624 129.22188 46.9875L130.4875 46.9875Q129.3 49.01875 128.925 49.89375Q128.33125 51.2375 127.9875 52.70625Q127.56563 54.534374 127.56563 56.378124Q127.56563 61.065624 130.4875 65.75313L129.22188 65.75313ZM132.8625 65.51875L132.8625 51.175L134.47188 51.175L134.47188 52.51875Q135.03438 51.7375 135.7375 51.346874Q136.45625 50.940624 137.47188 50.940624Q138.8 50.940624 139.81563 51.628124Q140.83125 52.315624 141.34688 53.565624Q141.87813 54.8 141.87813 56.284374Q141.87813 57.878124 141.3 59.159374Q140.7375 60.425 139.64375 61.1125Q138.55 61.784374 137.34688 61.784374Q136.47188 61.784374 135.76875 61.409374Q135.08125 61.034374 134.62813 60.471874L134.62813 65.51875L132.8625 65.51875ZM134.45625 56.425Q134.45625 58.425 135.26875 59.378124Q136.08125 60.33125 137.2375 60.33125Q138.40938 60.33125 139.2375 59.346874Q140.08125 58.3625 140.08125 56.26875Q140.08125 54.3 139.25313 53.315624Q138.44063 52.315624 137.31563 52.315624Q136.19063 52.315624 135.31563 53.378124Q134.45625 54.425 134.45625 56.425ZM150.64375 60.26875Q149.65938 61.096874 148.75313 61.440624Q147.84688 61.784374 146.81563 61.784374Q145.1125 61.784374 144.19063 60.95625Q143.26875 60.1125 143.26875 58.815624Q143.26875 58.05 143.6125 57.425Q143.97188 56.8 144.53438 56.425Q145.09688 56.034374 145.8 55.83125Q146.31563 55.70625 147.3625 55.565624Q149.4875 55.315624 150.4875 54.971874Q150.50313 54.6125 150.50313 54.503124Q150.50313 53.440624 150.00313 52.9875Q149.33125 52.39375 148.00313 52.39375Q146.75313 52.39375 146.15938 52.83125Q145.58125 53.26875 145.3 54.378124L143.58125 54.14375Q143.81563 53.034374 144.34688 52.3625Q144.87813 51.675 145.89375 51.315624Q146.90938 50.940624 148.25313 50.940624Q149.58125 50.940624 150.40938 51.253124Q151.2375 51.565624 151.62813 52.05Q152.01875 52.51875 152.175 53.2375Q152.26875 53.690624 152.26875 54.8625L152.26875 57.20625Q152.26875 59.659374 152.37813 60.315624Q152.4875 60.95625 152.83125 61.55L150.9875 61.55Q150.72188 61.003124 150.64375 60.26875ZM150.4875 56.346874Q149.53438 56.7375 147.6125 57.003124Q146.53438 57.159374 146.08125 57.3625Q145.64375 57.55 145.39375 57.925Q145.14375 58.3 145.14375 58.76875Q145.14375 59.471874 145.675 59.940624Q146.20625 60.409374 147.2375 60.409374Q148.25313 60.409374 149.03438 59.971874Q149.83125 59.51875 150.20625 58.753124Q150.4875 58.14375 150.4875 56.9875L150.4875 56.346874ZM154.15938 58.45625L155.90938 58.175Q156.05 59.221874 156.72188 59.784374Q157.39375 60.33125 158.59688 60.33125Q159.8 60.33125 160.37813 59.846874Q160.97188 59.346874 160.97188 58.690624Q160.97188 58.096874 160.45625 57.753124Q160.09688 57.51875 158.65938 57.159374Q156.72188 56.659374 155.97188 56.315624Q155.2375 55.95625 154.84688 55.33125Q154.45625 54.690624 154.45625 53.925Q154.45625 53.2375 154.76875 52.64375Q155.09688 52.05 155.64375 51.659374Q156.05 51.3625 156.75313 51.159374Q157.47188 50.940624 158.28438 50.940624Q159.50313 50.940624 160.425 51.3Q161.34688 51.64375 161.78438 52.253124Q162.22188 52.846874 162.39375 53.846874L160.675 54.08125Q160.55 53.284374 159.9875 52.846874Q159.425 52.39375 158.40938 52.39375Q157.19063 52.39375 156.675 52.8Q156.15938 53.190624 156.15938 53.721874Q156.15938 54.065624 156.37813 54.346874Q156.58125 54.628124 157.05 54.815624Q157.31563 54.909374 158.59688 55.253124Q160.47188 55.753124 161.20625 56.08125Q161.94063 56.39375 162.3625 57.003124Q162.78438 57.596874 162.78438 58.503124Q162.78438 59.378124 162.26875 60.159374Q161.75313 60.940624 160.78438 61.3625Q159.81563 61.784374 158.59688 61.784374Q156.58125 61.784374 155.51875 60.940624Q154.45625 60.096874 154.15938 58.45625ZM164.15938 58.45625L165.90938 58.175Q166.05 59.221874 166.72188 59.784374Q167.39375 60.33125 168.59688 60.33125Q169.8 60.33125 170.37813 59.846874Q170.97188 59.346874 170.97188 58.690624Q170.97188 58.096874 170.45625 57.753124Q170.09688 57.51875 168.65938 57.159374Q166.72188 56.659374 165.97188 56.315624Q165.2375 55.95625 164.84688 55.33125Q164.45625 54.690624 164.45625 53.925Q164.45625 53.2375 164.76875 52.64375Q165.09688 52.05 165.64375 51.659374Q166.05 51.3625 166.75313 51.159374Q167.47188 50.940624 168.28438 50.940624Q169.50313 50.940624 170.425 51.3Q171.34688 51.64375 171.78438 52.253124Q172.22188 52.846874 172.39375 53.846874L170.675 54.08125Q170.55 53.284374 169.9875 52.846874Q169.425 52.39375 168.40938 52.39375Q167.19063 52.39375 166.675 52.8Q166.15938 53.190624 166.15938 53.721874Q166.15938 54.065624 166.37813 54.346874Q166.58125 54.628124 167.05 54.815624Q167.31563 54.909374 168.59688 55.253124Q170.47188 55.753124 171.20625 56.08125Q171.94063 56.39375 172.3625 57.003124Q172.78438 57.596874 172.78438 58.503124Q172.78438 59.378124 172.26875 60.159374Q171.75313 60.940624 170.78438 61.3625Q169.81563 61.784374 168.59688 61.784374Q166.58125 61.784374 165.51875 60.940624Q164.45625 60.096874 164.15938 58.45625ZM181.64375 60.26875Q180.65938 61.096874 179.75313 61.440624Q178.84688 61.784374 177.81563 61.784374Q176.1125 61.784374 175.19063 60.95625Q174.26875 60.1125 174.26875 58.815624Q174.26875 58.05 174.6125 57.425Q174.97188 56.8 175.53438 56.425Q176.09688 56.034374 176.8 55.83125Q177.31563 55.70625 178.3625 55.565624Q180.4875 55.315624 181.4875 54.971874Q181.50313 54.6125 181.50313 54.503124Q181.50313 53.440624 181.00313 52.9875Q180.33125 52.39375 179.00313 52.39375Q177.75313 52.39375 177.15938 52.83125Q176.58125 53.26875 176.3 54.378124L174.58125 54.14375Q174.81563 53.034374 175.34688 52.3625Q175.87813 51.675 176.89375 51.315624Q177.90938 50.940624 179.25313 50.940624Q180.58125 50.940624 181.40938 51.253124Q182.2375 51.565624 182.62813 52.05Q183.01875 52.51875 183.175 53.2375Q183.26875 53.690624 183.26875 54.8625L183.26875 57.20625Q183.26875 59.659374 183.37813 60.315624Q183.4875 60.95625 183.83125 61.55L181.9875 61.55Q181.72188 61.003124 181.64375 60.26875ZM181.4875 56.346874Q180.53438 56.7375 178.6125 57.003124Q177.53438 57.159374 177.08125 57.3625Q176.64375 57.55 176.39375 57.925Q176.14375 58.3 176.14375 58.76875Q176.14375 59.471874 176.675 59.940624Q177.20625 60.409374 178.2375 60.409374Q179.25313 60.409374 180.03438 59.971874Q180.83125 59.51875 181.20625 58.753124Q181.4875 58.14375 181.4875 56.9875L181.4875 56.346874ZM185.8625 65.51875L185.8625 51.175L187.47188 51.175L187.47188 52.51875Q188.03438 51.7375 188.7375 51.346874Q189.45625 50.940624 190.47188 50.940624Q191.8 50.940624 192.81563 51.628124Q193.83125 52.315624 194.34688 53.565624Q194.87813 54.8 194.87813 56.284374Q194.87813 57.878124 194.3 59.159374Q193.7375 60.425 192.64375 61.1125Q191.55 61.784374 190.34688 61.784374Q189.47188 61.784374 188.76875 61.409374Q188.08125 61.034374 187.62813 60.471874L187.62813 65.51875L185.8625 65.51875ZM187.45625 56.425Q187.45625 58.425 188.26875 59.378124Q189.08125 60.33125 190.2375 60.33125Q191.40938 60.33125 192.2375 59.346874Q193.08125 58.3625 193.08125 56.26875Q193.08125 54.3 192.25313 53.315624Q191.44063 52.315624 190.31563 52.315624Q189.19063 52.315624 188.31563 53.378124Q187.45625 54.425 187.45625 56.425ZM196.22188 56.3625Q196.22188 53.4875 197.81563 52.096874Q199.15938 50.940624 201.08125 50.940624Q203.22188 50.940624 204.56563 52.346874Q205.925 53.753124 205.925 56.221874Q205.925 58.221874 205.33125 59.378124Q204.7375 60.51875 203.58125 61.159374Q202.44063 61.784374 201.08125 61.784374Q198.89375 61.784374 197.55 60.39375Q196.22188 58.9875 196.22188 56.3625ZM198.01875 56.3625Q198.01875 58.3625 198.87813 59.346874Q199.75313 60.33125 201.08125 60.33125Q202.39375 60.33125 203.25313 59.346874Q204.12813 58.346874 204.12813 56.3Q204.12813 54.378124 203.25313 53.39375Q202.37813 52.39375 201.08125 52.39375Q199.75313 52.39375 198.87813 53.39375Q198.01875 54.378124 198.01875 56.3625ZM207.84688 61.55L207.84688 51.175L209.425 51.175L209.425 52.753124Q210.03438 51.64375 210.55 51.3Q211.06563 50.940624 211.675 50.940624Q212.56563 50.940624 213.4875 51.503124L212.87813 53.14375Q212.2375 52.753124 211.59688 52.753124Q211.01875 52.753124 210.55 53.1125Q210.09688 53.45625 209.89375 54.065624Q209.6125 55.003124 209.6125 56.1125L209.6125 61.55L207.84688 61.55ZM218.70625 59.971874L218.95625 61.534374Q218.22188 61.690624 217.62813 61.690624Q216.675 61.690624 216.14375 61.39375Q215.62813 61.08125 215.40938 60.596874Q215.19063 60.096874 215.19063 58.51875L215.19063 52.55L213.90938 52.55L213.90938 51.175L215.19063 51.175L215.19063 48.6125L216.94063 47.55L216.94063 51.175L218.70625 51.175L218.70625 52.55L216.94063 52.55L216.94063 58.6125Q216.94063 59.3625 217.03438 59.58125Q217.12813 59.784374 217.33125 59.925Q217.55 60.05 217.94063 60.05Q218.22188 60.05 218.70625 59.971874ZM220.22188 56.3625Q220.22188 53.4875 221.81563 52.096874Q223.15938 50.940624 225.08125 50.940624Q227.22188 50.940624 228.56563 52.346874Q229.925 53.753124 229.925 56.221874Q229.925 58.221874 229.33125 59.378124Q228.7375 60.51875 227.58125 61.159374Q226.44063 61.784374 225.08125 61.784374Q222.89375 61.784374 221.55 60.39375Q220.22188 58.9875 220.22188 56.3625ZM222.01875 56.3625Q222.01875 58.3625 222.87813 59.346874Q223.75313 60.33125 225.08125 60.33125Q226.39375 60.33125 227.25313 59.346874Q228.12813 58.346874 228.12813 56.3Q228.12813 54.378124 227.25313 53.39375Q226.37813 52.39375 225.08125 52.39375Q223.75313 52.39375 222.87813 53.39375Q222.01875 54.378124 222.01875 56.3625ZM232.33125 61.55L232.33125 59.55L234.33125 59.55L234.33125 61.55Q234.33125 62.659374 233.94063 63.33125Q233.55 64.01875 232.70625 64.37813L232.20625 63.628124Q232.76875 63.39375 233.03438 62.909374Q233.3 62.440624 233.33125 61.55L232.33125 61.55ZM243.8625 65.51875L243.8625 51.175L245.47188 51.175L245.47188 52.51875Q246.03438 51.7375 246.7375 51.346874Q247.45625 50.940624 248.47188 50.940624Q249.8 50.940624 250.81563 51.628124Q251.83125 52.315624 252.34688 53.565624Q252.87813 54.8 252.87813 56.284374Q252.87813 57.878124 252.3 59.159374Q251.7375 60.425 250.64375 61.1125Q249.55 61.784374 248.34688 61.784374Q247.47188 61.784374 246.76875 61.409374Q246.08125 61.034374 245.62813 60.471874L245.62813 65.51875L243.8625 65.51875ZM245.45625 56.425Q245.45625 58.425 246.26875 59.378124Q247.08125 60.33125 248.2375 60.33125Q249.40938 60.33125 250.2375 59.346874Q251.08125 58.3625 251.08125 56.26875Q251.08125 54.3 250.25313 53.315624Q249.44063 52.315624 248.31563 52.315624Q247.19063 52.315624 246.31563 53.378124Q245.45625 54.425 245.45625 56.425ZM261.64374 60.26875Q260.65936 61.096874 259.7531 61.440624Q258.84686 61.784374 257.8156 61.784374Q256.1125 61.784374 255.19063 60.95625Q254.26875 60.1125 254.26875 58.815624Q254.26875 58.05 254.6125 57.425Q254.97188 56.8 255.53438 56.425Q256.09686 56.034374 256.8 55.83125Q257.3156 55.70625 258.3625 55.565624Q260.4875 55.315624 261.4875 54.971874Q261.5031 54.6125 261.5031 54.503124Q261.5031 53.440624 261.0031 52.9875Q260.33124 52.39375 259.0031 52.39375Q257.7531 52.39375 257.15936 52.83125Q256.58124 53.26875 256.3 54.378124L254.58125 54.14375Q254.81563 53.034374 255.34688 52.3625Q255.87813 51.675 256.89374 51.315624Q257.90936 50.940624 259.2531 50.940624Q260.58124 50.940624 261.40936 51.253124Q262.2375 51.565624 262.6281 52.05Q263.01874 52.51875 263.175 53.2375Q263.26874 53.690624 263.26874 54.8625L263.26874 57.20625Q263.26874 59.659374 263.3781 60.315624Q263.4875 60.95625 263.83124 61.55L261.9875 61.55Q261.72186 61.003124 261.64374 60.26875ZM261.4875 56.346874Q260.53436 56.7375 258.6125 57.003124Q257.53436 57.159374 257.08124 57.3625Q256.64374 57.55 256.39374 57.925Q256.14374 58.3 256.14374 58.76875Q256.14374 59.471874 256.675 59.940624Q257.20624 60.409374 258.2375 60.409374Q259.2531 60.409374 260.03436 59.971874Q260.83124 59.51875 261.20624 58.753124Q261.4875 58.14375 261.4875 56.9875L261.4875 56.346874ZM269.70624 59.971874L269.95624 61.534374Q269.22186 61.690624 268.6281 61.690624Q267.675 61.690624 267.14374 61.39375Q266.6281 61.08125 266.40936 60.596874Q266.1906 60.096874 266.1906 58.51875L266.1906 52.55L264.90936 52.55L264.90936 51.175L266.1906 51.175L266.1906 48.6125L267.9406 47.55L267.9406 51.175L269.70624 51.175L269.70624 52.55L267.9406 52.55L267.9406 58.6125Q267.9406 59.3625 268.03436 59.58125Q268.1281 59.784374 268.33124 59.925Q268.55 60.05 268.9406 60.05Q269.22186 60.05 269.70624 59.971874ZM278.97186 58.20625L280.78436 58.440624Q280.3625 60.01875 279.1906 60.909374Q278.03436 61.784374 276.22186 61.784374Q273.95624 61.784374 272.6125 60.39375Q271.28436 58.9875 271.28436 56.45625Q271.28436 53.83125 272.6281 52.39375Q273.97186 50.940624 276.1281 50.940624Q278.20624 50.940624 279.51874 52.3625Q280.84686 53.76875 280.84686 56.346874Q280.84686 56.503124 280.83124 56.815624L273.09686 56.815624Q273.1906 58.51875 274.0656 59.425Q274.9406 60.33125 276.2375 60.33125Q277.20624 60.33125 277.8781 59.83125Q278.5656 59.315624 278.97186 58.20625ZM273.1906 55.3625L278.9875 55.3625Q278.8781 54.065624 278.33124 53.409374Q277.4875 52.39375 276.14374 52.39375Q274.9406 52.39375 274.1125 53.20625Q273.28436 54.003124 273.1906 55.3625ZM282.8625 61.55L282.8625 51.175L284.45624 51.175L284.45624 52.659374Q285.59686 50.940624 287.7531 50.940624Q288.6906 50.940624 289.47186 51.284374Q290.26874 51.6125 290.65936 52.159374Q291.05 52.70625 291.20624 53.45625Q291.3 53.95625 291.3 55.175L291.3 61.55L289.53436 61.55L289.53436 55.2375Q289.53436 54.159374 289.33124 53.628124Q289.1281 53.096874 288.59686 52.784374Q288.08124 52.471874 287.3781 52.471874Q286.2531 52.471874 285.4406 53.190624Q284.6281 53.89375 284.6281 55.878124L284.6281 61.55L282.8625 61.55ZM296.70624 59.971874L296.95624 61.534374Q296.22186 61.690624 295.6281 61.690624Q294.675 61.690624 294.14374 61.39375Q293.6281 61.08125 293.40936 60.596874Q293.1906 60.096874 293.1906 58.51875L293.1906 52.55L291.90936 52.55L291.90936 51.175L293.1906 51.175L293.1906 48.6125L294.9406 47.55L294.9406 51.175L296.70624 51.175L296.70624 52.55L294.9406 52.55L294.9406 58.6125Q294.9406 59.3625 295.03436 59.58125Q295.1281 59.784374 295.33124 59.925Q295.55 60.05 295.9406 60.05Q296.22186 60.05 296.70624 59.971874ZM305.97186 58.20625L307.78436 58.440624Q307.3625 60.01875 306.1906 60.909374Q305.03436 61.784374 303.22186 61.784374Q300.95624 61.784374 299.6125 60.39375Q298.28436 58.9875 298.28436 56.45625Q298.28436 53.83125 299.6281 52.39375Q300.97186 50.940624 303.1281 50.940624Q305.20624 50.940624 306.51874 52.3625Q307.84686 53.76875 307.84686 56.346874Q307.84686 56.503124 307.83124 56.815624L300.09686 56.815624Q300.1906 58.51875 301.0656 59.425Q301.9406 60.33125 303.2375 60.33125Q304.20624 60.33125 304.8781 59.83125Q305.5656 59.315624 305.97186 58.20625ZM300.1906 55.3625L305.9875 55.3625Q305.8781 54.065624 305.33124 53.409374Q304.4875 52.39375 303.14374 52.39375Q301.9406 52.39375 301.1125 53.20625Q300.28436 54.003124 300.1906 55.3625ZM310.33124 61.55L310.33124 59.55L312.33124 59.55L312.33124 61.55Q312.33124 62.659374 311.9406 63.33125Q311.55 64.01875 310.70624 64.37813L310.20624 63.628124Q310.76874 63.39375 311.03436 62.909374Q311.3 62.440624 311.33124 61.55L310.33124 61.55ZM328.64374 57.753124L330.3625 57.971874Q330.08124 59.76875 328.90936 60.784374Q327.7531 61.784374 326.05 61.784374Q323.925 61.784374 322.6281 60.39375Q321.33124 59.003124 321.33124 56.409374Q321.33124 54.721874 321.8781 53.471874Q322.4406 52.20625 323.58124 51.58125Q324.72186 50.940624 326.0656 50.940624Q327.7531 50.940624 328.8156 51.8Q329.89374 52.659374 330.20624 54.221874L328.4875 54.4875Q328.2531 53.440624 327.6281 52.925Q327.0031 52.39375 326.1281 52.39375Q324.8 52.39375 323.97186 53.346874Q323.14374 54.3 323.14374 56.346874Q323.14374 58.440624 323.9406 59.39375Q324.7375 60.33125 326.03436 60.33125Q327.0656 60.33125 327.7531 59.70625Q328.45624 59.065624 328.64374 57.753124ZM338.64374 60.26875Q337.65936 61.096874 336.7531 61.440624Q335.84686 61.784374 334.8156 61.784374Q333.1125 61.784374 332.1906 60.95625Q331.26874 60.1125 331.26874 58.815624Q331.26874 58.05 331.6125 57.425Q331.97186 56.8 332.53436 56.425Q333.09686 56.034374 333.8 55.83125Q334.3156 55.70625 335.3625 55.565624Q337.4875 55.315624 338.4875 54.971874Q338.5031 54.6125 338.5031 54.503124Q338.5031 53.440624 338.0031 52.9875Q337.33124 52.39375 336.0031 52.39375Q334.7531 52.39375 334.15936 52.83125Q333.58124 53.26875 333.3 54.378124L331.58124 54.14375Q331.8156 53.034374 332.34686 52.3625Q332.8781 51.675 333.89374 51.315624Q334.90936 50.940624 336.2531 50.940624Q337.58124 50.940624 338.40936 51.253124Q339.2375 51.565624 339.6281 52.05Q340.01874 52.51875 340.175 53.2375Q340.26874 53.690624 340.26874 54.8625L340.26874 57.20625Q340.26874 59.659374 340.3781 60.315624Q340.4875 60.95625 340.83124 61.55L338.9875 61.55Q338.72186 61.003124 338.64374 60.26875ZM338.4875 56.346874Q337.53436 56.7375 335.6125 57.003124Q334.53436 57.159374 334.08124 57.3625Q333.64374 57.55 333.39374 57.925Q333.14374 58.3 333.14374 58.76875Q333.14374 59.471874 333.675 59.940624Q334.20624 60.409374 335.2375 60.409374Q336.2531 60.409374 337.03436 59.971874Q337.83124 59.51875 338.20624 58.753124Q338.4875 58.14375 338.4875 56.9875L338.4875 56.346874ZM342.84686 61.55L342.84686 51.175L344.425 51.175L344.425 52.753124Q345.03436 51.64375 345.55 51.3Q346.0656 50.940624 346.675 50.940624Q347.5656 50.940624 348.4875 51.503124L347.8781 53.14375Q347.2375 52.753124 346.59686 52.753124Q346.01874 52.753124 345.55 53.1125Q345.09686 53.45625 344.89374 54.065624Q344.6125 55.003124 344.6125 56.1125L344.6125 61.55L342.84686 61.55ZM353.70624 59.971874L353.95624 61.534374Q353.22186 61.690624 352.6281 61.690624Q351.675 61.690624 351.14374 61.39375Q350.6281 61.08125 350.40936 60.596874Q350.1906 60.096874 350.1906 58.51875L350.1906 52.55L348.90936 52.55L348.90936 51.175L350.1906 51.175L350.1906 48.6125L351.9406 47.55L351.9406 51.175L353.70624 51.175L353.70624 52.55L351.9406 52.55L351.9406 58.6125Q351.9406 59.3625 352.03436 59.58125Q352.1281 59.784374 352.33124 59.925Q352.55 60.05 352.9406 60.05Q353.22186 60.05 353.70624 59.971874ZM362.64374 60.26875Q361.65936 61.096874 360.7531 61.440624Q359.84686 61.784374 358.8156 61.784374Q357.1125 61.784374 356.1906 60.95625Q355.26874 60.1125 355.26874 58.815624Q355.26874 58.05 355.6125 57.425Q355.97186 56.8 356.53436 56.425Q357.09686 56.034374 357.8 55.83125Q358.3156 55.70625 359.3625 55.565624Q361.4875 55.315624 362.4875 54.971874Q362.5031 54.6125 362.5031 54.503124Q362.5031 53.440624 362.0031 52.9875Q361.33124 52.39375 360.0031 52.39375Q358.7531 52.39375 358.15936 52.83125Q357.58124 53.26875 357.3 54.378124L355.58124 54.14375Q355.8156 53.034374 356.34686 52.3625Q356.8781 51.675 357.89374 51.315624Q358.90936 50.940624 360.2531 50.940624Q361.58124 50.940624 362.40936 51.253124Q363.2375 51.565624 363.6281 52.05Q364.01874 52.51875 364.175 53.2375Q364.26874 53.690624 364.26874 54.8625L364.26874 57.20625Q364.26874 59.659374 364.3781 60.315624Q364.4875 60.95625 364.83124 61.55L362.9875 61.55Q362.72186 61.003124 362.64374 60.26875ZM362.4875 56.346874Q361.53436 56.7375 359.6125 57.003124Q358.53436 57.159374 358.08124 57.3625Q357.64374 57.55 357.39374 57.925Q357.14374 58.3 357.14374 58.76875Q357.14374 59.471874 357.675 59.940624Q358.20624 60.409374 359.2375 60.409374Q360.2531 60.409374 361.03436 59.971874Q361.83124 59.51875 362.20624 58.753124Q362.4875 58.14375 362.4875 56.9875L362.4875 56.346874ZM379.59686 61.55L379.59686 60.2375Q378.6125 61.784374 376.6906 61.784374Q375.45624 61.784374 374.40936 61.096874Q373.3781 60.409374 372.8 59.190624Q372.2375 57.971874 372.2375 56.378124Q372.2375 54.815624 372.7531 53.55Q373.26874 52.284374 374.3 51.6125Q375.34686 50.940624 376.6125 50.940624Q377.55 50.940624 378.28436 51.346874Q379.01874 51.7375 379.4875 52.3625L379.4875 47.2375L381.22186 47.2375L381.22186 61.55L379.59686 61.55ZM374.03436 56.378124Q374.03436 58.3625 374.8781 59.346874Q375.72186 60.33125 376.8625 60.33125Q378.01874 60.33125 378.8156 59.39375Q379.6281 58.45625 379.6281 56.51875Q379.6281 54.39375 378.8 53.39375Q377.9875 52.39375 376.78436 52.39375Q375.6125 52.39375 374.8156 53.3625Q374.03436 54.315624 374.03436 56.378124ZM383.8781 49.253124L383.8781 47.2375L385.64374 47.2375L385.64374 49.253124L383.8781 49.253124ZM383.8781 61.55L383.8781 51.175L385.64374 51.175L385.64374 61.55L383.8781 61.55ZM393.8781 49.253124L393.8781 47.2375L395.64374 47.2375L395.64374 49.253124L393.8781 49.253124ZM393.8781 61.55L393.8781 51.175L395.64374 51.175L395.64374 61.55L393.8781 61.55ZM404.59686 61.55L404.59686 60.2375Q403.6125 61.784374 401.6906 61.784374Q400.45624 61.784374 399.40936 61.096874Q398.3781 60.409374 397.8 59.190624Q397.2375 57.971874 397.2375 56.378124Q397.2375 54.815624 397.7531 53.55Q398.26874 52.284374 399.3 51.6125Q400.34686 50.940624 401.6125 50.940624Q402.55 50.940624 403.28436 51.346874Q404.01874 51.7375 404.4875 52.3625L404.4875 47.2375L406.22186 47.2375L406.22186 61.55L404.59686 61.55ZM399.03436 56.378124Q399.03436 58.3625 399.8781 59.346874Q400.72186 60.33125 401.8625 60.33125Q403.01874 60.33125 403.8156 59.39375Q404.6281 58.45625 404.6281 56.51875Q404.6281 54.39375 403.8 53.39375Q402.9875 52.39375 401.78436 52.39375Q400.6125 52.39375 399.8156 53.3625Q399.03436 54.315624 399.03436 56.378124ZM415.97186 58.20625L417.78436 58.440624Q417.3625 60.01875 416.1906 60.909374Q415.03436 61.784374 413.22186 61.784374Q410.95624 61.784374 409.6125 60.39375Q408.28436 58.9875 408.28436 56.45625Q408.28436 53.83125 409.6281 52.39375Q410.97186 50.940624 413.1281 50.940624Q415.20624 50.940624 416.51874 52.3625Q417.84686 53.76875 417.84686 56.346874Q417.84686 56.503124 417.83124 56.815624L410.09686 56.815624Q410.1906 58.51875 411.0656 59.425Q411.9406 60.33125 413.2375 60.33125Q414.20624 60.33125 414.8781 59.83125Q415.5656 59.315624 415.97186 58.20625ZM410.1906 55.3625L415.9875 55.3625Q415.8781 54.065624 415.33124 53.409374Q414.4875 52.39375 413.14374 52.39375Q411.9406 52.39375 411.1125 53.20625Q410.28436 54.003124 410.1906 55.3625ZM419.8625 61.55L419.8625 51.175L421.45624 51.175L421.45624 52.659374Q422.59686 50.940624 424.7531 50.940624Q425.6906 50.940624 426.47186 51.284374Q427.26874 51.6125 427.65936 52.159374Q428.05 52.70625 428.20624 53.45625Q428.3 53.95625 428.3 55.175L428.3 61.55L426.53436 61.55L426.53436 55.2375Q426.53436 54.159374 426.33124 53.628124Q426.1281 53.096874 425.59686 52.784374Q425.08124 52.471874 424.3781 52.471874Q423.2531 52.471874 422.4406 53.190624Q421.6281 53.89375 421.6281 55.878124L421.6281 61.55L419.8625 61.55ZM433.70624 59.971874L433.95624 61.534374Q433.22186 61.690624 432.6281 61.690624Q431.675 61.690624 431.14374 61.39375Q430.6281 61.08125 430.40936 60.596874Q430.1906 60.096874 430.1906 58.51875L430.1906 52.55L428.90936 52.55L428.90936 51.175L430.1906 51.175L430.1906 48.6125L431.9406 47.55L431.9406 51.175L433.70624 51.175L433.70624 52.55L431.9406 52.55L431.9406 58.6125Q431.9406 59.3625 432.03436 59.58125Q432.1281 59.784374 432.33124 59.925Q432.55 60.05 432.9406 60.05Q433.22186 60.05 433.70624 59.971874ZM435.8781 49.253124L435.8781 47.2375L437.64374 47.2375L437.64374 49.253124L435.8781 49.253124ZM435.8781 61.55L435.8781 51.175L437.64374 51.175L437.64374 61.55L435.8781 61.55ZM443.70624 59.971874L443.95624 61.534374Q443.22186 61.690624 442.6281 61.690624Q441.675 61.690624 441.14374 61.39375Q440.6281 61.08125 440.40936 60.596874Q440.1906 60.096874 440.1906 58.51875L440.1906 52.55L438.90936 52.55L438.90936 51.175L440.1906 51.175L440.1906 48.6125L441.9406 47.55L441.9406 51.175L443.70624 51.175L443.70624 52.55L441.9406 52.55L441.9406 58.6125Q441.9406 59.3625 442.03436 59.58125Q442.1281 59.784374 442.33124 59.925Q442.55 60.05 442.9406 60.05Q443.22186 60.05 443.70624 59.971874ZM452.64374 60.26875Q451.65936 61.096874 450.7531 61.440624Q449.84686 61.784374 448.8156 61.784374Q447.1125 61.784374 446.1906 60.95625Q445.26874 60.1125 445.26874 58.815624Q445.26874 58.05 445.6125 57.425Q445.97186 56.8 446.53436 56.425Q447.09686 56.034374 447.8 55.83125Q448.3156 55.70625 449.3625 55.565624Q451.4875 55.315624 452.4875 54.971874Q452.5031 54.6125 452.5031 54.503124Q452.5031 53.440624 452.0031 52.9875Q451.33124 52.39375 450.0031 52.39375Q448.7531 52.39375 448.15936 52.83125Q447.58124 53.26875 447.3 54.378124L445.58124 54.14375Q445.8156 53.034374 446.34686 52.3625Q446.8781 51.675 447.89374 51.315624Q448.90936 50.940624 450.2531 50.940624Q451.58124 50.940624 452.40936 51.253124Q453.2375 51.565624 453.6281 52.05Q454.01874 52.51875 454.175 53.2375Q454.26874 53.690624 454.26874 54.8625L454.26874 57.20625Q454.26874 59.659374 454.3781 60.315624Q454.4875 60.95625 454.83124 61.55L452.9875 61.55Q452.72186 61.003124 452.64374 60.26875ZM452.4875 56.346874Q451.53436 56.7375 449.6125 57.003124Q448.53436 57.159374 448.08124 57.3625Q447.64374 57.55 447.39374 57.925Q447.14374 58.3 447.14374 58.76875Q447.14374 59.471874 447.675 59.940624Q448.20624 60.409374 449.2375 60.409374Q450.2531 60.409374 451.03436 59.971874Q451.83124 59.51875 452.20624 58.753124Q452.4875 58.14375 452.4875 56.9875L452.4875 56.346874ZM451.53436 49.89375L450.1125 49.89375L447.8625 47.159374L450.20624 47.159374L451.53436 49.89375ZM457.33124 61.55L457.33124 59.55L459.33124 59.55L459.33124 61.55Q459.33124 62.659374 458.9406 63.33125Q458.55 64.01875 457.70624 64.37813L457.20624 63.628124Q457.76874 63.39375 458.03436 62.909374Q458.3 62.440624 458.33124 61.55L457.33124 61.55ZM470.4875 61.55L468.8625 61.55L468.8625 47.2375L470.6125 47.2375L470.6125 52.346874Q471.7375 50.940624 473.45624 50.940624Q474.40936 50.940624 475.26874 51.33125Q476.1281 51.721874 476.675 52.425Q477.22186 53.1125 477.53436 54.096874Q477.84686 55.08125 477.84686 56.20625Q477.84686 58.878124 476.53436 60.33125Q475.22186 61.784374 473.3781 61.784374Q471.53436 61.784374 470.4875 60.253124L470.4875 61.55ZM470.47186 56.284374Q470.47186 58.14375 470.97186 58.9875Q471.8156 60.33125 473.22186 60.33125Q474.3781 60.33125 475.20624 59.33125Q476.05 58.33125 476.05 56.346874Q476.05 54.315624 475.2375 53.3625Q474.4406 52.39375 473.3 52.39375Q472.14374 52.39375 471.3 53.39375Q470.47186 54.39375 470.47186 56.284374ZM486.64374 60.26875Q485.65936 61.096874 484.7531 61.440624Q483.84686 61.784374 482.8156 61.784374Q481.1125 61.784374 480.1906 60.95625Q479.26874 60.1125 479.26874 58.815624Q479.26874 58.05 479.6125 57.425Q479.97186 56.8 480.53436 56.425Q481.09686 56.034374 481.8 55.83125Q482.3156 55.70625 483.3625 55.565624Q485.4875 55.315624 486.4875 54.971874Q486.5031 54.6125 486.5031 54.503124Q486.5031 53.440624 486.0031 52.9875Q485.33124 52.39375 484.0031 52.39375Q482.7531 52.39375 482.15936 52.83125Q481.58124 53.26875 481.3 54.378124L479.58124 54.14375Q479.8156 53.034374 480.34686 52.3625Q480.8781 51.675 481.89374 51.315624Q482.90936 50.940624 484.2531 50.940624Q485.58124 50.940624 486.40936 51.253124Q487.2375 51.565624 487.6281 52.05Q488.01874 52.51875 488.175 53.2375Q488.26874 53.690624 488.26874 54.8625L488.26874 57.20625Q488.26874 59.659374 488.3781 60.315624Q488.4875 60.95625 488.83124 61.55L486.9875 61.55Q486.72186 61.003124 486.64374 60.26875ZM486.4875 56.346874Q485.53436 56.7375 483.6125 57.003124Q482.53436 57.159374 482.08124 57.3625Q481.64374 57.55 481.39374 57.925Q481.14374 58.3 481.14374 58.76875Q481.14374 59.471874 481.675 59.940624Q482.20624 60.409374 483.2375 60.409374Q484.2531 60.409374 485.03436 59.971874Q485.83124 59.51875 486.20624 58.753124Q486.4875 58.14375 486.4875 56.9875L486.4875 56.346874ZM490.8625 61.55L490.8625 51.175L492.45624 51.175L492.45624 52.659374Q493.59686 50.940624 495.7531 50.940624Q496.6906 50.940624 497.47186 51.284374Q498.26874 51.6125 498.65936 52.159374Q499.05 52.70625 499.20624 53.45625Q499.3 53.95625 499.3 55.175L499.3 61.55L497.53436 61.55L497.53436 55.2375Q497.53436 54.159374 497.33124 53.628124Q497.1281 53.096874 496.59686 52.784374Q496.08124 52.471874 495.3781 52.471874Q494.2531 52.471874 493.4406 53.190624Q492.6281 53.89375 492.6281 55.878124L492.6281 61.55L490.8625 61.55ZM507.59686 61.55L507.59686 60.2375Q506.6125 61.784374 504.6906 61.784374Q503.45624 61.784374 502.40936 61.096874Q501.3781 60.409374 500.8 59.190624Q500.2375 57.971874 500.2375 56.378124Q500.2375 54.815624 500.7531 53.55Q501.26874 52.284374 502.3 51.6125Q503.34686 50.940624 504.6125 50.940624Q505.55 50.940624 506.28436 51.346874Q507.01874 51.7375 507.4875 52.3625L507.4875 47.2375L509.22186 47.2375L509.22186 61.55L507.59686 61.55ZM502.03436 56.378124Q502.03436 58.3625 502.8781 59.346874Q503.72186 60.33125 504.8625 60.33125Q506.01874 60.33125 506.8156 59.39375Q507.6281 58.45625 507.6281 56.51875Q507.6281 54.39375 506.8 53.39375Q505.9875 52.39375 504.78436 52.39375Q503.6125 52.39375 502.8156 53.3625Q502.03436 54.315624 502.03436 56.378124ZM511.8781 49.253124L511.8781 47.2375L513.64374 47.2375L513.64374 49.253124L511.8781 49.253124ZM511.8781 61.55L511.8781 51.175L513.64374 51.175L513.64374 61.55L511.8781 61.55ZM528.59686 61.55L528.59686 60.2375Q527.6125 61.784374 525.6906 61.784374Q524.45624 61.784374 523.40936 61.096874Q522.3781 60.409374 521.8 59.190624Q521.2375 57.971874 521.2375 56.378124Q521.2375 54.815624 521.7531 53.55Q522.26874 52.284374 523.3 51.6125Q524.34686 50.940624 525.6125 50.940624Q526.55 50.940624 527.28436 51.346874Q528.01874 51.7375 528.4875 52.3625L528.4875 47.2375L530.22186 47.2375L530.22186 61.55L528.59686 61.55ZM523.03436 56.378124Q523.03436 58.3625 523.8781 59.346874Q524.72186 60.33125 525.8625 60.33125Q527.01874 60.33125 527.8156 59.39375Q528.6281 58.45625 528.6281 56.51875Q528.6281 54.39375 527.8 53.39375Q526.9875 52.39375 525.78436 52.39375Q524.6125 52.39375 523.8156 53.3625Q523.03436 54.315624 523.03436 56.378124ZM532.8781 49.253124L532.8781 47.2375L534.64374 47.2375L534.64374 49.253124L532.8781 49.253124ZM532.8781 61.55L532.8781 51.175L534.64374 51.175L534.64374 61.55L532.8781 61.55Z" fill-rule="nonzero"/></svg>